SplineFontDB: 3.0
FontName: PxPlus_IBM_BIOS
FullName: PxPlus IBM BIOS
FamilyName: PxPlus IBM BIOS
Weight: Book
Copyright: Outline (vector) version (c) 2015 VileR
Version: v1.0-2015-11
ItalicAngle: 0
UnderlinePosition: 0
UnderlineWidth: 0
Ascent: 7
Descent: 1
InvalidEm: 0
sfntRevision: 0x00010000
LayerCount: 2
Layer: 0 1 "Back" 1
Layer: 1 1 "Fore" 0
HasVMetrics: 1
XUID: [1021 370 360872465 11938944]
StyleMap: 0x0000
FSType: 0
OS2Version: 4
OS2_WeightWidthSlopeOnly: 0
OS2_UseTypoMetrics: 1
CreationTime: 1444990904
ModificationTime: 1577133633
PfmFamily: 81
TTFWeight: 400
TTFWidth: 5
LineGap: 0
VLineGap: 0
Panose: 0 0 0 9 0 0 0 0 0 0
OS2TypoAscent: 7
OS2TypoAOffset: 0
OS2TypoDescent: -1
OS2TypoDOffset: 0
OS2TypoLinegap: 0
OS2WinAscent: 7
OS2WinAOffset: 0
OS2WinDescent: 1
OS2WinDOffset: 0
HheadAscent: 7
HheadAOffset: 0
HheadDescent: -1
HheadDOffset: 0
OS2SubXSize: 8
OS2SubYSize: 8
OS2SubXOff: 0
OS2SubYOff: 4
OS2SupXSize: 8
OS2SupYSize: 8
OS2SupXOff: 0
OS2SupYOff: 4
OS2StrikeYSize: 1
OS2StrikeYPos: 4
OS2CapHeight: 700
OS2XHeight: 500
OS2Vendor: 'V.R.'
OS2CodePages: 600000bf.dff70000
OS2UnicodeRanges: a0000abf.4000f8fb.00000020.00000000
MarkAttachClasses: 1
DEI: 91125
ShortTable: maxp 16
  1
  0
  759
  128
  32
  0
  0
  2
  0
  0
  0
  0
  0
  0
  0
  0
EndShort
LangName: 1033 "" "" "Regular" "VileR:PxPlus IBM BIOS:v1.0-2015-11" "" "v1.0-2015-11" "" "" "VileR" "VileR" "" "http://int10h.org" "http://int10h.org" "Creative Commons Attribution-ShareAlike 4.0 International" "http://creativecommons.org/licenses/by-sa/4.0/" "" "" "" "PxPlus IBM BIOS"
GaspTable: 1 65535 2 0
Encoding: UnicodeBmp
UnicodeInterp: none
NameList: AGL For New Fonts
DisplaySize: -48
AntiAlias: 1
FitToEm: 0
WinInfo: 9287 37 14
BeginChars: 65537 816

StartChar: .notdef
Encoding: 65536 -1 0
Width: 8
Flags: W
LayerCount: 2
Fore
SplineSet
0 -1 m 1,0,-1
 0 7 l 1,1,-1
 2 7 l 1,2,-1
 2 6 l 1,3,-1
 1 6 l 1,4,-1
 1 5 l 1,5,-1
 3 5 l 1,6,-1
 3 6 l 1,7,-1
 5 6 l 1,8,-1
 5 4 l 1,9,-1
 4 4 l 1,10,-1
 4 3 l 1,11,-1
 3 3 l 1,12,-1
 3 2 l 1,13,-1
 5 2 l 1,14,-1
 5 3 l 1,15,-1
 6 3 l 1,16,-1
 6 4 l 1,17,-1
 7 4 l 1,18,-1
 7 6 l 1,19,-1
 6 6 l 1,20,-1
 6 7 l 1,21,-1
 8 7 l 1,22,-1
 8 -1 l 1,23,-1
 0 -1 l 1,0,-1
3 1 m 1,24,-1
 3 0 l 1,25,-1
 5 0 l 1,26,-1
 5 1 l 1,27,-1
 3 1 l 1,24,-1
EndSplineSet
Validated: 1
EndChar

StartChar: uni000D
Encoding: 13 13 2
Width: 8
GlyphClass: 2
Flags: W
LayerCount: 2
Fore
SplineSet
0 1 m 1,0,-1
 1 1 l 1,1,-1
 1 2 l 1,2,-1
 2 2 l 1,3,-1
 2 7 l 1,4,-1
 8 7 l 1,5,-1
 8 4 l 1,6,-1
 4 4 l 1,7,-1
 4 0 l 1,8,-1
 3 0 l 1,9,-1
 3 -1 l 1,10,-1
 0 -1 l 1,11,-1
 0 1 l 1,0,-1
4 5 m 1,12,-1
 6 5 l 1,13,-1
 6 6 l 1,14,-1
 4 6 l 1,15,-1
 4 5 l 1,12,-1
EndSplineSet
Validated: 1
EndChar

StartChar: uni0001
Encoding: 1 1 3
Width: 8
GlyphClass: 2
Flags: W
LayerCount: 2
Fore
SplineSet
0 0 m 1,0,-1
 0 6 l 1,1,-1
 1 6 l 1,2,-1
 1 0 l 1,3,-1
 0 0 l 1,0,-1
2 2 m 1,4,-1
 2 3 l 1,5,-1
 6 3 l 1,6,-1
 6 2 l 1,7,-1
 5 2 l 1,8,-1
 5 1 l 1,9,-1
 3 1 l 1,10,-1
 3 2 l 1,11,-1
 2 2 l 1,4,-1
2 4 m 1,12,-1
 2 5 l 1,13,-1
 3 5 l 1,14,-1
 3 4 l 1,15,-1
 2 4 l 1,12,-1
6 5 m 1,16,-1
 6 4 l 1,17,-1
 5 4 l 1,18,-1
 5 5 l 1,19,-1
 6 5 l 1,16,-1
8 0 m 1,20,-1
 7 0 l 1,21,-1
 7 6 l 1,22,-1
 8 6 l 1,23,-1
 8 0 l 1,20,-1
1 0 m 1,24,-1
 7 0 l 1,25,-1
 7 -1 l 1,26,-1
 1 -1 l 1,27,-1
 1 0 l 1,24,-1
1 6 m 1,28,-1
 1 7 l 1,29,-1
 7 7 l 1,30,-1
 7 6 l 1,31,-1
 1 6 l 1,28,-1
EndSplineSet
Validated: 5
EndChar

StartChar: uni0002
Encoding: 2 2 4
Width: 8
GlyphClass: 2
Flags: W
LayerCount: 2
Fore
SplineSet
0 0 m 1,0,-1
 0 6 l 1,1,-1
 1 6 l 1,2,-1
 1 7 l 1,3,-1
 7 7 l 1,4,-1
 7 6 l 1,5,-1
 8 6 l 1,6,-1
 8 0 l 1,7,-1
 7 0 l 1,8,-1
 7 -1 l 1,9,-1
 1 -1 l 1,10,-1
 1 0 l 1,11,-1
 0 0 l 1,0,-1
2 2 m 1,12,-1
 3 2 l 1,13,-1
 3 1 l 1,14,-1
 5 1 l 1,15,-1
 5 2 l 1,16,-1
 6 2 l 1,17,-1
 6 3 l 1,18,-1
 2 3 l 1,19,-1
 2 2 l 1,12,-1
2 5 m 1,20,-1
 2 4 l 1,21,-1
 3 4 l 1,22,-1
 3 5 l 1,23,-1
 2 5 l 1,20,-1
6 5 m 1,24,-1
 5 5 l 1,25,-1
 5 4 l 1,26,-1
 6 4 l 1,27,-1
 6 5 l 1,24,-1
EndSplineSet
Validated: 1
EndChar

StartChar: uni0003
Encoding: 3 3 5
Width: 8
GlyphClass: 2
Flags: W
LayerCount: 2
Fore
SplineSet
0 3 m 1,0,-1
 0 6 l 1,1,-1
 1 6 l 1,2,-1
 1 7 l 1,3,-1
 3 7 l 1,4,-1
 3 6 l 1,5,-1
 4 6 l 1,6,-1
 4 7 l 1,7,-1
 6 7 l 1,8,-1
 6 6 l 1,9,-1
 7 6 l 1,10,-1
 7 3 l 1,11,-1
 6 3 l 1,12,-1
 6 2 l 1,13,-1
 5 2 l 1,14,-1
 5 1 l 1,15,-1
 4 1 l 1,16,-1
 4 0 l 1,17,-1
 3 0 l 1,18,-1
 3 1 l 1,19,-1
 2 1 l 1,20,-1
 2 2 l 1,21,-1
 1 2 l 1,22,-1
 1 3 l 1,23,-1
 0 3 l 1,0,-1
EndSplineSet
Validated: 1
EndChar

StartChar: uni0004
Encoding: 4 4 6
Width: 8
GlyphClass: 2
Flags: W
LayerCount: 2
Fore
SplineSet
0 3 m 1,0,-1
 0 4 l 1,1,-1
 1 4 l 1,2,-1
 1 5 l 1,3,-1
 2 5 l 1,4,-1
 2 6 l 1,5,-1
 3 6 l 1,6,-1
 3 7 l 1,7,-1
 4 7 l 1,8,-1
 4 6 l 1,9,-1
 5 6 l 1,10,-1
 5 5 l 1,11,-1
 6 5 l 1,12,-1
 6 4 l 1,13,-1
 7 4 l 1,14,-1
 7 3 l 1,15,-1
 6 3 l 1,16,-1
 6 2 l 1,17,-1
 5 2 l 1,18,-1
 5 1 l 1,19,-1
 4 1 l 1,20,-1
 4 0 l 1,21,-1
 3 0 l 1,22,-1
 3 1 l 1,23,-1
 2 1 l 1,24,-1
 2 2 l 1,25,-1
 1 2 l 1,26,-1
 1 3 l 1,27,-1
 0 3 l 1,0,-1
EndSplineSet
Validated: 1
EndChar

StartChar: uni0005
Encoding: 5 5 7
Width: 8
GlyphClass: 2
Flags: W
LayerCount: 2
Fore
SplineSet
0 2 m 1,0,-1
 0 4 l 1,1,-1
 2 4 l 1,2,-1
 2 5 l 1,3,-1
 1 5 l 1,4,-1
 1 6 l 1,5,-1
 2 6 l 1,6,-1
 2 7 l 1,7,-1
 5 7 l 1,8,-1
 5 6 l 1,9,-1
 6 6 l 1,10,-1
 6 5 l 1,11,-1
 5 5 l 1,12,-1
 5 4 l 1,13,-1
 7 4 l 1,14,-1
 7 2 l 1,15,-1
 6 2 l 1,16,-1
 6 1 l 1,17,-1
 5 1 l 1,18,-1
 5 0 l 1,19,-1
 6 0 l 1,20,-1
 6 -1 l 1,21,-1
 1 -1 l 1,22,-1
 1 0 l 1,23,-1
 2 0 l 1,24,-1
 2 1 l 1,25,-1
 1 1 l 1,26,-1
 1 2 l 1,27,-1
 0 2 l 1,0,-1
EndSplineSet
Validated: 1
EndChar

StartChar: uni0006
Encoding: 6 6 8
Width: 8
GlyphClass: 2
Flags: W
LayerCount: 2
Fore
SplineSet
0 2 m 1,0,-1
 0 3 l 1,1,-1
 1 3 l 1,2,-1
 1 4 l 1,3,-1
 2 4 l 1,4,-1
 2 5 l 1,5,-1
 3 5 l 1,6,-1
 3 7 l 1,7,-1
 4 7 l 1,8,-1
 4 5 l 1,9,-1
 5 5 l 1,10,-1
 5 4 l 1,11,-1
 6 4 l 1,12,-1
 6 3 l 1,13,-1
 7 3 l 1,14,-1
 7 2 l 1,15,-1
 6 2 l 1,16,-1
 6 1 l 1,17,-1
 5 1 l 1,18,-1
 5 0 l 1,19,-1
 6 0 l 1,20,-1
 6 -1 l 1,21,-1
 1 -1 l 1,22,-1
 1 0 l 1,23,-1
 2 0 l 1,24,-1
 2 1 l 1,25,-1
 1 1 l 1,26,-1
 1 2 l 1,27,-1
 0 2 l 1,0,-1
EndSplineSet
Validated: 1
EndChar

StartChar: uni0007
Encoding: 7 7 9
Width: 8
GlyphClass: 2
Flags: W
LayerCount: 2
Fore
SplineSet
5 2 m 1,0,-1
 5 1 l 1,1,-1
 3 1 l 1,2,-1
 3 2 l 1,3,-1
 2 2 l 1,4,-1
 2 4 l 1,5,-1
 3 4 l 1,6,-1
 3 5 l 1,7,-1
 5 5 l 1,8,-1
 5 4 l 1,9,-1
 6 4 l 1,10,-1
 6 2 l 1,11,-1
 5 2 l 1,0,-1
EndSplineSet
Validated: 1
EndChar

StartChar: uni0008
Encoding: 8 8 10
Width: 8
GlyphClass: 2
Flags: W
LayerCount: 2
Fore
SplineSet
0 -1 m 1,0,-1
 0 7 l 1,1,-1
 8 7 l 1,2,-1
 8 -1 l 1,3,-1
 0 -1 l 1,0,-1
2 2 m 1,4,-1
 3 2 l 1,5,-1
 3 1 l 1,6,-1
 5 1 l 1,7,-1
 5 2 l 1,8,-1
 6 2 l 1,9,-1
 6 4 l 1,10,-1
 5 4 l 1,11,-1
 5 5 l 1,12,-1
 3 5 l 1,13,-1
 3 4 l 1,14,-1
 2 4 l 1,15,-1
 2 2 l 1,4,-1
EndSplineSet
Validated: 1
EndChar

StartChar: uni0009
Encoding: 9 9 11
Width: 8
GlyphClass: 2
Flags: W
LayerCount: 2
Fore
SplineSet
1 1 m 1,0,-1
 1 5 l 1,1,-1
 2 5 l 1,2,-1
 2 6 l 1,3,-1
 6 6 l 1,4,-1
 6 5 l 1,5,-1
 7 5 l 1,6,-1
 7 1 l 1,7,-1
 6 1 l 1,8,-1
 6 0 l 1,9,-1
 2 0 l 1,10,-1
 2 1 l 1,11,-1
 1 1 l 1,0,-1
2 2 m 1,12,-1
 3 2 l 1,13,-1
 3 1 l 1,14,-1
 5 1 l 1,15,-1
 5 2 l 1,16,-1
 6 2 l 1,17,-1
 6 4 l 1,18,-1
 5 4 l 1,19,-1
 5 5 l 1,20,-1
 3 5 l 1,21,-1
 3 4 l 1,22,-1
 2 4 l 1,23,-1
 2 2 l 1,12,-1
EndSplineSet
Validated: 1
EndChar

StartChar: uni000A
Encoding: 10 10 12
Width: 8
GlyphClass: 2
Flags: W
LayerCount: 2
Fore
SplineSet
0 -1 m 1,0,-1
 0 7 l 1,1,-1
 8 7 l 1,2,-1
 8 -1 l 1,3,-1
 0 -1 l 1,0,-1
2 1 m 1,4,-1
 2 0 l 1,5,-1
 6 0 l 1,6,-1
 6 1 l 1,7,-1
 7 1 l 1,8,-1
 7 5 l 1,9,-1
 6 5 l 1,10,-1
 6 6 l 1,11,-1
 2 6 l 1,12,-1
 2 5 l 1,13,-1
 1 5 l 1,14,-1
 1 1 l 1,15,-1
 2 1 l 1,4,-1
2 2 m 1,16,-1
 2 4 l 1,17,-1
 3 4 l 1,18,-1
 3 5 l 1,19,-1
 5 5 l 1,20,-1
 5 4 l 1,21,-1
 6 4 l 1,22,-1
 6 2 l 1,23,-1
 5 2 l 1,24,-1
 5 1 l 1,25,-1
 3 1 l 1,26,-1
 3 2 l 1,27,-1
 2 2 l 1,16,-1
EndSplineSet
Validated: 1
EndChar

StartChar: uni000B
Encoding: 11 11 13
Width: 8
GlyphClass: 2
Flags: W
LayerCount: 2
Fore
SplineSet
0 0 m 1,0,-1
 0 3 l 1,1,-1
 1 3 l 1,2,-1
 1 4 l 1,3,-1
 4 4 l 1,4,-1
 4 5 l 1,5,-1
 5 5 l 1,6,-1
 5 6 l 1,7,-1
 4 6 l 1,8,-1
 4 7 l 1,9,-1
 8 7 l 1,10,-1
 8 3 l 1,11,-1
 7 3 l 1,12,-1
 7 4 l 1,13,-1
 6 4 l 1,14,-1
 6 0 l 1,15,-1
 5 0 l 1,16,-1
 5 -1 l 1,17,-1
 1 -1 l 1,18,-1
 1 0 l 1,19,-1
 0 0 l 1,0,-1
2 0 m 1,20,-1
 4 0 l 1,21,-1
 4 3 l 1,22,-1
 2 3 l 1,23,-1
 2 0 l 1,20,-1
EndSplineSet
Validated: 1
EndChar

StartChar: uni000C
Encoding: 12 12 14
Width: 8
GlyphClass: 2
Flags: W
LayerCount: 2
Fore
SplineSet
2 2 m 1,0,-1
 2 3 l 1,1,-1
 1 3 l 1,2,-1
 1 6 l 1,3,-1
 2 6 l 1,4,-1
 2 7 l 1,5,-1
 6 7 l 1,6,-1
 6 6 l 1,7,-1
 7 6 l 1,8,-1
 7 3 l 1,9,-1
 6 3 l 1,10,-1
 6 2 l 1,11,-1
 5 2 l 1,12,-1
 5 1 l 1,13,-1
 7 1 l 1,14,-1
 7 0 l 1,15,-1
 5 0 l 1,16,-1
 5 -1 l 1,17,-1
 3 -1 l 1,18,-1
 3 0 l 1,19,-1
 1 0 l 1,20,-1
 1 1 l 1,21,-1
 3 1 l 1,22,-1
 3 2 l 1,23,-1
 2 2 l 1,0,-1
3 3 m 1,24,-1
 5 3 l 1,25,-1
 5 6 l 1,26,-1
 3 6 l 1,27,-1
 3 3 l 1,24,-1
EndSplineSet
Validated: 1
EndChar

StartChar: uni000E
Encoding: 14 14 15
Width: 8
GlyphClass: 2
Flags: W
LayerCount: 2
Fore
SplineSet
0 1 m 1,0,-1
 1 1 l 1,1,-1
 1 7 l 1,2,-1
 8 7 l 1,3,-1
 8 1 l 1,4,-1
 7 1 l 1,5,-1
 7 0 l 1,6,-1
 5 0 l 1,7,-1
 5 2 l 1,8,-1
 6 2 l 1,9,-1
 6 4 l 1,10,-1
 3 4 l 1,11,-1
 3 0 l 1,12,-1
 2 0 l 1,13,-1
 2 -1 l 1,14,-1
 0 -1 l 1,15,-1
 0 1 l 1,0,-1
3 5 m 1,16,-1
 6 5 l 1,17,-1
 6 6 l 1,18,-1
 3 6 l 1,19,-1
 3 5 l 1,16,-1
EndSplineSet
Validated: 1
EndChar

StartChar: uni000F
Encoding: 15 15 16
Width: 8
GlyphClass: 2
Flags: W
LayerCount: 2
Fore
SplineSet
0 -1 m 1,0,-1
 0 0 l 1,1,-1
 1 0 l 1,2,-1
 1 -1 l 1,3,-1
 0 -1 l 1,0,-1
0 2 m 1,4,-1
 0 4 l 1,5,-1
 2 4 l 1,6,-1
 2 5 l 1,7,-1
 3 5 l 1,8,-1
 3 7 l 1,9,-1
 5 7 l 1,10,-1
 5 5 l 1,11,-1
 6 5 l 1,12,-1
 6 4 l 1,13,-1
 8 4 l 1,14,-1
 8 2 l 1,15,-1
 6 2 l 1,16,-1
 6 1 l 1,17,-1
 5 1 l 1,18,-1
 5 -1 l 1,19,-1
 3 -1 l 1,20,-1
 3 1 l 1,21,-1
 2 1 l 1,22,-1
 2 2 l 1,23,-1
 0 2 l 1,4,-1
0 6 m 1,24,-1
 0 7 l 1,25,-1
 1 7 l 1,26,-1
 1 6 l 1,27,-1
 0 6 l 1,24,-1
2 1 m 1,28,-1
 2 0 l 1,29,-1
 1 0 l 1,30,-1
 1 1 l 1,31,-1
 2 1 l 1,28,-1
2 5 m 1,32,-1
 1 5 l 1,33,-1
 1 6 l 1,34,-1
 2 6 l 1,35,-1
 2 5 l 1,32,-1
6 1 m 1,36,-1
 7 1 l 1,37,-1
 7 0 l 1,38,-1
 6 0 l 1,39,-1
 6 1 l 1,36,-1
6 5 m 1,40,-1
 6 6 l 1,41,-1
 7 6 l 1,42,-1
 7 5 l 1,43,-1
 6 5 l 1,40,-1
8 0 m 1,44,-1
 8 -1 l 1,45,-1
 7 -1 l 1,46,-1
 7 0 l 1,47,-1
 8 0 l 1,44,-1
8 7 m 1,48,-1
 8 6 l 1,49,-1
 7 6 l 1,50,-1
 7 7 l 1,51,-1
 8 7 l 1,48,-1
3 2 m 1,52,-1
 5 2 l 1,53,-1
 5 4 l 1,54,-1
 3 4 l 1,55,-1
 3 2 l 1,52,-1
EndSplineSet
Validated: 5
EndChar

StartChar: uni0010
Encoding: 16 16 17
Width: 8
GlyphClass: 2
Flags: W
LayerCount: 2
Fore
SplineSet
0 0 m 1,0,-1
 0 7 l 1,1,-1
 1 7 l 1,2,-1
 1 6 l 1,3,-1
 3 6 l 1,4,-1
 3 5 l 1,5,-1
 5 5 l 1,6,-1
 5 4 l 1,7,-1
 7 4 l 1,8,-1
 7 3 l 1,9,-1
 5 3 l 1,10,-1
 5 2 l 1,11,-1
 3 2 l 1,12,-1
 3 1 l 1,13,-1
 1 1 l 1,14,-1
 1 0 l 1,15,-1
 0 0 l 1,0,-1
EndSplineSet
Validated: 1
EndChar

StartChar: uni0011
Encoding: 17 17 18
Width: 8
GlyphClass: 2
Flags: W
LayerCount: 2
Fore
SplineSet
0 3 m 1,0,-1
 0 4 l 1,1,-1
 2 4 l 1,2,-1
 2 5 l 1,3,-1
 4 5 l 1,4,-1
 4 6 l 1,5,-1
 6 6 l 1,6,-1
 6 7 l 1,7,-1
 7 7 l 1,8,-1
 7 0 l 1,9,-1
 6 0 l 1,10,-1
 6 1 l 1,11,-1
 4 1 l 1,12,-1
 4 2 l 1,13,-1
 2 2 l 1,14,-1
 2 3 l 1,15,-1
 0 3 l 1,0,-1
EndSplineSet
Validated: 1
EndChar

StartChar: uni0012
Encoding: 18 18 19
Width: 8
GlyphClass: 2
Flags: W
LayerCount: 2
Fore
SplineSet
2 1 m 1,0,-1
 1 1 l 1,1,-1
 1 2 l 1,2,-1
 3 2 l 1,3,-1
 3 4 l 1,4,-1
 1 4 l 1,5,-1
 1 5 l 1,6,-1
 2 5 l 1,7,-1
 2 6 l 1,8,-1
 3 6 l 1,9,-1
 3 7 l 1,10,-1
 5 7 l 1,11,-1
 5 6 l 1,12,-1
 6 6 l 1,13,-1
 6 5 l 1,14,-1
 7 5 l 1,15,-1
 7 4 l 1,16,-1
 5 4 l 1,17,-1
 5 2 l 1,18,-1
 7 2 l 1,19,-1
 7 1 l 1,20,-1
 6 1 l 1,21,-1
 6 0 l 1,22,-1
 5 0 l 1,23,-1
 5 -1 l 1,24,-1
 3 -1 l 1,25,-1
 3 0 l 1,26,-1
 2 0 l 1,27,-1
 2 1 l 1,0,-1
EndSplineSet
Validated: 1
EndChar

StartChar: uni0013
Encoding: 19 19 20
Width: 8
GlyphClass: 2
Flags: W
LayerCount: 2
Fore
SplineSet
1 0 m 1,0,-1
 1 1 l 1,1,-1
 3 1 l 1,2,-1
 3 0 l 1,3,-1
 1 0 l 1,0,-1
1 2 m 1,4,-1
 1 7 l 1,5,-1
 3 7 l 1,6,-1
 3 2 l 1,7,-1
 1 2 l 1,4,-1
5 0 m 1,8,-1
 5 1 l 1,9,-1
 7 1 l 1,10,-1
 7 0 l 1,11,-1
 5 0 l 1,8,-1
5 2 m 1,12,-1
 5 7 l 1,13,-1
 7 7 l 1,14,-1
 7 2 l 1,15,-1
 5 2 l 1,12,-1
EndSplineSet
Validated: 1
EndChar

StartChar: uni0014
Encoding: 20 20 21
Width: 8
GlyphClass: 2
Flags: W
LayerCount: 2
Fore
SplineSet
8 0 m 1,0,-1
 6 0 l 1,1,-1
 6 6 l 1,2,-1
 5 6 l 1,3,-1
 5 0 l 1,4,-1
 3 0 l 1,5,-1
 3 3 l 1,6,-1
 1 3 l 1,7,-1
 1 4 l 1,8,-1
 0 4 l 1,9,-1
 0 6 l 1,10,-1
 1 6 l 1,11,-1
 1 7 l 1,12,-1
 8 7 l 1,13,-1
 8 0 l 1,0,-1
2 4 m 1,14,-1
 3 4 l 1,15,-1
 3 6 l 1,16,-1
 2 6 l 1,17,-1
 2 4 l 1,14,-1
EndSplineSet
Validated: 1
EndChar

StartChar: uni0015
Encoding: 21 21 22
Width: 8
GlyphClass: 2
Flags: W
LayerCount: 2
Fore
SplineSet
0 0 m 1,0,-1
 0 1 l 1,1,-1
 2 1 l 1,2,-1
 2 0 l 1,3,-1
 4 0 l 1,4,-1
 4 1 l 1,5,-1
 2 1 l 1,6,-1
 2 2 l 1,7,-1
 1 2 l 1,8,-1
 1 4 l 1,9,-1
 2 4 l 1,10,-1
 2 5 l 1,11,-1
 1 5 l 1,12,-1
 1 6 l 1,13,-1
 2 6 l 1,14,-1
 2 7 l 1,15,-1
 7 7 l 1,16,-1
 7 6 l 1,17,-1
 8 6 l 1,18,-1
 8 5 l 1,19,-1
 6 5 l 1,20,-1
 6 6 l 1,21,-1
 3 6 l 1,22,-1
 3 5 l 1,23,-1
 5 5 l 1,24,-1
 5 4 l 1,25,-1
 6 4 l 1,26,-1
 6 2 l 1,27,-1
 5 2 l 1,28,-1
 5 1 l 1,29,-1
 6 1 l 1,30,-1
 6 0 l 1,31,-1
 5 0 l 1,32,-1
 5 -1 l 1,33,-1
 1 -1 l 1,34,-1
 1 0 l 1,35,-1
 0 0 l 1,0,-1
4 2 m 1,36,-1
 4 4 l 1,37,-1
 3 4 l 1,38,-1
 3 2 l 1,39,-1
 4 2 l 1,36,-1
EndSplineSet
Validated: 5
EndChar

StartChar: uni0016
Encoding: 22 22 23
Width: 8
GlyphClass: 2
Flags: W
LayerCount: 2
Fore
SplineSet
1 0 m 1,0,-1
 1 3 l 1,1,-1
 7 3 l 1,2,-1
 7 0 l 1,3,-1
 1 0 l 1,0,-1
EndSplineSet
Validated: 1
EndChar

StartChar: uni0017
Encoding: 23 23 24
Width: 8
GlyphClass: 2
Flags: W
LayerCount: 2
Fore
SplineSet
0 -1 m 1,0,-1
 0 0 l 1,1,-1
 3 0 l 1,2,-1
 3 1 l 1,3,-1
 2 1 l 1,4,-1
 2 2 l 1,5,-1
 1 2 l 1,6,-1
 1 3 l 1,7,-1
 3 3 l 1,8,-1
 3 4 l 1,9,-1
 1 4 l 1,10,-1
 1 5 l 1,11,-1
 2 5 l 1,12,-1
 2 6 l 1,13,-1
 3 6 l 1,14,-1
 3 7 l 1,15,-1
 5 7 l 1,16,-1
 5 6 l 1,17,-1
 6 6 l 1,18,-1
 6 5 l 1,19,-1
 7 5 l 1,20,-1
 7 4 l 1,21,-1
 5 4 l 1,22,-1
 5 3 l 1,23,-1
 7 3 l 1,24,-1
 7 2 l 1,25,-1
 6 2 l 1,26,-1
 6 1 l 1,27,-1
 5 1 l 1,28,-1
 5 0 l 1,29,-1
 8 0 l 1,30,-1
 8 -1 l 1,31,-1
 0 -1 l 1,0,-1
EndSplineSet
Validated: 1
EndChar

StartChar: uni0018
Encoding: 24 24 25
Width: 8
GlyphClass: 2
Flags: W
LayerCount: 2
Fore
SplineSet
1 4 m 1,0,-1
 1 5 l 1,1,-1
 2 5 l 1,2,-1
 2 6 l 1,3,-1
 3 6 l 1,4,-1
 3 7 l 1,5,-1
 5 7 l 1,6,-1
 5 6 l 1,7,-1
 6 6 l 1,8,-1
 6 5 l 1,9,-1
 7 5 l 1,10,-1
 7 4 l 1,11,-1
 5 4 l 1,12,-1
 5 0 l 1,13,-1
 3 0 l 1,14,-1
 3 4 l 1,15,-1
 1 4 l 1,0,-1
EndSplineSet
Validated: 1
EndChar

StartChar: uni0019
Encoding: 25 25 26
Width: 8
GlyphClass: 2
Flags: W
LayerCount: 2
Fore
SplineSet
1 2 m 1,0,-1
 1 3 l 1,1,-1
 3 3 l 1,2,-1
 3 7 l 1,3,-1
 5 7 l 1,4,-1
 5 3 l 1,5,-1
 7 3 l 1,6,-1
 7 2 l 1,7,-1
 6 2 l 1,8,-1
 6 1 l 1,9,-1
 5 1 l 1,10,-1
 5 0 l 1,11,-1
 3 0 l 1,12,-1
 3 1 l 1,13,-1
 2 1 l 1,14,-1
 2 2 l 1,15,-1
 1 2 l 1,0,-1
EndSplineSet
Validated: 1
EndChar

StartChar: uni001A
Encoding: 26 26 27
Width: 8
GlyphClass: 2
Flags: W
LayerCount: 2
Fore
SplineSet
0 3 m 1,0,-1
 0 4 l 1,1,-1
 4 4 l 1,2,-1
 4 5 l 1,3,-1
 3 5 l 1,4,-1
 3 6 l 1,5,-1
 5 6 l 1,6,-1
 5 5 l 1,7,-1
 6 5 l 1,8,-1
 6 4 l 1,9,-1
 7 4 l 1,10,-1
 7 3 l 1,11,-1
 6 3 l 1,12,-1
 6 2 l 1,13,-1
 5 2 l 1,14,-1
 5 1 l 1,15,-1
 3 1 l 1,16,-1
 3 2 l 1,17,-1
 4 2 l 1,18,-1
 4 3 l 1,19,-1
 0 3 l 1,0,-1
EndSplineSet
Validated: 1
EndChar

StartChar: uni001B
Encoding: 27 27 28
Width: 8
GlyphClass: 2
Flags: W
LayerCount: 2
Fore
SplineSet
0 3 m 1,0,-1
 0 4 l 1,1,-1
 1 4 l 1,2,-1
 1 5 l 1,3,-1
 2 5 l 1,4,-1
 2 6 l 1,5,-1
 4 6 l 1,6,-1
 4 5 l 1,7,-1
 3 5 l 1,8,-1
 3 4 l 1,9,-1
 7 4 l 1,10,-1
 7 3 l 1,11,-1
 3 3 l 1,12,-1
 3 2 l 1,13,-1
 4 2 l 1,14,-1
 4 1 l 1,15,-1
 2 1 l 1,16,-1
 2 2 l 1,17,-1
 1 2 l 1,18,-1
 1 3 l 1,19,-1
 0 3 l 1,0,-1
EndSplineSet
Validated: 1
EndChar

StartChar: uni001C
Encoding: 28 28 29
Width: 8
GlyphClass: 2
Flags: W
LayerCount: 2
Fore
SplineSet
0 1 m 1,0,-1
 0 5 l 1,1,-1
 2 5 l 1,2,-1
 2 2 l 1,3,-1
 7 2 l 1,4,-1
 7 1 l 1,5,-1
 0 1 l 1,0,-1
EndSplineSet
Validated: 1
EndChar

StartChar: uni001D
Encoding: 29 29 30
Width: 8
GlyphClass: 2
Flags: W
LayerCount: 2
Fore
SplineSet
0 3 m 1,0,-1
 0 4 l 1,1,-1
 1 4 l 1,2,-1
 1 5 l 1,3,-1
 2 5 l 1,4,-1
 2 6 l 1,5,-1
 3 6 l 1,6,-1
 3 4 l 1,7,-1
 5 4 l 1,8,-1
 5 6 l 1,9,-1
 6 6 l 1,10,-1
 6 5 l 1,11,-1
 7 5 l 1,12,-1
 7 4 l 1,13,-1
 8 4 l 1,14,-1
 8 3 l 1,15,-1
 7 3 l 1,16,-1
 7 2 l 1,17,-1
 6 2 l 1,18,-1
 6 1 l 1,19,-1
 5 1 l 1,20,-1
 5 3 l 1,21,-1
 3 3 l 1,22,-1
 3 1 l 1,23,-1
 2 1 l 1,24,-1
 2 2 l 1,25,-1
 1 2 l 1,26,-1
 1 3 l 1,27,-1
 0 3 l 1,0,-1
EndSplineSet
Validated: 1
EndChar

StartChar: uni001E
Encoding: 30 30 31
Width: 8
GlyphClass: 2
Flags: W
LayerCount: 2
Fore
SplineSet
0 1 m 1,0,-1
 0 3 l 1,1,-1
 1 3 l 1,2,-1
 1 4 l 1,3,-1
 2 4 l 1,4,-1
 2 5 l 1,5,-1
 3 5 l 1,6,-1
 3 6 l 1,7,-1
 5 6 l 1,8,-1
 5 5 l 1,9,-1
 6 5 l 1,10,-1
 6 4 l 1,11,-1
 7 4 l 1,12,-1
 7 3 l 1,13,-1
 8 3 l 1,14,-1
 8 1 l 1,15,-1
 0 1 l 1,0,-1
EndSplineSet
Validated: 1
EndChar

StartChar: uni001F
Encoding: 31 31 32
Width: 8
GlyphClass: 2
Flags: W
LayerCount: 2
Fore
SplineSet
0 4 m 1,0,-1
 0 6 l 1,1,-1
 8 6 l 1,2,-1
 8 4 l 1,3,-1
 7 4 l 1,4,-1
 7 3 l 1,5,-1
 6 3 l 1,6,-1
 6 2 l 1,7,-1
 5 2 l 1,8,-1
 5 1 l 1,9,-1
 3 1 l 1,10,-1
 3 2 l 1,11,-1
 2 2 l 1,12,-1
 2 3 l 1,13,-1
 1 3 l 1,14,-1
 1 4 l 1,15,-1
 0 4 l 1,0,-1
EndSplineSet
Validated: 1
EndChar

StartChar: exclam
Encoding: 33 33 34
Width: 8
GlyphClass: 2
Flags: W
LayerCount: 2
Fore
SplineSet
1 4 m 1,0,-1
 1 6 l 1,1,-1
 2 6 l 1,2,-1
 2 7 l 1,3,-1
 4 7 l 1,4,-1
 4 6 l 1,5,-1
 5 6 l 1,6,-1
 5 4 l 1,7,-1
 4 4 l 1,8,-1
 4 2 l 1,9,-1
 2 2 l 1,10,-1
 2 4 l 1,11,-1
 1 4 l 1,0,-1
2 0 m 1,12,-1
 2 1 l 1,13,-1
 4 1 l 1,14,-1
 4 0 l 1,15,-1
 2 0 l 1,12,-1
EndSplineSet
Validated: 1
EndChar

StartChar: quotedbl
Encoding: 34 34 35
Width: 8
GlyphClass: 2
Flags: W
LayerCount: 2
Fore
SplineSet
4 4 m 1,0,-1
 4 7 l 1,1,-1
 6 7 l 1,2,-1
 6 4 l 1,3,-1
 4 4 l 1,0,-1
1 4 m 1,4,-1
 1 7 l 1,5,-1
 3 7 l 1,6,-1
 3 4 l 1,7,-1
 1 4 l 1,4,-1
EndSplineSet
Validated: 1
EndChar

StartChar: numbersign
Encoding: 35 35 36
Width: 8
GlyphClass: 2
Flags: W
LayerCount: 2
Fore
SplineSet
0 2 m 1,0,-1
 0 3 l 1,1,-1
 1 3 l 1,2,-1
 1 4 l 1,3,-1
 0 4 l 1,4,-1
 0 5 l 1,5,-1
 1 5 l 1,6,-1
 1 7 l 1,7,-1
 3 7 l 1,8,-1
 3 5 l 1,9,-1
 4 5 l 1,10,-1
 4 7 l 1,11,-1
 6 7 l 1,12,-1
 6 5 l 1,13,-1
 7 5 l 1,14,-1
 7 4 l 1,15,-1
 6 4 l 1,16,-1
 6 3 l 1,17,-1
 7 3 l 1,18,-1
 7 2 l 1,19,-1
 6 2 l 1,20,-1
 6 0 l 1,21,-1
 4 0 l 1,22,-1
 4 2 l 1,23,-1
 3 2 l 1,24,-1
 3 0 l 1,25,-1
 1 0 l 1,26,-1
 1 2 l 1,27,-1
 0 2 l 1,0,-1
4 4 m 1,28,-1
 3 4 l 1,29,-1
 3 3 l 1,30,-1
 4 3 l 1,31,-1
 4 4 l 1,28,-1
EndSplineSet
Validated: 1
EndChar

StartChar: dollar
Encoding: 36 36 37
Width: 8
GlyphClass: 2
Flags: W
LayerCount: 2
Fore
SplineSet
0 1 m 1,0,-1
 0 2 l 1,1,-1
 4 2 l 1,2,-1
 4 3 l 1,3,-1
 1 3 l 1,4,-1
 1 4 l 1,5,-1
 0 4 l 1,6,-1
 0 5 l 1,7,-1
 1 5 l 1,8,-1
 1 6 l 1,9,-1
 2 6 l 1,10,-1
 2 7 l 1,11,-1
 4 7 l 1,12,-1
 4 6 l 1,13,-1
 6 6 l 1,14,-1
 6 5 l 1,15,-1
 2 5 l 1,16,-1
 2 4 l 1,17,-1
 5 4 l 1,18,-1
 5 3 l 1,19,-1
 6 3 l 1,20,-1
 6 2 l 1,21,-1
 5 2 l 1,22,-1
 5 1 l 1,23,-1
 4 1 l 1,24,-1
 4 0 l 1,25,-1
 2 0 l 1,26,-1
 2 1 l 1,27,-1
 0 1 l 1,0,-1
EndSplineSet
Validated: 1
EndChar

StartChar: percent
Encoding: 37 37 38
Width: 8
GlyphClass: 2
Flags: W
LayerCount: 2
Fore
SplineSet
0 0 m 1,0,-1
 0 1 l 1,1,-1
 1 1 l 1,2,-1
 1 2 l 1,3,-1
 2 2 l 1,4,-1
 2 3 l 1,5,-1
 3 3 l 1,6,-1
 3 4 l 1,7,-1
 4 4 l 1,8,-1
 4 5 l 1,9,-1
 5 5 l 1,10,-1
 5 6 l 1,11,-1
 7 6 l 1,12,-1
 7 5 l 1,13,-1
 6 5 l 1,14,-1
 6 4 l 1,15,-1
 5 4 l 1,16,-1
 5 3 l 1,17,-1
 4 3 l 1,18,-1
 4 2 l 1,19,-1
 3 2 l 1,20,-1
 3 1 l 1,21,-1
 2 1 l 1,22,-1
 2 0 l 1,23,-1
 0 0 l 1,0,-1
0 4 m 1,24,-1
 0 6 l 1,25,-1
 2 6 l 1,26,-1
 2 4 l 1,27,-1
 0 4 l 1,24,-1
5 2 m 1,28,-1
 7 2 l 1,29,-1
 7 0 l 1,30,-1
 5 0 l 1,31,-1
 5 2 l 1,28,-1
EndSplineSet
Validated: 1
EndChar

StartChar: ampersand
Encoding: 38 38 39
Width: 8
GlyphClass: 2
Flags: W
LayerCount: 2
Fore
SplineSet
0 1 m 1,0,-1
 0 3 l 1,1,-1
 1 3 l 1,2,-1
 1 4 l 1,3,-1
 2 4 l 1,4,-1
 2 5 l 1,5,-1
 1 5 l 1,6,-1
 1 6 l 1,7,-1
 2 6 l 1,8,-1
 2 7 l 1,9,-1
 5 7 l 1,10,-1
 5 6 l 1,11,-1
 6 6 l 1,12,-1
 6 5 l 1,13,-1
 5 5 l 1,14,-1
 5 4 l 1,15,-1
 4 4 l 1,16,-1
 4 3 l 1,17,-1
 5 3 l 1,18,-1
 5 4 l 1,19,-1
 7 4 l 1,20,-1
 7 3 l 1,21,-1
 6 3 l 1,22,-1
 6 1 l 1,23,-1
 7 1 l 1,24,-1
 7 0 l 1,25,-1
 5 0 l 1,26,-1
 5 1 l 1,27,-1
 4 1 l 1,28,-1
 4 2 l 1,29,-1
 3 2 l 1,30,-1
 3 3 l 1,31,-1
 2 3 l 1,32,-1
 2 1 l 1,33,-1
 4 1 l 1,34,-1
 4 0 l 1,35,-1
 1 0 l 1,36,-1
 1 1 l 1,37,-1
 0 1 l 1,0,-1
4 5 m 1,38,-1
 4 6 l 1,39,-1
 3 6 l 1,40,-1
 3 5 l 1,41,-1
 4 5 l 1,38,-1
EndSplineSet
Validated: 5
EndChar

StartChar: quotesingle
Encoding: 39 39 40
Width: 8
GlyphClass: 2
Flags: W
LayerCount: 2
Fore
SplineSet
0 4 m 1,0,-1
 0 5 l 1,1,-1
 1 5 l 1,2,-1
 1 7 l 1,3,-1
 3 7 l 1,4,-1
 3 5 l 1,5,-1
 2 5 l 1,6,-1
 2 4 l 1,7,-1
 0 4 l 1,0,-1
EndSplineSet
Validated: 1
EndChar

StartChar: parenleft
Encoding: 40 40 41
Width: 8
GlyphClass: 2
Flags: W
LayerCount: 2
Fore
SplineSet
1 2 m 1,0,-1
 1 5 l 1,1,-1
 2 5 l 1,2,-1
 2 6 l 1,3,-1
 3 6 l 1,4,-1
 3 7 l 1,5,-1
 5 7 l 1,6,-1
 5 6 l 1,7,-1
 4 6 l 1,8,-1
 4 5 l 1,9,-1
 3 5 l 1,10,-1
 3 2 l 1,11,-1
 4 2 l 1,12,-1
 4 1 l 1,13,-1
 5 1 l 1,14,-1
 5 0 l 1,15,-1
 3 0 l 1,16,-1
 3 1 l 1,17,-1
 2 1 l 1,18,-1
 2 2 l 1,19,-1
 1 2 l 1,0,-1
EndSplineSet
Validated: 1
EndChar

StartChar: parenright
Encoding: 41 41 42
Width: 8
GlyphClass: 2
Flags: W
LayerCount: 2
Fore
SplineSet
1 0 m 1,0,-1
 1 1 l 1,1,-1
 2 1 l 1,2,-1
 2 2 l 1,3,-1
 3 2 l 1,4,-1
 3 5 l 1,5,-1
 2 5 l 1,6,-1
 2 6 l 1,7,-1
 1 6 l 5,8,-1
 1 7 l 1,9,-1
 3 7 l 1,10,-1
 3 6 l 1,11,-1
 4 6 l 1,12,-1
 4 5 l 1,13,-1
 5 5 l 1,14,-1
 5 2 l 1,15,-1
 4 2 l 1,16,-1
 4 1 l 1,17,-1
 3 1 l 1,18,-1
 3 0 l 1,19,-1
 1 0 l 1,0,-1
EndSplineSet
Validated: 1
EndChar

StartChar: asterisk
Encoding: 42 42 43
Width: 8
GlyphClass: 2
Flags: W
LayerCount: 2
Fore
SplineSet
0 3 m 1,0,-1
 0 4 l 1,1,-1
 2 4 l 1,2,-1
 2 5 l 1,3,-1
 1 5 l 1,4,-1
 1 6 l 1,5,-1
 3 6 l 1,6,-1
 3 5 l 1,7,-1
 5 5 l 1,8,-1
 5 6 l 1,9,-1
 7 6 l 1,10,-1
 7 5 l 1,11,-1
 6 5 l 1,12,-1
 6 4 l 1,13,-1
 8 4 l 1,14,-1
 8 3 l 1,15,-1
 6 3 l 1,16,-1
 6 2 l 1,17,-1
 7 2 l 1,18,-1
 7 1 l 1,19,-1
 5 1 l 1,20,-1
 5 2 l 1,21,-1
 3 2 l 1,22,-1
 3 1 l 1,23,-1
 1 1 l 1,24,-1
 1 2 l 1,25,-1
 2 2 l 1,26,-1
 2 3 l 1,27,-1
 0 3 l 1,0,-1
EndSplineSet
Validated: 1
EndChar

StartChar: plus
Encoding: 43 43 44
Width: 8
GlyphClass: 2
Flags: W
LayerCount: 2
Fore
SplineSet
4 1 m 1,0,-1
 2 1 l 1,1,-1
 2 3 l 1,2,-1
 0 3 l 1,3,-1
 0 4 l 1,4,-1
 2 4 l 1,5,-1
 2 6 l 1,6,-1
 4 6 l 1,7,-1
 4 4 l 1,8,-1
 6 4 l 1,9,-1
 6 3 l 1,10,-1
 4 3 l 1,11,-1
 4 1 l 1,0,-1
EndSplineSet
Validated: 1
EndChar

StartChar: comma
Encoding: 44 44 45
Width: 8
GlyphClass: 2
Flags: W
LayerCount: 2
Fore
SplineSet
4 0 m 1,0,-1
 3 0 l 1,1,-1
 3 -1 l 1,2,-1
 1 -1 l 1,3,-1
 1 0 l 1,4,-1
 2 0 l 1,5,-1
 2 2 l 1,6,-1
 4 2 l 1,7,-1
 4 0 l 1,0,-1
EndSplineSet
Validated: 1
EndChar

StartChar: hyphen
Encoding: 45 45 46
Width: 8
GlyphClass: 2
Flags: W
LayerCount: 2
Fore
SplineSet
0 3 m 1,0,-1
 0 4 l 1,1,-1
 6 4 l 1,2,-1
 6 3 l 1,3,-1
 0 3 l 1,0,-1
EndSplineSet
Validated: 1
EndChar

StartChar: period
Encoding: 46 46 47
Width: 8
GlyphClass: 2
Flags: W
LayerCount: 2
Fore
SplineSet
4 2 m 1,0,-1
 4 0 l 1,1,-1
 2 0 l 1,2,-1
 2 2 l 1,3,-1
 4 2 l 1,0,-1
EndSplineSet
Validated: 1
EndChar

StartChar: slash
Encoding: 47 47 48
Width: 8
GlyphClass: 2
Flags: W
LayerCount: 2
Fore
SplineSet
0 2 m 1,0,-1
 1 2 l 1,1,-1
 1 3 l 1,2,-1
 2 3 l 1,3,-1
 2 4 l 1,4,-1
 3 4 l 1,5,-1
 3 5 l 1,6,-1
 4 5 l 1,7,-1
 4 6 l 1,8,-1
 5 6 l 1,9,-1
 5 7 l 1,10,-1
 7 7 l 1,11,-1
 7 6 l 1,12,-1
 6 6 l 1,13,-1
 6 5 l 1,14,-1
 5 5 l 1,15,-1
 5 4 l 1,16,-1
 4 4 l 1,17,-1
 4 3 l 1,18,-1
 3 3 l 1,19,-1
 3 2 l 1,20,-1
 2 2 l 1,21,-1
 2 1 l 1,22,-1
 1 1 l 1,23,-1
 1 0 l 1,24,-1
 0 0 l 1,25,-1
 0 2 l 1,0,-1
EndSplineSet
Validated: 1
EndChar

StartChar: zero
Encoding: 48 48 49
Width: 8
GlyphClass: 2
Flags: W
LayerCount: 2
Fore
SplineSet
0 1 m 1,0,-1
 0 6 l 1,1,-1
 1 6 l 1,2,-1
 1 7 l 1,3,-1
 6 7 l 1,4,-1
 6 6 l 1,5,-1
 7 6 l 1,6,-1
 7 1 l 1,7,-1
 6 1 l 1,8,-1
 6 0 l 1,9,-1
 1 0 l 1,10,-1
 1 1 l 1,11,-1
 0 1 l 1,0,-1
2 3 m 1,12,-1
 3 3 l 1,13,-1
 3 4 l 1,14,-1
 4 4 l 1,15,-1
 4 5 l 1,16,-1
 5 5 l 1,17,-1
 5 6 l 1,18,-1
 2 6 l 1,19,-1
 2 3 l 1,12,-1
4 2 m 1,20,-1
 3 2 l 1,21,-1
 3 1 l 1,22,-1
 5 1 l 1,23,-1
 5 3 l 1,24,-1
 4 3 l 1,25,-1
 4 2 l 1,20,-1
EndSplineSet
Validated: 1
EndChar

StartChar: one
Encoding: 49 49 50
Width: 8
GlyphClass: 2
Flags: W
LayerCount: 2
Fore
SplineSet
0 0 m 1,0,-1
 0 1 l 1,1,-1
 2 1 l 1,2,-1
 2 5 l 1,3,-1
 1 5 l 1,4,-1
 1 6 l 1,5,-1
 2 6 l 1,6,-1
 2 7 l 1,7,-1
 4 7 l 1,8,-1
 4 1 l 1,9,-1
 6 1 l 1,10,-1
 6 0 l 1,11,-1
 0 0 l 1,0,-1
EndSplineSet
Validated: 1
EndChar

StartChar: two
Encoding: 50 50 51
Width: 8
GlyphClass: 2
Flags: W
LayerCount: 2
Fore
SplineSet
0 2 m 1,0,-1
 1 2 l 1,1,-1
 1 3 l 1,2,-1
 2 3 l 1,3,-1
 2 4 l 1,4,-1
 4 4 l 1,5,-1
 4 6 l 1,6,-1
 2 6 l 1,7,-1
 2 5 l 1,8,-1
 0 5 l 1,9,-1
 0 6 l 1,10,-1
 1 6 l 1,11,-1
 1 7 l 1,12,-1
 5 7 l 1,13,-1
 5 6 l 1,14,-1
 6 6 l 1,15,-1
 6 4 l 1,16,-1
 5 4 l 1,17,-1
 5 3 l 1,18,-1
 3 3 l 1,19,-1
 3 2 l 1,20,-1
 2 2 l 1,21,-1
 2 1 l 1,22,-1
 5 1 l 1,23,-1
 5 2 l 1,24,-1
 6 2 l 1,25,-1
 6 0 l 1,26,-1
 0 0 l 1,27,-1
 0 2 l 1,0,-1
EndSplineSet
Validated: 1
EndChar

StartChar: three
Encoding: 51 51 52
Width: 8
GlyphClass: 2
Flags: W
LayerCount: 2
Fore
SplineSet
0 1 m 1,0,-1
 0 2 l 1,1,-1
 2 2 l 1,2,-1
 2 1 l 1,3,-1
 4 1 l 1,4,-1
 4 3 l 1,5,-1
 2 3 l 1,6,-1
 2 4 l 1,7,-1
 4 4 l 1,8,-1
 4 6 l 1,9,-1
 2 6 l 1,10,-1
 2 5 l 1,11,-1
 0 5 l 1,12,-1
 0 6 l 1,13,-1
 1 6 l 1,14,-1
 1 7 l 1,15,-1
 5 7 l 1,16,-1
 5 6 l 1,17,-1
 6 6 l 1,18,-1
 6 4 l 1,19,-1
 5 4 l 1,20,-1
 5 3 l 1,21,-1
 6 3 l 1,22,-1
 6 1 l 1,23,-1
 5 1 l 1,24,-1
 5 0 l 1,25,-1
 1 0 l 1,26,-1
 1 1 l 1,27,-1
 0 1 l 1,0,-1
EndSplineSet
Validated: 1
EndChar

StartChar: four
Encoding: 52 52 53
Width: 8
GlyphClass: 2
Flags: W
LayerCount: 2
Fore
SplineSet
0 2 m 1,0,-1
 0 4 l 1,1,-1
 1 4 l 1,2,-1
 1 5 l 1,3,-1
 2 5 l 1,4,-1
 2 6 l 1,5,-1
 3 6 l 1,6,-1
 3 7 l 1,7,-1
 6 7 l 1,8,-1
 6 3 l 1,9,-1
 7 3 l 1,10,-1
 7 2 l 1,11,-1
 6 2 l 1,12,-1
 6 1 l 1,13,-1
 7 1 l 1,14,-1
 7 0 l 1,15,-1
 3 0 l 1,16,-1
 3 1 l 1,17,-1
 4 1 l 1,18,-1
 4 2 l 1,19,-1
 0 2 l 1,0,-1
2 4 m 1,20,-1
 2 3 l 1,21,-1
 4 3 l 1,22,-1
 4 5 l 1,23,-1
 3 5 l 1,24,-1
 3 4 l 1,25,-1
 2 4 l 1,20,-1
EndSplineSet
Validated: 1
EndChar

StartChar: five
Encoding: 53 53 54
Width: 8
GlyphClass: 2
Flags: W
LayerCount: 2
Fore
SplineSet
0 1 m 1,0,-1
 0 2 l 1,1,-1
 2 2 l 1,2,-1
 2 1 l 1,3,-1
 4 1 l 1,4,-1
 4 4 l 1,5,-1
 0 4 l 1,6,-1
 0 7 l 1,7,-1
 6 7 l 1,8,-1
 6 6 l 1,9,-1
 2 6 l 1,10,-1
 2 5 l 1,11,-1
 5 5 l 1,12,-1
 5 4 l 1,13,-1
 6 4 l 1,14,-1
 6 1 l 1,15,-1
 5 1 l 1,16,-1
 5 0 l 1,17,-1
 1 0 l 1,18,-1
 1 1 l 1,19,-1
 0 1 l 1,0,-1
EndSplineSet
Validated: 1
EndChar

StartChar: six
Encoding: 54 54 55
Width: 8
GlyphClass: 2
Flags: W
LayerCount: 2
Fore
SplineSet
0 1 m 1,0,-1
 0 5 l 1,1,-1
 1 5 l 1,2,-1
 1 6 l 1,3,-1
 2 6 l 1,4,-1
 2 7 l 1,5,-1
 5 7 l 1,6,-1
 5 6 l 1,7,-1
 3 6 l 1,8,-1
 3 5 l 1,9,-1
 2 5 l 1,10,-1
 2 4 l 1,11,-1
 5 4 l 1,12,-1
 5 3 l 1,13,-1
 6 3 l 1,14,-1
 6 1 l 1,15,-1
 5 1 l 1,16,-1
 5 0 l 1,17,-1
 1 0 l 1,18,-1
 1 1 l 1,19,-1
 0 1 l 1,0,-1
2 1 m 1,20,-1
 4 1 l 1,21,-1
 4 3 l 1,22,-1
 2 3 l 1,23,-1
 2 1 l 1,20,-1
EndSplineSet
Validated: 1
EndChar

StartChar: seven
Encoding: 55 55 56
Width: 8
GlyphClass: 2
Flags: W
LayerCount: 2
Fore
SplineSet
0 5 m 1,0,-1
 0 7 l 1,1,-1
 6 7 l 1,2,-1
 6 4 l 1,3,-1
 5 4 l 1,4,-1
 5 3 l 1,5,-1
 4 3 l 1,6,-1
 4 0 l 1,7,-1
 2 0 l 1,8,-1
 2 3 l 1,9,-1
 3 3 l 1,10,-1
 3 4 l 1,11,-1
 4 4 l 1,12,-1
 4 6 l 1,13,-1
 2 6 l 1,14,-1
 2 5 l 1,15,-1
 0 5 l 1,0,-1
EndSplineSet
Validated: 1
EndChar

StartChar: eight
Encoding: 56 56 57
Width: 8
GlyphClass: 2
Flags: W
LayerCount: 2
Fore
SplineSet
0 1 m 1,0,-1
 0 3 l 1,1,-1
 1 3 l 1,2,-1
 1 4 l 1,3,-1
 0 4 l 1,4,-1
 0 6 l 1,5,-1
 1 6 l 1,6,-1
 1 7 l 1,7,-1
 5 7 l 1,8,-1
 5 6 l 1,9,-1
 6 6 l 1,10,-1
 6 4 l 1,11,-1
 5 4 l 1,12,-1
 5 3 l 1,13,-1
 6 3 l 1,14,-1
 6 1 l 1,15,-1
 5 1 l 1,16,-1
 5 0 l 1,17,-1
 1 0 l 1,18,-1
 1 1 l 1,19,-1
 0 1 l 1,0,-1
2 1 m 1,20,-1
 4 1 l 1,21,-1
 4 3 l 1,22,-1
 2 3 l 1,23,-1
 2 1 l 1,20,-1
2 4 m 1,24,-1
 4 4 l 1,25,-1
 4 6 l 1,26,-1
 2 6 l 1,27,-1
 2 4 l 1,24,-1
EndSplineSet
Validated: 1
EndChar

StartChar: nine
Encoding: 57 57 58
Width: 8
GlyphClass: 2
Flags: W
LayerCount: 2
Fore
SplineSet
0 4 m 1,0,-1
 0 6 l 1,1,-1
 1 6 l 1,2,-1
 1 7 l 1,3,-1
 5 7 l 1,4,-1
 5 6 l 1,5,-1
 6 6 l 1,6,-1
 6 2 l 1,7,-1
 5 2 l 1,8,-1
 5 1 l 1,9,-1
 4 1 l 1,10,-1
 4 0 l 1,11,-1
 1 0 l 1,12,-1
 1 1 l 1,13,-1
 3 1 l 1,14,-1
 3 2 l 1,15,-1
 4 2 l 1,16,-1
 4 3 l 1,17,-1
 1 3 l 1,18,-1
 1 4 l 1,19,-1
 0 4 l 1,0,-1
2 4 m 1,20,-1
 4 4 l 1,21,-1
 4 6 l 1,22,-1
 2 6 l 1,23,-1
 2 4 l 1,20,-1
EndSplineSet
Validated: 1
EndChar

StartChar: colon
Encoding: 58 58 59
Width: 8
GlyphClass: 2
Flags: W
LayerCount: 2
Fore
SplineSet
4 2 m 1,0,-1
 4 0 l 1,1,-1
 2 0 l 1,2,-1
 2 2 l 1,3,-1
 4 2 l 1,0,-1
4 4 m 1,4,-1
 2 4 l 1,5,-1
 2 6 l 1,6,-1
 4 6 l 1,7,-1
 4 4 l 1,4,-1
EndSplineSet
Validated: 1
EndChar

StartChar: semicolon
Encoding: 59 59 60
Width: 8
GlyphClass: 2
Flags: W
LayerCount: 2
Fore
SplineSet
4 1 m 1,0,-1
 3 1 l 1,1,-1
 3 0 l 1,2,-1
 1 0 l 1,3,-1
 1 1 l 1,4,-1
 2 1 l 1,5,-1
 2 3 l 1,6,-1
 4 3 l 1,7,-1
 4 1 l 1,0,-1
4 4 m 1,8,-1
 2 4 l 1,9,-1
 2 6 l 1,10,-1
 4 6 l 1,11,-1
 4 4 l 1,8,-1
EndSplineSet
Validated: 1
EndChar

StartChar: less
Encoding: 60 60 61
Width: 8
GlyphClass: 2
Flags: W
LayerCount: 2
Fore
SplineSet
0 3 m 1,0,-1
 0 4 l 1,1,-1
 1 4 l 1,2,-1
 1 5 l 1,3,-1
 2 5 l 1,4,-1
 2 6 l 1,5,-1
 3 6 l 1,6,-1
 3 7 l 1,7,-1
 5 7 l 1,8,-1
 5 6 l 1,9,-1
 4 6 l 1,10,-1
 4 5 l 1,11,-1
 3 5 l 1,12,-1
 3 4 l 1,13,-1
 2 4 l 1,14,-1
 2 3 l 1,15,-1
 3 3 l 1,16,-1
 3 2 l 1,17,-1
 4 2 l 1,18,-1
 4 1 l 1,19,-1
 5 1 l 1,20,-1
 5 0 l 1,21,-1
 3 0 l 1,22,-1
 3 1 l 1,23,-1
 2 1 l 1,24,-1
 2 2 l 1,25,-1
 1 2 l 1,26,-1
 1 3 l 1,27,-1
 0 3 l 1,0,-1
EndSplineSet
Validated: 1
EndChar

StartChar: equal
Encoding: 61 61 62
Width: 8
GlyphClass: 2
Flags: W
LayerCount: 2
Fore
SplineSet
0 1 m 1,0,-1
 0 2 l 1,1,-1
 6 2 l 1,2,-1
 6 1 l 1,3,-1
 0 1 l 1,0,-1
0 4 m 1,4,-1
 0 5 l 1,5,-1
 6 5 l 1,6,-1
 6 4 l 1,7,-1
 0 4 l 1,4,-1
EndSplineSet
Validated: 1
EndChar

StartChar: greater
Encoding: 62 62 63
Width: 8
GlyphClass: 2
Flags: W
LayerCount: 2
Fore
SplineSet
2 1 m 1,0,-1
 2 2 l 1,1,-1
 3 2 l 1,2,-1
 3 3 l 1,3,-1
 4 3 l 1,4,-1
 4 4 l 1,5,-1
 3 4 l 1,6,-1
 3 5 l 1,7,-1
 2 5 l 1,8,-1
 2 6 l 1,9,-1
 1 6 l 1,10,-1
 1 7 l 1,11,-1
 3 7 l 1,12,-1
 3 6 l 1,13,-1
 4 6 l 1,14,-1
 4 5 l 1,15,-1
 5 5 l 1,16,-1
 5 4 l 1,17,-1
 6 4 l 1,18,-1
 6 3 l 1,19,-1
 5 3 l 1,20,-1
 5 2 l 1,21,-1
 4 2 l 1,22,-1
 4 1 l 1,23,-1
 3 1 l 1,24,-1
 3 0 l 1,25,-1
 1 0 l 1,26,-1
 1 1 l 1,27,-1
 2 1 l 1,0,-1
EndSplineSet
Validated: 1
EndChar

StartChar: question
Encoding: 63 63 64
Width: 8
GlyphClass: 2
Flags: W
LayerCount: 2
Fore
SplineSet
0 5 m 1,0,-1
 0 6 l 1,1,-1
 1 6 l 1,2,-1
 1 7 l 1,3,-1
 5 7 l 1,4,-1
 5 6 l 1,5,-1
 6 6 l 1,6,-1
 6 4 l 1,7,-1
 5 4 l 1,8,-1
 5 3 l 1,9,-1
 4 3 l 1,10,-1
 4 2 l 1,11,-1
 2 2 l 1,12,-1
 2 3 l 1,13,-1
 3 3 l 1,14,-1
 3 4 l 1,15,-1
 4 4 l 1,16,-1
 4 6 l 1,17,-1
 2 6 l 1,18,-1
 2 5 l 1,19,-1
 0 5 l 1,0,-1
2 0 m 1,20,-1
 2 1 l 1,21,-1
 4 1 l 1,22,-1
 4 0 l 1,23,-1
 2 0 l 1,20,-1
EndSplineSet
Validated: 1
EndChar

StartChar: at
Encoding: 64 64 65
Width: 8
GlyphClass: 2
Flags: W
LayerCount: 2
Fore
SplineSet
0 1 m 1,0,-1
 0 6 l 1,1,-1
 1 6 l 1,2,-1
 1 7 l 1,3,-1
 6 7 l 1,4,-1
 6 6 l 1,5,-1
 7 6 l 1,6,-1
 7 2 l 1,7,-1
 3 2 l 1,8,-1
 3 5 l 1,9,-1
 5 5 l 1,10,-1
 5 6 l 1,11,-1
 2 6 l 1,12,-1
 2 1 l 1,13,-1
 5 1 l 1,14,-1
 5 0 l 1,15,-1
 1 0 l 1,16,-1
 1 1 l 1,17,-1
 0 1 l 1,0,-1
EndSplineSet
Validated: 1
EndChar

StartChar: A
Encoding: 65 65 66
Width: 8
GlyphClass: 2
Flags: W
LayerCount: 2
Fore
SplineSet
0 0 m 1,0,-1
 0 5 l 1,1,-1
 1 5 l 1,2,-1
 1 6 l 1,3,-1
 2 6 l 1,4,-1
 2 7 l 1,5,-1
 4 7 l 1,6,-1
 4 6 l 1,7,-1
 5 6 l 1,8,-1
 5 5 l 1,9,-1
 6 5 l 1,10,-1
 6 0 l 1,11,-1
 4 0 l 1,12,-1
 4 2 l 1,13,-1
 2 2 l 1,14,-1
 2 0 l 1,15,-1
 0 0 l 1,0,-1
2 5 m 1,16,-1
 2 3 l 1,17,-1
 4 3 l 1,18,-1
 4 5 l 1,19,-1
 2 5 l 1,16,-1
EndSplineSet
Validated: 1
EndChar

StartChar: B
Encoding: 66 66 67
Width: 8
GlyphClass: 2
Flags: W
LayerCount: 2
Fore
SplineSet
0 0 m 1,0,-1
 0 1 l 1,1,-1
 1 1 l 1,2,-1
 1 6 l 1,3,-1
 0 6 l 1,4,-1
 0 7 l 1,5,-1
 6 7 l 1,6,-1
 6 6 l 1,7,-1
 7 6 l 1,8,-1
 7 4 l 1,9,-1
 6 4 l 1,10,-1
 6 3 l 1,11,-1
 7 3 l 1,12,-1
 7 1 l 1,13,-1
 6 1 l 1,14,-1
 6 0 l 1,15,-1
 0 0 l 1,0,-1
3 1 m 1,16,-1
 5 1 l 1,17,-1
 5 3 l 1,18,-1
 3 3 l 1,19,-1
 3 1 l 1,16,-1
3 4 m 1,20,-1
 5 4 l 1,21,-1
 5 6 l 1,22,-1
 3 6 l 1,23,-1
 3 4 l 1,20,-1
EndSplineSet
Validated: 1
EndChar

StartChar: C
Encoding: 67 67 68
Width: 8
GlyphClass: 2
Flags: W
LayerCount: 2
Fore
SplineSet
0 2 m 1,0,-1
 0 5 l 1,1,-1
 1 5 l 1,2,-1
 1 6 l 1,3,-1
 2 6 l 1,4,-1
 2 7 l 1,5,-1
 6 7 l 1,6,-1
 6 6 l 1,7,-1
 7 6 l 1,8,-1
 7 5 l 1,9,-1
 5 5 l 1,10,-1
 5 6 l 1,11,-1
 3 6 l 1,12,-1
 3 5 l 1,13,-1
 2 5 l 1,14,-1
 2 2 l 1,15,-1
 3 2 l 1,16,-1
 3 1 l 1,17,-1
 5 1 l 1,18,-1
 5 2 l 1,19,-1
 7 2 l 1,20,-1
 7 1 l 1,21,-1
 6 1 l 1,22,-1
 6 0 l 1,23,-1
 2 0 l 1,24,-1
 2 1 l 1,25,-1
 1 1 l 1,26,-1
 1 2 l 1,27,-1
 0 2 l 1,0,-1
EndSplineSet
Validated: 1
EndChar

StartChar: D
Encoding: 68 68 69
Width: 8
GlyphClass: 2
Flags: W
LayerCount: 2
Fore
SplineSet
0 0 m 1,0,-1
 0 1 l 1,1,-1
 1 1 l 1,2,-1
 1 6 l 1,3,-1
 0 6 l 1,4,-1
 0 7 l 1,5,-1
 5 7 l 1,6,-1
 5 6 l 1,7,-1
 6 6 l 1,8,-1
 6 5 l 1,9,-1
 7 5 l 1,10,-1
 7 2 l 1,11,-1
 6 2 l 1,12,-1
 6 1 l 1,13,-1
 5 1 l 1,14,-1
 5 0 l 1,15,-1
 0 0 l 1,0,-1
3 1 m 1,16,-1
 4 1 l 1,17,-1
 4 2 l 1,18,-1
 5 2 l 1,19,-1
 5 5 l 1,20,-1
 4 5 l 1,21,-1
 4 6 l 1,22,-1
 3 6 l 1,23,-1
 3 1 l 1,16,-1
EndSplineSet
Validated: 1
EndChar

StartChar: E
Encoding: 69 69 70
Width: 8
GlyphClass: 2
Flags: W
LayerCount: 2
Fore
SplineSet
0 0 m 1,0,-1
 0 1 l 1,1,-1
 1 1 l 1,2,-1
 1 6 l 1,3,-1
 0 6 l 1,4,-1
 0 7 l 1,5,-1
 7 7 l 1,6,-1
 7 5 l 1,7,-1
 6 5 l 1,8,-1
 6 6 l 1,9,-1
 3 6 l 1,10,-1
 3 4 l 1,11,-1
 4 4 l 1,12,-1
 4 5 l 1,13,-1
 5 5 l 1,14,-1
 5 2 l 1,15,-1
 4 2 l 1,16,-1
 4 3 l 1,17,-1
 3 3 l 1,18,-1
 3 1 l 1,19,-1
 6 1 l 1,20,-1
 6 2 l 1,21,-1
 7 2 l 1,22,-1
 7 0 l 1,23,-1
 0 0 l 1,0,-1
EndSplineSet
Validated: 1
EndChar

StartChar: F
Encoding: 70 70 71
Width: 8
GlyphClass: 2
Flags: W
LayerCount: 2
Fore
SplineSet
0 0 m 1,0,-1
 0 1 l 1,1,-1
 1 1 l 1,2,-1
 1 6 l 1,3,-1
 0 6 l 1,4,-1
 0 7 l 1,5,-1
 7 7 l 1,6,-1
 7 5 l 1,7,-1
 6 5 l 1,8,-1
 6 6 l 1,9,-1
 3 6 l 1,10,-1
 3 4 l 1,11,-1
 4 4 l 1,12,-1
 4 5 l 1,13,-1
 5 5 l 1,14,-1
 5 2 l 1,15,-1
 4 2 l 1,16,-1
 4 3 l 1,17,-1
 3 3 l 1,18,-1
 3 1 l 1,19,-1
 4 1 l 1,20,-1
 4 0 l 1,21,-1
 0 0 l 1,0,-1
EndSplineSet
Validated: 1
EndChar

StartChar: G
Encoding: 71 71 72
Width: 8
GlyphClass: 2
Flags: W
LayerCount: 2
Fore
SplineSet
0 2 m 1,0,-1
 0 5 l 1,1,-1
 1 5 l 1,2,-1
 1 6 l 1,3,-1
 2 6 l 1,4,-1
 2 7 l 1,5,-1
 6 7 l 1,6,-1
 6 6 l 1,7,-1
 7 6 l 1,8,-1
 7 5 l 1,9,-1
 5 5 l 1,10,-1
 5 6 l 1,11,-1
 3 6 l 1,12,-1
 3 5 l 1,13,-1
 2 5 l 1,14,-1
 2 2 l 1,15,-1
 3 2 l 1,16,-1
 3 1 l 1,17,-1
 5 1 l 1,18,-1
 5 2 l 1,19,-1
 4 2 l 1,20,-1
 4 3 l 1,21,-1
 7 3 l 1,22,-1
 7 0 l 1,23,-1
 2 0 l 1,24,-1
 2 1 l 1,25,-1
 1 1 l 1,26,-1
 1 2 l 1,27,-1
 0 2 l 1,0,-1
EndSplineSet
Validated: 1
EndChar

StartChar: H
Encoding: 72 72 73
Width: 8
GlyphClass: 2
Flags: W
LayerCount: 2
Fore
SplineSet
0 0 m 1,0,-1
 0 7 l 1,1,-1
 2 7 l 1,2,-1
 2 4 l 1,3,-1
 4 4 l 1,4,-1
 4 7 l 1,5,-1
 6 7 l 1,6,-1
 6 0 l 1,7,-1
 4 0 l 1,8,-1
 4 3 l 1,9,-1
 2 3 l 1,10,-1
 2 0 l 1,11,-1
 0 0 l 1,0,-1
EndSplineSet
Validated: 1
EndChar

StartChar: I
Encoding: 73 73 74
Width: 8
GlyphClass: 2
Flags: W
LayerCount: 2
Fore
SplineSet
4 1 m 1,0,-1
 5 1 l 1,1,-1
 5 0 l 1,2,-1
 1 0 l 1,3,-1
 1 1 l 1,4,-1
 2 1 l 1,5,-1
 2 6 l 1,6,-1
 1 6 l 1,7,-1
 1 7 l 1,8,-1
 5 7 l 1,9,-1
 5 6 l 1,10,-1
 4 6 l 1,11,-1
 4 1 l 1,0,-1
EndSplineSet
Validated: 1
EndChar

StartChar: J
Encoding: 74 74 75
Width: 8
GlyphClass: 2
Flags: W
LayerCount: 2
Fore
SplineSet
0 1 m 1,0,-1
 0 3 l 1,1,-1
 2 3 l 1,2,-1
 2 1 l 1,3,-1
 4 1 l 1,4,-1
 4 6 l 1,5,-1
 3 6 l 1,6,-1
 3 7 l 1,7,-1
 7 7 l 1,8,-1
 7 6 l 1,9,-1
 6 6 l 1,10,-1
 6 1 l 1,11,-1
 5 1 l 1,12,-1
 5 0 l 1,13,-1
 1 0 l 1,14,-1
 1 1 l 1,15,-1
 0 1 l 1,0,-1
EndSplineSet
Validated: 1
EndChar

StartChar: K
Encoding: 75 75 76
Width: 8
GlyphClass: 2
Flags: W
LayerCount: 2
Fore
SplineSet
0 0 m 1,0,-1
 0 1 l 1,1,-1
 1 1 l 1,2,-1
 1 6 l 1,3,-1
 0 6 l 1,4,-1
 0 7 l 1,5,-1
 3 7 l 1,6,-1
 3 4 l 1,7,-1
 4 4 l 1,8,-1
 4 5 l 1,9,-1
 5 5 l 1,10,-1
 5 7 l 1,11,-1
 7 7 l 1,12,-1
 7 5 l 1,13,-1
 6 5 l 1,14,-1
 6 4 l 1,15,-1
 5 4 l 1,16,-1
 5 3 l 1,17,-1
 6 3 l 1,18,-1
 6 2 l 1,19,-1
 7 2 l 1,20,-1
 7 0 l 1,21,-1
 5 0 l 1,22,-1
 5 2 l 1,23,-1
 4 2 l 1,24,-1
 4 3 l 1,25,-1
 3 3 l 1,26,-1
 3 0 l 1,27,-1
 0 0 l 1,0,-1
EndSplineSet
Validated: 1
EndChar

StartChar: L
Encoding: 76 76 77
Width: 8
GlyphClass: 2
Flags: W
LayerCount: 2
Fore
SplineSet
0 0 m 1,0,-1
 0 1 l 1,1,-1
 1 1 l 1,2,-1
 1 6 l 1,3,-1
 0 6 l 1,4,-1
 0 7 l 1,5,-1
 4 7 l 1,6,-1
 4 6 l 1,7,-1
 3 6 l 1,8,-1
 3 1 l 1,9,-1
 5 1 l 1,10,-1
 5 2 l 1,11,-1
 6 2 l 1,12,-1
 6 3 l 1,13,-1
 7 3 l 1,14,-1
 7 0 l 1,15,-1
 0 0 l 1,0,-1
EndSplineSet
Validated: 1
EndChar

StartChar: M
Encoding: 77 77 78
Width: 8
GlyphClass: 2
Flags: W
LayerCount: 2
Fore
SplineSet
0 0 m 1,0,-1
 0 7 l 1,1,-1
 2 7 l 1,2,-1
 2 6 l 1,3,-1
 3 6 l 1,4,-1
 3 5 l 1,5,-1
 4 5 l 1,6,-1
 4 6 l 1,7,-1
 5 6 l 1,8,-1
 5 7 l 1,9,-1
 7 7 l 1,10,-1
 7 0 l 1,11,-1
 5 0 l 1,12,-1
 5 3 l 1,13,-1
 4 3 l 1,14,-1
 4 2 l 1,15,-1
 3 2 l 1,16,-1
 3 3 l 1,17,-1
 2 3 l 1,18,-1
 2 0 l 1,19,-1
 0 0 l 1,0,-1
EndSplineSet
Validated: 1
EndChar

StartChar: N
Encoding: 78 78 79
Width: 8
GlyphClass: 2
Flags: W
LayerCount: 2
Fore
SplineSet
0 0 m 1,0,-1
 0 7 l 1,1,-1
 2 7 l 1,2,-1
 2 6 l 1,3,-1
 3 6 l 1,4,-1
 3 5 l 1,5,-1
 4 5 l 1,6,-1
 4 4 l 1,7,-1
 5 4 l 1,8,-1
 5 7 l 1,9,-1
 7 7 l 1,10,-1
 7 0 l 1,11,-1
 5 0 l 1,12,-1
 5 2 l 1,13,-1
 4 2 l 1,14,-1
 4 3 l 1,15,-1
 3 3 l 1,16,-1
 3 4 l 1,17,-1
 2 4 l 1,18,-1
 2 0 l 1,19,-1
 0 0 l 1,0,-1
EndSplineSet
Validated: 1
EndChar

StartChar: O
Encoding: 79 79 80
Width: 8
GlyphClass: 2
Flags: W
LayerCount: 2
Fore
SplineSet
0 2 m 1,0,-1
 0 5 l 1,1,-1
 1 5 l 1,2,-1
 1 6 l 1,3,-1
 2 6 l 1,4,-1
 2 7 l 1,5,-1
 5 7 l 1,6,-1
 5 6 l 1,7,-1
 6 6 l 1,8,-1
 6 5 l 1,9,-1
 7 5 l 1,10,-1
 7 2 l 1,11,-1
 6 2 l 1,12,-1
 6 1 l 1,13,-1
 5 1 l 1,14,-1
 5 0 l 1,15,-1
 2 0 l 1,16,-1
 2 1 l 1,17,-1
 1 1 l 1,18,-1
 1 2 l 1,19,-1
 0 2 l 1,0,-1
2 2 m 1,20,-1
 3 2 l 1,21,-1
 3 1 l 1,22,-1
 4 1 l 1,23,-1
 4 2 l 1,24,-1
 5 2 l 1,25,-1
 5 5 l 1,26,-1
 4 5 l 1,27,-1
 4 6 l 1,28,-1
 3 6 l 1,29,-1
 3 5 l 1,30,-1
 2 5 l 1,31,-1
 2 2 l 1,20,-1
EndSplineSet
Validated: 1
EndChar

StartChar: P
Encoding: 80 80 81
Width: 8
GlyphClass: 2
Flags: W
LayerCount: 2
Fore
SplineSet
0 0 m 1,0,-1
 0 1 l 1,1,-1
 1 1 l 1,2,-1
 1 6 l 1,3,-1
 0 6 l 1,4,-1
 0 7 l 1,5,-1
 6 7 l 1,6,-1
 6 6 l 1,7,-1
 7 6 l 1,8,-1
 7 4 l 1,9,-1
 6 4 l 1,10,-1
 6 3 l 1,11,-1
 3 3 l 1,12,-1
 3 1 l 1,13,-1
 4 1 l 1,14,-1
 4 0 l 1,15,-1
 0 0 l 1,0,-1
3 4 m 1,16,-1
 5 4 l 1,17,-1
 5 6 l 1,18,-1
 3 6 l 1,19,-1
 3 4 l 1,16,-1
EndSplineSet
Validated: 1
EndChar

StartChar: Q
Encoding: 81 81 82
Width: 8
GlyphClass: 2
Flags: W
LayerCount: 2
Fore
SplineSet
0 2 m 1,0,-1
 0 6 l 1,1,-1
 1 6 l 1,2,-1
 1 7 l 1,3,-1
 5 7 l 1,4,-1
 5 6 l 1,5,-1
 6 6 l 1,6,-1
 6 2 l 1,7,-1
 5 2 l 1,8,-1
 5 1 l 1,9,-1
 6 1 l 1,10,-1
 6 0 l 1,11,-1
 3 0 l 1,12,-1
 3 1 l 1,13,-1
 1 1 l 1,14,-1
 1 2 l 1,15,-1
 0 2 l 1,0,-1
2 2 m 1,16,-1
 3 2 l 1,17,-1
 3 3 l 1,18,-1
 4 3 l 1,19,-1
 4 6 l 1,20,-1
 2 6 l 1,21,-1
 2 2 l 1,16,-1
EndSplineSet
Validated: 1
EndChar

StartChar: R
Encoding: 82 82 83
Width: 8
GlyphClass: 2
Flags: W
LayerCount: 2
Fore
SplineSet
0 0 m 1,0,-1
 0 1 l 1,1,-1
 1 1 l 1,2,-1
 1 6 l 1,3,-1
 0 6 l 1,4,-1
 0 7 l 1,5,-1
 6 7 l 1,6,-1
 6 6 l 1,7,-1
 7 6 l 1,8,-1
 7 4 l 1,9,-1
 6 4 l 1,10,-1
 6 2 l 1,11,-1
 7 2 l 1,12,-1
 7 0 l 1,13,-1
 5 0 l 1,14,-1
 5 2 l 1,15,-1
 4 2 l 1,16,-1
 4 3 l 1,17,-1
 3 3 l 1,18,-1
 3 0 l 1,19,-1
 0 0 l 1,0,-1
3 4 m 1,20,-1
 5 4 l 1,21,-1
 5 6 l 1,22,-1
 3 6 l 1,23,-1
 3 4 l 1,20,-1
EndSplineSet
Validated: 1
EndChar

StartChar: S
Encoding: 83 83 84
Width: 8
GlyphClass: 2
Flags: W
LayerCount: 2
Fore
SplineSet
0 1 m 1,0,-1
 0 2 l 1,1,-1
 2 2 l 1,2,-1
 2 1 l 1,3,-1
 4 1 l 1,4,-1
 4 2 l 1,5,-1
 3 2 l 1,6,-1
 3 3 l 1,7,-1
 1 3 l 1,8,-1
 1 4 l 1,9,-1
 0 4 l 1,10,-1
 0 6 l 1,11,-1
 1 6 l 1,12,-1
 1 7 l 1,13,-1
 5 7 l 1,14,-1
 5 6 l 1,15,-1
 6 6 l 1,16,-1
 6 5 l 1,17,-1
 4 5 l 1,18,-1
 4 6 l 1,19,-1
 2 6 l 1,20,-1
 2 5 l 1,21,-1
 3 5 l 1,22,-1
 3 4 l 1,23,-1
 4 4 l 1,24,-1
 4 3 l 1,25,-1
 6 3 l 1,26,-1
 6 1 l 1,27,-1
 5 1 l 1,28,-1
 5 0 l 1,29,-1
 1 0 l 1,30,-1
 1 1 l 1,31,-1
 0 1 l 1,0,-1
EndSplineSet
Validated: 1
EndChar

StartChar: T
Encoding: 84 84 85
Width: 8
GlyphClass: 2
Flags: W
LayerCount: 2
Fore
SplineSet
0 5 m 1,0,-1
 0 7 l 1,1,-1
 6 7 l 1,2,-1
 6 5 l 1,3,-1
 5 5 l 1,4,-1
 5 6 l 1,5,-1
 4 6 l 1,6,-1
 4 1 l 1,7,-1
 5 1 l 1,8,-1
 5 0 l 1,9,-1
 1 0 l 1,10,-1
 1 1 l 1,11,-1
 2 1 l 1,12,-1
 2 6 l 1,13,-1
 1 6 l 1,14,-1
 1 5 l 1,15,-1
 0 5 l 1,0,-1
EndSplineSet
Validated: 1
EndChar

StartChar: U
Encoding: 85 85 86
Width: 8
GlyphClass: 2
Flags: W
LayerCount: 2
Fore
SplineSet
0 0 m 1,0,-1
 0 7 l 1,1,-1
 2 7 l 1,2,-1
 2 1 l 1,3,-1
 4 1 l 1,4,-1
 4 7 l 1,5,-1
 6 7 l 1,6,-1
 6 0 l 1,7,-1
 0 0 l 1,0,-1
EndSplineSet
Validated: 1
EndChar

StartChar: V
Encoding: 86 86 87
Width: 8
GlyphClass: 2
Flags: W
LayerCount: 2
Fore
SplineSet
0 2 m 1,0,-1
 0 7 l 1,1,-1
 2 7 l 1,2,-1
 2 2 l 1,3,-1
 4 2 l 1,4,-1
 4 7 l 1,5,-1
 6 7 l 1,6,-1
 6 2 l 1,7,-1
 5 2 l 1,8,-1
 5 1 l 1,9,-1
 4 1 l 1,10,-1
 4 0 l 1,11,-1
 2 0 l 1,12,-1
 2 1 l 1,13,-1
 1 1 l 1,14,-1
 1 2 l 1,15,-1
 0 2 l 1,0,-1
EndSplineSet
Validated: 1
EndChar

StartChar: W
Encoding: 87 87 88
Width: 8
GlyphClass: 2
Flags: W
LayerCount: 2
Fore
SplineSet
0 0 m 1,0,-1
 0 7 l 1,1,-1
 2 7 l 1,2,-1
 2 3 l 1,3,-1
 3 3 l 1,4,-1
 3 4 l 1,5,-1
 4 4 l 1,6,-1
 4 3 l 1,7,-1
 5 3 l 1,8,-1
 5 7 l 1,9,-1
 7 7 l 1,10,-1
 7 0 l 1,11,-1
 5 0 l 1,12,-1
 5 1 l 1,13,-1
 4 1 l 1,14,-1
 4 2 l 1,15,-1
 3 2 l 1,16,-1
 3 1 l 1,17,-1
 2 1 l 1,18,-1
 2 0 l 1,19,-1
 0 0 l 1,0,-1
EndSplineSet
Validated: 1
EndChar

StartChar: X
Encoding: 88 88 89
Width: 8
GlyphClass: 2
Flags: W
LayerCount: 2
Fore
SplineSet
0 0 m 1,0,-1
 0 1 l 1,1,-1
 1 1 l 1,2,-1
 1 2 l 1,3,-1
 2 2 l 1,4,-1
 2 4 l 1,5,-1
 1 4 l 1,6,-1
 1 5 l 1,7,-1
 0 5 l 1,8,-1
 0 7 l 1,9,-1
 2 7 l 1,10,-1
 2 5 l 1,11,-1
 3 5 l 1,12,-1
 3 4 l 1,13,-1
 4 4 l 1,14,-1
 4 5 l 1,15,-1
 5 5 l 1,16,-1
 5 7 l 1,17,-1
 7 7 l 1,18,-1
 7 5 l 1,19,-1
 6 5 l 1,20,-1
 6 4 l 1,21,-1
 5 4 l 1,22,-1
 5 2 l 1,23,-1
 6 2 l 1,24,-1
 6 1 l 1,25,-1
 7 1 l 1,26,-1
 7 0 l 1,27,-1
 5 0 l 1,28,-1
 5 1 l 1,29,-1
 4 1 l 1,30,-1
 4 2 l 1,31,-1
 3 2 l 1,32,-1
 3 1 l 1,33,-1
 2 1 l 1,34,-1
 2 0 l 1,35,-1
 0 0 l 1,0,-1
EndSplineSet
Validated: 1
EndChar

StartChar: Y
Encoding: 89 89 90
Width: 8
GlyphClass: 2
Flags: W
LayerCount: 2
Fore
SplineSet
0 4 m 1,0,-1
 0 7 l 1,1,-1
 2 7 l 1,2,-1
 2 4 l 1,3,-1
 4 4 l 1,4,-1
 4 7 l 1,5,-1
 6 7 l 1,6,-1
 6 4 l 1,7,-1
 5 4 l 1,8,-1
 5 3 l 1,9,-1
 4 3 l 1,10,-1
 4 1 l 1,11,-1
 5 1 l 1,12,-1
 5 0 l 1,13,-1
 1 0 l 1,14,-1
 1 1 l 1,15,-1
 2 1 l 1,16,-1
 2 3 l 1,17,-1
 1 3 l 1,18,-1
 1 4 l 1,19,-1
 0 4 l 1,0,-1
EndSplineSet
Validated: 1
EndChar

StartChar: Z
Encoding: 90 90 91
Width: 8
GlyphClass: 2
Flags: W
LayerCount: 2
Fore
SplineSet
0 0 m 1,0,-1
 0 1 l 1,1,-1
 1 1 l 1,2,-1
 1 2 l 1,3,-1
 2 2 l 1,4,-1
 2 3 l 1,5,-1
 3 3 l 1,6,-1
 3 4 l 1,7,-1
 4 4 l 1,8,-1
 4 5 l 1,9,-1
 5 5 l 1,10,-1
 5 6 l 1,11,-1
 2 6 l 1,12,-1
 2 5 l 1,13,-1
 1 5 l 1,14,-1
 1 4 l 1,15,-1
 0 4 l 1,16,-1
 0 7 l 1,17,-1
 7 7 l 1,18,-1
 7 5 l 1,19,-1
 6 5 l 1,20,-1
 6 4 l 1,21,-1
 5 4 l 1,22,-1
 5 3 l 1,23,-1
 4 3 l 1,24,-1
 4 2 l 1,25,-1
 3 2 l 1,26,-1
 3 1 l 1,27,-1
 5 1 l 1,28,-1
 5 2 l 1,29,-1
 6 2 l 1,30,-1
 6 3 l 1,31,-1
 7 3 l 1,32,-1
 7 0 l 1,33,-1
 0 0 l 1,0,-1
EndSplineSet
Validated: 1
EndChar

StartChar: bracketleft
Encoding: 91 91 92
Width: 8
GlyphClass: 2
Flags: W
LayerCount: 2
Fore
SplineSet
1 0 m 1,0,-1
 1 7 l 1,1,-1
 5 7 l 1,2,-1
 5 6 l 1,3,-1
 3 6 l 1,4,-1
 3 1 l 1,5,-1
 5 1 l 1,6,-1
 5 0 l 1,7,-1
 1 0 l 1,0,-1
EndSplineSet
Validated: 1
EndChar

StartChar: backslash
Encoding: 92 92 93
Width: 8
GlyphClass: 2
Flags: W
LayerCount: 2
Fore
SplineSet
0 6 m 1,0,-1
 0 7 l 1,1,-1
 2 7 l 1,2,-1
 2 6 l 1,3,-1
 3 6 l 1,4,-1
 3 5 l 1,5,-1
 4 5 l 1,6,-1
 4 4 l 1,7,-1
 5 4 l 1,8,-1
 5 3 l 1,9,-1
 6 3 l 1,10,-1
 6 2 l 1,11,-1
 7 2 l 1,12,-1
 7 0 l 1,13,-1
 6 0 l 1,14,-1
 6 1 l 1,15,-1
 5 1 l 1,16,-1
 5 2 l 1,17,-1
 4 2 l 1,18,-1
 4 3 l 1,19,-1
 3 3 l 1,20,-1
 3 4 l 1,21,-1
 2 4 l 1,22,-1
 2 5 l 1,23,-1
 1 5 l 1,24,-1
 1 6 l 1,25,-1
 0 6 l 1,0,-1
EndSplineSet
Validated: 1
EndChar

StartChar: bracketright
Encoding: 93 93 94
Width: 8
GlyphClass: 2
Flags: W
LayerCount: 2
Fore
SplineSet
1 0 m 1,0,-1
 1 1 l 1,1,-1
 3 1 l 1,2,-1
 3 6 l 1,3,-1
 1 6 l 1,4,-1
 1 7 l 1,5,-1
 5 7 l 1,6,-1
 5 0 l 1,7,-1
 1 0 l 1,0,-1
EndSplineSet
Validated: 1
EndChar

StartChar: asciicircum
Encoding: 94 94 95
Width: 8
GlyphClass: 2
Flags: W
LayerCount: 2
Fore
SplineSet
0 3 m 1,0,-1
 0 4 l 1,1,-1
 1 4 l 1,2,-1
 1 5 l 1,3,-1
 2 5 l 1,4,-1
 2 6 l 1,5,-1
 3 6 l 1,6,-1
 3 7 l 1,7,-1
 4 7 l 1,8,-1
 4 6 l 1,9,-1
 5 6 l 1,10,-1
 5 5 l 1,11,-1
 6 5 l 1,12,-1
 6 4 l 1,13,-1
 7 4 l 1,14,-1
 7 3 l 1,15,-1
 5 3 l 1,16,-1
 5 4 l 1,17,-1
 4 4 l 1,18,-1
 4 5 l 1,19,-1
 3 5 l 1,20,-1
 3 4 l 1,21,-1
 2 4 l 1,22,-1
 2 3 l 1,23,-1
 0 3 l 1,0,-1
EndSplineSet
Validated: 1
EndChar

StartChar: underscore
Encoding: 95 95 96
Width: 8
GlyphClass: 2
Flags: W
LayerCount: 2
Fore
SplineSet
0 -1 m 1,0,-1
 0 0 l 1,1,-1
 8 0 l 1,2,-1
 8 -1 l 1,3,-1
 0 -1 l 1,0,-1
EndSplineSet
Validated: 1
EndChar

StartChar: grave
Encoding: 96 96 97
Width: 8
GlyphClass: 2
Flags: W
LayerCount: 2
Fore
SplineSet
4 5 m 1,0,-1
 5 5 l 1,1,-1
 5 4 l 1,2,-1
 3 4 l 1,3,-1
 3 5 l 1,4,-1
 2 5 l 1,5,-1
 2 7 l 1,6,-1
 4 7 l 1,7,-1
 4 5 l 1,0,-1
EndSplineSet
Validated: 1
EndChar

StartChar: a
Encoding: 97 97 98
Width: 8
GlyphClass: 2
Flags: W
LayerCount: 2
Fore
SplineSet
0 1 m 1,0,-1
 0 2 l 1,1,-1
 1 2 l 1,2,-1
 1 3 l 1,3,-1
 4 3 l 1,4,-1
 4 4 l 1,5,-1
 1 4 l 1,6,-1
 1 5 l 1,7,-1
 5 5 l 1,8,-1
 5 4 l 1,9,-1
 6 4 l 1,10,-1
 6 1 l 1,11,-1
 7 1 l 1,12,-1
 7 0 l 1,13,-1
 5 0 l 1,14,-1
 5 1 l 1,15,-1
 4 1 l 1,16,-1
 4 2 l 1,17,-1
 2 2 l 1,18,-1
 2 1 l 1,19,-1
 4 1 l 1,20,-1
 4 0 l 1,21,-1
 1 0 l 1,22,-1
 1 1 l 1,23,-1
 0 1 l 1,0,-1
EndSplineSet
Validated: 5
EndChar

StartChar: b
Encoding: 98 98 99
Width: 8
GlyphClass: 2
Flags: W
LayerCount: 2
Fore
SplineSet
0 0 m 1,0,-1
 0 1 l 1,1,-1
 1 1 l 1,2,-1
 1 6 l 1,3,-1
 0 6 l 1,4,-1
 0 7 l 1,5,-1
 3 7 l 1,6,-1
 3 4 l 1,7,-1
 6 4 l 1,8,-1
 6 3 l 1,9,-1
 7 3 l 1,10,-1
 7 1 l 1,11,-1
 6 1 l 1,12,-1
 6 0 l 1,13,-1
 3 0 l 1,14,-1
 3 1 l 1,15,-1
 5 1 l 1,16,-1
 5 3 l 1,17,-1
 3 3 l 1,18,-1
 3 1 l 1,19,-1
 2 1 l 1,20,-1
 2 0 l 1,21,-1
 0 0 l 1,0,-1
EndSplineSet
Validated: 5
EndChar

StartChar: c
Encoding: 99 99 100
Width: 8
GlyphClass: 2
Flags: W
LayerCount: 2
Fore
SplineSet
0 1 m 1,0,-1
 0 4 l 1,1,-1
 1 4 l 1,2,-1
 1 5 l 1,3,-1
 5 5 l 1,4,-1
 5 4 l 1,5,-1
 6 4 l 1,6,-1
 6 3 l 1,7,-1
 4 3 l 1,8,-1
 4 4 l 1,9,-1
 2 4 l 1,10,-1
 2 1 l 1,11,-1
 4 1 l 1,12,-1
 4 2 l 1,13,-1
 6 2 l 1,14,-1
 6 1 l 1,15,-1
 5 1 l 1,16,-1
 5 0 l 1,17,-1
 1 0 l 1,18,-1
 1 1 l 1,19,-1
 0 1 l 1,0,-1
EndSplineSet
Validated: 1
EndChar

StartChar: d
Encoding: 100 100 101
Width: 8
GlyphClass: 2
Flags: W
LayerCount: 2
Fore
SplineSet
0 1 m 1,0,-1
 0 3 l 1,1,-1
 1 3 l 1,2,-1
 1 4 l 1,3,-1
 4 4 l 1,4,-1
 4 6 l 1,5,-1
 3 6 l 1,6,-1
 3 7 l 1,7,-1
 6 7 l 1,8,-1
 6 1 l 1,9,-1
 7 1 l 1,10,-1
 7 0 l 1,11,-1
 5 0 l 1,12,-1
 5 1 l 1,13,-1
 4 1 l 1,14,-1
 4 3 l 1,15,-1
 2 3 l 1,16,-1
 2 1 l 1,17,-1
 4 1 l 1,18,-1
 4 0 l 1,19,-1
 1 0 l 1,20,-1
 1 1 l 1,21,-1
 0 1 l 1,0,-1
EndSplineSet
Validated: 5
EndChar

StartChar: e
Encoding: 101 101 102
Width: 8
GlyphClass: 2
Flags: W
LayerCount: 2
Fore
SplineSet
0 1 m 1,0,-1
 0 4 l 1,1,-1
 1 4 l 1,2,-1
 1 5 l 1,3,-1
 5 5 l 1,4,-1
 5 4 l 1,5,-1
 6 4 l 1,6,-1
 6 2 l 1,7,-1
 2 2 l 1,8,-1
 2 1 l 1,9,-1
 5 1 l 1,10,-1
 5 0 l 1,11,-1
 1 0 l 1,12,-1
 1 1 l 1,13,-1
 0 1 l 1,0,-1
2 4 m 1,14,-1
 2 3 l 1,15,-1
 4 3 l 1,16,-1
 4 4 l 1,17,-1
 2 4 l 1,14,-1
EndSplineSet
Validated: 1
EndChar

StartChar: f
Encoding: 102 102 103
Width: 8
GlyphClass: 2
Flags: W
LayerCount: 2
Fore
SplineSet
0 0 m 1,0,-1
 0 1 l 1,1,-1
 1 1 l 1,2,-1
 1 3 l 1,3,-1
 0 3 l 1,4,-1
 0 4 l 1,5,-1
 1 4 l 1,6,-1
 1 6 l 1,7,-1
 2 6 l 1,8,-1
 2 7 l 1,9,-1
 5 7 l 1,10,-1
 5 6 l 1,11,-1
 6 6 l 1,12,-1
 6 5 l 1,13,-1
 4 5 l 1,14,-1
 4 6 l 1,15,-1
 3 6 l 1,16,-1
 3 4 l 1,17,-1
 4 4 l 1,18,-1
 4 3 l 1,19,-1
 3 3 l 1,20,-1
 3 1 l 1,21,-1
 4 1 l 1,22,-1
 4 0 l 1,23,-1
 0 0 l 1,0,-1
EndSplineSet
Validated: 1
EndChar

StartChar: g
Encoding: 103 103 104
Width: 8
GlyphClass: 2
Flags: W
LayerCount: 2
Fore
SplineSet
0 -1 m 1,0,-1
 0 0 l 1,1,-1
 4 0 l 1,2,-1
 4 1 l 1,3,-1
 1 1 l 1,4,-1
 1 2 l 1,5,-1
 0 2 l 1,6,-1
 0 4 l 1,7,-1
 1 4 l 1,8,-1
 1 5 l 1,9,-1
 4 5 l 1,10,-1
 4 4 l 1,11,-1
 2 4 l 1,12,-1
 2 2 l 1,13,-1
 4 2 l 1,14,-1
 4 4 l 1,15,-1
 5 4 l 1,16,-1
 5 5 l 1,17,-1
 7 5 l 1,18,-1
 7 4 l 1,19,-1
 6 4 l 1,20,-1
 6 0 l 1,21,-1
 5 0 l 1,22,-1
 5 -1 l 1,23,-1
 0 -1 l 1,0,-1
EndSplineSet
Validated: 5
EndChar

StartChar: h
Encoding: 104 104 105
Width: 8
GlyphClass: 2
Flags: W
LayerCount: 2
Fore
SplineSet
0 0 m 1,0,-1
 0 1 l 1,1,-1
 1 1 l 1,2,-1
 1 6 l 1,3,-1
 0 6 l 1,4,-1
 0 7 l 1,5,-1
 3 7 l 1,6,-1
 3 4 l 1,7,-1
 4 4 l 1,8,-1
 4 3 l 1,9,-1
 3 3 l 1,10,-1
 3 0 l 1,11,-1
 0 0 l 1,0,-1
4 4 m 1,12,-1
 4 5 l 1,13,-1
 6 5 l 1,14,-1
 6 4 l 1,15,-1
 7 4 l 1,16,-1
 7 0 l 1,17,-1
 5 0 l 1,18,-1
 5 4 l 1,19,-1
 4 4 l 1,12,-1
EndSplineSet
Validated: 5
EndChar

StartChar: i
Encoding: 105 105 106
Width: 8
GlyphClass: 2
Flags: W
LayerCount: 2
Fore
SplineSet
1 0 m 1,0,-1
 1 1 l 1,1,-1
 2 1 l 1,2,-1
 2 4 l 1,3,-1
 1 4 l 1,4,-1
 1 5 l 1,5,-1
 4 5 l 1,6,-1
 4 1 l 1,7,-1
 5 1 l 1,8,-1
 5 0 l 1,9,-1
 1 0 l 1,0,-1
2 6 m 1,10,-1
 2 7 l 1,11,-1
 4 7 l 1,12,-1
 4 6 l 1,13,-1
 2 6 l 1,10,-1
EndSplineSet
Validated: 1
EndChar

StartChar: j
Encoding: 106 106 107
Width: 8
GlyphClass: 2
Flags: W
LayerCount: 2
Fore
SplineSet
0 2 m 1,0,-1
 2 2 l 1,1,-1
 2 0 l 1,2,-1
 4 0 l 1,3,-1
 4 5 l 1,4,-1
 6 5 l 1,5,-1
 6 0 l 1,6,-1
 5 0 l 1,7,-1
 5 -1 l 1,8,-1
 1 -1 l 1,9,-1
 1 0 l 1,10,-1
 0 0 l 1,11,-1
 0 2 l 1,0,-1
4 6 m 1,12,-1
 4 7 l 1,13,-1
 6 7 l 1,14,-1
 6 6 l 1,15,-1
 4 6 l 1,12,-1
EndSplineSet
Validated: 1
EndChar

StartChar: k
Encoding: 107 107 108
Width: 8
GlyphClass: 2
Flags: W
LayerCount: 2
Fore
SplineSet
0 0 m 1,0,-1
 0 1 l 1,1,-1
 1 1 l 1,2,-1
 1 6 l 1,3,-1
 0 6 l 1,4,-1
 0 7 l 1,5,-1
 3 7 l 1,6,-1
 3 3 l 1,7,-1
 4 3 l 1,8,-1
 4 4 l 1,9,-1
 5 4 l 1,10,-1
 5 5 l 1,11,-1
 7 5 l 1,12,-1
 7 4 l 1,13,-1
 6 4 l 1,14,-1
 6 3 l 1,15,-1
 5 3 l 1,16,-1
 5 2 l 1,17,-1
 6 2 l 1,18,-1
 6 1 l 1,19,-1
 7 1 l 1,20,-1
 7 0 l 1,21,-1
 5 0 l 1,22,-1
 5 1 l 1,23,-1
 4 1 l 1,24,-1
 4 2 l 1,25,-1
 3 2 l 1,26,-1
 3 0 l 1,27,-1
 0 0 l 1,0,-1
EndSplineSet
Validated: 1
EndChar

StartChar: l
Encoding: 108 108 109
Width: 8
GlyphClass: 2
Flags: W
LayerCount: 2
Fore
SplineSet
4 1 m 1,0,-1
 5 1 l 1,1,-1
 5 0 l 1,2,-1
 1 0 l 1,3,-1
 1 1 l 1,4,-1
 2 1 l 1,5,-1
 2 6 l 1,6,-1
 1 6 l 1,7,-1
 1 7 l 1,8,-1
 4 7 l 1,9,-1
 4 1 l 1,0,-1
EndSplineSet
Validated: 1
EndChar

StartChar: m
Encoding: 109 109 110
Width: 8
GlyphClass: 2
Flags: W
LayerCount: 2
Fore
SplineSet
0 0 m 1,0,-1
 0 5 l 1,1,-1
 2 5 l 1,2,-1
 2 4 l 1,3,-1
 4 4 l 1,4,-1
 4 5 l 1,5,-1
 6 5 l 1,6,-1
 6 4 l 1,7,-1
 7 4 l 1,8,-1
 7 0 l 1,9,-1
 5 0 l 1,10,-1
 5 2 l 1,11,-1
 4 2 l 1,12,-1
 4 1 l 1,13,-1
 3 1 l 1,14,-1
 3 2 l 1,15,-1
 2 2 l 1,16,-1
 2 0 l 1,17,-1
 0 0 l 1,0,-1
EndSplineSet
Validated: 1
EndChar

StartChar: n
Encoding: 110 110 111
Width: 8
GlyphClass: 2
Flags: W
LayerCount: 2
Fore
SplineSet
0 0 m 1,0,-1
 0 5 l 1,1,-1
 5 5 l 1,2,-1
 5 4 l 1,3,-1
 6 4 l 1,4,-1
 6 0 l 1,5,-1
 4 0 l 1,6,-1
 4 4 l 1,7,-1
 2 4 l 1,8,-1
 2 0 l 1,9,-1
 0 0 l 1,0,-1
EndSplineSet
Validated: 1
EndChar

StartChar: o
Encoding: 111 111 112
Width: 8
GlyphClass: 2
Flags: W
LayerCount: 2
Fore
SplineSet
0 1 m 1,0,-1
 0 4 l 1,1,-1
 1 4 l 1,2,-1
 1 5 l 1,3,-1
 5 5 l 1,4,-1
 5 4 l 1,5,-1
 6 4 l 1,6,-1
 6 1 l 1,7,-1
 5 1 l 1,8,-1
 5 0 l 1,9,-1
 1 0 l 1,10,-1
 1 1 l 1,11,-1
 0 1 l 1,0,-1
2 1 m 1,12,-1
 4 1 l 1,13,-1
 4 4 l 1,14,-1
 2 4 l 1,15,-1
 2 1 l 1,12,-1
EndSplineSet
Validated: 1
EndChar

StartChar: p
Encoding: 112 112 113
Width: 8
GlyphClass: 2
Flags: W
LayerCount: 2
Fore
SplineSet
0 -1 m 1,0,-1
 0 0 l 1,1,-1
 1 0 l 1,2,-1
 1 4 l 1,3,-1
 0 4 l 1,4,-1
 0 5 l 1,5,-1
 2 5 l 1,6,-1
 2 4 l 1,7,-1
 3 4 l 1,8,-1
 3 2 l 1,9,-1
 5 2 l 1,10,-1
 5 4 l 1,11,-1
 3 4 l 1,12,-1
 3 5 l 1,13,-1
 6 5 l 1,14,-1
 6 4 l 1,15,-1
 7 4 l 1,16,-1
 7 2 l 1,17,-1
 6 2 l 1,18,-1
 6 1 l 1,19,-1
 3 1 l 1,20,-1
 3 0 l 1,21,-1
 4 0 l 1,22,-1
 4 -1 l 1,23,-1
 0 -1 l 1,0,-1
EndSplineSet
Validated: 5
EndChar

StartChar: q
Encoding: 113 113 114
Width: 8
GlyphClass: 2
Flags: W
LayerCount: 2
Fore
SplineSet
0 2 m 1,0,-1
 0 4 l 1,1,-1
 1 4 l 1,2,-1
 1 5 l 1,3,-1
 4 5 l 1,4,-1
 4 4 l 1,5,-1
 2 4 l 1,6,-1
 2 2 l 1,7,-1
 4 2 l 1,8,-1
 4 4 l 1,9,-1
 5 4 l 1,10,-1
 5 5 l 1,11,-1
 7 5 l 1,12,-1
 7 4 l 1,13,-1
 6 4 l 1,14,-1
 6 0 l 1,15,-1
 7 0 l 1,16,-1
 7 -1 l 1,17,-1
 3 -1 l 1,18,-1
 3 0 l 1,19,-1
 4 0 l 1,20,-1
 4 1 l 1,21,-1
 1 1 l 1,22,-1
 1 2 l 1,23,-1
 0 2 l 1,0,-1
EndSplineSet
Validated: 5
EndChar

StartChar: r
Encoding: 114 114 115
Width: 8
GlyphClass: 2
Flags: W
LayerCount: 2
Fore
SplineSet
0 0 m 1,0,-1
 0 1 l 1,1,-1
 1 1 l 1,2,-1
 1 4 l 1,3,-1
 0 4 l 1,4,-1
 0 5 l 1,5,-1
 2 5 l 1,6,-1
 2 4 l 1,7,-1
 3 4 l 1,8,-1
 3 5 l 1,9,-1
 6 5 l 1,10,-1
 6 4 l 1,11,-1
 7 4 l 1,12,-1
 7 2 l 1,13,-1
 5 2 l 1,14,-1
 5 4 l 1,15,-1
 4 4 l 1,16,-1
 4 3 l 1,17,-1
 3 3 l 1,18,-1
 3 1 l 1,19,-1
 4 1 l 1,20,-1
 4 0 l 1,21,-1
 0 0 l 1,0,-1
EndSplineSet
Validated: 1
EndChar

StartChar: s
Encoding: 115 115 116
Width: 8
GlyphClass: 2
Flags: W
LayerCount: 2
Fore
SplineSet
0 0 m 1,0,-1
 0 1 l 1,1,-1
 4 1 l 1,2,-1
 4 2 l 1,3,-1
 1 2 l 1,4,-1
 1 3 l 1,5,-1
 0 3 l 1,6,-1
 0 4 l 1,7,-1
 1 4 l 1,8,-1
 1 5 l 1,9,-1
 6 5 l 1,10,-1
 6 4 l 1,11,-1
 2 4 l 1,12,-1
 2 3 l 1,13,-1
 5 3 l 1,14,-1
 5 2 l 1,15,-1
 6 2 l 1,16,-1
 6 1 l 1,17,-1
 5 1 l 1,18,-1
 5 0 l 1,19,-1
 0 0 l 1,0,-1
EndSplineSet
Validated: 1
EndChar

StartChar: t
Encoding: 116 116 117
Width: 8
GlyphClass: 2
Flags: W
LayerCount: 2
Fore
SplineSet
1 4 m 1,0,-1
 1 5 l 1,1,-1
 2 5 l 1,2,-1
 2 6 l 1,3,-1
 3 6 l 1,4,-1
 3 7 l 1,5,-1
 4 7 l 1,6,-1
 4 5 l 1,7,-1
 6 5 l 1,8,-1
 6 4 l 1,9,-1
 4 4 l 1,10,-1
 4 1 l 1,11,-1
 5 1 l 1,12,-1
 5 0 l 1,13,-1
 3 0 l 1,14,-1
 3 1 l 1,15,-1
 2 1 l 1,16,-1
 2 4 l 1,17,-1
 1 4 l 1,0,-1
5 1 m 1,18,-1
 5 2 l 1,19,-1
 6 2 l 1,20,-1
 6 1 l 1,21,-1
 5 1 l 1,18,-1
EndSplineSet
Validated: 5
EndChar

StartChar: u
Encoding: 117 117 118
Width: 8
GlyphClass: 2
Flags: W
LayerCount: 2
Fore
SplineSet
0 1 m 1,0,-1
 0 5 l 1,1,-1
 2 5 l 1,2,-1
 2 1 l 1,3,-1
 4 1 l 1,4,-1
 4 0 l 1,5,-1
 1 0 l 1,6,-1
 1 1 l 1,7,-1
 0 1 l 1,0,-1
4 1 m 1,8,-1
 4 5 l 1,9,-1
 6 5 l 1,10,-1
 6 1 l 1,11,-1
 7 1 l 1,12,-1
 7 0 l 1,13,-1
 5 0 l 1,14,-1
 5 1 l 1,15,-1
 4 1 l 1,8,-1
EndSplineSet
Validated: 5
EndChar

StartChar: v
Encoding: 118 118 119
Width: 8
GlyphClass: 2
Flags: W
LayerCount: 2
Fore
SplineSet
0 2 m 1,0,-1
 0 5 l 1,1,-1
 2 5 l 1,2,-1
 2 2 l 1,3,-1
 4 2 l 1,4,-1
 4 5 l 1,5,-1
 6 5 l 1,6,-1
 6 2 l 1,7,-1
 5 2 l 1,8,-1
 5 1 l 1,9,-1
 4 1 l 1,10,-1
 4 0 l 1,11,-1
 2 0 l 1,12,-1
 2 1 l 1,13,-1
 1 1 l 1,14,-1
 1 2 l 1,15,-1
 0 2 l 1,0,-1
EndSplineSet
Validated: 1
EndChar

StartChar: w
Encoding: 119 119 120
Width: 8
GlyphClass: 2
Flags: W
LayerCount: 2
Fore
SplineSet
0 1 m 1,0,-1
 0 5 l 1,1,-1
 2 5 l 1,2,-1
 2 3 l 1,3,-1
 3 3 l 1,4,-1
 3 4 l 1,5,-1
 4 4 l 1,6,-1
 4 3 l 1,7,-1
 5 3 l 1,8,-1
 5 5 l 1,9,-1
 7 5 l 1,10,-1
 7 1 l 1,11,-1
 6 1 l 1,12,-1
 6 0 l 1,13,-1
 4 0 l 1,14,-1
 4 1 l 1,15,-1
 3 1 l 1,16,-1
 3 0 l 1,17,-1
 1 0 l 1,18,-1
 1 1 l 1,19,-1
 0 1 l 1,0,-1
EndSplineSet
Validated: 1
EndChar

StartChar: x
Encoding: 120 120 121
Width: 8
GlyphClass: 2
Flags: W
LayerCount: 2
Fore
SplineSet
0 0 m 1,0,-1
 0 1 l 1,1,-1
 1 1 l 1,2,-1
 1 2 l 1,3,-1
 2 2 l 1,4,-1
 2 3 l 1,5,-1
 1 3 l 1,6,-1
 1 4 l 1,7,-1
 0 4 l 1,8,-1
 0 5 l 1,9,-1
 2 5 l 1,10,-1
 2 4 l 1,11,-1
 3 4 l 1,12,-1
 3 3 l 1,13,-1
 4 3 l 1,14,-1
 4 4 l 1,15,-1
 5 4 l 1,16,-1
 5 5 l 1,17,-1
 7 5 l 1,18,-1
 7 4 l 1,19,-1
 6 4 l 1,20,-1
 6 3 l 1,21,-1
 5 3 l 1,22,-1
 5 2 l 1,23,-1
 6 2 l 1,24,-1
 6 1 l 1,25,-1
 7 1 l 1,26,-1
 7 0 l 1,27,-1
 5 0 l 1,28,-1
 5 1 l 1,29,-1
 4 1 l 1,30,-1
 4 2 l 1,31,-1
 3 2 l 1,32,-1
 3 1 l 1,33,-1
 2 1 l 1,34,-1
 2 0 l 1,35,-1
 0 0 l 1,0,-1
EndSplineSet
Validated: 1
EndChar

StartChar: y
Encoding: 121 121 122
Width: 8
GlyphClass: 2
Flags: W
LayerCount: 2
Fore
SplineSet
0 -1 m 1,0,-1
 0 0 l 1,1,-1
 4 0 l 1,2,-1
 4 1 l 1,3,-1
 1 1 l 1,4,-1
 1 2 l 1,5,-1
 0 2 l 1,6,-1
 0 5 l 1,7,-1
 2 5 l 1,8,-1
 2 2 l 1,9,-1
 4 2 l 1,10,-1
 4 5 l 1,11,-1
 6 5 l 1,12,-1
 6 0 l 1,13,-1
 5 0 l 1,14,-1
 5 -1 l 1,15,-1
 0 -1 l 1,0,-1
EndSplineSet
Validated: 1
EndChar

StartChar: z
Encoding: 122 122 123
Width: 8
GlyphClass: 2
Flags: W
LayerCount: 2
Fore
SplineSet
0 0 m 1,0,-1
 0 1 l 1,1,-1
 1 1 l 1,2,-1
 1 2 l 1,3,-1
 2 2 l 1,4,-1
 2 3 l 1,5,-1
 3 3 l 1,6,-1
 3 4 l 1,7,-1
 1 4 l 1,8,-1
 1 3 l 1,9,-1
 0 3 l 1,10,-1
 0 5 l 1,11,-1
 6 5 l 1,12,-1
 6 4 l 1,13,-1
 5 4 l 1,14,-1
 5 3 l 1,15,-1
 4 3 l 1,16,-1
 4 2 l 1,17,-1
 3 2 l 1,18,-1
 3 1 l 1,19,-1
 5 1 l 1,20,-1
 5 2 l 1,21,-1
 6 2 l 1,22,-1
 6 0 l 1,23,-1
 0 0 l 1,0,-1
EndSplineSet
Validated: 1
EndChar

StartChar: braceleft
Encoding: 123 123 124
Width: 8
GlyphClass: 2
Flags: W
LayerCount: 2
Fore
SplineSet
0 3 m 1,0,-1
 0 4 l 1,1,-1
 2 4 l 1,2,-1
 2 6 l 1,3,-1
 3 6 l 1,4,-1
 3 7 l 1,5,-1
 6 7 l 1,6,-1
 6 6 l 1,7,-1
 4 6 l 1,8,-1
 4 4 l 1,9,-1
 3 4 l 1,10,-1
 3 3 l 1,11,-1
 4 3 l 1,12,-1
 4 1 l 1,13,-1
 6 1 l 1,14,-1
 6 0 l 1,15,-1
 3 0 l 1,16,-1
 3 1 l 1,17,-1
 2 1 l 1,18,-1
 2 3 l 1,19,-1
 0 3 l 1,0,-1
EndSplineSet
Validated: 1
EndChar

StartChar: bar
Encoding: 124 124 125
Width: 8
GlyphClass: 2
Flags: W
LayerCount: 2
Fore
SplineSet
5 0 m 1,0,-1
 3 0 l 1,1,-1
 3 3 l 1,2,-1
 5 3 l 1,3,-1
 5 0 l 1,0,-1
5 4 m 1,4,-1
 3 4 l 1,5,-1
 3 7 l 1,6,-1
 5 7 l 1,7,-1
 5 4 l 1,4,-1
EndSplineSet
Validated: 1
EndChar

StartChar: braceright
Encoding: 125 125 126
Width: 8
GlyphClass: 2
Flags: W
LayerCount: 2
Fore
SplineSet
0 0 m 1,0,-1
 0 1 l 1,1,-1
 2 1 l 1,2,-1
 2 3 l 1,3,-1
 3 3 l 1,4,-1
 3 4 l 1,5,-1
 2 4 l 1,6,-1
 2 6 l 1,7,-1
 0 6 l 1,8,-1
 0 7 l 1,9,-1
 3 7 l 1,10,-1
 3 6 l 1,11,-1
 4 6 l 1,12,-1
 4 4 l 1,13,-1
 6 4 l 1,14,-1
 6 3 l 1,15,-1
 4 3 l 1,16,-1
 4 1 l 1,17,-1
 3 1 l 1,18,-1
 3 0 l 1,19,-1
 0 0 l 1,0,-1
EndSplineSet
Validated: 1
EndChar

StartChar: asciitilde
Encoding: 126 126 127
Width: 8
GlyphClass: 2
Flags: W
LayerCount: 2
Fore
SplineSet
0 5 m 1,0,-1
 0 6 l 1,1,-1
 1 6 l 1,2,-1
 1 7 l 1,3,-1
 4 7 l 1,4,-1
 4 6 l 1,5,-1
 5 6 l 1,6,-1
 5 7 l 1,7,-1
 7 7 l 1,8,-1
 7 6 l 1,9,-1
 6 6 l 1,10,-1
 6 5 l 1,11,-1
 3 5 l 1,12,-1
 3 6 l 1,13,-1
 2 6 l 1,14,-1
 2 5 l 1,15,-1
 0 5 l 1,0,-1
EndSplineSet
Validated: 1
EndChar

StartChar: uni007F
Encoding: 127 127 128
Width: 8
GlyphClass: 2
Flags: W
LayerCount: 2
Fore
SplineSet
0 0 m 1,0,-1
 0 3 l 1,1,-1
 1 3 l 1,2,-1
 1 4 l 1,3,-1
 2 4 l 1,4,-1
 2 5 l 1,5,-1
 3 5 l 1,6,-1
 3 6 l 1,7,-1
 4 6 l 1,8,-1
 4 5 l 1,9,-1
 5 5 l 1,10,-1
 5 4 l 1,11,-1
 6 4 l 1,12,-1
 6 3 l 1,13,-1
 7 3 l 1,14,-1
 7 0 l 1,15,-1
 0 0 l 1,0,-1
2 1 m 1,16,-1
 5 1 l 1,17,-1
 5 3 l 1,18,-1
 4 3 l 1,19,-1
 4 4 l 1,20,-1
 3 4 l 1,21,-1
 3 3 l 1,22,-1
 2 3 l 1,23,-1
 2 1 l 1,16,-1
EndSplineSet
Validated: 1
EndChar

StartChar: exclamdown
Encoding: 161 161 130
Width: 8
GlyphClass: 2
Flags: W
LayerCount: 2
Fore
SplineSet
5 0 m 1,0,-1
 3 0 l 1,1,-1
 3 4 l 1,2,-1
 5 4 l 1,3,-1
 5 0 l 1,0,-1
5 5 m 1,4,-1
 3 5 l 1,5,-1
 3 7 l 1,6,-1
 5 7 l 1,7,-1
 5 5 l 1,4,-1
EndSplineSet
Validated: 1
EndChar

StartChar: cent
Encoding: 162 162 131
Width: 8
GlyphClass: 2
Flags: W
LayerCount: 2
Fore
SplineSet
0 2 m 1,0,-1
 0 4 l 1,1,-1
 1 4 l 1,2,-1
 1 5 l 1,3,-1
 3 5 l 1,4,-1
 3 7 l 1,5,-1
 5 7 l 1,6,-1
 5 5 l 1,7,-1
 7 5 l 1,8,-1
 7 4 l 1,9,-1
 2 4 l 1,10,-1
 2 2 l 1,11,-1
 7 2 l 1,12,-1
 7 1 l 1,13,-1
 5 1 l 1,14,-1
 5 -1 l 1,15,-1
 3 -1 l 1,16,-1
 3 1 l 1,17,-1
 1 1 l 1,18,-1
 1 2 l 1,19,-1
 0 2 l 1,0,-1
EndSplineSet
Validated: 1
EndChar

StartChar: sterling
Encoding: 163 163 132
Width: 8
GlyphClass: 2
Flags: W
LayerCount: 2
Fore
SplineSet
0 2 m 1,0,-1
 1 2 l 1,1,-1
 1 3 l 1,2,-1
 0 3 l 1,3,-1
 0 4 l 1,4,-1
 1 4 l 1,5,-1
 1 6 l 1,6,-1
 2 6 l 1,7,-1
 2 7 l 1,8,-1
 5 7 l 1,9,-1
 5 6 l 1,10,-1
 6 6 l 1,11,-1
 6 4 l 1,12,-1
 5 4 l 1,13,-1
 5 5 l 1,14,-1
 4 5 l 1,15,-1
 4 6 l 1,16,-1
 3 6 l 1,17,-1
 3 4 l 1,18,-1
 4 4 l 1,19,-1
 4 3 l 1,20,-1
 3 3 l 1,21,-1
 3 1 l 1,22,-1
 5 1 l 1,23,-1
 5 2 l 1,24,-1
 7 2 l 1,25,-1
 7 1 l 1,26,-1
 6 1 l 1,27,-1
 6 0 l 1,28,-1
 0 0 l 1,29,-1
 0 2 l 1,0,-1
EndSplineSet
Validated: 1
EndChar

StartChar: currency
Encoding: 164 164 133
Width: 8
GlyphClass: 2
Flags: W
LayerCount: 2
Fore
SplineSet
0 0 m 1,0,-1
 0 1 l 1,1,-1
 1 1 l 1,2,-1
 1 2 l 1,3,-1
 0 2 l 1,4,-1
 0 4 l 1,5,-1
 1 4 l 1,6,-1
 1 5 l 1,7,-1
 0 5 l 1,8,-1
 0 6 l 1,9,-1
 2 6 l 1,10,-1
 2 5 l 1,11,-1
 5 5 l 1,12,-1
 5 6 l 1,13,-1
 7 6 l 1,14,-1
 7 5 l 1,15,-1
 6 5 l 1,16,-1
 6 4 l 1,17,-1
 7 4 l 1,18,-1
 7 2 l 1,19,-1
 6 2 l 1,20,-1
 6 1 l 1,21,-1
 7 1 l 1,22,-1
 7 0 l 1,23,-1
 5 0 l 1,24,-1
 5 1 l 1,25,-1
 2 1 l 1,26,-1
 2 0 l 1,27,-1
 0 0 l 1,0,-1
2 2 m 1,28,-1
 5 2 l 1,29,-1
 5 4 l 1,30,-1
 2 4 l 1,31,-1
 2 2 l 1,28,-1
EndSplineSet
Validated: 1
EndChar

StartChar: yen
Encoding: 165 165 134
Width: 8
GlyphClass: 2
Flags: W
LayerCount: 2
Fore
SplineSet
0 1 m 1,0,-1
 0 2 l 1,1,-1
 2 2 l 1,2,-1
 2 3 l 1,3,-1
 0 3 l 1,4,-1
 0 4 l 1,5,-1
 1 4 l 1,6,-1
 1 5 l 1,7,-1
 0 5 l 1,8,-1
 0 7 l 1,9,-1
 2 7 l 1,10,-1
 2 5 l 1,11,-1
 4 5 l 1,12,-1
 4 7 l 1,13,-1
 6 7 l 1,14,-1
 6 5 l 1,15,-1
 5 5 l 1,16,-1
 5 4 l 1,17,-1
 6 4 l 1,18,-1
 6 3 l 1,19,-1
 4 3 l 1,20,-1
 4 2 l 1,21,-1
 6 2 l 1,22,-1
 6 1 l 1,23,-1
 4 1 l 1,24,-1
 4 -1 l 1,25,-1
 2 -1 l 1,26,-1
 2 1 l 1,27,-1
 0 1 l 1,0,-1
EndSplineSet
Validated: 1
EndChar

StartChar: brokenbar
Encoding: 166 166 135
Width: 8
GlyphClass: 2
Flags: W
LayerCount: 2
Fore
SplineSet
5 0 m 1,0,-1
 3 0 l 1,1,-1
 3 3 l 1,2,-1
 5 3 l 1,3,-1
 5 0 l 1,0,-1
5 4 m 1,4,-1
 3 4 l 1,5,-1
 3 7 l 1,6,-1
 5 7 l 1,7,-1
 5 4 l 1,4,-1
EndSplineSet
Validated: 1
EndChar

StartChar: section
Encoding: 167 167 136
Width: 8
GlyphClass: 2
Flags: W
LayerCount: 2
Fore
SplineSet
0 0 m 1,0,-1
 0 1 l 1,1,-1
 2 1 l 1,2,-1
 2 0 l 1,3,-1
 4 0 l 1,4,-1
 4 1 l 1,5,-1
 2 1 l 1,6,-1
 2 2 l 1,7,-1
 1 2 l 1,8,-1
 1 4 l 1,9,-1
 2 4 l 1,10,-1
 2 5 l 1,11,-1
 1 5 l 1,12,-1
 1 6 l 1,13,-1
 2 6 l 1,14,-1
 2 7 l 1,15,-1
 7 7 l 1,16,-1
 7 6 l 1,17,-1
 8 6 l 1,18,-1
 8 5 l 1,19,-1
 6 5 l 1,20,-1
 6 6 l 1,21,-1
 3 6 l 1,22,-1
 3 5 l 1,23,-1
 5 5 l 1,24,-1
 5 4 l 1,25,-1
 6 4 l 1,26,-1
 6 2 l 1,27,-1
 5 2 l 1,28,-1
 5 1 l 1,29,-1
 6 1 l 1,30,-1
 6 0 l 1,31,-1
 5 0 l 1,32,-1
 5 -1 l 1,33,-1
 1 -1 l 1,34,-1
 1 0 l 1,35,-1
 0 0 l 1,0,-1
4 2 m 1,36,-1
 4 4 l 1,37,-1
 3 4 l 1,38,-1
 3 2 l 1,39,-1
 4 2 l 1,36,-1
EndSplineSet
Validated: 5
EndChar

StartChar: dieresis
Encoding: 168 168 137
Width: 8
GlyphClass: 2
Flags: W
LayerCount: 2
Fore
SplineSet
0 6 m 1,0,-1
 0 7 l 1,1,-1
 2 7 l 1,2,-1
 2 6 l 1,3,-1
 0 6 l 1,0,-1
5 6 m 1,4,-1
 5 7 l 1,5,-1
 7 7 l 1,6,-1
 7 6 l 1,7,-1
 5 6 l 1,4,-1
EndSplineSet
Validated: 1
EndChar

StartChar: copyright
Encoding: 169 169 138
Width: 8
GlyphClass: 2
Flags: W
LayerCount: 2
Fore
SplineSet
0 0 m 1,0,-1
 0 6 l 1,1,-1
 1 6 l 1,2,-1
 1 0 l 1,3,-1
 0 0 l 1,0,-1
8 0 m 1,4,-1
 7 0 l 1,5,-1
 7 6 l 1,6,-1
 8 6 l 1,7,-1
 8 0 l 1,4,-1
1 0 m 1,8,-1
 7 0 l 1,9,-1
 7 -1 l 1,10,-1
 1 -1 l 1,11,-1
 1 0 l 1,8,-1
1 6 m 1,12,-1
 1 7 l 1,13,-1
 7 7 l 1,14,-1
 7 6 l 1,15,-1
 1 6 l 1,12,-1
2 2 m 1,16,-1
 2 4 l 1,17,-1
 3 4 l 1,18,-1
 3 2 l 1,19,-1
 2 2 l 1,16,-1
3 2 m 1,20,-1
 6 2 l 1,21,-1
 6 1 l 1,22,-1
 3 1 l 1,23,-1
 3 2 l 1,20,-1
3 4 m 1,24,-1
 3 5 l 1,25,-1
 6 5 l 1,26,-1
 6 4 l 1,27,-1
 3 4 l 1,24,-1
EndSplineSet
Validated: 5
EndChar

StartChar: ordfeminine
Encoding: 170 170 139
Width: 8
GlyphClass: 2
Flags: W
LayerCount: 2
Fore
SplineSet
1 1 m 1,0,-1
 1 2 l 1,1,-1
 7 2 l 1,2,-1
 7 1 l 1,3,-1
 1 1 l 1,0,-1
1 4 m 1,4,-1
 1 6 l 1,5,-1
 2 6 l 1,6,-1
 2 7 l 1,7,-1
 6 7 l 1,8,-1
 6 4 l 1,9,-1
 7 4 l 1,10,-1
 7 3 l 1,11,-1
 2 3 l 1,12,-1
 2 4 l 1,13,-1
 1 4 l 1,4,-1
3 4 m 1,14,-1
 4 4 l 1,15,-1
 4 6 l 1,16,-1
 3 6 l 1,17,-1
 3 4 l 1,14,-1
EndSplineSet
Validated: 1
EndChar

StartChar: guillemotleft
Encoding: 171 171 140
Width: 8
GlyphClass: 2
Flags: W
LayerCount: 2
Fore
SplineSet
0 3 m 1,0,-1
 0 4 l 1,1,-1
 1 4 l 1,2,-1
 1 5 l 1,3,-1
 2 5 l 1,4,-1
 2 6 l 1,5,-1
 4 6 l 1,6,-1
 4 5 l 1,7,-1
 3 5 l 1,8,-1
 3 4 l 1,9,-1
 2 4 l 1,10,-1
 2 3 l 1,11,-1
 3 3 l 1,12,-1
 3 2 l 1,13,-1
 4 2 l 1,14,-1
 4 1 l 1,15,-1
 2 1 l 1,16,-1
 2 2 l 1,17,-1
 1 2 l 1,18,-1
 1 3 l 1,19,-1
 0 3 l 1,0,-1
4 3 m 1,20,-1
 4 4 l 1,21,-1
 5 4 l 1,22,-1
 5 5 l 1,23,-1
 6 5 l 1,24,-1
 6 6 l 1,25,-1
 8 6 l 1,26,-1
 8 5 l 1,27,-1
 7 5 l 1,28,-1
 7 4 l 1,29,-1
 6 4 l 1,30,-1
 6 3 l 1,31,-1
 7 3 l 1,32,-1
 7 2 l 1,33,-1
 8 2 l 1,34,-1
 8 1 l 1,35,-1
 6 1 l 1,36,-1
 6 2 l 1,37,-1
 5 2 l 1,38,-1
 5 3 l 1,39,-1
 4 3 l 1,20,-1
EndSplineSet
Validated: 1
EndChar

StartChar: logicalnot
Encoding: 172 172 141
Width: 8
GlyphClass: 2
Flags: W
LayerCount: 2
Fore
SplineSet
4 1 m 1,0,-1
 4 3 l 1,1,-1
 0 3 l 1,2,-1
 0 4 l 1,3,-1
 6 4 l 1,4,-1
 6 1 l 1,5,-1
 4 1 l 1,0,-1
EndSplineSet
Validated: 1
EndChar

StartChar: uni00AD
Encoding: 173 173 142
Width: 8
GlyphClass: 2
Flags: W
LayerCount: 2
Fore
SplineSet
1 3 m 1,0,-1
 1 4 l 1,1,-1
 7 4 l 1,2,-1
 7 3 l 1,3,-1
 1 3 l 1,0,-1
EndSplineSet
Validated: 1
EndChar

StartChar: registered
Encoding: 174 174 143
Width: 8
GlyphClass: 2
Flags: W
LayerCount: 2
Fore
SplineSet
0 0 m 1,0,-1
 0 6 l 1,1,-1
 1 6 l 1,2,-1
 1 0 l 1,3,-1
 0 0 l 1,0,-1
2 1 m 1,4,-1
 2 5 l 1,5,-1
 5 5 l 1,6,-1
 5 4 l 1,7,-1
 3 4 l 1,8,-1
 3 3 l 1,9,-1
 5 3 l 1,10,-1
 5 2 l 1,11,-1
 3 2 l 1,12,-1
 3 1 l 1,13,-1
 2 1 l 1,4,-1
6 2 m 1,14,-1
 6 1 l 1,15,-1
 5 1 l 1,16,-1
 5 2 l 1,17,-1
 6 2 l 1,14,-1
6 4 m 1,18,-1
 6 3 l 1,19,-1
 5 3 l 1,20,-1
 5 4 l 1,21,-1
 6 4 l 1,18,-1
8 0 m 1,22,-1
 7 0 l 1,23,-1
 7 6 l 1,24,-1
 8 6 l 1,25,-1
 8 0 l 1,22,-1
1 0 m 1,26,-1
 7 0 l 1,27,-1
 7 -1 l 1,28,-1
 1 -1 l 1,29,-1
 1 0 l 1,26,-1
1 6 m 1,30,-1
 1 7 l 1,31,-1
 7 7 l 1,32,-1
 7 6 l 1,33,-1
 1 6 l 1,30,-1
EndSplineSet
Validated: 5
EndChar

StartChar: macron
Encoding: 175 175 144
Width: 8
GlyphClass: 2
Flags: W
LayerCount: 2
Fore
SplineSet
0 6 m 1,0,-1
 0 7 l 1,1,-1
 8 7 l 1,2,-1
 8 6 l 1,3,-1
 0 6 l 1,0,-1
EndSplineSet
Validated: 1
EndChar

StartChar: degree
Encoding: 176 176 145
Width: 8
GlyphClass: 2
Flags: W
LayerCount: 2
Fore
SplineSet
1 4 m 1,0,-1
 1 6 l 1,1,-1
 2 6 l 1,2,-1
 2 7 l 1,3,-1
 5 7 l 1,4,-1
 5 6 l 1,5,-1
 6 6 l 1,6,-1
 6 4 l 1,7,-1
 5 4 l 1,8,-1
 5 3 l 1,9,-1
 2 3 l 1,10,-1
 2 4 l 1,11,-1
 1 4 l 1,0,-1
3 4 m 1,12,-1
 4 4 l 1,13,-1
 4 6 l 1,14,-1
 3 6 l 1,15,-1
 3 4 l 1,12,-1
EndSplineSet
Validated: 1
EndChar

StartChar: plusminus
Encoding: 177 177 146
Width: 8
GlyphClass: 2
Flags: W
LayerCount: 2
Fore
SplineSet
0 0 m 1,0,-1
 0 1 l 1,1,-1
 6 1 l 1,2,-1
 6 0 l 1,3,-1
 0 0 l 1,0,-1
0 4 m 1,4,-1
 0 5 l 1,5,-1
 2 5 l 1,6,-1
 2 7 l 1,7,-1
 4 7 l 1,8,-1
 4 5 l 1,9,-1
 6 5 l 1,10,-1
 6 4 l 1,11,-1
 4 4 l 1,12,-1
 4 2 l 1,13,-1
 2 2 l 1,14,-1
 2 4 l 1,15,-1
 0 4 l 1,4,-1
EndSplineSet
Validated: 1
EndChar

StartChar: uni00B2
Encoding: 178 178 147
Width: 8
GlyphClass: 2
Flags: W
LayerCount: 2
Fore
SplineSet
1 2 m 1,0,-1
 1 4 l 1,1,-1
 2 4 l 1,2,-1
 2 5 l 1,3,-1
 3 5 l 1,4,-1
 3 6 l 1,5,-1
 1 6 l 1,6,-1
 1 7 l 1,7,-1
 4 7 l 1,8,-1
 4 6 l 1,9,-1
 5 6 l 1,10,-1
 5 5 l 1,11,-1
 4 5 l 1,12,-1
 4 4 l 1,13,-1
 3 4 l 1,14,-1
 3 3 l 1,15,-1
 5 3 l 1,16,-1
 5 2 l 1,17,-1
 1 2 l 1,0,-1
EndSplineSet
Validated: 1
EndChar

StartChar: uni00B3
Encoding: 179 179 148
Width: 8
GlyphClass: 2
Flags: W
LayerCount: 2
Fore
SplineSet
1 2 m 1,0,-1
 1 3 l 1,1,-1
 3 3 l 1,2,-1
 3 4 l 1,3,-1
 2 4 l 1,4,-1
 2 5 l 1,5,-1
 3 5 l 1,6,-1
 3 6 l 1,7,-1
 1 6 l 1,8,-1
 1 7 l 1,9,-1
 4 7 l 1,10,-1
 4 6 l 1,11,-1
 5 6 l 1,12,-1
 5 5 l 1,13,-1
 4 5 l 1,14,-1
 4 4 l 1,15,-1
 5 4 l 1,16,-1
 5 3 l 1,17,-1
 4 3 l 1,18,-1
 4 2 l 1,19,-1
 1 2 l 1,0,-1
EndSplineSet
Validated: 1
EndChar

StartChar: acute
Encoding: 180 180 149
Width: 8
GlyphClass: 2
Flags: W
LayerCount: 2
Fore
SplineSet
4 5 m 1,0,-1
 4 4 l 1,1,-1
 2 4 l 1,2,-1
 2 5 l 1,3,-1
 3 5 l 1,4,-1
 3 6 l 1,5,-1
 4 6 l 1,6,-1
 4 7 l 1,7,-1
 6 7 l 1,8,-1
 6 6 l 1,9,-1
 5 6 l 1,10,-1
 5 5 l 1,11,-1
 4 5 l 1,0,-1
EndSplineSet
Validated: 1
EndChar

StartChar: mu
Encoding: 181 181 150
Width: 8
GlyphClass: 2
Flags: W
LayerCount: 2
Fore
SplineSet
0 -1 m 1,0,-1
 0 0 l 1,1,-1
 1 0 l 1,2,-1
 1 6 l 1,3,-1
 3 6 l 1,4,-1
 3 2 l 1,5,-1
 5 2 l 1,6,-1
 5 6 l 1,7,-1
 7 6 l 1,8,-1
 7 2 l 1,9,-1
 6 2 l 1,10,-1
 6 1 l 1,11,-1
 3 1 l 1,12,-1
 3 0 l 1,13,-1
 2 0 l 1,14,-1
 2 -1 l 1,15,-1
 0 -1 l 1,0,-1
EndSplineSet
Validated: 1
EndChar

StartChar: paragraph
Encoding: 182 182 151
Width: 8
GlyphClass: 2
Flags: W
LayerCount: 2
Fore
SplineSet
8 0 m 1,0,-1
 6 0 l 1,1,-1
 6 6 l 1,2,-1
 5 6 l 1,3,-1
 5 0 l 1,4,-1
 3 0 l 1,5,-1
 3 3 l 1,6,-1
 1 3 l 1,7,-1
 1 4 l 1,8,-1
 0 4 l 1,9,-1
 0 6 l 1,10,-1
 1 6 l 1,11,-1
 1 7 l 1,12,-1
 8 7 l 1,13,-1
 8 0 l 1,0,-1
2 4 m 1,14,-1
 3 4 l 1,15,-1
 3 6 l 1,16,-1
 2 6 l 1,17,-1
 2 4 l 1,14,-1
EndSplineSet
Validated: 1
EndChar

StartChar: periodcentered
Encoding: 183 183 152
Width: 8
GlyphClass: 2
Flags: W
LayerCount: 2
Fore
SplineSet
5 2 m 1,0,-1
 3 2 l 1,1,-1
 3 3 l 1,2,-1
 5 3 l 1,3,-1
 5 2 l 1,0,-1
EndSplineSet
Validated: 1
EndChar

StartChar: cedilla
Encoding: 184 184 153
Width: 8
GlyphClass: 2
Flags: W
LayerCount: 2
Fore
SplineSet
4 1 m 1,0,-1
 3 1 l 1,1,-1
 3 2 l 1,2,-1
 5 2 l 1,3,-1
 5 1 l 1,4,-1
 6 1 l 1,5,-1
 6 0 l 1,6,-1
 5 0 l 1,7,-1
 5 -1 l 1,8,-1
 2 -1 l 1,9,-1
 2 0 l 1,10,-1
 4 0 l 1,11,-1
 4 1 l 1,0,-1
EndSplineSet
Validated: 1
EndChar

StartChar: uni00B9
Encoding: 185 185 154
Width: 8
GlyphClass: 2
Flags: W
LayerCount: 2
Fore
SplineSet
4 3 m 1,0,-1
 5 3 l 1,1,-1
 5 2 l 1,2,-1
 1 2 l 1,3,-1
 1 3 l 1,4,-1
 2 3 l 1,5,-1
 2 5 l 1,6,-1
 1 5 l 1,7,-1
 1 6 l 1,8,-1
 2 6 l 1,9,-1
 2 7 l 1,10,-1
 4 7 l 1,11,-1
 4 3 l 1,0,-1
EndSplineSet
Validated: 1
EndChar

StartChar: ordmasculine
Encoding: 186 186 155
Width: 8
GlyphClass: 2
Flags: W
LayerCount: 2
Fore
SplineSet
1 1 m 1,0,-1
 1 2 l 1,1,-1
 6 2 l 1,2,-1
 6 1 l 1,3,-1
 1 1 l 1,0,-1
1 4 m 1,4,-1
 1 6 l 1,5,-1
 2 6 l 1,6,-1
 2 7 l 1,7,-1
 5 7 l 1,8,-1
 5 6 l 1,9,-1
 6 6 l 1,10,-1
 6 4 l 1,11,-1
 5 4 l 1,12,-1
 5 3 l 1,13,-1
 2 3 l 1,14,-1
 2 4 l 1,15,-1
 1 4 l 1,4,-1
3 4 m 1,16,-1
 4 4 l 1,17,-1
 4 6 l 1,18,-1
 3 6 l 1,19,-1
 3 4 l 1,16,-1
EndSplineSet
Validated: 1
EndChar

StartChar: guillemotright
Encoding: 187 187 156
Width: 8
GlyphClass: 2
Flags: W
LayerCount: 2
Fore
SplineSet
0 1 m 1,0,-1
 0 2 l 1,1,-1
 1 2 l 1,2,-1
 1 3 l 1,3,-1
 2 3 l 1,4,-1
 2 4 l 1,5,-1
 1 4 l 1,6,-1
 1 5 l 1,7,-1
 0 5 l 1,8,-1
 0 6 l 1,9,-1
 2 6 l 1,10,-1
 2 5 l 1,11,-1
 3 5 l 1,12,-1
 3 4 l 1,13,-1
 4 4 l 1,14,-1
 4 3 l 1,15,-1
 3 3 l 1,16,-1
 3 2 l 1,17,-1
 2 2 l 1,18,-1
 2 1 l 1,19,-1
 0 1 l 1,0,-1
4 1 m 1,20,-1
 4 2 l 1,21,-1
 5 2 l 1,22,-1
 5 3 l 1,23,-1
 6 3 l 1,24,-1
 6 4 l 1,25,-1
 5 4 l 1,26,-1
 5 5 l 1,27,-1
 4 5 l 1,28,-1
 4 6 l 1,29,-1
 6 6 l 1,30,-1
 6 5 l 1,31,-1
 7 5 l 1,32,-1
 7 4 l 1,33,-1
 8 4 l 1,34,-1
 8 3 l 1,35,-1
 7 3 l 1,36,-1
 7 2 l 1,37,-1
 6 2 l 1,38,-1
 6 1 l 1,39,-1
 4 1 l 1,20,-1
EndSplineSet
Validated: 1
EndChar

StartChar: onequarter
Encoding: 188 188 157
Width: 8
GlyphClass: 2
Flags: W
LayerCount: 2
Fore
SplineSet
0 0 m 1,0,-1
 0 1 l 1,1,-1
 1 1 l 1,2,-1
 1 2 l 1,3,-1
 2 2 l 1,4,-1
 2 3 l 1,5,-1
 3 3 l 1,6,-1
 3 4 l 1,7,-1
 4 4 l 1,8,-1
 4 5 l 1,9,-1
 5 5 l 1,10,-1
 5 6 l 1,11,-1
 6 6 l 1,12,-1
 6 7 l 1,13,-1
 8 7 l 1,14,-1
 8 6 l 1,15,-1
 7 6 l 1,16,-1
 7 5 l 1,17,-1
 6 5 l 1,18,-1
 6 4 l 1,19,-1
 5 4 l 1,20,-1
 5 3 l 1,21,-1
 4 3 l 1,22,-1
 4 2 l 1,23,-1
 3 2 l 1,24,-1
 3 1 l 1,25,-1
 2 1 l 1,26,-1
 2 0 l 1,27,-1
 0 0 l 1,0,-1
0 3 m 1,28,-1
 0 7 l 1,29,-1
 2 7 l 1,30,-1
 2 3 l 1,31,-1
 0 3 l 1,28,-1
4 2 m 1,32,-1
 5 2 l 1,33,-1
 5 3 l 1,34,-1
 6 3 l 1,35,-1
 6 4 l 1,36,-1
 8 4 l 1,37,-1
 8 -1 l 1,38,-1
 6 -1 l 1,39,-1
 6 0 l 1,40,-1
 4 0 l 1,41,-1
 4 2 l 1,32,-1
EndSplineSet
Validated: 5
EndChar

StartChar: onehalf
Encoding: 189 189 158
Width: 8
GlyphClass: 2
Flags: W
LayerCount: 2
Fore
SplineSet
0 0 m 1,0,-1
 0 1 l 1,1,-1
 1 1 l 1,2,-1
 1 2 l 1,3,-1
 2 2 l 1,4,-1
 2 3 l 1,5,-1
 3 3 l 1,6,-1
 3 4 l 1,7,-1
 4 4 l 1,8,-1
 4 5 l 1,9,-1
 5 5 l 1,10,-1
 5 6 l 1,11,-1
 6 6 l 1,12,-1
 6 7 l 1,13,-1
 8 7 l 1,14,-1
 8 6 l 1,15,-1
 7 6 l 1,16,-1
 7 5 l 1,17,-1
 6 5 l 1,18,-1
 6 4 l 1,19,-1
 7 4 l 1,20,-1
 7 3 l 1,21,-1
 8 3 l 1,22,-1
 8 2 l 1,23,-1
 7 2 l 1,24,-1
 7 1 l 1,25,-1
 6 1 l 1,26,-1
 6 0 l 1,27,-1
 8 0 l 1,28,-1
 8 -1 l 1,29,-1
 4 -1 l 1,30,-1
 4 1 l 1,31,-1
 5 1 l 1,32,-1
 5 2 l 1,33,-1
 6 2 l 1,34,-1
 6 3 l 1,35,-1
 4 3 l 1,36,-1
 4 2 l 1,37,-1
 3 2 l 1,38,-1
 3 1 l 1,39,-1
 2 1 l 1,40,-1
 2 0 l 1,41,-1
 0 0 l 1,0,-1
0 3 m 1,42,-1
 0 7 l 1,43,-1
 2 7 l 1,44,-1
 2 3 l 1,45,-1
 0 3 l 1,42,-1
EndSplineSet
Validated: 5
EndChar

StartChar: threequarters
Encoding: 190 190 159
Width: 8
GlyphClass: 2
Flags: W
LayerCount: 2
Fore
SplineSet
0 2 m 1,0,-1
 0 3 l 1,1,-1
 2 3 l 1,2,-1
 2 4 l 1,3,-1
 1 4 l 1,4,-1
 1 5 l 1,5,-1
 2 5 l 1,6,-1
 2 6 l 1,7,-1
 0 6 l 1,8,-1
 0 7 l 1,9,-1
 3 7 l 1,10,-1
 3 6 l 1,11,-1
 4 6 l 1,12,-1
 4 5 l 1,13,-1
 3 5 l 1,14,-1
 3 4 l 1,15,-1
 5 4 l 1,16,-1
 5 5 l 1,17,-1
 6 5 l 1,18,-1
 6 6 l 1,19,-1
 8 6 l 1,20,-1
 8 5 l 1,21,-1
 7 5 l 1,22,-1
 7 4 l 1,23,-1
 6 4 l 1,24,-1
 6 3 l 1,25,-1
 5 3 l 1,26,-1
 5 2 l 1,27,-1
 4 2 l 1,28,-1
 4 1 l 1,29,-1
 3 1 l 1,30,-1
 3 0 l 1,31,-1
 2 0 l 1,32,-1
 2 -1 l 1,33,-1
 0 -1 l 1,34,-1
 0 0 l 1,35,-1
 1 0 l 1,36,-1
 1 1 l 1,37,-1
 2 1 l 1,38,-1
 2 2 l 1,39,-1
 0 2 l 1,0,-1
4 1 m 1,40,-1
 5 1 l 1,41,-1
 5 2 l 1,42,-1
 6 2 l 1,43,-1
 6 3 l 1,44,-1
 8 3 l 1,45,-1
 8 -1 l 1,46,-1
 6 -1 l 1,47,-1
 6 0 l 1,48,-1
 4 0 l 1,49,-1
 4 1 l 1,40,-1
EndSplineSet
Validated: 5
EndChar

StartChar: questiondown
Encoding: 191 191 160
Width: 8
GlyphClass: 2
Flags: W
LayerCount: 2
Fore
SplineSet
0 1 m 1,0,-1
 0 3 l 1,1,-1
 1 3 l 1,2,-1
 1 4 l 1,3,-1
 2 4 l 1,4,-1
 2 5 l 1,5,-1
 4 5 l 1,6,-1
 4 4 l 1,7,-1
 3 4 l 1,8,-1
 3 3 l 1,9,-1
 2 3 l 1,10,-1
 2 1 l 1,11,-1
 4 1 l 1,12,-1
 4 2 l 1,13,-1
 6 2 l 1,14,-1
 6 1 l 1,15,-1
 5 1 l 1,16,-1
 5 0 l 1,17,-1
 1 0 l 1,18,-1
 1 1 l 1,19,-1
 0 1 l 1,0,-1
2 6 m 1,20,-1
 2 7 l 1,21,-1
 4 7 l 1,22,-1
 4 6 l 1,23,-1
 2 6 l 1,20,-1
EndSplineSet
Validated: 1
EndChar

StartChar: Agrave
Encoding: 192 192 161
Width: 8
GlyphClass: 2
Flags: W
LayerCount: 2
Fore
SplineSet
0 0 m 1,0,-1
 0 4 l 1,1,-1
 1 4 l 1,2,-1
 1 5 l 1,3,-1
 2 5 l 1,4,-1
 2 6 l 1,5,-1
 5 6 l 1,6,-1
 5 5 l 1,7,-1
 6 5 l 1,8,-1
 6 4 l 1,9,-1
 7 4 l 1,10,-1
 7 0 l 1,11,-1
 5 0 l 1,12,-1
 5 2 l 1,13,-1
 2 2 l 1,14,-1
 2 0 l 1,15,-1
 0 0 l 1,0,-1
0 6 m 1,16,-1
 0 7 l 1,17,-1
 2 7 l 1,18,-1
 2 6 l 1,19,-1
 0 6 l 1,16,-1
2 4 m 1,20,-1
 2 3 l 1,21,-1
 5 3 l 1,22,-1
 5 4 l 1,23,-1
 4 4 l 1,24,-1
 4 5 l 1,25,-1
 3 5 l 1,26,-1
 3 4 l 1,27,-1
 2 4 l 1,20,-1
EndSplineSet
Validated: 5
EndChar

StartChar: Aacute
Encoding: 193 193 162
Width: 8
GlyphClass: 2
Flags: W
LayerCount: 2
Fore
SplineSet
0 0 m 1,0,-1
 0 4 l 1,1,-1
 1 4 l 1,2,-1
 1 5 l 1,3,-1
 2 5 l 1,4,-1
 2 6 l 1,5,-1
 5 6 l 1,6,-1
 5 5 l 1,7,-1
 6 5 l 1,8,-1
 6 4 l 1,9,-1
 7 4 l 1,10,-1
 7 0 l 1,11,-1
 5 0 l 1,12,-1
 5 2 l 1,13,-1
 2 2 l 1,14,-1
 2 0 l 1,15,-1
 0 0 l 1,0,-1
2 4 m 1,16,-1
 2 3 l 1,17,-1
 5 3 l 1,18,-1
 5 4 l 1,19,-1
 4 4 l 1,20,-1
 4 5 l 1,21,-1
 3 5 l 1,22,-1
 3 4 l 1,23,-1
 2 4 l 1,16,-1
5 6 m 1,24,-1
 5 7 l 1,25,-1
 7 7 l 1,26,-1
 7 6 l 1,27,-1
 5 6 l 1,24,-1
EndSplineSet
Validated: 5
EndChar

StartChar: Acircumflex
Encoding: 194 194 163
Width: 8
GlyphClass: 2
Flags: W
LayerCount: 2
Fore
SplineSet
0 0 m 1,0,-1
 0 3 l 1,1,-1
 1 3 l 1,2,-1
 1 4 l 1,3,-1
 2 4 l 1,4,-1
 2 5 l 1,5,-1
 5 5 l 1,6,-1
 5 4 l 1,7,-1
 6 4 l 1,8,-1
 6 3 l 1,9,-1
 7 3 l 1,10,-1
 7 0 l 1,11,-1
 5 0 l 1,12,-1
 5 1 l 1,13,-1
 2 1 l 1,14,-1
 2 0 l 1,15,-1
 0 0 l 1,0,-1
0 5 m 1,16,-1
 0 6 l 1,17,-1
 1 6 l 1,18,-1
 1 7 l 1,19,-1
 6 7 l 1,20,-1
 6 6 l 1,21,-1
 7 6 l 1,22,-1
 7 5 l 1,23,-1
 5 5 l 1,24,-1
 5 6 l 1,25,-1
 2 6 l 1,26,-1
 2 5 l 1,27,-1
 0 5 l 1,16,-1
2 2 m 1,28,-1
 5 2 l 1,29,-1
 5 3 l 1,30,-1
 4 3 l 1,31,-1
 4 4 l 1,32,-1
 3 4 l 1,33,-1
 3 3 l 1,34,-1
 2 3 l 1,35,-1
 2 2 l 1,28,-1
EndSplineSet
Validated: 5
EndChar

StartChar: Atilde
Encoding: 195 195 164
Width: 8
GlyphClass: 2
Flags: W
LayerCount: 2
Fore
SplineSet
0 0 m 1,0,-1
 0 3 l 1,1,-1
 1 3 l 1,2,-1
 1 4 l 1,3,-1
 2 4 l 1,4,-1
 2 5 l 1,5,-1
 3 5 l 1,6,-1
 3 6 l 1,7,-1
 2 6 l 1,8,-1
 2 5 l 1,9,-1
 0 5 l 1,10,-1
 0 6 l 1,11,-1
 1 6 l 1,12,-1
 1 7 l 1,13,-1
 4 7 l 1,14,-1
 4 6 l 1,15,-1
 5 6 l 1,16,-1
 5 7 l 1,17,-1
 7 7 l 1,18,-1
 7 6 l 1,19,-1
 6 6 l 1,20,-1
 6 5 l 1,21,-1
 5 5 l 1,22,-1
 5 4 l 1,23,-1
 6 4 l 1,24,-1
 6 3 l 1,25,-1
 7 3 l 1,26,-1
 7 0 l 1,27,-1
 5 0 l 1,28,-1
 5 1 l 1,29,-1
 2 1 l 1,30,-1
 2 0 l 1,31,-1
 0 0 l 1,0,-1
2 2 m 1,32,-1
 5 2 l 1,33,-1
 5 3 l 1,34,-1
 4 3 l 1,35,-1
 4 4 l 1,36,-1
 3 4 l 1,37,-1
 3 3 l 1,38,-1
 2 3 l 1,39,-1
 2 2 l 1,32,-1
EndSplineSet
Validated: 5
EndChar

StartChar: Adieresis
Encoding: 196 196 165
Width: 8
GlyphClass: 2
Flags: W
LayerCount: 2
Fore
SplineSet
0 0 m 1,0,-1
 0 4 l 1,1,-1
 1 4 l 1,2,-1
 1 5 l 1,3,-1
 2 5 l 1,4,-1
 2 6 l 1,5,-1
 5 6 l 1,6,-1
 5 5 l 1,7,-1
 6 5 l 1,8,-1
 6 4 l 1,9,-1
 7 4 l 1,10,-1
 7 0 l 1,11,-1
 5 0 l 1,12,-1
 5 2 l 1,13,-1
 2 2 l 1,14,-1
 2 0 l 1,15,-1
 0 0 l 1,0,-1
0 6 m 1,16,-1
 0 7 l 1,17,-1
 2 7 l 1,18,-1
 2 6 l 1,19,-1
 0 6 l 1,16,-1
2 4 m 1,20,-1
 2 3 l 1,21,-1
 5 3 l 1,22,-1
 5 4 l 1,23,-1
 4 4 l 1,24,-1
 4 5 l 1,25,-1
 3 5 l 1,26,-1
 3 4 l 1,27,-1
 2 4 l 1,20,-1
5 6 m 1,28,-1
 5 7 l 1,29,-1
 7 7 l 1,30,-1
 7 6 l 1,31,-1
 5 6 l 1,28,-1
EndSplineSet
Validated: 5
EndChar

StartChar: Aring
Encoding: 197 197 166
Width: 8
GlyphClass: 2
Flags: W
LayerCount: 2
Fore
SplineSet
0 0 m 1,0,-1
 0 3 l 1,1,-1
 1 3 l 1,2,-1
 1 4 l 1,3,-1
 5 4 l 1,4,-1
 5 3 l 1,5,-1
 6 3 l 1,6,-1
 6 0 l 1,7,-1
 4 0 l 1,8,-1
 4 1 l 1,9,-1
 2 1 l 1,10,-1
 2 0 l 1,11,-1
 0 0 l 1,0,-1
2 2 m 1,12,-1
 4 2 l 1,13,-1
 4 3 l 1,14,-1
 2 3 l 1,15,-1
 2 2 l 1,12,-1
2 5 m 1,16,-1
 2 7 l 1,17,-1
 4 7 l 1,18,-1
 4 5 l 1,19,-1
 2 5 l 1,16,-1
EndSplineSet
Validated: 1
EndChar

StartChar: AE
Encoding: 198 198 167
Width: 8
GlyphClass: 2
Flags: W
LayerCount: 2
Fore
SplineSet
0 0 m 1,0,-1
 0 5 l 1,1,-1
 1 5 l 1,2,-1
 1 6 l 1,3,-1
 2 6 l 1,4,-1
 2 7 l 1,5,-1
 7 7 l 1,6,-1
 7 6 l 1,7,-1
 6 6 l 1,8,-1
 6 4 l 1,9,-1
 7 4 l 1,10,-1
 7 3 l 1,11,-1
 6 3 l 1,12,-1
 6 1 l 1,13,-1
 7 1 l 1,14,-1
 7 0 l 1,15,-1
 4 0 l 1,16,-1
 4 3 l 1,17,-1
 2 3 l 1,18,-1
 2 0 l 1,19,-1
 0 0 l 1,0,-1
2 5 m 1,20,-1
 2 4 l 1,21,-1
 4 4 l 1,22,-1
 4 6 l 1,23,-1
 3 6 l 1,24,-1
 3 5 l 1,25,-1
 2 5 l 1,20,-1
EndSplineSet
Validated: 1
EndChar

StartChar: Ccedilla
Encoding: 199 199 168
Width: 8
GlyphClass: 2
Flags: W
LayerCount: 2
Fore
SplineSet
0 3 m 1,0,-1
 0 6 l 1,1,-1
 1 6 l 1,2,-1
 1 7 l 1,3,-1
 5 7 l 1,4,-1
 5 6 l 1,5,-1
 6 6 l 1,6,-1
 6 5 l 1,7,-1
 4 5 l 1,8,-1
 4 6 l 1,9,-1
 2 6 l 1,10,-1
 2 3 l 1,11,-1
 4 3 l 1,12,-1
 4 4 l 1,13,-1
 6 4 l 1,14,-1
 6 3 l 1,15,-1
 5 3 l 1,16,-1
 5 1 l 1,17,-1
 6 1 l 1,18,-1
 6 0 l 1,19,-1
 5 0 l 1,20,-1
 5 -1 l 1,21,-1
 1 -1 l 1,22,-1
 1 0 l 1,23,-1
 4 0 l 1,24,-1
 4 1 l 1,25,-1
 3 1 l 1,26,-1
 3 2 l 1,27,-1
 1 2 l 1,28,-1
 1 3 l 1,29,-1
 0 3 l 1,0,-1
EndSplineSet
Validated: 1
EndChar

StartChar: Egrave
Encoding: 200 200 169
Width: 8
GlyphClass: 2
Flags: W
LayerCount: 2
Fore
SplineSet
0 0 m 1,0,-1
 0 1 l 1,1,-1
 1 1 l 1,2,-1
 1 4 l 1,3,-1
 0 4 l 1,4,-1
 0 5 l 1,5,-1
 6 5 l 1,6,-1
 6 4 l 1,7,-1
 3 4 l 1,8,-1
 3 3 l 1,9,-1
 5 3 l 1,10,-1
 5 2 l 1,11,-1
 3 2 l 1,12,-1
 3 1 l 1,13,-1
 6 1 l 1,14,-1
 6 0 l 1,15,-1
 0 0 l 1,0,-1
0 6 m 1,16,-1
 0 7 l 1,17,-1
 3 7 l 1,18,-1
 3 6 l 1,19,-1
 0 6 l 1,16,-1
EndSplineSet
Validated: 1
EndChar

StartChar: Eacute
Encoding: 201 201 170
Width: 8
GlyphClass: 2
Flags: W
LayerCount: 2
Fore
SplineSet
0 0 m 1,0,-1
 0 1 l 1,1,-1
 1 1 l 1,2,-1
 1 4 l 1,3,-1
 0 4 l 1,4,-1
 0 5 l 1,5,-1
 6 5 l 1,6,-1
 6 4 l 1,7,-1
 3 4 l 1,8,-1
 3 3 l 1,9,-1
 5 3 l 1,10,-1
 5 2 l 1,11,-1
 3 2 l 1,12,-1
 3 1 l 1,13,-1
 6 1 l 1,14,-1
 6 0 l 1,15,-1
 0 0 l 1,0,-1
3 6 m 1,16,-1
 3 7 l 1,17,-1
 6 7 l 1,18,-1
 6 6 l 1,19,-1
 3 6 l 1,16,-1
EndSplineSet
Validated: 1
EndChar

StartChar: Ecircumflex
Encoding: 202 202 171
Width: 8
GlyphClass: 2
Flags: W
LayerCount: 2
Fore
SplineSet
0 0 m 1,0,-1
 0 1 l 1,1,-1
 1 1 l 1,2,-1
 1 4 l 1,3,-1
 0 4 l 1,4,-1
 0 6 l 1,5,-1
 1 6 l 1,6,-1
 1 7 l 1,7,-1
 5 7 l 1,8,-1
 5 6 l 1,9,-1
 6 6 l 1,10,-1
 6 4 l 1,11,-1
 3 4 l 1,12,-1
 3 3 l 1,13,-1
 5 3 l 1,14,-1
 5 2 l 1,15,-1
 3 2 l 1,16,-1
 3 1 l 1,17,-1
 6 1 l 1,18,-1
 6 0 l 1,19,-1
 0 0 l 1,0,-1
2 5 m 1,20,-1
 4 5 l 1,21,-1
 4 6 l 1,22,-1
 2 6 l 1,23,-1
 2 5 l 1,20,-1
EndSplineSet
Validated: 1
EndChar

StartChar: Edieresis
Encoding: 203 203 172
Width: 8
GlyphClass: 2
Flags: W
LayerCount: 2
Fore
SplineSet
0 0 m 1,0,-1
 0 1 l 1,1,-1
 1 1 l 1,2,-1
 1 4 l 1,3,-1
 0 4 l 1,4,-1
 0 5 l 1,5,-1
 6 5 l 1,6,-1
 6 4 l 1,7,-1
 3 4 l 1,8,-1
 3 3 l 1,9,-1
 5 3 l 1,10,-1
 5 2 l 1,11,-1
 3 2 l 1,12,-1
 3 1 l 1,13,-1
 6 1 l 1,14,-1
 6 0 l 1,15,-1
 0 0 l 1,0,-1
0 6 m 1,16,-1
 0 7 l 1,17,-1
 2 7 l 1,18,-1
 2 6 l 1,19,-1
 0 6 l 1,16,-1
4 6 m 1,20,-1
 4 7 l 1,21,-1
 6 7 l 1,22,-1
 6 6 l 1,23,-1
 4 6 l 1,20,-1
EndSplineSet
Validated: 1
EndChar

StartChar: Igrave
Encoding: 204 204 173
Width: 8
GlyphClass: 2
Flags: W
LayerCount: 2
Fore
SplineSet
0 6 m 1,0,-1
 0 7 l 1,1,-1
 3 7 l 1,2,-1
 3 6 l 1,3,-1
 0 6 l 1,0,-1
1 0 m 1,4,-1
 1 1 l 1,5,-1
 2 1 l 1,6,-1
 2 4 l 1,7,-1
 1 4 l 1,8,-1
 1 5 l 1,9,-1
 5 5 l 1,10,-1
 5 4 l 1,11,-1
 4 4 l 1,12,-1
 4 1 l 1,13,-1
 5 1 l 1,14,-1
 5 0 l 1,15,-1
 1 0 l 1,4,-1
EndSplineSet
Validated: 1
EndChar

StartChar: Iacute
Encoding: 205 205 174
Width: 8
GlyphClass: 2
Flags: W
LayerCount: 2
Fore
SplineSet
1 0 m 1,0,-1
 1 1 l 1,1,-1
 2 1 l 1,2,-1
 2 4 l 1,3,-1
 1 4 l 1,4,-1
 1 5 l 1,5,-1
 5 5 l 1,6,-1
 5 4 l 1,7,-1
 4 4 l 1,8,-1
 4 1 l 1,9,-1
 5 1 l 1,10,-1
 5 0 l 1,11,-1
 1 0 l 1,0,-1
3 6 m 1,12,-1
 3 7 l 1,13,-1
 6 7 l 1,14,-1
 6 6 l 1,15,-1
 3 6 l 1,12,-1
EndSplineSet
Validated: 1
EndChar

StartChar: Icircumflex
Encoding: 206 206 175
Width: 8
GlyphClass: 2
Flags: W
LayerCount: 2
Fore
SplineSet
0 5 m 1,0,-1
 0 6 l 1,1,-1
 1 6 l 1,2,-1
 1 7 l 1,3,-1
 7 7 l 1,4,-1
 7 6 l 1,5,-1
 8 6 l 1,6,-1
 8 5 l 1,7,-1
 6 5 l 1,8,-1
 6 6 l 1,9,-1
 2 6 l 1,10,-1
 2 5 l 1,11,-1
 0 5 l 1,0,-1
2 0 m 1,12,-1
 2 1 l 1,13,-1
 3 1 l 1,14,-1
 3 4 l 1,15,-1
 2 4 l 1,16,-1
 2 5 l 1,17,-1
 6 5 l 1,18,-1
 6 4 l 1,19,-1
 5 4 l 1,20,-1
 5 1 l 1,21,-1
 6 1 l 1,22,-1
 6 0 l 1,23,-1
 2 0 l 1,12,-1
EndSplineSet
Validated: 5
EndChar

StartChar: Idieresis
Encoding: 207 207 176
Width: 8
GlyphClass: 2
Flags: W
LayerCount: 2
Fore
SplineSet
0 6 m 1,0,-1
 0 7 l 1,1,-1
 2 7 l 1,2,-1
 2 6 l 1,3,-1
 0 6 l 1,0,-1
1 0 m 1,4,-1
 1 1 l 1,5,-1
 2 1 l 1,6,-1
 2 4 l 1,7,-1
 1 4 l 1,8,-1
 1 5 l 1,9,-1
 5 5 l 1,10,-1
 5 4 l 1,11,-1
 4 4 l 1,12,-1
 4 1 l 1,13,-1
 5 1 l 1,14,-1
 5 0 l 1,15,-1
 1 0 l 1,4,-1
4 6 m 1,16,-1
 4 7 l 1,17,-1
 6 7 l 1,18,-1
 6 6 l 1,19,-1
 4 6 l 1,16,-1
EndSplineSet
Validated: 1
EndChar

StartChar: Eth
Encoding: 208 208 177
Width: 8
GlyphClass: 2
Flags: W
LayerCount: 2
Fore
SplineSet
0 0 m 1,0,-1
 0 1 l 1,1,-1
 1 1 l 1,2,-1
 1 3 l 1,3,-1
 0 3 l 1,4,-1
 0 4 l 1,5,-1
 1 4 l 1,6,-1
 1 6 l 1,7,-1
 0 6 l 1,8,-1
 0 7 l 1,9,-1
 5 7 l 1,10,-1
 5 6 l 1,11,-1
 6 6 l 1,12,-1
 6 5 l 1,13,-1
 7 5 l 1,14,-1
 7 2 l 1,15,-1
 6 2 l 1,16,-1
 6 1 l 1,17,-1
 5 1 l 1,18,-1
 5 0 l 1,19,-1
 0 0 l 1,0,-1
4 1 m 1,20,-1
 4 2 l 1,21,-1
 5 2 l 1,22,-1
 5 5 l 1,23,-1
 4 5 l 1,24,-1
 4 6 l 1,25,-1
 3 6 l 1,26,-1
 3 4 l 1,27,-1
 4 4 l 1,28,-1
 4 3 l 1,29,-1
 3 3 l 1,30,-1
 3 1 l 1,31,-1
 4 1 l 1,20,-1
EndSplineSet
Validated: 1
EndChar

StartChar: Ntilde
Encoding: 209 209 178
Width: 8
GlyphClass: 2
Flags: W
LayerCount: 2
Fore
SplineSet
0 0 m 1,0,-1
 0 5 l 1,1,-1
 2 5 l 1,2,-1
 2 4 l 1,3,-1
 3 4 l 1,4,-1
 3 3 l 1,5,-1
 4 3 l 1,6,-1
 4 5 l 1,7,-1
 6 5 l 1,8,-1
 6 0 l 1,9,-1
 4 0 l 1,10,-1
 4 1 l 1,11,-1
 3 1 l 1,12,-1
 3 2 l 1,13,-1
 2 2 l 1,14,-1
 2 0 l 1,15,-1
 0 0 l 1,0,-1
0 6 m 1,16,-1
 0 7 l 1,17,-1
 6 7 l 1,18,-1
 6 6 l 1,19,-1
 0 6 l 1,16,-1
EndSplineSet
Validated: 1
EndChar

StartChar: Ograve
Encoding: 210 210 179
Width: 8
GlyphClass: 2
Flags: W
LayerCount: 2
Fore
SplineSet
0 2 m 1,0,-1
 0 4 l 1,1,-1
 1 4 l 1,2,-1
 1 5 l 1,3,-1
 2 5 l 1,4,-1
 2 6 l 1,5,-1
 5 6 l 1,6,-1
 5 5 l 1,7,-1
 6 5 l 1,8,-1
 6 4 l 1,9,-1
 7 4 l 1,10,-1
 7 2 l 1,11,-1
 6 2 l 1,12,-1
 6 1 l 1,13,-1
 5 1 l 1,14,-1
 5 0 l 1,15,-1
 2 0 l 1,16,-1
 2 1 l 1,17,-1
 1 1 l 1,18,-1
 1 2 l 1,19,-1
 0 2 l 1,0,-1
0 6 m 1,20,-1
 0 7 l 1,21,-1
 2 7 l 1,22,-1
 2 6 l 1,23,-1
 0 6 l 1,20,-1
2 2 m 1,24,-1
 3 2 l 1,25,-1
 3 1 l 1,26,-1
 4 1 l 1,27,-1
 4 2 l 1,28,-1
 5 2 l 1,29,-1
 5 4 l 1,30,-1
 4 4 l 1,31,-1
 4 5 l 1,32,-1
 3 5 l 1,33,-1
 3 4 l 1,34,-1
 2 4 l 1,35,-1
 2 2 l 1,24,-1
EndSplineSet
Validated: 5
EndChar

StartChar: Oacute
Encoding: 211 211 180
Width: 8
GlyphClass: 2
Flags: W
LayerCount: 2
Fore
SplineSet
0 2 m 1,0,-1
 0 4 l 1,1,-1
 1 4 l 1,2,-1
 1 5 l 1,3,-1
 2 5 l 1,4,-1
 2 6 l 1,5,-1
 5 6 l 1,6,-1
 5 5 l 1,7,-1
 6 5 l 1,8,-1
 6 4 l 1,9,-1
 7 4 l 1,10,-1
 7 2 l 1,11,-1
 6 2 l 1,12,-1
 6 1 l 1,13,-1
 5 1 l 1,14,-1
 5 0 l 1,15,-1
 2 0 l 1,16,-1
 2 1 l 1,17,-1
 1 1 l 1,18,-1
 1 2 l 1,19,-1
 0 2 l 1,0,-1
2 2 m 1,20,-1
 3 2 l 1,21,-1
 3 1 l 1,22,-1
 4 1 l 1,23,-1
 4 2 l 1,24,-1
 5 2 l 1,25,-1
 5 4 l 1,26,-1
 4 4 l 1,27,-1
 4 5 l 1,28,-1
 3 5 l 1,29,-1
 3 4 l 1,30,-1
 2 4 l 1,31,-1
 2 2 l 1,20,-1
5 6 m 1,32,-1
 5 7 l 1,33,-1
 7 7 l 1,34,-1
 7 6 l 1,35,-1
 5 6 l 1,32,-1
EndSplineSet
Validated: 5
EndChar

StartChar: Ocircumflex
Encoding: 212 212 181
Width: 8
GlyphClass: 2
Flags: W
LayerCount: 2
Fore
SplineSet
0 2 m 1,0,-1
 0 3 l 1,1,-1
 1 3 l 1,2,-1
 1 4 l 1,3,-1
 2 4 l 1,4,-1
 2 5 l 1,5,-1
 5 5 l 1,6,-1
 5 4 l 1,7,-1
 6 4 l 1,8,-1
 6 3 l 1,9,-1
 7 3 l 1,10,-1
 7 2 l 1,11,-1
 6 2 l 1,12,-1
 6 1 l 1,13,-1
 5 1 l 1,14,-1
 5 0 l 1,15,-1
 2 0 l 1,16,-1
 2 1 l 1,17,-1
 1 1 l 1,18,-1
 1 2 l 1,19,-1
 0 2 l 1,0,-1
0 5 m 1,20,-1
 0 6 l 1,21,-1
 1 6 l 1,22,-1
 1 7 l 1,23,-1
 6 7 l 1,24,-1
 6 6 l 1,25,-1
 7 6 l 1,26,-1
 7 5 l 1,27,-1
 5 5 l 1,28,-1
 5 6 l 1,29,-1
 2 6 l 1,30,-1
 2 5 l 1,31,-1
 0 5 l 1,20,-1
2 2 m 1,32,-1
 3 2 l 1,33,-1
 3 1 l 1,34,-1
 4 1 l 1,35,-1
 4 2 l 1,36,-1
 5 2 l 1,37,-1
 5 3 l 1,38,-1
 4 3 l 1,39,-1
 4 4 l 1,40,-1
 3 4 l 1,41,-1
 3 3 l 1,42,-1
 2 3 l 1,43,-1
 2 2 l 1,32,-1
EndSplineSet
Validated: 5
EndChar

StartChar: Otilde
Encoding: 213 213 182
Width: 8
GlyphClass: 2
Flags: W
LayerCount: 2
Fore
SplineSet
0 2 m 1,0,-1
 0 3 l 1,1,-1
 1 3 l 1,2,-1
 1 4 l 1,3,-1
 2 4 l 1,4,-1
 2 5 l 1,5,-1
 3 5 l 1,6,-1
 3 6 l 1,7,-1
 2 6 l 1,8,-1
 2 5 l 1,9,-1
 0 5 l 1,10,-1
 0 6 l 1,11,-1
 1 6 l 1,12,-1
 1 7 l 1,13,-1
 4 7 l 1,14,-1
 4 6 l 1,15,-1
 5 6 l 1,16,-1
 5 7 l 1,17,-1
 7 7 l 1,18,-1
 7 6 l 1,19,-1
 6 6 l 1,20,-1
 6 5 l 1,21,-1
 5 5 l 1,22,-1
 5 4 l 1,23,-1
 6 4 l 1,24,-1
 6 3 l 1,25,-1
 7 3 l 1,26,-1
 7 2 l 1,27,-1
 6 2 l 1,28,-1
 6 1 l 1,29,-1
 5 1 l 1,30,-1
 5 0 l 1,31,-1
 2 0 l 1,32,-1
 2 1 l 1,33,-1
 1 1 l 1,34,-1
 1 2 l 1,35,-1
 0 2 l 1,0,-1
2 2 m 1,36,-1
 3 2 l 1,37,-1
 3 1 l 1,38,-1
 4 1 l 1,39,-1
 4 2 l 1,40,-1
 5 2 l 1,41,-1
 5 3 l 1,42,-1
 4 3 l 1,43,-1
 4 4 l 1,44,-1
 3 4 l 1,45,-1
 3 3 l 1,46,-1
 2 3 l 1,47,-1
 2 2 l 1,36,-1
EndSplineSet
Validated: 5
EndChar

StartChar: Odieresis
Encoding: 214 214 183
Width: 8
GlyphClass: 2
Flags: W
LayerCount: 2
Fore
SplineSet
0 6 m 1,0,-1
 0 7 l 1,1,-1
 2 7 l 1,2,-1
 2 6 l 1,3,-1
 0 6 l 1,0,-1
2 2 m 1,4,-1
 1 2 l 1,5,-1
 1 4 l 1,6,-1
 2 4 l 1,7,-1
 2 5 l 1,8,-1
 3 5 l 1,9,-1
 3 6 l 1,10,-1
 5 6 l 1,11,-1
 5 5 l 1,12,-1
 6 5 l 1,13,-1
 6 4 l 1,14,-1
 7 4 l 1,15,-1
 7 2 l 1,16,-1
 6 2 l 1,17,-1
 6 1 l 1,18,-1
 5 1 l 1,19,-1
 5 0 l 1,20,-1
 3 0 l 1,21,-1
 3 1 l 1,22,-1
 2 1 l 1,23,-1
 2 2 l 1,4,-1
6 6 m 1,24,-1
 6 7 l 1,25,-1
 8 7 l 1,26,-1
 8 6 l 1,27,-1
 6 6 l 1,24,-1
3 2 m 1,28,-1
 5 2 l 1,29,-1
 5 4 l 1,30,-1
 3 4 l 1,31,-1
 3 2 l 1,28,-1
EndSplineSet
Validated: 1
EndChar

StartChar: multiply
Encoding: 215 215 184
Width: 8
GlyphClass: 2
Flags: W
LayerCount: 2
Fore
SplineSet
0 1 m 1,0,-1
 0 2 l 1,1,-1
 1 2 l 1,2,-1
 1 3 l 1,3,-1
 2 3 l 1,4,-1
 2 4 l 1,5,-1
 1 4 l 1,6,-1
 1 5 l 1,7,-1
 0 5 l 1,8,-1
 0 6 l 1,9,-1
 2 6 l 1,10,-1
 2 5 l 1,11,-1
 3 5 l 1,12,-1
 3 4 l 1,13,-1
 4 4 l 1,14,-1
 4 5 l 1,15,-1
 5 5 l 1,16,-1
 5 6 l 1,17,-1
 7 6 l 1,18,-1
 7 5 l 1,19,-1
 6 5 l 1,20,-1
 6 4 l 1,21,-1
 5 4 l 1,22,-1
 5 3 l 1,23,-1
 6 3 l 1,24,-1
 6 2 l 1,25,-1
 7 2 l 1,26,-1
 7 1 l 1,27,-1
 5 1 l 1,28,-1
 5 2 l 1,29,-1
 4 2 l 1,30,-1
 4 3 l 1,31,-1
 3 3 l 1,32,-1
 3 2 l 1,33,-1
 2 2 l 1,34,-1
 2 1 l 1,35,-1
 0 1 l 1,0,-1
EndSplineSet
Validated: 1
EndChar

StartChar: Oslash
Encoding: 216 216 185
Width: 8
GlyphClass: 2
Flags: W
LayerCount: 2
Fore
SplineSet
0 0 m 1,0,-1
 0 1 l 1,1,-1
 1 1 l 1,2,-1
 1 0 l 1,3,-1
 0 0 l 1,0,-1
0 2 m 1,4,-1
 0 5 l 1,5,-1
 1 5 l 1,6,-1
 1 6 l 1,7,-1
 2 6 l 1,8,-1
 2 7 l 1,9,-1
 5 7 l 1,10,-1
 5 6 l 1,11,-1
 6 6 l 1,12,-1
 6 5 l 1,13,-1
 7 5 l 1,14,-1
 7 2 l 1,15,-1
 6 2 l 1,16,-1
 6 1 l 1,17,-1
 5 1 l 1,18,-1
 5 0 l 1,19,-1
 2 0 l 1,20,-1
 2 1 l 1,21,-1
 1 1 l 1,22,-1
 1 2 l 1,23,-1
 0 2 l 1,4,-1
2 3 m 1,24,-1
 3 3 l 1,25,-1
 3 1 l 1,26,-1
 4 1 l 1,27,-1
 4 2 l 1,28,-1
 5 2 l 1,29,-1
 5 4 l 1,30,-1
 4 4 l 1,31,-1
 4 6 l 1,32,-1
 3 6 l 1,33,-1
 3 5 l 1,34,-1
 2 5 l 1,35,-1
 2 3 l 1,24,-1
4 4 m 1,36,-1
 4 3 l 1,37,-1
 3 3 l 1,38,-1
 3 4 l 1,39,-1
 4 4 l 1,36,-1
6 6 m 1,40,-1
 6 7 l 1,41,-1
 7 7 l 1,42,-1
 7 6 l 1,43,-1
 6 6 l 1,40,-1
EndSplineSet
Validated: 5
EndChar

StartChar: Ugrave
Encoding: 217 217 186
Width: 8
GlyphClass: 2
Flags: W
LayerCount: 2
Fore
SplineSet
0 1 m 1,0,-1
 0 5 l 1,1,-1
 2 5 l 1,2,-1
 2 1 l 1,3,-1
 4 1 l 1,4,-1
 4 5 l 1,5,-1
 6 5 l 1,6,-1
 6 1 l 1,7,-1
 5 1 l 1,8,-1
 5 0 l 1,9,-1
 1 0 l 1,10,-1
 1 1 l 1,11,-1
 0 1 l 1,0,-1
0 6 m 1,12,-1
 0 7 l 1,13,-1
 3 7 l 1,14,-1
 3 6 l 1,15,-1
 0 6 l 1,12,-1
EndSplineSet
Validated: 1
EndChar

StartChar: Uacute
Encoding: 218 218 187
Width: 8
GlyphClass: 2
Flags: W
LayerCount: 2
Fore
SplineSet
0 1 m 1,0,-1
 0 5 l 1,1,-1
 2 5 l 1,2,-1
 2 1 l 1,3,-1
 4 1 l 1,4,-1
 4 5 l 1,5,-1
 6 5 l 1,6,-1
 6 1 l 1,7,-1
 5 1 l 1,8,-1
 5 0 l 1,9,-1
 1 0 l 1,10,-1
 1 1 l 1,11,-1
 0 1 l 1,0,-1
3 6 m 1,12,-1
 3 7 l 1,13,-1
 6 7 l 1,14,-1
 6 6 l 1,15,-1
 3 6 l 1,12,-1
EndSplineSet
Validated: 1
EndChar

StartChar: Ucircumflex
Encoding: 219 219 188
Width: 8
GlyphClass: 2
Flags: W
LayerCount: 2
Fore
SplineSet
0 1 m 1,0,-1
 0 4 l 1,1,-1
 2 4 l 1,2,-1
 2 1 l 1,3,-1
 5 1 l 1,4,-1
 5 4 l 1,5,-1
 7 4 l 1,6,-1
 7 1 l 1,7,-1
 6 1 l 1,8,-1
 6 0 l 1,9,-1
 1 0 l 1,10,-1
 1 1 l 1,11,-1
 0 1 l 1,0,-1
0 5 m 1,12,-1
 0 6 l 1,13,-1
 1 6 l 1,14,-1
 1 7 l 1,15,-1
 6 7 l 1,16,-1
 6 6 l 1,17,-1
 7 6 l 1,18,-1
 7 5 l 1,19,-1
 5 5 l 1,20,-1
 5 6 l 1,21,-1
 2 6 l 1,22,-1
 2 5 l 1,23,-1
 0 5 l 1,12,-1
EndSplineSet
Validated: 1
EndChar

StartChar: Udieresis
Encoding: 220 220 189
Width: 8
GlyphClass: 2
Flags: W
LayerCount: 2
Fore
SplineSet
0 1 m 1,0,-1
 0 5 l 1,1,-1
 2 5 l 1,2,-1
 2 1 l 1,3,-1
 4 1 l 1,4,-1
 4 5 l 1,5,-1
 6 5 l 1,6,-1
 6 1 l 1,7,-1
 5 1 l 1,8,-1
 5 0 l 1,9,-1
 1 0 l 1,10,-1
 1 1 l 1,11,-1
 0 1 l 1,0,-1
0 6 m 1,12,-1
 0 7 l 1,13,-1
 2 7 l 1,14,-1
 2 6 l 1,15,-1
 0 6 l 1,12,-1
4 6 m 1,16,-1
 4 7 l 1,17,-1
 6 7 l 1,18,-1
 6 6 l 1,19,-1
 4 6 l 1,16,-1
EndSplineSet
Validated: 1
EndChar

StartChar: Yacute
Encoding: 221 221 190
Width: 8
GlyphClass: 2
Flags: W
LayerCount: 2
Fore
SplineSet
0 5 m 1,0,-1
 2 5 l 1,1,-1
 2 3 l 1,2,-1
 4 3 l 1,3,-1
 4 5 l 1,4,-1
 6 5 l 1,5,-1
 6 3 l 1,6,-1
 5 3 l 1,7,-1
 5 2 l 1,8,-1
 4 2 l 1,9,-1
 4 1 l 1,10,-1
 5 1 l 1,11,-1
 5 0 l 1,12,-1
 1 0 l 1,13,-1
 1 1 l 1,14,-1
 2 1 l 1,15,-1
 2 2 l 1,16,-1
 1 2 l 1,17,-1
 1 3 l 1,18,-1
 0 3 l 1,19,-1
 0 5 l 1,0,-1
3 6 m 1,20,-1
 3 7 l 1,21,-1
 6 7 l 1,22,-1
 6 6 l 1,23,-1
 3 6 l 1,20,-1
EndSplineSet
Validated: 1
EndChar

StartChar: Thorn
Encoding: 222 222 191
Width: 8
GlyphClass: 2
Flags: W
LayerCount: 2
Fore
SplineSet
0 0 m 1,0,-1
 0 1 l 1,1,-1
 1 1 l 1,2,-1
 1 6 l 1,3,-1
 0 6 l 1,4,-1
 0 7 l 1,5,-1
 4 7 l 1,6,-1
 4 6 l 1,7,-1
 3 6 l 1,8,-1
 3 5 l 1,9,-1
 6 5 l 1,10,-1
 6 4 l 1,11,-1
 7 4 l 1,12,-1
 7 3 l 1,13,-1
 6 3 l 1,14,-1
 6 2 l 1,15,-1
 3 2 l 1,16,-1
 3 1 l 1,17,-1
 4 1 l 1,18,-1
 4 0 l 1,19,-1
 0 0 l 1,0,-1
3 4 m 1,20,-1
 3 3 l 1,21,-1
 5 3 l 1,22,-1
 5 4 l 1,23,-1
 3 4 l 1,20,-1
EndSplineSet
Validated: 1
EndChar

StartChar: germandbls
Encoding: 223 223 192
Width: 8
GlyphClass: 2
Flags: W
LayerCount: 2
Fore
SplineSet
0 0 m 1,0,-1
 0 6 l 1,1,-1
 1 6 l 1,2,-1
 1 7 l 1,3,-1
 5 7 l 1,4,-1
 5 6 l 1,5,-1
 6 6 l 1,6,-1
 6 4 l 1,7,-1
 5 4 l 1,8,-1
 5 3 l 1,9,-1
 6 3 l 1,10,-1
 6 2 l 1,11,-1
 7 2 l 1,12,-1
 7 1 l 1,13,-1
 6 1 l 1,14,-1
 6 0 l 1,15,-1
 4 0 l 1,16,-1
 4 1 l 1,17,-1
 5 1 l 1,18,-1
 5 2 l 1,19,-1
 4 2 l 1,20,-1
 4 3 l 1,21,-1
 3 3 l 1,22,-1
 3 4 l 1,23,-1
 4 4 l 1,24,-1
 4 6 l 1,25,-1
 2 6 l 1,26,-1
 2 0 l 1,27,-1
 0 0 l 1,0,-1
EndSplineSet
Validated: 1
EndChar

StartChar: agrave
Encoding: 224 224 193
Width: 8
GlyphClass: 2
Flags: W
LayerCount: 2
Fore
SplineSet
0 1 m 1,0,-1
 0 2 l 1,1,-1
 1 2 l 1,2,-1
 1 3 l 1,3,-1
 4 3 l 1,4,-1
 4 4 l 1,5,-1
 1 4 l 1,6,-1
 1 5 l 1,7,-1
 5 5 l 1,8,-1
 5 4 l 1,9,-1
 6 4 l 1,10,-1
 6 1 l 1,11,-1
 7 1 l 1,12,-1
 7 0 l 1,13,-1
 1 0 l 1,14,-1
 1 1 l 1,15,-1
 0 1 l 1,0,-1
0 6 m 1,16,-1
 0 7 l 1,17,-1
 3 7 l 1,18,-1
 3 6 l 1,19,-1
 0 6 l 1,16,-1
2 2 m 1,20,-1
 2 1 l 1,21,-1
 4 1 l 1,22,-1
 4 2 l 1,23,-1
 2 2 l 1,20,-1
EndSplineSet
Validated: 1
EndChar

StartChar: aacute
Encoding: 225 225 194
Width: 8
GlyphClass: 2
Flags: W
LayerCount: 2
Fore
SplineSet
0 1 m 1,0,-1
 0 2 l 1,1,-1
 1 2 l 1,2,-1
 1 3 l 1,3,-1
 4 3 l 1,4,-1
 4 4 l 1,5,-1
 1 4 l 1,6,-1
 1 5 l 1,7,-1
 5 5 l 1,8,-1
 5 4 l 1,9,-1
 6 4 l 1,10,-1
 6 1 l 1,11,-1
 7 1 l 1,12,-1
 7 0 l 1,13,-1
 1 0 l 1,14,-1
 1 1 l 1,15,-1
 0 1 l 1,0,-1
2 2 m 1,16,-1
 2 1 l 1,17,-1
 4 1 l 1,18,-1
 4 2 l 1,19,-1
 2 2 l 1,16,-1
3 6 m 1,20,-1
 3 7 l 1,21,-1
 6 7 l 1,22,-1
 6 6 l 1,23,-1
 3 6 l 1,20,-1
EndSplineSet
Validated: 1
EndChar

StartChar: acircumflex
Encoding: 226 226 195
Width: 8
GlyphClass: 2
Flags: W
LayerCount: 2
Fore
SplineSet
0 5 m 1,0,-1
 0 6 l 1,1,-1
 1 6 l 1,2,-1
 1 7 l 1,3,-1
 7 7 l 1,4,-1
 7 6 l 1,5,-1
 8 6 l 1,6,-1
 8 5 l 1,7,-1
 6 5 l 1,8,-1
 6 6 l 1,9,-1
 2 6 l 1,10,-1
 2 5 l 1,11,-1
 0 5 l 1,0,-1
2 2 m 1,12,-1
 2 3 l 1,13,-1
 5 3 l 1,14,-1
 5 4 l 1,15,-1
 2 4 l 1,16,-1
 2 5 l 1,17,-1
 6 5 l 1,18,-1
 6 4 l 1,19,-1
 7 4 l 1,20,-1
 7 1 l 1,21,-1
 8 1 l 1,22,-1
 8 0 l 1,23,-1
 2 0 l 1,24,-1
 2 1 l 1,25,-1
 1 1 l 1,26,-1
 1 2 l 1,27,-1
 2 2 l 1,12,-1
3 2 m 1,28,-1
 3 1 l 1,29,-1
 5 1 l 1,30,-1
 5 2 l 1,31,-1
 3 2 l 1,28,-1
EndSplineSet
Validated: 5
EndChar

StartChar: atilde
Encoding: 227 227 196
Width: 8
GlyphClass: 2
Flags: W
LayerCount: 2
Fore
SplineSet
0 1 m 1,0,-1
 0 2 l 1,1,-1
 1 2 l 1,2,-1
 1 3 l 1,3,-1
 4 3 l 1,4,-1
 4 4 l 1,5,-1
 1 4 l 1,6,-1
 1 5 l 1,7,-1
 0 5 l 1,8,-1
 0 6 l 1,9,-1
 1 6 l 1,10,-1
 1 7 l 1,11,-1
 4 7 l 1,12,-1
 4 6 l 1,13,-1
 5 6 l 1,14,-1
 5 7 l 1,15,-1
 7 7 l 1,16,-1
 7 6 l 1,17,-1
 6 6 l 1,18,-1
 6 5 l 1,19,-1
 5 5 l 1,20,-1
 5 4 l 1,21,-1
 6 4 l 1,22,-1
 6 1 l 1,23,-1
 7 1 l 1,24,-1
 7 0 l 1,25,-1
 1 0 l 1,26,-1
 1 1 l 1,27,-1
 0 1 l 1,0,-1
2 2 m 1,28,-1
 2 1 l 1,29,-1
 4 1 l 1,30,-1
 4 2 l 1,31,-1
 2 2 l 1,28,-1
2 5 m 1,32,-1
 3 5 l 1,33,-1
 3 6 l 1,34,-1
 2 6 l 1,35,-1
 2 5 l 1,32,-1
EndSplineSet
Validated: 1
EndChar

StartChar: adieresis
Encoding: 228 228 197
Width: 8
GlyphClass: 2
Flags: W
LayerCount: 2
Fore
SplineSet
0 1 m 1,0,-1
 0 2 l 1,1,-1
 1 2 l 1,2,-1
 1 3 l 1,3,-1
 4 3 l 1,4,-1
 4 4 l 1,5,-1
 1 4 l 1,6,-1
 1 5 l 1,7,-1
 5 5 l 1,8,-1
 5 4 l 1,9,-1
 6 4 l 1,10,-1
 6 1 l 1,11,-1
 7 1 l 1,12,-1
 7 0 l 1,13,-1
 1 0 l 1,14,-1
 1 1 l 1,15,-1
 0 1 l 1,0,-1
0 6 m 1,16,-1
 0 7 l 1,17,-1
 2 7 l 1,18,-1
 2 6 l 1,19,-1
 0 6 l 1,16,-1
2 2 m 1,20,-1
 2 1 l 1,21,-1
 4 1 l 1,22,-1
 4 2 l 1,23,-1
 2 2 l 1,20,-1
4 6 m 1,24,-1
 4 7 l 1,25,-1
 6 7 l 1,26,-1
 6 6 l 1,27,-1
 4 6 l 1,24,-1
EndSplineSet
Validated: 1
EndChar

StartChar: aring
Encoding: 229 229 198
Width: 8
GlyphClass: 2
Flags: W
LayerCount: 2
Fore
SplineSet
0 1 m 1,0,-1
 0 2 l 1,1,-1
 1 2 l 1,2,-1
 1 3 l 1,3,-1
 4 3 l 1,4,-1
 4 4 l 1,5,-1
 1 4 l 1,6,-1
 1 5 l 1,7,-1
 2 5 l 1,8,-1
 2 7 l 1,9,-1
 4 7 l 1,10,-1
 4 5 l 1,11,-1
 5 5 l 1,12,-1
 5 4 l 1,13,-1
 6 4 l 1,14,-1
 6 1 l 1,15,-1
 7 1 l 1,16,-1
 7 0 l 1,17,-1
 1 0 l 1,18,-1
 1 1 l 1,19,-1
 0 1 l 1,0,-1
2 2 m 1,20,-1
 2 1 l 1,21,-1
 4 1 l 1,22,-1
 4 2 l 1,23,-1
 2 2 l 1,20,-1
EndSplineSet
Validated: 1
EndChar

StartChar: ae
Encoding: 230 230 199
Width: 8
GlyphClass: 2
Flags: W
LayerCount: 2
Fore
SplineSet
0 1 m 1,0,-1
 0 2 l 1,1,-1
 1 2 l 1,2,-1
 1 3 l 1,3,-1
 4 3 l 1,4,-1
 4 4 l 1,5,-1
 1 4 l 1,6,-1
 1 5 l 1,7,-1
 8 5 l 1,8,-1
 8 4 l 1,9,-1
 6 4 l 1,10,-1
 6 3 l 1,11,-1
 8 3 l 1,12,-1
 8 2 l 1,13,-1
 6 2 l 1,14,-1
 6 1 l 1,15,-1
 8 1 l 1,16,-1
 8 0 l 1,17,-1
 1 0 l 1,18,-1
 1 1 l 1,19,-1
 0 1 l 1,0,-1
2 2 m 1,20,-1
 2 1 l 1,21,-1
 4 1 l 1,22,-1
 4 2 l 1,23,-1
 2 2 l 1,20,-1
EndSplineSet
Validated: 1
EndChar

StartChar: ccedilla
Encoding: 231 231 200
Width: 8
GlyphClass: 2
Flags: W
LayerCount: 2
Fore
SplineSet
0 2 m 1,0,-1
 0 4 l 1,1,-1
 1 4 l 1,2,-1
 1 5 l 1,3,-1
 5 5 l 1,4,-1
 5 4 l 1,5,-1
 2 4 l 1,6,-1
 2 2 l 1,7,-1
 5 2 l 1,8,-1
 5 1 l 1,9,-1
 6 1 l 1,10,-1
 6 0 l 1,11,-1
 5 0 l 1,12,-1
 5 -1 l 1,13,-1
 2 -1 l 1,14,-1
 2 0 l 1,15,-1
 4 0 l 1,16,-1
 4 1 l 1,17,-1
 1 1 l 1,18,-1
 1 2 l 1,19,-1
 0 2 l 1,0,-1
EndSplineSet
Validated: 1
EndChar

StartChar: egrave
Encoding: 232 232 201
Width: 8
GlyphClass: 2
Flags: W
LayerCount: 2
Fore
SplineSet
0 1 m 1,0,-1
 0 4 l 1,1,-1
 1 4 l 1,2,-1
 1 5 l 1,3,-1
 5 5 l 1,4,-1
 5 4 l 1,5,-1
 6 4 l 1,6,-1
 6 2 l 1,7,-1
 2 2 l 1,8,-1
 2 1 l 1,9,-1
 5 1 l 1,10,-1
 5 0 l 1,11,-1
 1 0 l 1,12,-1
 1 1 l 1,13,-1
 0 1 l 1,0,-1
0 6 m 1,14,-1
 0 7 l 1,15,-1
 3 7 l 1,16,-1
 3 6 l 1,17,-1
 0 6 l 1,14,-1
2 4 m 1,18,-1
 2 3 l 1,19,-1
 4 3 l 1,20,-1
 4 4 l 1,21,-1
 2 4 l 1,18,-1
EndSplineSet
Validated: 1
EndChar

StartChar: eacute
Encoding: 233 233 202
Width: 8
GlyphClass: 2
Flags: W
LayerCount: 2
Fore
SplineSet
0 1 m 1,0,-1
 0 4 l 1,1,-1
 1 4 l 1,2,-1
 1 5 l 1,3,-1
 5 5 l 1,4,-1
 5 4 l 1,5,-1
 6 4 l 1,6,-1
 6 2 l 1,7,-1
 2 2 l 1,8,-1
 2 1 l 1,9,-1
 5 1 l 1,10,-1
 5 0 l 1,11,-1
 1 0 l 1,12,-1
 1 1 l 1,13,-1
 0 1 l 1,0,-1
2 4 m 1,14,-1
 2 3 l 1,15,-1
 4 3 l 1,16,-1
 4 4 l 1,17,-1
 2 4 l 1,14,-1
3 6 m 1,18,-1
 3 7 l 1,19,-1
 6 7 l 1,20,-1
 6 6 l 1,21,-1
 3 6 l 1,18,-1
EndSplineSet
Validated: 1
EndChar

StartChar: ecircumflex
Encoding: 234 234 203
Width: 8
GlyphClass: 2
Flags: W
LayerCount: 2
Fore
SplineSet
0 5 m 1,0,-1
 0 6 l 1,1,-1
 1 6 l 1,2,-1
 1 7 l 1,3,-1
 7 7 l 1,4,-1
 7 6 l 1,5,-1
 8 6 l 1,6,-1
 8 5 l 1,7,-1
 6 5 l 1,8,-1
 6 6 l 1,9,-1
 2 6 l 1,10,-1
 2 5 l 1,11,-1
 0 5 l 1,0,-1
2 1 m 1,12,-1
 1 1 l 1,13,-1
 1 4 l 1,14,-1
 2 4 l 1,15,-1
 2 5 l 1,16,-1
 6 5 l 1,17,-1
 6 4 l 1,18,-1
 7 4 l 1,19,-1
 7 2 l 1,20,-1
 3 2 l 1,21,-1
 3 1 l 1,22,-1
 6 1 l 1,23,-1
 6 0 l 1,24,-1
 2 0 l 1,25,-1
 2 1 l 1,12,-1
3 4 m 1,26,-1
 3 3 l 1,27,-1
 5 3 l 1,28,-1
 5 4 l 1,29,-1
 3 4 l 1,26,-1
EndSplineSet
Validated: 5
EndChar

StartChar: edieresis
Encoding: 235 235 204
Width: 8
GlyphClass: 2
Flags: W
LayerCount: 2
Fore
SplineSet
0 1 m 1,0,-1
 0 4 l 1,1,-1
 1 4 l 1,2,-1
 1 5 l 1,3,-1
 5 5 l 1,4,-1
 5 4 l 1,5,-1
 6 4 l 1,6,-1
 6 2 l 1,7,-1
 2 2 l 1,8,-1
 2 1 l 1,9,-1
 5 1 l 1,10,-1
 5 0 l 1,11,-1
 1 0 l 1,12,-1
 1 1 l 1,13,-1
 0 1 l 1,0,-1
0 6 m 1,14,-1
 0 7 l 1,15,-1
 2 7 l 1,16,-1
 2 6 l 1,17,-1
 0 6 l 1,14,-1
2 4 m 1,18,-1
 2 3 l 1,19,-1
 4 3 l 1,20,-1
 4 4 l 1,21,-1
 2 4 l 1,18,-1
4 6 m 1,22,-1
 4 7 l 1,23,-1
 6 7 l 1,24,-1
 6 6 l 1,25,-1
 4 6 l 1,22,-1
EndSplineSet
Validated: 1
EndChar

StartChar: igrave
Encoding: 236 236 205
Width: 8
GlyphClass: 2
Flags: W
LayerCount: 2
Fore
SplineSet
0 6 m 1,0,-1
 0 7 l 1,1,-1
 3 7 l 1,2,-1
 3 6 l 1,3,-1
 0 6 l 1,0,-1
1 0 m 1,4,-1
 1 1 l 1,5,-1
 2 1 l 1,6,-1
 2 4 l 1,7,-1
 1 4 l 1,8,-1
 1 5 l 1,9,-1
 4 5 l 1,10,-1
 4 1 l 1,11,-1
 5 1 l 1,12,-1
 5 0 l 1,13,-1
 1 0 l 1,4,-1
EndSplineSet
Validated: 1
EndChar

StartChar: iacute
Encoding: 237 237 206
Width: 8
GlyphClass: 2
Flags: W
LayerCount: 2
Fore
SplineSet
1 0 m 1,0,-1
 1 1 l 1,1,-1
 2 1 l 1,2,-1
 2 4 l 1,3,-1
 1 4 l 1,4,-1
 1 5 l 1,5,-1
 4 5 l 1,6,-1
 4 1 l 1,7,-1
 5 1 l 1,8,-1
 5 0 l 1,9,-1
 1 0 l 1,0,-1
2 6 m 1,10,-1
 2 7 l 1,11,-1
 5 7 l 1,12,-1
 5 6 l 1,13,-1
 2 6 l 1,10,-1
EndSplineSet
Validated: 1
EndChar

StartChar: icircumflex
Encoding: 238 238 207
Width: 8
GlyphClass: 2
Flags: W
LayerCount: 2
Fore
SplineSet
0 5 m 1,0,-1
 0 6 l 1,1,-1
 1 6 l 1,2,-1
 1 7 l 1,3,-1
 6 7 l 1,4,-1
 6 6 l 1,5,-1
 7 6 l 1,6,-1
 7 5 l 1,7,-1
 5 5 l 1,8,-1
 5 6 l 1,9,-1
 2 6 l 1,10,-1
 2 5 l 1,11,-1
 0 5 l 1,0,-1
2 0 m 1,12,-1
 2 1 l 1,13,-1
 3 1 l 1,14,-1
 3 4 l 1,15,-1
 2 4 l 1,16,-1
 2 5 l 1,17,-1
 5 5 l 1,18,-1
 5 1 l 1,19,-1
 6 1 l 1,20,-1
 6 0 l 1,21,-1
 2 0 l 1,12,-1
EndSplineSet
Validated: 5
EndChar

StartChar: idieresis
Encoding: 239 239 208
Width: 8
GlyphClass: 2
Flags: W
LayerCount: 2
Fore
SplineSet
0 6 m 1,0,-1
 0 7 l 1,1,-1
 2 7 l 1,2,-1
 2 6 l 1,3,-1
 0 6 l 1,0,-1
1 0 m 1,4,-1
 1 1 l 1,5,-1
 2 1 l 1,6,-1
 2 4 l 1,7,-1
 1 4 l 1,8,-1
 1 5 l 1,9,-1
 4 5 l 1,10,-1
 4 1 l 1,11,-1
 5 1 l 1,12,-1
 5 0 l 1,13,-1
 1 0 l 1,4,-1
4 6 m 1,14,-1
 4 7 l 1,15,-1
 6 7 l 1,16,-1
 6 6 l 1,17,-1
 4 6 l 1,14,-1
EndSplineSet
Validated: 1
EndChar

StartChar: eth
Encoding: 240 240 209
Width: 8
GlyphClass: 2
Flags: W
LayerCount: 2
Fore
SplineSet
0 1 m 1,0,-1
 0 3 l 1,1,-1
 1 3 l 1,2,-1
 1 4 l 1,3,-1
 4 4 l 1,4,-1
 4 5 l 1,5,-1
 1 5 l 1,6,-1
 1 6 l 1,7,-1
 2 6 l 1,8,-1
 2 7 l 1,9,-1
 4 7 l 1,10,-1
 4 6 l 1,11,-1
 7 6 l 1,12,-1
 7 5 l 1,13,-1
 6 5 l 1,14,-1
 6 1 l 1,15,-1
 5 1 l 1,16,-1
 5 0 l 1,17,-1
 1 0 l 1,18,-1
 1 1 l 1,19,-1
 0 1 l 1,0,-1
2 1 m 1,20,-1
 4 1 l 1,21,-1
 4 3 l 1,22,-1
 2 3 l 1,23,-1
 2 1 l 1,20,-1
EndSplineSet
Validated: 1
EndChar

StartChar: ntilde
Encoding: 241 241 210
Width: 8
GlyphClass: 2
Flags: W
LayerCount: 2
Fore
SplineSet
0 0 m 1,0,-1
 0 4 l 1,1,-1
 5 4 l 1,2,-1
 5 3 l 1,3,-1
 6 3 l 1,4,-1
 6 0 l 1,5,-1
 4 0 l 1,6,-1
 4 3 l 1,7,-1
 2 3 l 1,8,-1
 2 0 l 1,9,-1
 0 0 l 1,0,-1
0 5 m 1,10,-1
 0 6 l 1,11,-1
 5 6 l 1,12,-1
 5 5 l 1,13,-1
 0 5 l 1,10,-1
EndSplineSet
Validated: 1
EndChar

StartChar: ograve
Encoding: 242 242 211
Width: 8
GlyphClass: 2
Flags: W
LayerCount: 2
Fore
SplineSet
0 1 m 1,0,-1
 0 3 l 1,1,-1
 1 3 l 1,2,-1
 1 4 l 1,3,-1
 5 4 l 1,4,-1
 5 3 l 1,5,-1
 6 3 l 1,6,-1
 6 1 l 1,7,-1
 5 1 l 1,8,-1
 5 0 l 1,9,-1
 1 0 l 1,10,-1
 1 1 l 1,11,-1
 0 1 l 1,0,-1
0 5 m 1,12,-1
 0 6 l 1,13,-1
 3 6 l 1,14,-1
 3 5 l 1,15,-1
 0 5 l 1,12,-1
2 1 m 1,16,-1
 4 1 l 1,17,-1
 4 3 l 1,18,-1
 2 3 l 1,19,-1
 2 1 l 1,16,-1
EndSplineSet
Validated: 1
EndChar

StartChar: oacute
Encoding: 243 243 212
Width: 8
GlyphClass: 2
Flags: W
LayerCount: 2
Fore
SplineSet
0 1 m 1,0,-1
 0 3 l 1,1,-1
 1 3 l 1,2,-1
 1 4 l 1,3,-1
 5 4 l 1,4,-1
 5 3 l 1,5,-1
 6 3 l 1,6,-1
 6 1 l 1,7,-1
 5 1 l 1,8,-1
 5 0 l 1,9,-1
 1 0 l 1,10,-1
 1 1 l 1,11,-1
 0 1 l 1,0,-1
2 1 m 1,12,-1
 4 1 l 1,13,-1
 4 3 l 1,14,-1
 2 3 l 1,15,-1
 2 1 l 1,12,-1
3 5 m 1,16,-1
 3 6 l 1,17,-1
 6 6 l 1,18,-1
 6 5 l 1,19,-1
 3 5 l 1,16,-1
EndSplineSet
Validated: 1
EndChar

StartChar: ocircumflex
Encoding: 244 244 213
Width: 8
GlyphClass: 2
Flags: W
LayerCount: 2
Fore
SplineSet
0 1 m 1,0,-1
 0 3 l 1,1,-1
 1 3 l 1,2,-1
 1 4 l 1,3,-1
 5 4 l 1,4,-1
 5 3 l 1,5,-1
 6 3 l 1,6,-1
 6 1 l 1,7,-1
 5 1 l 1,8,-1
 5 0 l 1,9,-1
 1 0 l 1,10,-1
 1 1 l 1,11,-1
 0 1 l 1,0,-1
0 5 m 1,12,-1
 0 6 l 1,13,-1
 1 6 l 1,14,-1
 1 7 l 1,15,-1
 5 7 l 1,16,-1
 5 6 l 1,17,-1
 6 6 l 1,18,-1
 6 5 l 1,19,-1
 4 5 l 1,20,-1
 4 6 l 1,21,-1
 2 6 l 1,22,-1
 2 5 l 1,23,-1
 0 5 l 1,12,-1
2 1 m 1,24,-1
 4 1 l 1,25,-1
 4 3 l 1,26,-1
 2 3 l 1,27,-1
 2 1 l 1,24,-1
EndSplineSet
Validated: 1
EndChar

StartChar: otilde
Encoding: 245 245 214
Width: 8
GlyphClass: 2
Flags: W
LayerCount: 2
Fore
SplineSet
0 1 m 1,0,-1
 0 3 l 1,1,-1
 1 3 l 1,2,-1
 1 4 l 1,3,-1
 5 4 l 1,4,-1
 5 3 l 1,5,-1
 6 3 l 1,6,-1
 6 1 l 1,7,-1
 5 1 l 1,8,-1
 5 0 l 1,9,-1
 1 0 l 1,10,-1
 1 1 l 1,11,-1
 0 1 l 1,0,-1
0 5 m 1,12,-1
 0 6 l 1,13,-1
 1 6 l 1,14,-1
 1 7 l 1,15,-1
 4 7 l 1,16,-1
 4 6 l 1,17,-1
 5 6 l 1,18,-1
 5 7 l 1,19,-1
 7 7 l 1,20,-1
 7 6 l 1,21,-1
 6 6 l 1,22,-1
 6 5 l 1,23,-1
 3 5 l 1,24,-1
 3 6 l 1,25,-1
 2 6 l 1,26,-1
 2 5 l 1,27,-1
 0 5 l 1,12,-1
2 1 m 1,28,-1
 4 1 l 1,29,-1
 4 3 l 1,30,-1
 2 3 l 1,31,-1
 2 1 l 1,28,-1
EndSplineSet
Validated: 1
EndChar

StartChar: odieresis
Encoding: 246 246 215
Width: 8
GlyphClass: 2
Flags: W
LayerCount: 2
Fore
SplineSet
0 1 m 1,0,-1
 0 3 l 1,1,-1
 1 3 l 1,2,-1
 1 4 l 1,3,-1
 5 4 l 1,4,-1
 5 3 l 1,5,-1
 6 3 l 1,6,-1
 6 1 l 1,7,-1
 5 1 l 1,8,-1
 5 0 l 1,9,-1
 1 0 l 1,10,-1
 1 1 l 1,11,-1
 0 1 l 1,0,-1
0 5 m 1,12,-1
 0 6 l 1,13,-1
 2 6 l 1,14,-1
 2 5 l 1,15,-1
 0 5 l 1,12,-1
2 1 m 1,16,-1
 4 1 l 1,17,-1
 4 3 l 1,18,-1
 2 3 l 1,19,-1
 2 1 l 1,16,-1
4 5 m 1,20,-1
 4 6 l 1,21,-1
 6 6 l 1,22,-1
 6 5 l 1,23,-1
 4 5 l 1,20,-1
EndSplineSet
Validated: 1
EndChar

StartChar: divide
Encoding: 247 247 216
Width: 8
GlyphClass: 2
Flags: W
LayerCount: 2
Fore
SplineSet
4 2 m 1,0,-1
 4 0 l 1,1,-1
 2 0 l 1,2,-1
 2 2 l 1,3,-1
 4 2 l 1,0,-1
0 3 m 1,4,-1
 0 4 l 1,5,-1
 6 4 l 1,6,-1
 6 3 l 1,7,-1
 0 3 l 1,4,-1
4 5 m 1,8,-1
 2 5 l 1,9,-1
 2 7 l 1,10,-1
 4 7 l 1,11,-1
 4 5 l 1,8,-1
EndSplineSet
Validated: 1
EndChar

StartChar: oslash
Encoding: 248 248 217
Width: 8
GlyphClass: 2
Flags: W
LayerCount: 2
Fore
SplineSet
0 -1 m 1,0,-1
 0 0 l 1,1,-1
 1 0 l 1,2,-1
 1 -1 l 1,3,-1
 0 -1 l 1,0,-1
0 1 m 1,4,-1
 0 4 l 1,5,-1
 1 4 l 1,6,-1
 1 5 l 1,7,-1
 6 5 l 1,8,-1
 6 4 l 1,9,-1
 7 4 l 1,10,-1
 7 1 l 1,11,-1
 6 1 l 1,12,-1
 6 0 l 1,13,-1
 1 0 l 1,14,-1
 1 1 l 1,15,-1
 0 1 l 1,4,-1
2 2 m 1,16,-1
 3 2 l 1,17,-1
 3 1 l 1,18,-1
 5 1 l 1,19,-1
 5 3 l 1,20,-1
 4 3 l 1,21,-1
 4 4 l 1,22,-1
 2 4 l 1,23,-1
 2 2 l 1,16,-1
4 2 m 1,24,-1
 3 2 l 1,25,-1
 3 3 l 1,26,-1
 4 3 l 1,27,-1
 4 2 l 1,24,-1
6 5 m 1,28,-1
 6 6 l 1,29,-1
 7 6 l 1,30,-1
 7 5 l 1,31,-1
 6 5 l 1,28,-1
EndSplineSet
Validated: 5
EndChar

StartChar: ugrave
Encoding: 249 249 218
Width: 8
GlyphClass: 2
Flags: W
LayerCount: 2
Fore
SplineSet
0 1 m 1,0,-1
 0 4 l 1,1,-1
 2 4 l 1,2,-1
 2 1 l 1,3,-1
 4 1 l 1,4,-1
 4 4 l 1,5,-1
 6 4 l 1,6,-1
 6 1 l 1,7,-1
 7 1 l 1,8,-1
 7 0 l 1,9,-1
 1 0 l 1,10,-1
 1 1 l 1,11,-1
 0 1 l 1,0,-1
0 5 m 1,12,-1
 0 6 l 1,13,-1
 3 6 l 1,14,-1
 3 5 l 1,15,-1
 0 5 l 1,12,-1
EndSplineSet
Validated: 1
EndChar

StartChar: uacute
Encoding: 250 250 219
Width: 8
GlyphClass: 2
Flags: W
LayerCount: 2
Fore
SplineSet
0 1 m 1,0,-1
 0 4 l 1,1,-1
 2 4 l 1,2,-1
 2 1 l 1,3,-1
 4 1 l 1,4,-1
 4 4 l 1,5,-1
 6 4 l 1,6,-1
 6 1 l 1,7,-1
 7 1 l 1,8,-1
 7 0 l 1,9,-1
 1 0 l 1,10,-1
 1 1 l 1,11,-1
 0 1 l 1,0,-1
3 5 m 1,12,-1
 3 6 l 1,13,-1
 6 6 l 1,14,-1
 6 5 l 1,15,-1
 3 5 l 1,12,-1
EndSplineSet
Validated: 1
EndChar

StartChar: ucircumflex
Encoding: 251 251 220
Width: 8
GlyphClass: 2
Flags: W
LayerCount: 2
Fore
SplineSet
0 1 m 1,0,-1
 0 4 l 1,1,-1
 2 4 l 1,2,-1
 2 1 l 1,3,-1
 4 1 l 1,4,-1
 4 4 l 1,5,-1
 6 4 l 1,6,-1
 6 1 l 1,7,-1
 7 1 l 1,8,-1
 7 0 l 1,9,-1
 1 0 l 1,10,-1
 1 1 l 1,11,-1
 0 1 l 1,0,-1
0 5 m 1,12,-1
 0 6 l 1,13,-1
 1 6 l 1,14,-1
 1 7 l 1,15,-1
 5 7 l 1,16,-1
 5 6 l 1,17,-1
 6 6 l 1,18,-1
 6 5 l 1,19,-1
 4 5 l 1,20,-1
 4 6 l 1,21,-1
 2 6 l 1,22,-1
 2 5 l 1,23,-1
 0 5 l 1,12,-1
EndSplineSet
Validated: 1
EndChar

StartChar: udieresis
Encoding: 252 252 221
Width: 8
GlyphClass: 2
Flags: W
LayerCount: 2
Fore
SplineSet
0 1 m 1,0,-1
 0 4 l 1,1,-1
 2 4 l 1,2,-1
 2 1 l 1,3,-1
 4 1 l 1,4,-1
 4 4 l 1,5,-1
 6 4 l 1,6,-1
 6 1 l 1,7,-1
 7 1 l 1,8,-1
 7 0 l 1,9,-1
 1 0 l 1,10,-1
 1 1 l 1,11,-1
 0 1 l 1,0,-1
0 5 m 1,12,-1
 0 6 l 1,13,-1
 2 6 l 1,14,-1
 2 5 l 1,15,-1
 0 5 l 1,12,-1
4 5 m 1,16,-1
 4 6 l 1,17,-1
 6 6 l 1,18,-1
 6 5 l 1,19,-1
 4 5 l 1,16,-1
EndSplineSet
Validated: 1
EndChar

StartChar: yacute
Encoding: 253 253 222
Width: 8
GlyphClass: 2
Flags: W
LayerCount: 2
Fore
SplineSet
0 2 m 1,0,-1
 0 4 l 1,1,-1
 2 4 l 1,2,-1
 2 2 l 1,3,-1
 4 2 l 1,4,-1
 4 4 l 1,5,-1
 6 4 l 1,6,-1
 6 0 l 1,7,-1
 5 0 l 1,8,-1
 5 -1 l 1,9,-1
 1 -1 l 1,10,-1
 1 0 l 1,11,-1
 4 0 l 1,12,-1
 4 1 l 1,13,-1
 1 1 l 1,14,-1
 1 2 l 1,15,-1
 0 2 l 1,0,-1
3 5 m 1,16,-1
 3 6 l 1,17,-1
 6 6 l 1,18,-1
 6 5 l 1,19,-1
 3 5 l 1,16,-1
EndSplineSet
Validated: 1
EndChar

StartChar: thorn
Encoding: 254 254 223
Width: 8
GlyphClass: 2
Flags: W
LayerCount: 2
Fore
SplineSet
0 -1 m 1,0,-1
 0 0 l 1,1,-1
 1 0 l 1,2,-1
 1 6 l 1,3,-1
 0 6 l 1,4,-1
 0 7 l 1,5,-1
 3 7 l 1,6,-1
 3 5 l 1,7,-1
 6 5 l 1,8,-1
 6 4 l 1,9,-1
 7 4 l 1,10,-1
 7 2 l 1,11,-1
 6 2 l 1,12,-1
 6 1 l 1,13,-1
 3 1 l 1,14,-1
 3 0 l 1,15,-1
 4 0 l 1,16,-1
 4 -1 l 1,17,-1
 0 -1 l 1,0,-1
3 2 m 1,18,-1
 5 2 l 1,19,-1
 5 4 l 1,20,-1
 3 4 l 1,21,-1
 3 2 l 1,18,-1
EndSplineSet
Validated: 1
EndChar

StartChar: ydieresis
Encoding: 255 255 224
Width: 8
GlyphClass: 2
Flags: W
LayerCount: 2
Fore
SplineSet
0 -1 m 1,0,-1
 0 0 l 1,1,-1
 4 0 l 1,2,-1
 4 1 l 1,3,-1
 1 1 l 1,4,-1
 1 2 l 1,5,-1
 0 2 l 1,6,-1
 0 4 l 1,7,-1
 2 4 l 1,8,-1
 2 2 l 1,9,-1
 4 2 l 1,10,-1
 4 4 l 1,11,-1
 6 4 l 1,12,-1
 6 0 l 1,13,-1
 5 0 l 1,14,-1
 5 -1 l 1,15,-1
 0 -1 l 1,0,-1
0 5 m 1,16,-1
 0 6 l 1,17,-1
 2 6 l 1,18,-1
 2 5 l 1,19,-1
 0 5 l 1,16,-1
4 5 m 1,20,-1
 4 6 l 1,21,-1
 6 6 l 1,22,-1
 6 5 l 1,23,-1
 4 5 l 1,20,-1
EndSplineSet
Validated: 1
EndChar

StartChar: Amacron
Encoding: 256 256 225
Width: 8
GlyphClass: 2
Flags: W
LayerCount: 2
Fore
SplineSet
0 0 m 1,0,-1
 0 3 l 1,1,-1
 1 3 l 1,2,-1
 1 4 l 1,3,-1
 2 4 l 1,4,-1
 2 5 l 1,5,-1
 5 5 l 1,6,-1
 5 4 l 1,7,-1
 6 4 l 1,8,-1
 6 3 l 1,9,-1
 7 3 l 1,10,-1
 7 0 l 1,11,-1
 5 0 l 1,12,-1
 5 1 l 1,13,-1
 2 1 l 1,14,-1
 2 0 l 1,15,-1
 0 0 l 1,0,-1
0 6 m 1,16,-1
 0 7 l 1,17,-1
 7 7 l 1,18,-1
 7 6 l 1,19,-1
 0 6 l 1,16,-1
2 2 m 1,20,-1
 5 2 l 1,21,-1
 5 3 l 1,22,-1
 4 3 l 1,23,-1
 4 4 l 1,24,-1
 3 4 l 1,25,-1
 3 3 l 1,26,-1
 2 3 l 1,27,-1
 2 2 l 1,20,-1
EndSplineSet
Validated: 1
EndChar

StartChar: amacron
Encoding: 257 257 226
Width: 8
GlyphClass: 2
Flags: W
LayerCount: 2
Fore
SplineSet
0 1 m 1,0,-1
 0 2 l 1,1,-1
 1 2 l 1,2,-1
 1 3 l 1,3,-1
 4 3 l 1,4,-1
 4 4 l 1,5,-1
 1 4 l 1,6,-1
 1 5 l 1,7,-1
 5 5 l 1,8,-1
 5 4 l 1,9,-1
 6 4 l 1,10,-1
 6 1 l 1,11,-1
 7 1 l 1,12,-1
 7 0 l 1,13,-1
 1 0 l 1,14,-1
 1 1 l 1,15,-1
 0 1 l 1,0,-1
1 6 m 1,16,-1
 1 7 l 1,17,-1
 6 7 l 1,18,-1
 6 6 l 1,19,-1
 1 6 l 1,16,-1
2 2 m 1,20,-1
 2 1 l 1,21,-1
 4 1 l 1,22,-1
 4 2 l 1,23,-1
 2 2 l 1,20,-1
EndSplineSet
Validated: 1
EndChar

StartChar: Abreve
Encoding: 258 258 227
Width: 8
GlyphClass: 2
Flags: W
LayerCount: 2
Fore
SplineSet
0 0 m 1,0,-1
 0 3 l 1,1,-1
 1 3 l 1,2,-1
 1 4 l 1,3,-1
 2 4 l 1,4,-1
 2 5 l 1,5,-1
 1 5 l 1,6,-1
 1 6 l 1,7,-1
 0 6 l 1,8,-1
 0 7 l 1,9,-1
 2 7 l 1,10,-1
 2 6 l 1,11,-1
 5 6 l 1,12,-1
 5 7 l 1,13,-1
 7 7 l 1,14,-1
 7 6 l 1,15,-1
 6 6 l 1,16,-1
 6 5 l 1,17,-1
 5 5 l 1,18,-1
 5 4 l 1,19,-1
 6 4 l 1,20,-1
 6 3 l 1,21,-1
 7 3 l 1,22,-1
 7 0 l 1,23,-1
 5 0 l 1,24,-1
 5 1 l 1,25,-1
 2 1 l 1,26,-1
 2 0 l 1,27,-1
 0 0 l 1,0,-1
2 2 m 1,28,-1
 5 2 l 1,29,-1
 5 3 l 1,30,-1
 4 3 l 1,31,-1
 4 4 l 1,32,-1
 3 4 l 1,33,-1
 3 3 l 1,34,-1
 2 3 l 1,35,-1
 2 2 l 1,28,-1
EndSplineSet
Validated: 1
EndChar

StartChar: abreve
Encoding: 259 259 228
Width: 8
GlyphClass: 2
Flags: W
LayerCount: 2
Fore
SplineSet
0 1 m 1,0,-1
 0 2 l 1,1,-1
 1 2 l 1,2,-1
 1 3 l 1,3,-1
 4 3 l 1,4,-1
 4 4 l 1,5,-1
 1 4 l 1,6,-1
 1 6 l 1,7,-1
 0 6 l 1,8,-1
 0 7 l 1,9,-1
 2 7 l 1,10,-1
 2 6 l 1,11,-1
 4 6 l 1,12,-1
 4 7 l 1,13,-1
 6 7 l 1,14,-1
 6 6 l 1,15,-1
 5 6 l 1,16,-1
 5 4 l 1,17,-1
 6 4 l 1,18,-1
 6 1 l 1,19,-1
 7 1 l 1,20,-1
 7 0 l 1,21,-1
 1 0 l 1,22,-1
 1 1 l 1,23,-1
 0 1 l 1,0,-1
2 2 m 1,24,-1
 2 1 l 1,25,-1
 4 1 l 1,26,-1
 4 2 l 1,27,-1
 2 2 l 1,24,-1
EndSplineSet
Validated: 1
EndChar

StartChar: Aogonek
Encoding: 260 260 229
Width: 8
GlyphClass: 2
Flags: W
LayerCount: 2
Fore
SplineSet
0 0 m 1,0,-1
 0 5 l 1,1,-1
 1 5 l 1,2,-1
 1 6 l 1,3,-1
 2 6 l 1,4,-1
 2 7 l 1,5,-1
 4 7 l 1,6,-1
 4 6 l 1,7,-1
 5 6 l 1,8,-1
 5 5 l 1,9,-1
 6 5 l 1,10,-1
 6 0 l 1,11,-1
 7 0 l 1,12,-1
 7 -1 l 1,13,-1
 4 -1 l 1,14,-1
 4 0 l 1,15,-1
 3 0 l 1,16,-1
 3 1 l 1,17,-1
 4 1 l 1,18,-1
 4 2 l 1,19,-1
 2 2 l 1,20,-1
 2 0 l 1,21,-1
 0 0 l 1,0,-1
2 5 m 1,22,-1
 2 3 l 1,23,-1
 4 3 l 1,24,-1
 4 5 l 1,25,-1
 2 5 l 1,22,-1
EndSplineSet
Validated: 1
EndChar

StartChar: aogonek
Encoding: 261 261 230
Width: 8
GlyphClass: 2
Flags: W
LayerCount: 2
Fore
SplineSet
0 1 m 1,0,-1
 0 2 l 1,1,-1
 1 2 l 1,2,-1
 1 3 l 1,3,-1
 4 3 l 1,4,-1
 4 4 l 1,5,-1
 1 4 l 1,6,-1
 1 5 l 1,7,-1
 5 5 l 1,8,-1
 5 4 l 1,9,-1
 6 4 l 1,10,-1
 6 1 l 1,11,-1
 7 1 l 1,12,-1
 7 0 l 1,13,-1
 8 0 l 1,14,-1
 8 -1 l 1,15,-1
 5 -1 l 1,16,-1
 5 0 l 1,17,-1
 1 0 l 1,18,-1
 1 1 l 1,19,-1
 0 1 l 1,0,-1
2 2 m 1,20,-1
 2 1 l 1,21,-1
 4 1 l 1,22,-1
 4 2 l 1,23,-1
 2 2 l 1,20,-1
EndSplineSet
Validated: 1
EndChar

StartChar: Cacute
Encoding: 262 262 231
Width: 8
GlyphClass: 2
Flags: W
LayerCount: 2
Fore
SplineSet
0 2 m 1,0,-1
 0 4 l 1,1,-1
 1 4 l 1,2,-1
 1 5 l 1,3,-1
 2 5 l 1,4,-1
 2 6 l 1,5,-1
 4 6 l 1,6,-1
 4 7 l 1,7,-1
 7 7 l 1,8,-1
 7 6 l 1,9,-1
 6 6 l 1,10,-1
 6 5 l 1,11,-1
 7 5 l 1,12,-1
 7 4 l 1,13,-1
 5 4 l 1,14,-1
 5 5 l 1,15,-1
 3 5 l 1,16,-1
 3 4 l 1,17,-1
 2 4 l 1,18,-1
 2 2 l 1,19,-1
 3 2 l 1,20,-1
 3 1 l 1,21,-1
 5 1 l 1,22,-1
 5 2 l 1,23,-1
 7 2 l 1,24,-1
 7 1 l 1,25,-1
 6 1 l 1,26,-1
 6 0 l 1,27,-1
 2 0 l 1,28,-1
 2 1 l 1,29,-1
 1 1 l 1,30,-1
 1 2 l 1,31,-1
 0 2 l 1,0,-1
EndSplineSet
Validated: 1
EndChar

StartChar: cacute
Encoding: 263 263 232
Width: 8
GlyphClass: 2
Flags: W
LayerCount: 2
Fore
SplineSet
0 1 m 1,0,-1
 0 4 l 1,1,-1
 1 4 l 1,2,-1
 1 5 l 1,3,-1
 5 5 l 1,4,-1
 5 4 l 1,5,-1
 6 4 l 1,6,-1
 6 3 l 1,7,-1
 4 3 l 1,8,-1
 4 4 l 1,9,-1
 2 4 l 1,10,-1
 2 1 l 1,11,-1
 4 1 l 1,12,-1
 4 2 l 1,13,-1
 6 2 l 1,14,-1
 6 1 l 1,15,-1
 5 1 l 1,16,-1
 5 0 l 1,17,-1
 1 0 l 1,18,-1
 1 1 l 1,19,-1
 0 1 l 1,0,-1
3 6 m 1,20,-1
 3 7 l 1,21,-1
 6 7 l 1,22,-1
 6 6 l 1,23,-1
 3 6 l 1,20,-1
EndSplineSet
Validated: 1
EndChar

StartChar: Ccircumflex
Encoding: 264 264 233
Width: 8
GlyphClass: 2
Flags: W
LayerCount: 2
Fore
SplineSet
0 2 m 1,0,-1
 0 3 l 1,1,-1
 1 3 l 1,2,-1
 1 4 l 1,3,-1
 2 4 l 1,4,-1
 2 5 l 1,5,-1
 6 5 l 1,6,-1
 6 4 l 1,7,-1
 7 4 l 1,8,-1
 7 3 l 1,9,-1
 5 3 l 1,10,-1
 5 4 l 1,11,-1
 3 4 l 1,12,-1
 3 3 l 1,13,-1
 2 3 l 1,14,-1
 2 2 l 1,15,-1
 3 2 l 1,16,-1
 3 1 l 1,17,-1
 5 1 l 1,18,-1
 5 2 l 1,19,-1
 7 2 l 1,20,-1
 7 1 l 1,21,-1
 6 1 l 1,22,-1
 6 0 l 1,23,-1
 2 0 l 1,24,-1
 2 1 l 1,25,-1
 1 1 l 1,26,-1
 1 2 l 1,27,-1
 0 2 l 1,0,-1
0 5 m 1,28,-1
 0 6 l 1,29,-1
 1 6 l 1,30,-1
 1 7 l 1,31,-1
 7 7 l 1,32,-1
 7 6 l 1,33,-1
 8 6 l 1,34,-1
 8 5 l 1,35,-1
 6 5 l 1,36,-1
 6 6 l 1,37,-1
 2 6 l 1,38,-1
 2 5 l 1,39,-1
 0 5 l 1,28,-1
EndSplineSet
Validated: 5
EndChar

StartChar: ccircumflex
Encoding: 265 265 234
Width: 8
GlyphClass: 2
Flags: W
LayerCount: 2
Fore
SplineSet
1 1 m 1,0,-1
 1 3 l 1,1,-1
 2 3 l 1,2,-1
 2 4 l 1,3,-1
 6 4 l 1,4,-1
 6 3 l 1,5,-1
 3 3 l 1,6,-1
 3 1 l 1,7,-1
 6 1 l 1,8,-1
 6 0 l 1,9,-1
 2 0 l 1,10,-1
 2 1 l 1,11,-1
 1 1 l 1,0,-1
1 5 m 1,12,-1
 1 6 l 1,13,-1
 2 6 l 1,14,-1
 2 7 l 1,15,-1
 5 7 l 1,16,-1
 5 6 l 1,17,-1
 6 6 l 1,18,-1
 6 5 l 1,19,-1
 4 5 l 1,20,-1
 4 6 l 1,21,-1
 3 6 l 1,22,-1
 3 5 l 1,23,-1
 1 5 l 1,12,-1
EndSplineSet
Validated: 1
EndChar

StartChar: Cdotaccent
Encoding: 266 266 235
Width: 8
GlyphClass: 2
Flags: W
LayerCount: 2
Fore
SplineSet
0 2 m 1,0,-1
 0 3 l 1,1,-1
 1 3 l 1,2,-1
 1 4 l 1,3,-1
 2 4 l 1,4,-1
 2 5 l 1,5,-1
 6 5 l 1,6,-1
 6 4 l 1,7,-1
 7 4 l 1,8,-1
 7 3 l 1,9,-1
 5 3 l 1,10,-1
 5 4 l 1,11,-1
 3 4 l 1,12,-1
 3 3 l 1,13,-1
 2 3 l 1,14,-1
 2 2 l 1,15,-1
 3 2 l 1,16,-1
 3 1 l 1,17,-1
 5 1 l 1,18,-1
 5 2 l 1,19,-1
 7 2 l 1,20,-1
 7 1 l 1,21,-1
 6 1 l 1,22,-1
 6 0 l 1,23,-1
 2 0 l 1,24,-1
 2 1 l 1,25,-1
 1 1 l 1,26,-1
 1 2 l 1,27,-1
 0 2 l 1,0,-1
3 6 m 1,28,-1
 3 7 l 1,29,-1
 5 7 l 1,30,-1
 5 6 l 1,31,-1
 3 6 l 1,28,-1
EndSplineSet
Validated: 1
EndChar

StartChar: cdotaccent
Encoding: 267 267 236
Width: 8
GlyphClass: 2
Flags: W
LayerCount: 2
Fore
SplineSet
1 1 m 1,0,-1
 1 3 l 1,1,-1
 2 3 l 1,2,-1
 2 4 l 1,3,-1
 6 4 l 1,4,-1
 6 3 l 1,5,-1
 3 3 l 1,6,-1
 3 1 l 1,7,-1
 6 1 l 1,8,-1
 6 0 l 1,9,-1
 2 0 l 1,10,-1
 2 1 l 1,11,-1
 1 1 l 1,0,-1
3 5 m 1,12,-1
 3 6 l 1,13,-1
 5 6 l 1,14,-1
 5 5 l 1,15,-1
 3 5 l 1,12,-1
EndSplineSet
Validated: 1
EndChar

StartChar: Ccaron
Encoding: 268 268 237
Width: 8
GlyphClass: 2
Flags: W
LayerCount: 2
Fore
SplineSet
0 2 m 1,0,-1
 0 3 l 1,1,-1
 1 3 l 1,2,-1
 1 4 l 1,3,-1
 2 4 l 1,4,-1
 2 5 l 1,5,-1
 1 5 l 1,6,-1
 1 6 l 1,7,-1
 0 6 l 1,8,-1
 0 7 l 1,9,-1
 2 7 l 1,10,-1
 2 6 l 1,11,-1
 6 6 l 1,12,-1
 6 7 l 1,13,-1
 8 7 l 1,14,-1
 8 6 l 1,15,-1
 7 6 l 1,16,-1
 7 5 l 1,17,-1
 6 5 l 1,18,-1
 6 4 l 1,19,-1
 7 4 l 1,20,-1
 7 3 l 1,21,-1
 5 3 l 1,22,-1
 5 4 l 1,23,-1
 3 4 l 1,24,-1
 3 3 l 1,25,-1
 2 3 l 1,26,-1
 2 2 l 1,27,-1
 3 2 l 1,28,-1
 3 1 l 1,29,-1
 5 1 l 1,30,-1
 5 2 l 1,31,-1
 7 2 l 1,32,-1
 7 1 l 1,33,-1
 6 1 l 1,34,-1
 6 0 l 1,35,-1
 2 0 l 1,36,-1
 2 1 l 1,37,-1
 1 1 l 1,38,-1
 1 2 l 1,39,-1
 0 2 l 1,0,-1
EndSplineSet
Validated: 1
EndChar

StartChar: ccaron
Encoding: 269 269 238
Width: 8
GlyphClass: 2
Flags: W
LayerCount: 2
Fore
SplineSet
1 1 m 1,0,-1
 1 3 l 1,1,-1
 2 3 l 1,2,-1
 2 4 l 1,3,-1
 6 4 l 1,4,-1
 6 3 l 1,5,-1
 3 3 l 1,6,-1
 3 1 l 1,7,-1
 6 1 l 1,8,-1
 6 0 l 1,9,-1
 2 0 l 1,10,-1
 2 1 l 1,11,-1
 1 1 l 1,0,-1
1 6 m 1,12,-1
 1 7 l 1,13,-1
 3 7 l 1,14,-1
 3 6 l 1,15,-1
 4 6 l 1,16,-1
 4 7 l 1,17,-1
 6 7 l 1,18,-1
 6 6 l 1,19,-1
 5 6 l 1,20,-1
 5 5 l 1,21,-1
 2 5 l 1,22,-1
 2 6 l 1,23,-1
 1 6 l 1,12,-1
EndSplineSet
Validated: 1
EndChar

StartChar: Dcaron
Encoding: 270 270 239
Width: 8
GlyphClass: 2
Flags: W
LayerCount: 2
Fore
SplineSet
0 0 m 1,0,-1
 0 1 l 1,1,-1
 1 1 l 1,2,-1
 1 4 l 1,3,-1
 0 4 l 1,4,-1
 0 5 l 1,5,-1
 1 5 l 1,6,-1
 1 6 l 1,7,-1
 0 6 l 1,8,-1
 0 7 l 1,9,-1
 2 7 l 1,10,-1
 2 6 l 1,11,-1
 4 6 l 1,12,-1
 4 7 l 1,13,-1
 6 7 l 1,14,-1
 6 6 l 1,15,-1
 5 6 l 1,16,-1
 5 5 l 1,17,-1
 6 5 l 1,18,-1
 6 4 l 1,19,-1
 7 4 l 1,20,-1
 7 1 l 1,21,-1
 6 1 l 1,22,-1
 6 0 l 1,23,-1
 0 0 l 1,0,-1
3 1 m 1,24,-1
 5 1 l 1,25,-1
 5 4 l 1,26,-1
 3 4 l 1,27,-1
 3 1 l 1,24,-1
EndSplineSet
Validated: 1
EndChar

StartChar: dcaron
Encoding: 271 271 240
Width: 8
GlyphClass: 2
Flags: W
LayerCount: 2
Fore
SplineSet
0 6 m 1,0,-1
 0 7 l 1,1,-1
 2 7 l 1,2,-1
 2 6 l 1,3,-1
 3 6 l 1,4,-1
 3 7 l 1,5,-1
 7 7 l 1,6,-1
 7 1 l 1,7,-1
 8 1 l 1,8,-1
 8 0 l 1,9,-1
 6 0 l 1,10,-1
 6 1 l 1,11,-1
 5 1 l 1,12,-1
 5 3 l 1,13,-1
 3 3 l 1,14,-1
 3 1 l 1,15,-1
 5 1 l 1,16,-1
 5 0 l 1,17,-1
 2 0 l 1,18,-1
 2 1 l 1,19,-1
 1 1 l 1,20,-1
 1 3 l 1,21,-1
 2 3 l 1,22,-1
 2 4 l 1,23,-1
 5 4 l 1,24,-1
 5 6 l 1,25,-1
 4 6 l 1,26,-1
 4 5 l 1,27,-1
 1 5 l 1,28,-1
 1 6 l 1,29,-1
 0 6 l 1,0,-1
EndSplineSet
Validated: 5
EndChar

StartChar: Dcroat
Encoding: 272 272 241
Width: 8
GlyphClass: 2
Flags: W
LayerCount: 2
Fore
SplineSet
0 0 m 1,0,-1
 0 1 l 1,1,-1
 1 1 l 1,2,-1
 1 3 l 1,3,-1
 0 3 l 1,4,-1
 0 4 l 1,5,-1
 1 4 l 1,6,-1
 1 6 l 1,7,-1
 0 6 l 1,8,-1
 0 7 l 1,9,-1
 5 7 l 1,10,-1
 5 6 l 1,11,-1
 6 6 l 1,12,-1
 6 5 l 1,13,-1
 7 5 l 1,14,-1
 7 2 l 1,15,-1
 6 2 l 1,16,-1
 6 1 l 1,17,-1
 5 1 l 1,18,-1
 5 0 l 1,19,-1
 0 0 l 1,0,-1
4 1 m 1,20,-1
 4 2 l 1,21,-1
 5 2 l 1,22,-1
 5 5 l 1,23,-1
 4 5 l 1,24,-1
 4 6 l 1,25,-1
 3 6 l 1,26,-1
 3 4 l 1,27,-1
 4 4 l 1,28,-1
 4 3 l 1,29,-1
 3 3 l 1,30,-1
 3 1 l 1,31,-1
 4 1 l 1,20,-1
EndSplineSet
Validated: 1
EndChar

StartChar: dcroat
Encoding: 273 273 242
Width: 8
GlyphClass: 2
Flags: W
LayerCount: 2
Fore
SplineSet
0 1 m 1,0,-1
 0 3 l 1,1,-1
 1 3 l 1,2,-1
 1 4 l 1,3,-1
 4 4 l 1,4,-1
 4 5 l 1,5,-1
 2 5 l 1,6,-1
 2 6 l 1,7,-1
 4 6 l 1,8,-1
 4 7 l 1,9,-1
 6 7 l 1,10,-1
 6 6 l 1,11,-1
 7 6 l 1,12,-1
 7 5 l 1,13,-1
 6 5 l 1,14,-1
 6 1 l 1,15,-1
 7 1 l 1,16,-1
 7 0 l 1,17,-1
 5 0 l 1,18,-1
 5 1 l 1,19,-1
 4 1 l 1,20,-1
 4 3 l 1,21,-1
 2 3 l 1,22,-1
 2 1 l 1,23,-1
 4 1 l 1,24,-1
 4 0 l 1,25,-1
 1 0 l 1,26,-1
 1 1 l 1,27,-1
 0 1 l 1,0,-1
EndSplineSet
Validated: 5
EndChar

StartChar: Emacron
Encoding: 274 274 243
Width: 8
GlyphClass: 2
Flags: W
LayerCount: 2
Fore
SplineSet
0 0 m 1,0,-1
 0 1 l 1,1,-1
 1 1 l 1,2,-1
 1 4 l 1,3,-1
 0 4 l 1,4,-1
 0 5 l 1,5,-1
 6 5 l 1,6,-1
 6 4 l 1,7,-1
 3 4 l 1,8,-1
 3 3 l 1,9,-1
 5 3 l 1,10,-1
 5 2 l 1,11,-1
 3 2 l 1,12,-1
 3 1 l 1,13,-1
 6 1 l 1,14,-1
 6 0 l 1,15,-1
 0 0 l 1,0,-1
0 6 m 1,16,-1
 0 7 l 1,17,-1
 6 7 l 1,18,-1
 6 6 l 1,19,-1
 0 6 l 1,16,-1
EndSplineSet
Validated: 1
EndChar

StartChar: emacron
Encoding: 275 275 244
Width: 8
GlyphClass: 2
Flags: W
LayerCount: 2
Fore
SplineSet
0 1 m 1,0,-1
 0 4 l 1,1,-1
 1 4 l 1,2,-1
 1 5 l 1,3,-1
 5 5 l 1,4,-1
 5 4 l 1,5,-1
 6 4 l 1,6,-1
 6 2 l 1,7,-1
 2 2 l 1,8,-1
 2 1 l 1,9,-1
 5 1 l 1,10,-1
 5 0 l 1,11,-1
 1 0 l 1,12,-1
 1 1 l 1,13,-1
 0 1 l 1,0,-1
0 6 m 1,14,-1
 0 7 l 1,15,-1
 6 7 l 1,16,-1
 6 6 l 1,17,-1
 0 6 l 1,14,-1
2 4 m 1,18,-1
 2 3 l 1,19,-1
 4 3 l 1,20,-1
 4 4 l 1,21,-1
 2 4 l 1,18,-1
EndSplineSet
Validated: 1
EndChar

StartChar: Ebreve
Encoding: 276 276 245
Width: 8
GlyphClass: 2
Flags: W
LayerCount: 2
Fore
SplineSet
0 0 m 1,0,-1
 0 1 l 1,1,-1
 1 1 l 1,2,-1
 1 4 l 1,3,-1
 0 4 l 1,4,-1
 0 5 l 1,5,-1
 1 5 l 1,6,-1
 1 6 l 1,7,-1
 0 6 l 1,8,-1
 0 7 l 1,9,-1
 2 7 l 1,10,-1
 2 6 l 1,11,-1
 4 6 l 1,12,-1
 4 7 l 1,13,-1
 6 7 l 1,14,-1
 6 6 l 1,15,-1
 5 6 l 1,16,-1
 5 5 l 1,17,-1
 6 5 l 1,18,-1
 6 4 l 1,19,-1
 3 4 l 1,20,-1
 3 3 l 1,21,-1
 5 3 l 1,22,-1
 5 2 l 1,23,-1
 3 2 l 1,24,-1
 3 1 l 1,25,-1
 6 1 l 1,26,-1
 6 0 l 1,27,-1
 0 0 l 1,0,-1
EndSplineSet
Validated: 1
EndChar

StartChar: ebreve
Encoding: 277 277 246
Width: 8
GlyphClass: 2
Flags: W
LayerCount: 2
Fore
SplineSet
0 1 m 1,0,-1
 0 4 l 1,1,-1
 1 4 l 1,2,-1
 1 6 l 1,3,-1
 0 6 l 1,4,-1
 0 7 l 1,5,-1
 2 7 l 1,6,-1
 2 6 l 1,7,-1
 4 6 l 1,8,-1
 4 7 l 1,9,-1
 6 7 l 1,10,-1
 6 6 l 1,11,-1
 5 6 l 1,12,-1
 5 4 l 1,13,-1
 6 4 l 1,14,-1
 6 2 l 1,15,-1
 2 2 l 1,16,-1
 2 1 l 1,17,-1
 5 1 l 1,18,-1
 5 0 l 1,19,-1
 1 0 l 1,20,-1
 1 1 l 1,21,-1
 0 1 l 1,0,-1
2 4 m 1,22,-1
 2 3 l 1,23,-1
 4 3 l 1,24,-1
 4 4 l 1,25,-1
 2 4 l 1,22,-1
EndSplineSet
Validated: 1
EndChar

StartChar: Edotaccent
Encoding: 278 278 247
Width: 8
GlyphClass: 2
Flags: W
LayerCount: 2
Fore
SplineSet
0 0 m 1,0,-1
 0 1 l 1,1,-1
 1 1 l 1,2,-1
 1 4 l 1,3,-1
 0 4 l 1,4,-1
 0 5 l 1,5,-1
 6 5 l 1,6,-1
 6 4 l 1,7,-1
 3 4 l 1,8,-1
 3 3 l 1,9,-1
 5 3 l 1,10,-1
 5 2 l 1,11,-1
 3 2 l 1,12,-1
 3 1 l 1,13,-1
 6 1 l 1,14,-1
 6 0 l 1,15,-1
 0 0 l 1,0,-1
2 6 m 1,16,-1
 2 7 l 1,17,-1
 4 7 l 1,18,-1
 4 6 l 1,19,-1
 2 6 l 1,16,-1
EndSplineSet
Validated: 1
EndChar

StartChar: edotaccent
Encoding: 279 279 248
Width: 8
GlyphClass: 2
Flags: W
LayerCount: 2
Fore
SplineSet
0 1 m 1,0,-1
 0 4 l 1,1,-1
 1 4 l 1,2,-1
 1 5 l 1,3,-1
 5 5 l 1,4,-1
 5 4 l 1,5,-1
 6 4 l 1,6,-1
 6 2 l 1,7,-1
 2 2 l 1,8,-1
 2 1 l 1,9,-1
 5 1 l 1,10,-1
 5 0 l 1,11,-1
 1 0 l 1,12,-1
 1 1 l 1,13,-1
 0 1 l 1,0,-1
2 4 m 1,14,-1
 2 3 l 1,15,-1
 4 3 l 1,16,-1
 4 4 l 1,17,-1
 2 4 l 1,14,-1
2 6 m 1,18,-1
 2 7 l 1,19,-1
 4 7 l 1,20,-1
 4 6 l 1,21,-1
 2 6 l 1,18,-1
EndSplineSet
Validated: 1
EndChar

StartChar: Eogonek
Encoding: 280 280 249
Width: 8
GlyphClass: 2
Flags: W
LayerCount: 2
Fore
SplineSet
0 0 m 1,0,-1
 0 1 l 1,1,-1
 1 1 l 1,2,-1
 1 6 l 1,3,-1
 0 6 l 1,4,-1
 0 7 l 1,5,-1
 7 7 l 1,6,-1
 7 5 l 1,7,-1
 6 5 l 1,8,-1
 6 6 l 1,9,-1
 3 6 l 1,10,-1
 3 4 l 1,11,-1
 4 4 l 1,12,-1
 4 5 l 1,13,-1
 5 5 l 1,14,-1
 5 2 l 1,15,-1
 4 2 l 1,16,-1
 4 3 l 1,17,-1
 3 3 l 1,18,-1
 3 1 l 1,19,-1
 6 1 l 1,20,-1
 6 2 l 1,21,-1
 7 2 l 1,22,-1
 7 0 l 1,23,-1
 6 0 l 1,24,-1
 6 -1 l 1,25,-1
 4 -1 l 1,26,-1
 4 0 l 1,27,-1
 0 0 l 1,0,-1
EndSplineSet
Validated: 1
EndChar

StartChar: eogonek
Encoding: 281 281 250
Width: 8
GlyphClass: 2
Flags: W
LayerCount: 2
Fore
SplineSet
0 1 m 1,0,-1
 0 4 l 1,1,-1
 1 4 l 1,2,-1
 1 5 l 1,3,-1
 5 5 l 1,4,-1
 5 4 l 1,5,-1
 6 4 l 1,6,-1
 6 2 l 1,7,-1
 2 2 l 1,8,-1
 2 1 l 1,9,-1
 6 1 l 1,10,-1
 6 0 l 1,11,-1
 7 0 l 1,12,-1
 7 -1 l 1,13,-1
 4 -1 l 1,14,-1
 4 0 l 1,15,-1
 1 0 l 1,16,-1
 1 1 l 1,17,-1
 0 1 l 1,0,-1
2 4 m 1,18,-1
 2 3 l 1,19,-1
 4 3 l 1,20,-1
 4 4 l 1,21,-1
 2 4 l 1,18,-1
EndSplineSet
Validated: 1
EndChar

StartChar: Ecaron
Encoding: 282 282 251
Width: 8
GlyphClass: 2
Flags: W
LayerCount: 2
Fore
SplineSet
0 0 m 1,0,-1
 0 1 l 1,1,-1
 1 1 l 1,2,-1
 1 4 l 1,3,-1
 0 4 l 1,4,-1
 0 5 l 1,5,-1
 2 5 l 1,6,-1
 2 6 l 1,7,-1
 1 6 l 1,8,-1
 1 7 l 1,9,-1
 3 7 l 1,10,-1
 3 6 l 1,11,-1
 4 6 l 1,12,-1
 4 7 l 1,13,-1
 6 7 l 1,14,-1
 6 6 l 1,15,-1
 5 6 l 1,16,-1
 5 5 l 1,17,-1
 6 5 l 1,18,-1
 6 4 l 1,19,-1
 3 4 l 1,20,-1
 3 3 l 1,21,-1
 5 3 l 1,22,-1
 5 2 l 1,23,-1
 3 2 l 1,24,-1
 3 1 l 1,25,-1
 6 1 l 1,26,-1
 6 0 l 1,27,-1
 0 0 l 1,0,-1
EndSplineSet
Validated: 1
EndChar

StartChar: ecaron
Encoding: 283 283 252
Width: 8
GlyphClass: 2
Flags: W
LayerCount: 2
Fore
SplineSet
0 1 m 1,0,-1
 0 4 l 1,1,-1
 1 4 l 1,2,-1
 1 5 l 1,3,-1
 2 5 l 1,4,-1
 2 6 l 1,5,-1
 1 6 l 1,6,-1
 1 7 l 1,7,-1
 3 7 l 1,8,-1
 3 6 l 1,9,-1
 4 6 l 1,10,-1
 4 7 l 1,11,-1
 6 7 l 1,12,-1
 6 6 l 1,13,-1
 5 6 l 1,14,-1
 5 4 l 1,15,-1
 6 4 l 1,16,-1
 6 2 l 1,17,-1
 2 2 l 1,18,-1
 2 1 l 1,19,-1
 5 1 l 1,20,-1
 5 0 l 1,21,-1
 1 0 l 1,22,-1
 1 1 l 1,23,-1
 0 1 l 1,0,-1
2 4 m 1,24,-1
 2 3 l 1,25,-1
 4 3 l 1,26,-1
 4 4 l 1,27,-1
 2 4 l 1,24,-1
EndSplineSet
Validated: 1
EndChar

StartChar: Gcircumflex
Encoding: 284 284 253
Width: 8
GlyphClass: 2
Flags: W
LayerCount: 2
Fore
SplineSet
0 2 m 1,0,-1
 0 3 l 1,1,-1
 1 3 l 1,2,-1
 1 4 l 1,3,-1
 2 4 l 1,4,-1
 2 5 l 1,5,-1
 6 5 l 1,6,-1
 6 6 l 1,7,-1
 2 6 l 1,8,-1
 2 5 l 1,9,-1
 0 5 l 1,10,-1
 0 6 l 1,11,-1
 1 6 l 1,12,-1
 1 7 l 1,13,-1
 7 7 l 1,14,-1
 7 6 l 1,15,-1
 8 6 l 1,16,-1
 8 5 l 1,17,-1
 7 5 l 1,18,-1
 7 4 l 1,19,-1
 3 4 l 1,20,-1
 3 3 l 1,21,-1
 2 3 l 1,22,-1
 2 2 l 1,23,-1
 3 2 l 1,24,-1
 3 1 l 1,25,-1
 5 1 l 1,26,-1
 5 2 l 1,27,-1
 4 2 l 1,28,-1
 4 3 l 1,29,-1
 7 3 l 1,30,-1
 7 0 l 1,31,-1
 2 0 l 1,32,-1
 2 1 l 1,33,-1
 1 1 l 1,34,-1
 1 2 l 1,35,-1
 0 2 l 1,0,-1
EndSplineSet
Validated: 5
EndChar

StartChar: gcircumflex
Encoding: 285 285 254
Width: 8
GlyphClass: 2
Flags: W
LayerCount: 2
Fore
SplineSet
0 2 m 1,0,-1
 0 3 l 1,1,-1
 1 3 l 1,2,-1
 1 4 l 1,3,-1
 4 4 l 1,4,-1
 4 3 l 1,5,-1
 2 3 l 1,6,-1
 2 2 l 1,7,-1
 4 2 l 1,8,-1
 4 3 l 1,9,-1
 5 3 l 1,10,-1
 5 4 l 1,11,-1
 7 4 l 1,12,-1
 7 3 l 1,13,-1
 6 3 l 1,14,-1
 6 0 l 1,15,-1
 5 0 l 1,16,-1
 5 -1 l 1,17,-1
 0 -1 l 1,18,-1
 0 0 l 1,19,-1
 4 0 l 1,20,-1
 4 1 l 1,21,-1
 1 1 l 1,22,-1
 1 2 l 1,23,-1
 0 2 l 1,0,-1
2 6 m 1,24,-1
 2 7 l 1,25,-1
 5 7 l 1,26,-1
 5 6 l 1,27,-1
 6 6 l 1,28,-1
 6 5 l 1,29,-1
 4 5 l 1,30,-1
 4 6 l 1,31,-1
 3 6 l 1,32,-1
 3 5 l 1,33,-1
 1 5 l 1,34,-1
 1 6 l 1,35,-1
 2 6 l 1,24,-1
EndSplineSet
Validated: 5
EndChar

StartChar: Gbreve
Encoding: 286 286 255
Width: 8
GlyphClass: 2
Flags: W
LayerCount: 2
Fore
SplineSet
0 2 m 1,0,-1
 0 3 l 1,1,-1
 1 3 l 1,2,-1
 1 4 l 1,3,-1
 2 4 l 1,4,-1
 2 5 l 1,5,-1
 3 5 l 1,6,-1
 3 6 l 1,7,-1
 2 6 l 1,8,-1
 2 7 l 1,9,-1
 4 7 l 1,10,-1
 4 6 l 1,11,-1
 5 6 l 1,12,-1
 5 7 l 1,13,-1
 7 7 l 1,14,-1
 7 6 l 1,15,-1
 6 6 l 1,16,-1
 6 5 l 1,17,-1
 7 5 l 1,18,-1
 7 4 l 1,19,-1
 3 4 l 1,20,-1
 3 3 l 1,21,-1
 2 3 l 1,22,-1
 2 2 l 1,23,-1
 3 2 l 1,24,-1
 3 1 l 1,25,-1
 5 1 l 1,26,-1
 5 2 l 1,27,-1
 4 2 l 1,28,-1
 4 3 l 1,29,-1
 7 3 l 1,30,-1
 7 0 l 1,31,-1
 2 0 l 1,32,-1
 2 1 l 1,33,-1
 1 1 l 1,34,-1
 1 2 l 1,35,-1
 0 2 l 1,0,-1
EndSplineSet
Validated: 1
EndChar

StartChar: gbreve
Encoding: 287 287 256
Width: 8
GlyphClass: 2
Flags: W
LayerCount: 2
Fore
SplineSet
0 2 m 1,0,-1
 0 3 l 1,1,-1
 1 3 l 1,2,-1
 1 4 l 1,3,-1
 4 4 l 1,4,-1
 4 3 l 1,5,-1
 2 3 l 1,6,-1
 2 2 l 1,7,-1
 4 2 l 1,8,-1
 4 3 l 1,9,-1
 5 3 l 1,10,-1
 5 4 l 1,11,-1
 7 4 l 1,12,-1
 7 3 l 1,13,-1
 6 3 l 1,14,-1
 6 0 l 1,15,-1
 5 0 l 1,16,-1
 5 -1 l 1,17,-1
 0 -1 l 1,18,-1
 0 0 l 1,19,-1
 4 0 l 1,20,-1
 4 1 l 1,21,-1
 1 1 l 1,22,-1
 1 2 l 1,23,-1
 0 2 l 1,0,-1
2 5 m 1,24,-1
 2 6 l 1,25,-1
 1 6 l 1,26,-1
 1 7 l 1,27,-1
 3 7 l 1,28,-1
 3 6 l 1,29,-1
 5 6 l 1,30,-1
 5 7 l 1,31,-1
 7 7 l 1,32,-1
 7 6 l 1,33,-1
 6 6 l 1,34,-1
 6 5 l 1,35,-1
 2 5 l 1,24,-1
EndSplineSet
Validated: 5
EndChar

StartChar: Gdotaccent
Encoding: 288 288 257
Width: 8
GlyphClass: 2
Flags: W
LayerCount: 2
Fore
SplineSet
0 2 m 1,0,-1
 0 3 l 1,1,-1
 1 3 l 1,2,-1
 1 4 l 1,3,-1
 2 4 l 1,4,-1
 2 5 l 1,5,-1
 7 5 l 1,6,-1
 7 4 l 1,7,-1
 3 4 l 1,8,-1
 3 3 l 1,9,-1
 2 3 l 1,10,-1
 2 2 l 1,11,-1
 3 2 l 1,12,-1
 3 1 l 1,13,-1
 5 1 l 1,14,-1
 5 2 l 1,15,-1
 4 2 l 1,16,-1
 4 3 l 1,17,-1
 7 3 l 1,18,-1
 7 0 l 1,19,-1
 2 0 l 1,20,-1
 2 1 l 1,21,-1
 1 1 l 1,22,-1
 1 2 l 1,23,-1
 0 2 l 1,0,-1
3 6 m 1,24,-1
 3 7 l 1,25,-1
 5 7 l 1,26,-1
 5 6 l 1,27,-1
 3 6 l 1,24,-1
EndSplineSet
Validated: 1
EndChar

StartChar: gdotaccent
Encoding: 289 289 258
Width: 8
GlyphClass: 2
Flags: W
LayerCount: 2
Fore
SplineSet
0 -1 m 1,0,-1
 0 0 l 1,1,-1
 4 0 l 1,2,-1
 4 1 l 1,3,-1
 1 1 l 1,4,-1
 1 2 l 1,5,-1
 0 2 l 1,6,-1
 0 4 l 1,7,-1
 1 4 l 1,8,-1
 1 5 l 1,9,-1
 4 5 l 1,10,-1
 4 4 l 1,11,-1
 2 4 l 1,12,-1
 2 2 l 1,13,-1
 4 2 l 1,14,-1
 4 4 l 1,15,-1
 5 4 l 1,16,-1
 5 5 l 1,17,-1
 7 5 l 1,18,-1
 7 4 l 1,19,-1
 6 4 l 1,20,-1
 6 0 l 1,21,-1
 5 0 l 1,22,-1
 5 -1 l 1,23,-1
 0 -1 l 1,0,-1
3 6 m 1,24,-1
 3 7 l 1,25,-1
 5 7 l 1,26,-1
 5 6 l 1,27,-1
 3 6 l 1,24,-1
EndSplineSet
Validated: 5
EndChar

StartChar: Gcommaaccent
Encoding: 290 290 259
Width: 8
GlyphClass: 2
Flags: W
LayerCount: 2
Fore
SplineSet
0 5 m 1,0,-1
 1 5 l 1,1,-1
 1 6 l 1,2,-1
 2 6 l 1,3,-1
 2 7 l 1,4,-1
 6 7 l 1,5,-1
 6 6 l 1,6,-1
 7 6 l 1,7,-1
 7 5 l 1,8,-1
 5 5 l 1,9,-1
 5 6 l 1,10,-1
 3 6 l 1,11,-1
 3 5 l 1,12,-1
 2 5 l 1,13,-1
 2 3 l 1,14,-1
 3 3 l 1,15,-1
 3 2 l 1,16,-1
 5 2 l 1,17,-1
 5 3 l 1,18,-1
 4 3 l 1,19,-1
 4 4 l 1,20,-1
 7 4 l 1,21,-1
 7 1 l 1,22,-1
 6 1 l 1,23,-1
 6 0 l 1,24,-1
 5 0 l 1,25,-1
 5 -1 l 1,26,-1
 2 -1 l 1,27,-1
 2 0 l 1,28,-1
 4 0 l 1,29,-1
 4 1 l 1,30,-1
 2 1 l 1,31,-1
 2 2 l 1,32,-1
 1 2 l 1,33,-1
 1 3 l 1,34,-1
 0 3 l 1,35,-1
 0 5 l 1,0,-1
EndSplineSet
Validated: 1
EndChar

StartChar: gcommaaccent
Encoding: 291 291 260
Width: 8
GlyphClass: 2
Flags: W
LayerCount: 2
Fore
SplineSet
0 -1 m 1,0,-1
 0 0 l 1,1,-1
 4 0 l 1,2,-1
 4 1 l 1,3,-1
 1 1 l 1,4,-1
 1 2 l 1,5,-1
 0 2 l 1,6,-1
 0 4 l 1,7,-1
 1 4 l 1,8,-1
 1 5 l 1,9,-1
 3 5 l 1,10,-1
 3 6 l 1,11,-1
 4 6 l 1,12,-1
 4 7 l 1,13,-1
 7 7 l 1,14,-1
 7 6 l 1,15,-1
 5 6 l 1,16,-1
 5 5 l 1,17,-1
 4 5 l 1,18,-1
 4 4 l 1,19,-1
 2 4 l 1,20,-1
 2 2 l 1,21,-1
 4 2 l 1,22,-1
 4 4 l 1,23,-1
 5 4 l 1,24,-1
 5 5 l 1,25,-1
 7 5 l 1,26,-1
 7 4 l 1,27,-1
 6 4 l 1,28,-1
 6 0 l 1,29,-1
 5 0 l 1,30,-1
 5 -1 l 1,31,-1
 0 -1 l 1,0,-1
EndSplineSet
Validated: 5
EndChar

StartChar: Hcircumflex
Encoding: 292 292 261
Width: 8
GlyphClass: 2
Flags: W
LayerCount: 2
Fore
SplineSet
0 0 m 1,0,-1
 0 4 l 1,1,-1
 2 4 l 1,2,-1
 2 3 l 1,3,-1
 4 3 l 1,4,-1
 4 4 l 1,5,-1
 6 4 l 1,6,-1
 6 0 l 1,7,-1
 4 0 l 1,8,-1
 4 2 l 1,9,-1
 2 2 l 1,10,-1
 2 0 l 1,11,-1
 0 0 l 1,0,-1
0 5 m 1,12,-1
 0 6 l 1,13,-1
 1 6 l 1,14,-1
 1 7 l 1,15,-1
 5 7 l 1,16,-1
 5 6 l 1,17,-1
 6 6 l 1,18,-1
 6 5 l 1,19,-1
 4 5 l 1,20,-1
 4 6 l 1,21,-1
 2 6 l 1,22,-1
 2 5 l 1,23,-1
 0 5 l 1,12,-1
EndSplineSet
Validated: 1
EndChar

StartChar: hcircumflex
Encoding: 293 293 262
Width: 8
GlyphClass: 2
Flags: W
LayerCount: 2
Fore
SplineSet
0 0 m 1,0,-1
 0 1 l 1,1,-1
 1 1 l 1,2,-1
 1 6 l 1,3,-1
 0 6 l 1,4,-1
 0 7 l 1,5,-1
 3 7 l 1,6,-1
 3 6 l 1,7,-1
 4 6 l 1,8,-1
 4 7 l 1,9,-1
 7 7 l 1,10,-1
 7 6 l 1,11,-1
 8 6 l 1,12,-1
 8 5 l 1,13,-1
 6 5 l 1,14,-1
 6 6 l 1,15,-1
 5 6 l 1,16,-1
 5 5 l 1,17,-1
 3 5 l 1,18,-1
 3 3 l 1,19,-1
 4 3 l 1,20,-1
 4 2 l 1,21,-1
 3 2 l 1,22,-1
 3 0 l 1,23,-1
 0 0 l 1,0,-1
4 3 m 1,24,-1
 4 4 l 1,25,-1
 6 4 l 1,26,-1
 6 3 l 1,27,-1
 7 3 l 1,28,-1
 7 0 l 1,29,-1
 5 0 l 1,30,-1
 5 3 l 1,31,-1
 4 3 l 1,24,-1
EndSplineSet
Validated: 5
EndChar

StartChar: Hbar
Encoding: 294 294 263
Width: 8
GlyphClass: 2
Flags: W
LayerCount: 2
Fore
SplineSet
0 5 m 1,0,-1
 0 6 l 1,1,-1
 1 6 l 1,2,-1
 1 7 l 1,3,-1
 3 7 l 1,4,-1
 3 6 l 1,5,-1
 5 6 l 1,6,-1
 5 7 l 1,7,-1
 7 7 l 1,8,-1
 7 6 l 1,9,-1
 8 6 l 1,10,-1
 8 5 l 1,11,-1
 7 5 l 1,12,-1
 7 0 l 1,13,-1
 5 0 l 1,14,-1
 5 3 l 1,15,-1
 3 3 l 1,16,-1
 3 0 l 1,17,-1
 1 0 l 1,18,-1
 1 5 l 1,19,-1
 0 5 l 1,0,-1
3 5 m 1,20,-1
 3 4 l 1,21,-1
 5 4 l 1,22,-1
 5 5 l 1,23,-1
 3 5 l 1,20,-1
EndSplineSet
Validated: 1
EndChar

StartChar: hbar
Encoding: 295 295 264
Width: 8
GlyphClass: 2
Flags: W
LayerCount: 2
Fore
SplineSet
0 0 m 1,0,-1
 0 1 l 1,1,-1
 1 1 l 1,2,-1
 1 4 l 1,3,-1
 0 4 l 1,4,-1
 0 5 l 1,5,-1
 1 5 l 1,6,-1
 1 6 l 1,7,-1
 0 6 l 1,8,-1
 0 7 l 1,9,-1
 3 7 l 1,10,-1
 3 5 l 1,11,-1
 4 5 l 1,12,-1
 4 4 l 1,13,-1
 3 4 l 1,14,-1
 3 3 l 1,15,-1
 4 3 l 1,16,-1
 4 2 l 1,17,-1
 3 2 l 1,18,-1
 3 0 l 1,19,-1
 0 0 l 1,0,-1
4 4 m 1,20,-1
 6 4 l 1,21,-1
 6 3 l 1,22,-1
 7 3 l 1,23,-1
 7 0 l 1,24,-1
 5 0 l 1,25,-1
 5 3 l 1,26,-1
 4 3 l 1,27,-1
 4 4 l 1,20,-1
EndSplineSet
Validated: 5
EndChar

StartChar: Itilde
Encoding: 296 296 265
Width: 8
GlyphClass: 2
Flags: W
LayerCount: 2
Fore
SplineSet
0 5 m 1,0,-1
 0 6 l 1,1,-1
 1 6 l 1,2,-1
 1 7 l 1,3,-1
 4 7 l 1,4,-1
 4 6 l 1,5,-1
 5 6 l 1,6,-1
 5 7 l 1,7,-1
 7 7 l 1,8,-1
 7 6 l 1,9,-1
 6 6 l 1,10,-1
 6 5 l 1,11,-1
 3 5 l 1,12,-1
 3 6 l 1,13,-1
 2 6 l 1,14,-1
 2 5 l 1,15,-1
 0 5 l 1,0,-1
2 1 m 1,16,-1
 2 3 l 1,17,-1
 1 3 l 1,18,-1
 1 4 l 1,19,-1
 5 4 l 1,20,-1
 5 3 l 1,21,-1
 4 3 l 1,22,-1
 4 1 l 1,23,-1
 5 1 l 1,24,-1
 5 0 l 1,25,-1
 1 0 l 1,26,-1
 1 1 l 1,27,-1
 2 1 l 1,16,-1
EndSplineSet
Validated: 1
EndChar

StartChar: itilde
Encoding: 297 297 266
Width: 8
GlyphClass: 2
Flags: W
LayerCount: 2
Fore
SplineSet
0 5 m 1,0,-1
 0 6 l 1,1,-1
 1 6 l 1,2,-1
 1 7 l 1,3,-1
 4 7 l 1,4,-1
 4 6 l 1,5,-1
 5 6 l 1,6,-1
 5 7 l 1,7,-1
 7 7 l 1,8,-1
 7 6 l 1,9,-1
 6 6 l 1,10,-1
 6 5 l 1,11,-1
 3 5 l 1,12,-1
 3 6 l 1,13,-1
 2 6 l 1,14,-1
 2 5 l 1,15,-1
 0 5 l 1,0,-1
2 1 m 1,16,-1
 2 3 l 1,17,-1
 1 3 l 1,18,-1
 1 4 l 1,19,-1
 4 4 l 1,20,-1
 4 1 l 1,21,-1
 5 1 l 1,22,-1
 5 0 l 1,23,-1
 1 0 l 1,24,-1
 1 1 l 1,25,-1
 2 1 l 1,16,-1
EndSplineSet
Validated: 1
EndChar

StartChar: Imacron
Encoding: 298 298 267
Width: 8
GlyphClass: 2
Flags: W
LayerCount: 2
Fore
SplineSet
0 6 m 1,0,-1
 0 7 l 1,1,-1
 6 7 l 1,2,-1
 6 6 l 1,3,-1
 0 6 l 1,0,-1
1 0 m 1,4,-1
 1 1 l 1,5,-1
 2 1 l 1,6,-1
 2 4 l 1,7,-1
 1 4 l 1,8,-1
 1 5 l 1,9,-1
 5 5 l 1,10,-1
 5 4 l 1,11,-1
 4 4 l 1,12,-1
 4 1 l 1,13,-1
 5 1 l 1,14,-1
 5 0 l 1,15,-1
 1 0 l 1,4,-1
EndSplineSet
Validated: 1
EndChar

StartChar: imacron
Encoding: 299 299 268
Width: 8
GlyphClass: 2
Flags: W
LayerCount: 2
Fore
SplineSet
0 6 m 1,0,-1
 0 7 l 1,1,-1
 5 7 l 1,2,-1
 5 6 l 1,3,-1
 0 6 l 1,0,-1
1 0 m 1,4,-1
 1 1 l 1,5,-1
 2 1 l 1,6,-1
 2 4 l 1,7,-1
 1 4 l 1,8,-1
 1 5 l 1,9,-1
 4 5 l 1,10,-1
 4 1 l 1,11,-1
 5 1 l 1,12,-1
 5 0 l 1,13,-1
 1 0 l 1,4,-1
EndSplineSet
Validated: 1
EndChar

StartChar: Ibreve
Encoding: 300 300 269
Width: 8
GlyphClass: 2
Flags: W
LayerCount: 2
Fore
SplineSet
0 6 m 1,0,-1
 0 7 l 1,1,-1
 2 7 l 1,2,-1
 2 6 l 1,3,-1
 4 6 l 1,4,-1
 4 7 l 1,5,-1
 6 7 l 1,6,-1
 6 6 l 1,7,-1
 5 6 l 1,8,-1
 5 5 l 1,9,-1
 1 5 l 1,10,-1
 1 6 l 1,11,-1
 0 6 l 1,0,-1
1 0 m 1,12,-1
 1 1 l 1,13,-1
 2 1 l 1,14,-1
 2 3 l 1,15,-1
 1 3 l 1,16,-1
 1 4 l 1,17,-1
 5 4 l 1,18,-1
 5 3 l 1,19,-1
 4 3 l 1,20,-1
 4 1 l 1,21,-1
 5 1 l 1,22,-1
 5 0 l 1,23,-1
 1 0 l 1,12,-1
EndSplineSet
Validated: 1
EndChar

StartChar: ibreve
Encoding: 301 301 270
Width: 8
GlyphClass: 2
Flags: W
LayerCount: 2
Fore
SplineSet
0 6 m 1,0,-1
 0 7 l 1,1,-1
 2 7 l 1,2,-1
 2 6 l 1,3,-1
 4 6 l 1,4,-1
 4 7 l 1,5,-1
 6 7 l 1,6,-1
 6 6 l 1,7,-1
 5 6 l 1,8,-1
 5 5 l 1,9,-1
 1 5 l 1,10,-1
 1 6 l 1,11,-1
 0 6 l 1,0,-1
1 0 m 1,12,-1
 1 1 l 1,13,-1
 2 1 l 1,14,-1
 2 3 l 1,15,-1
 1 3 l 1,16,-1
 1 4 l 1,17,-1
 4 4 l 1,18,-1
 4 1 l 1,19,-1
 5 1 l 1,20,-1
 5 0 l 1,21,-1
 1 0 l 1,12,-1
EndSplineSet
Validated: 1
EndChar

StartChar: Iogonek
Encoding: 302 302 271
Width: 8
GlyphClass: 2
Flags: W
LayerCount: 2
Fore
SplineSet
1 0 m 1,0,-1
 1 1 l 1,1,-1
 2 1 l 1,2,-1
 2 6 l 1,3,-1
 1 6 l 1,4,-1
 1 7 l 1,5,-1
 5 7 l 1,6,-1
 5 6 l 1,7,-1
 4 6 l 1,8,-1
 4 1 l 1,9,-1
 5 1 l 1,10,-1
 5 0 l 1,11,-1
 6 0 l 1,12,-1
 6 -1 l 1,13,-1
 3 -1 l 1,14,-1
 3 0 l 1,15,-1
 1 0 l 1,0,-1
EndSplineSet
Validated: 1
EndChar

StartChar: iogonek
Encoding: 303 303 272
Width: 8
GlyphClass: 2
Flags: W
LayerCount: 2
Fore
SplineSet
1 0 m 1,0,-1
 1 1 l 1,1,-1
 2 1 l 1,2,-1
 2 4 l 1,3,-1
 1 4 l 1,4,-1
 1 5 l 1,5,-1
 4 5 l 1,6,-1
 4 1 l 1,7,-1
 5 1 l 1,8,-1
 5 0 l 1,9,-1
 6 0 l 1,10,-1
 6 -1 l 1,11,-1
 3 -1 l 1,12,-1
 3 0 l 1,13,-1
 1 0 l 1,0,-1
2 6 m 1,14,-1
 2 7 l 1,15,-1
 4 7 l 1,16,-1
 4 6 l 1,17,-1
 2 6 l 1,14,-1
EndSplineSet
Validated: 1
EndChar

StartChar: Idotaccent
Encoding: 304 304 273
Width: 8
GlyphClass: 2
Flags: W
LayerCount: 2
Fore
SplineSet
1 0 m 1,0,-1
 1 1 l 1,1,-1
 2 1 l 1,2,-1
 2 4 l 1,3,-1
 1 4 l 1,4,-1
 1 5 l 1,5,-1
 5 5 l 1,6,-1
 5 4 l 1,7,-1
 4 4 l 1,8,-1
 4 1 l 1,9,-1
 5 1 l 1,10,-1
 5 0 l 1,11,-1
 1 0 l 1,0,-1
2 6 m 1,12,-1
 2 7 l 1,13,-1
 4 7 l 1,14,-1
 4 6 l 1,15,-1
 2 6 l 1,12,-1
EndSplineSet
Validated: 1
EndChar

StartChar: dotlessi
Encoding: 305 305 274
Width: 8
GlyphClass: 2
Flags: W
LayerCount: 2
Fore
SplineSet
4 1 m 1,0,-1
 5 1 l 1,1,-1
 5 0 l 1,2,-1
 1 0 l 1,3,-1
 1 1 l 1,4,-1
 2 1 l 1,5,-1
 2 4 l 1,6,-1
 1 4 l 1,7,-1
 1 5 l 1,8,-1
 4 5 l 1,9,-1
 4 1 l 1,0,-1
EndSplineSet
Validated: 1
EndChar

StartChar: IJ
Encoding: 306 306 275
Width: 8
GlyphClass: 2
Flags: W
LayerCount: 2
Fore
SplineSet
0 0 m 1,0,-1
 0 7 l 1,1,-1
 2 7 l 1,2,-1
 2 0 l 1,3,-1
 0 0 l 1,0,-1
3 0 m 1,4,-1
 3 3 l 1,5,-1
 4 3 l 1,6,-1
 4 1 l 1,7,-1
 5 1 l 1,8,-1
 5 7 l 1,9,-1
 7 7 l 1,10,-1
 7 1 l 1,11,-1
 6 1 l 1,12,-1
 6 0 l 1,13,-1
 3 0 l 1,4,-1
EndSplineSet
Validated: 1
EndChar

StartChar: ij
Encoding: 307 307 276
Width: 8
GlyphClass: 2
Flags: W
LayerCount: 2
Fore
SplineSet
0 0 m 1,0,-1
 0 5 l 1,1,-1
 2 5 l 1,2,-1
 2 0 l 1,3,-1
 0 0 l 1,0,-1
0 6 m 1,4,-1
 0 7 l 1,5,-1
 2 7 l 1,6,-1
 2 6 l 1,7,-1
 0 6 l 1,4,-1
3 2 m 1,8,-1
 4 2 l 1,9,-1
 4 0 l 1,10,-1
 5 0 l 1,11,-1
 5 5 l 1,12,-1
 7 5 l 1,13,-1
 7 0 l 1,14,-1
 6 0 l 1,15,-1
 6 -1 l 1,16,-1
 3 -1 l 1,17,-1
 3 2 l 1,8,-1
5 6 m 1,18,-1
 5 7 l 1,19,-1
 7 7 l 1,20,-1
 7 6 l 1,21,-1
 5 6 l 1,18,-1
EndSplineSet
Validated: 1
EndChar

StartChar: Jcircumflex
Encoding: 308 308 277
Width: 8
GlyphClass: 2
Flags: W
LayerCount: 2
Fore
SplineSet
0 1 m 1,0,-1
 0 2 l 1,1,-1
 2 2 l 1,2,-1
 2 1 l 1,3,-1
 4 1 l 1,4,-1
 4 4 l 1,5,-1
 3 4 l 1,6,-1
 3 5 l 1,7,-1
 6 5 l 1,8,-1
 6 1 l 1,9,-1
 5 1 l 1,10,-1
 5 0 l 1,11,-1
 1 0 l 1,12,-1
 1 1 l 1,13,-1
 0 1 l 1,0,-1
8 5 m 1,14,-1
 6 5 l 1,15,-1
 6 6 l 1,16,-1
 3 6 l 1,17,-1
 3 5 l 1,18,-1
 1 5 l 1,19,-1
 1 6 l 1,20,-1
 2 6 l 1,21,-1
 2 7 l 1,22,-1
 7 7 l 1,23,-1
 7 6 l 1,24,-1
 8 6 l 1,25,-1
 8 5 l 1,14,-1
EndSplineSet
Validated: 5
EndChar

StartChar: jcircumflex
Encoding: 309 309 278
Width: 8
GlyphClass: 2
Flags: W
LayerCount: 2
Fore
SplineSet
0 2 m 1,0,-1
 2 2 l 1,1,-1
 2 0 l 1,2,-1
 4 0 l 1,3,-1
 4 4 l 1,4,-1
 6 4 l 1,5,-1
 6 0 l 1,6,-1
 5 0 l 1,7,-1
 5 -1 l 1,8,-1
 1 -1 l 1,9,-1
 1 0 l 1,10,-1
 0 0 l 1,11,-1
 0 2 l 1,0,-1
8 5 m 1,12,-1
 6 5 l 1,13,-1
 6 6 l 1,14,-1
 4 6 l 1,15,-1
 4 5 l 1,16,-1
 2 5 l 1,17,-1
 2 6 l 1,18,-1
 3 6 l 1,19,-1
 3 7 l 1,20,-1
 7 7 l 1,21,-1
 7 6 l 1,22,-1
 8 6 l 1,23,-1
 8 5 l 1,12,-1
EndSplineSet
Validated: 1
EndChar

StartChar: Kcommaaccent
Encoding: 310 310 279
Width: 8
GlyphClass: 2
Flags: W
LayerCount: 2
Fore
SplineSet
0 0 m 1,0,-1
 0 1 l 1,1,-1
 1 1 l 1,2,-1
 1 6 l 1,3,-1
 0 6 l 1,4,-1
 0 7 l 1,5,-1
 3 7 l 1,6,-1
 3 4 l 1,7,-1
 4 4 l 1,8,-1
 4 5 l 1,9,-1
 5 5 l 1,10,-1
 5 7 l 1,11,-1
 7 7 l 1,12,-1
 7 5 l 1,13,-1
 6 5 l 1,14,-1
 6 4 l 1,15,-1
 5 4 l 1,16,-1
 5 3 l 1,17,-1
 6 3 l 1,18,-1
 6 2 l 1,19,-1
 7 2 l 1,20,-1
 7 0 l 1,21,-1
 6 0 l 1,22,-1
 6 -1 l 1,23,-1
 3 -1 l 1,24,-1
 3 0 l 1,25,-1
 5 0 l 1,26,-1
 5 2 l 1,27,-1
 4 2 l 1,28,-1
 4 3 l 1,29,-1
 3 3 l 1,30,-1
 3 0 l 1,31,-1
 0 0 l 1,0,-1
EndSplineSet
Validated: 5
EndChar

StartChar: kcommaaccent
Encoding: 311 311 280
Width: 8
GlyphClass: 2
Flags: W
LayerCount: 2
Fore
SplineSet
0 0 m 1,0,-1
 0 1 l 1,1,-1
 1 1 l 1,2,-1
 1 6 l 1,3,-1
 0 6 l 1,4,-1
 0 7 l 1,5,-1
 3 7 l 1,6,-1
 3 3 l 1,7,-1
 4 3 l 1,8,-1
 4 4 l 1,9,-1
 5 4 l 1,10,-1
 5 5 l 1,11,-1
 7 5 l 1,12,-1
 7 4 l 1,13,-1
 6 4 l 1,14,-1
 6 3 l 1,15,-1
 5 3 l 1,16,-1
 5 2 l 1,17,-1
 6 2 l 1,18,-1
 6 1 l 1,19,-1
 7 1 l 1,20,-1
 7 0 l 1,21,-1
 6 0 l 1,22,-1
 6 -1 l 1,23,-1
 3 -1 l 1,24,-1
 3 0 l 1,25,-1
 5 0 l 1,26,-1
 5 1 l 1,27,-1
 4 1 l 1,28,-1
 4 2 l 1,29,-1
 3 2 l 1,30,-1
 3 0 l 1,31,-1
 0 0 l 1,0,-1
EndSplineSet
Validated: 5
EndChar

StartChar: kgreenlandic
Encoding: 312 312 281
Width: 8
GlyphClass: 2
Flags: W
LayerCount: 2
Fore
SplineSet
0 4 m 1,0,-1
 0 5 l 1,1,-1
 3 5 l 1,2,-1
 3 3 l 1,3,-1
 4 3 l 1,4,-1
 4 4 l 1,5,-1
 5 4 l 1,6,-1
 5 5 l 1,7,-1
 7 5 l 1,8,-1
 7 4 l 1,9,-1
 6 4 l 1,10,-1
 6 3 l 1,11,-1
 5 3 l 1,12,-1
 5 2 l 1,13,-1
 6 2 l 1,14,-1
 6 1 l 1,15,-1
 7 1 l 1,16,-1
 7 0 l 1,17,-1
 5 0 l 1,18,-1
 5 1 l 1,19,-1
 4 1 l 1,20,-1
 4 2 l 1,21,-1
 3 2 l 1,22,-1
 3 0 l 1,23,-1
 1 0 l 1,24,-1
 1 4 l 1,25,-1
 0 4 l 1,0,-1
EndSplineSet
Validated: 1
EndChar

StartChar: Lacute
Encoding: 313 313 282
Width: 8
GlyphClass: 2
Flags: W
LayerCount: 2
Fore
SplineSet
0 0 m 1,0,-1
 0 1 l 1,1,-1
 1 1 l 1,2,-1
 1 6 l 1,3,-1
 0 6 l 1,4,-1
 0 7 l 1,5,-1
 4 7 l 1,6,-1
 4 6 l 1,7,-1
 3 6 l 1,8,-1
 3 1 l 1,9,-1
 5 1 l 1,10,-1
 5 2 l 1,11,-1
 6 2 l 1,12,-1
 6 3 l 1,13,-1
 7 3 l 1,14,-1
 7 0 l 1,15,-1
 0 0 l 1,0,-1
8 7 m 1,16,-1
 8 6 l 1,17,-1
 7 6 l 1,18,-1
 7 5 l 1,19,-1
 5 5 l 1,20,-1
 5 6 l 1,21,-1
 6 6 l 1,22,-1
 6 7 l 1,23,-1
 8 7 l 1,16,-1
EndSplineSet
Validated: 1
EndChar

StartChar: lacute
Encoding: 314 314 283
Width: 8
GlyphClass: 2
Flags: W
LayerCount: 2
Fore
SplineSet
8 7 m 1,0,-1
 8 6 l 1,1,-1
 7 6 l 1,2,-1
 7 5 l 1,3,-1
 5 5 l 1,4,-1
 5 6 l 1,5,-1
 6 6 l 1,6,-1
 6 7 l 1,7,-1
 8 7 l 1,0,-1
1 0 m 1,8,-1
 1 1 l 1,9,-1
 2 1 l 1,10,-1
 2 6 l 1,11,-1
 1 6 l 1,12,-1
 1 7 l 1,13,-1
 4 7 l 1,14,-1
 4 1 l 1,15,-1
 5 1 l 1,16,-1
 5 0 l 1,17,-1
 1 0 l 1,8,-1
EndSplineSet
Validated: 1
EndChar

StartChar: Lcommaaccent
Encoding: 315 315 284
Width: 8
GlyphClass: 2
Flags: W
LayerCount: 2
Fore
SplineSet
0 1 m 1,0,-1
 0 2 l 1,1,-1
 1 2 l 1,2,-1
 1 6 l 1,3,-1
 0 6 l 1,4,-1
 0 7 l 1,5,-1
 4 7 l 1,6,-1
 4 6 l 1,7,-1
 3 6 l 1,8,-1
 3 2 l 1,9,-1
 5 2 l 1,10,-1
 5 3 l 1,11,-1
 6 3 l 1,12,-1
 6 4 l 1,13,-1
 7 4 l 1,14,-1
 7 1 l 1,15,-1
 5 1 l 1,16,-1
 5 0 l 1,17,-1
 4 0 l 1,18,-1
 4 -1 l 1,19,-1
 1 -1 l 1,20,-1
 1 0 l 1,21,-1
 3 0 l 1,22,-1
 3 1 l 1,23,-1
 0 1 l 1,0,-1
EndSplineSet
Validated: 1
EndChar

StartChar: lcommaaccent
Encoding: 316 316 285
Width: 8
GlyphClass: 2
Flags: W
LayerCount: 2
Fore
SplineSet
1 1 m 1,0,-1
 1 2 l 1,1,-1
 2 2 l 1,2,-1
 2 6 l 1,3,-1
 1 6 l 1,4,-1
 1 7 l 1,5,-1
 4 7 l 1,6,-1
 4 2 l 1,7,-1
 5 2 l 1,8,-1
 5 0 l 1,9,-1
 4 0 l 1,10,-1
 4 -1 l 1,11,-1
 1 -1 l 1,12,-1
 1 0 l 1,13,-1
 3 0 l 1,14,-1
 3 1 l 1,15,-1
 1 1 l 1,0,-1
EndSplineSet
Validated: 1
EndChar

StartChar: Lcaron
Encoding: 317 317 286
Width: 8
GlyphClass: 2
Flags: W
LayerCount: 2
Fore
SplineSet
0 0 m 1,0,-1
 0 1 l 1,1,-1
 1 1 l 1,2,-1
 1 6 l 1,3,-1
 0 6 l 1,4,-1
 0 7 l 1,5,-1
 5 7 l 1,6,-1
 5 6 l 1,7,-1
 6 6 l 1,8,-1
 6 7 l 1,9,-1
 8 7 l 1,10,-1
 8 6 l 1,11,-1
 7 6 l 1,12,-1
 7 5 l 1,13,-1
 6 5 l 1,14,-1
 6 4 l 1,15,-1
 5 4 l 1,16,-1
 5 5 l 1,17,-1
 4 5 l 1,18,-1
 4 6 l 1,19,-1
 3 6 l 1,20,-1
 3 1 l 1,21,-1
 5 1 l 1,22,-1
 5 2 l 1,23,-1
 6 2 l 1,24,-1
 6 3 l 1,25,-1
 7 3 l 1,26,-1
 7 0 l 1,27,-1
 0 0 l 1,0,-1
EndSplineSet
Validated: 1
EndChar

StartChar: lcaron
Encoding: 318 318 287
Width: 8
GlyphClass: 2
Flags: W
LayerCount: 2
Fore
SplineSet
0 0 m 1,0,-1
 0 7 l 1,1,-1
 2 7 l 1,2,-1
 2 1 l 1,3,-1
 3 1 l 1,4,-1
 3 0 l 1,5,-1
 0 0 l 1,0,-1
8 7 m 1,6,-1
 8 6 l 1,7,-1
 7 6 l 1,8,-1
 7 5 l 1,9,-1
 6 5 l 1,10,-1
 6 4 l 1,11,-1
 5 4 l 1,12,-1
 5 5 l 1,13,-1
 4 5 l 1,14,-1
 4 6 l 1,15,-1
 3 6 l 1,16,-1
 3 7 l 1,17,-1
 5 7 l 1,18,-1
 5 6 l 1,19,-1
 6 6 l 1,20,-1
 6 7 l 1,21,-1
 8 7 l 1,6,-1
EndSplineSet
Validated: 1
EndChar

StartChar: Ldot
Encoding: 319 319 288
Width: 8
GlyphClass: 2
Flags: W
LayerCount: 2
Fore
SplineSet
0 0 m 1,0,-1
 0 1 l 1,1,-1
 1 1 l 1,2,-1
 1 6 l 1,3,-1
 0 6 l 1,4,-1
 0 7 l 1,5,-1
 4 7 l 1,6,-1
 4 6 l 1,7,-1
 3 6 l 1,8,-1
 3 1 l 1,9,-1
 5 1 l 1,10,-1
 5 2 l 1,11,-1
 6 2 l 1,12,-1
 6 3 l 1,13,-1
 7 3 l 1,14,-1
 7 0 l 1,15,-1
 0 0 l 1,0,-1
5 4 m 1,16,-1
 5 5 l 1,17,-1
 7 5 l 1,18,-1
 7 4 l 1,19,-1
 5 4 l 1,16,-1
EndSplineSet
Validated: 1
EndChar

StartChar: ldot
Encoding: 320 320 289
Width: 8
GlyphClass: 2
Flags: W
LayerCount: 2
Fore
SplineSet
1 0 m 1,0,-1
 1 1 l 1,1,-1
 2 1 l 1,2,-1
 2 6 l 1,3,-1
 1 6 l 1,4,-1
 1 7 l 1,5,-1
 4 7 l 1,6,-1
 4 1 l 1,7,-1
 5 1 l 1,8,-1
 5 0 l 1,9,-1
 1 0 l 1,0,-1
5 4 m 1,10,-1
 5 5 l 1,11,-1
 7 5 l 1,12,-1
 7 4 l 1,13,-1
 5 4 l 1,10,-1
EndSplineSet
Validated: 1
EndChar

StartChar: Lslash
Encoding: 321 321 290
Width: 8
GlyphClass: 2
Flags: W
LayerCount: 2
Fore
SplineSet
0 2 m 1,0,-1
 0 3 l 1,1,-1
 1 3 l 1,2,-1
 1 6 l 1,3,-1
 0 6 l 1,4,-1
 0 7 l 1,5,-1
 4 7 l 1,6,-1
 4 6 l 1,7,-1
 3 6 l 1,8,-1
 3 5 l 1,9,-1
 5 5 l 1,10,-1
 5 4 l 1,11,-1
 4 4 l 1,12,-1
 4 3 l 1,13,-1
 3 3 l 1,14,-1
 3 1 l 1,15,-1
 5 1 l 1,16,-1
 5 2 l 1,17,-1
 6 2 l 1,18,-1
 6 3 l 1,19,-1
 7 3 l 1,20,-1
 7 0 l 1,21,-1
 0 0 l 1,22,-1
 0 1 l 1,23,-1
 1 1 l 1,24,-1
 1 2 l 1,25,-1
 0 2 l 1,0,-1
EndSplineSet
Validated: 1
EndChar

StartChar: lslash
Encoding: 322 322 291
Width: 8
GlyphClass: 2
Flags: W
LayerCount: 2
Fore
SplineSet
0 0 m 1,0,-1
 0 1 l 1,1,-1
 1 1 l 1,2,-1
 1 2 l 1,3,-1
 2 2 l 1,4,-1
 2 6 l 1,5,-1
 1 6 l 1,6,-1
 1 7 l 1,7,-1
 4 7 l 1,8,-1
 4 5 l 1,9,-1
 5 5 l 1,10,-1
 5 6 l 1,11,-1
 7 6 l 1,12,-1
 7 5 l 1,13,-1
 6 5 l 1,14,-1
 6 4 l 1,15,-1
 5 4 l 1,16,-1
 5 3 l 1,17,-1
 4 3 l 1,18,-1
 4 1 l 1,19,-1
 5 1 l 1,20,-1
 5 0 l 1,21,-1
 3 0 l 1,22,-1
 3 1 l 1,23,-1
 2 1 l 1,24,-1
 2 0 l 1,25,-1
 0 0 l 1,0,-1
EndSplineSet
Validated: 1
EndChar

StartChar: Nacute
Encoding: 323 323 292
Width: 8
GlyphClass: 2
Flags: W
LayerCount: 2
Fore
SplineSet
0 0 m 1,0,-1
 0 5 l 1,1,-1
 3 5 l 1,2,-1
 3 4 l 1,3,-1
 4 4 l 1,4,-1
 4 3 l 1,5,-1
 5 3 l 1,6,-1
 5 5 l 1,7,-1
 7 5 l 1,8,-1
 7 0 l 1,9,-1
 5 0 l 1,10,-1
 5 1 l 1,11,-1
 4 1 l 1,12,-1
 4 2 l 1,13,-1
 3 2 l 1,14,-1
 3 3 l 1,15,-1
 2 3 l 1,16,-1
 2 0 l 1,17,-1
 0 0 l 1,0,-1
4 6 m 1,18,-1
 4 7 l 1,19,-1
 7 7 l 1,20,-1
 7 6 l 1,21,-1
 4 6 l 1,18,-1
EndSplineSet
Validated: 1
EndChar

StartChar: nacute
Encoding: 324 324 293
Width: 8
GlyphClass: 2
Flags: W
LayerCount: 2
Fore
SplineSet
0 0 m 1,0,-1
 0 5 l 1,1,-1
 5 5 l 1,2,-1
 5 4 l 1,3,-1
 6 4 l 1,4,-1
 6 0 l 1,5,-1
 4 0 l 1,6,-1
 4 4 l 1,7,-1
 2 4 l 1,8,-1
 2 0 l 1,9,-1
 0 0 l 1,0,-1
3 6 m 1,10,-1
 3 7 l 1,11,-1
 6 7 l 1,12,-1
 6 6 l 1,13,-1
 3 6 l 1,10,-1
EndSplineSet
Validated: 1
EndChar

StartChar: Ncommaaccent
Encoding: 325 325 294
Width: 8
GlyphClass: 2
Flags: W
LayerCount: 2
Fore
SplineSet
0 1 m 1,0,-1
 0 7 l 1,1,-1
 2 7 l 1,2,-1
 2 6 l 1,3,-1
 3 6 l 1,4,-1
 3 5 l 1,5,-1
 4 5 l 1,6,-1
 4 4 l 1,7,-1
 5 4 l 1,8,-1
 5 7 l 1,9,-1
 7 7 l 1,10,-1
 7 1 l 1,11,-1
 5 1 l 1,12,-1
 5 2 l 1,13,-1
 4 2 l 1,14,-1
 4 3 l 1,15,-1
 3 3 l 1,16,-1
 3 4 l 1,17,-1
 2 4 l 1,18,-1
 2 1 l 1,19,-1
 0 1 l 1,0,-1
4 0 m 1,20,-1
 4 -1 l 1,21,-1
 1 -1 l 1,22,-1
 1 0 l 1,23,-1
 3 0 l 1,24,-1
 3 1 l 1,25,-1
 5 1 l 1,26,-1
 5 0 l 1,27,-1
 4 0 l 1,20,-1
EndSplineSet
Validated: 5
EndChar

StartChar: ncommaaccent
Encoding: 326 326 295
Width: 8
GlyphClass: 2
Flags: W
LayerCount: 2
Fore
SplineSet
0 -1 m 1,0,-1
 0 0 l 1,1,-1
 2 0 l 1,2,-1
 2 1 l 1,3,-1
 4 1 l 1,4,-1
 4 0 l 1,5,-1
 3 0 l 1,6,-1
 3 -1 l 1,7,-1
 0 -1 l 1,0,-1
0 1 m 1,8,-1
 0 5 l 1,9,-1
 5 5 l 1,10,-1
 5 4 l 1,11,-1
 6 4 l 1,12,-1
 6 1 l 1,13,-1
 4 1 l 1,14,-1
 4 4 l 1,15,-1
 2 4 l 1,16,-1
 2 1 l 1,17,-1
 0 1 l 1,8,-1
EndSplineSet
Validated: 5
EndChar

StartChar: Ncaron
Encoding: 327 327 296
Width: 8
GlyphClass: 2
Flags: W
LayerCount: 2
Fore
SplineSet
0 0 m 1,0,-1
 0 5 l 1,1,-1
 2 5 l 1,2,-1
 2 6 l 1,3,-1
 1 6 l 1,4,-1
 1 7 l 1,5,-1
 3 7 l 1,6,-1
 3 6 l 1,7,-1
 4 6 l 1,8,-1
 4 7 l 1,9,-1
 6 7 l 1,10,-1
 6 6 l 1,11,-1
 5 6 l 1,12,-1
 5 5 l 1,13,-1
 3 5 l 1,14,-1
 3 4 l 1,15,-1
 4 4 l 1,16,-1
 4 3 l 1,17,-1
 5 3 l 1,18,-1
 5 5 l 1,19,-1
 7 5 l 1,20,-1
 7 0 l 1,21,-1
 5 0 l 1,22,-1
 5 1 l 1,23,-1
 4 1 l 1,24,-1
 4 2 l 1,25,-1
 3 2 l 1,26,-1
 3 3 l 1,27,-1
 2 3 l 1,28,-1
 2 0 l 1,29,-1
 0 0 l 1,0,-1
EndSplineSet
Validated: 5
EndChar

StartChar: ncaron
Encoding: 328 328 297
Width: 8
GlyphClass: 2
Flags: W
LayerCount: 2
Fore
SplineSet
0 0 m 1,0,-1
 0 4 l 1,1,-1
 5 4 l 1,2,-1
 5 3 l 1,3,-1
 6 3 l 1,4,-1
 6 0 l 1,5,-1
 4 0 l 1,6,-1
 4 3 l 1,7,-1
 2 3 l 1,8,-1
 2 0 l 1,9,-1
 0 0 l 1,0,-1
0 6 m 1,10,-1
 0 7 l 1,11,-1
 2 7 l 1,12,-1
 2 6 l 1,13,-1
 4 6 l 1,14,-1
 4 7 l 1,15,-1
 6 7 l 1,16,-1
 6 6 l 1,17,-1
 5 6 l 1,18,-1
 5 5 l 1,19,-1
 1 5 l 1,20,-1
 1 6 l 1,21,-1
 0 6 l 1,10,-1
EndSplineSet
Validated: 1
EndChar

StartChar: napostrophe
Encoding: 329 329 298
Width: 8
GlyphClass: 2
Flags: W
LayerCount: 2
Fore
SplineSet
0 0 m 1,0,-1
 0 4 l 1,1,-1
 5 4 l 1,2,-1
 5 3 l 1,3,-1
 6 3 l 1,4,-1
 6 0 l 1,5,-1
 4 0 l 1,6,-1
 4 3 l 1,7,-1
 2 3 l 1,8,-1
 2 0 l 1,9,-1
 0 0 l 1,0,-1
0 5 m 1,10,-1
 0 6 l 1,11,-1
 1 6 l 1,12,-1
 1 7 l 1,13,-1
 3 7 l 1,14,-1
 3 6 l 1,15,-1
 2 6 l 1,16,-1
 2 5 l 1,17,-1
 0 5 l 1,10,-1
EndSplineSet
Validated: 1
EndChar

StartChar: Eng
Encoding: 330 330 299
Width: 8
GlyphClass: 2
Flags: W
LayerCount: 2
Fore
SplineSet
0 0 m 1,0,-1
 0 7 l 1,1,-1
 2 7 l 1,2,-1
 2 6 l 1,3,-1
 3 6 l 1,4,-1
 3 5 l 1,5,-1
 4 5 l 1,6,-1
 4 4 l 1,7,-1
 5 4 l 1,8,-1
 5 7 l 1,9,-1
 7 7 l 1,10,-1
 7 0 l 1,11,-1
 6 0 l 1,12,-1
 6 -1 l 1,13,-1
 3 -1 l 1,14,-1
 3 0 l 1,15,-1
 5 0 l 1,16,-1
 5 2 l 1,17,-1
 4 2 l 1,18,-1
 4 3 l 1,19,-1
 3 3 l 1,20,-1
 3 4 l 1,21,-1
 2 4 l 1,22,-1
 2 0 l 1,23,-1
 0 0 l 1,0,-1
EndSplineSet
Validated: 1
EndChar

StartChar: eng
Encoding: 331 331 300
Width: 8
GlyphClass: 2
Flags: W
LayerCount: 2
Fore
SplineSet
0 0 m 1,0,-1
 0 5 l 1,1,-1
 5 5 l 1,2,-1
 5 4 l 1,3,-1
 6 4 l 1,4,-1
 6 0 l 1,5,-1
 5 0 l 1,6,-1
 5 -1 l 1,7,-1
 3 -1 l 1,8,-1
 3 0 l 1,9,-1
 4 0 l 1,10,-1
 4 4 l 1,11,-1
 2 4 l 1,12,-1
 2 0 l 1,13,-1
 0 0 l 1,0,-1
EndSplineSet
Validated: 1
EndChar

StartChar: Omacron
Encoding: 332 332 301
Width: 8
GlyphClass: 2
Flags: W
LayerCount: 2
Fore
SplineSet
0 2 m 1,0,-1
 0 3 l 1,1,-1
 1 3 l 1,2,-1
 1 4 l 1,3,-1
 2 4 l 1,4,-1
 2 5 l 1,5,-1
 5 5 l 1,6,-1
 5 4 l 1,7,-1
 6 4 l 1,8,-1
 6 3 l 1,9,-1
 7 3 l 1,10,-1
 7 2 l 1,11,-1
 6 2 l 1,12,-1
 6 1 l 1,13,-1
 5 1 l 1,14,-1
 5 0 l 1,15,-1
 2 0 l 1,16,-1
 2 1 l 1,17,-1
 1 1 l 1,18,-1
 1 2 l 1,19,-1
 0 2 l 1,0,-1
0 6 m 1,20,-1
 0 7 l 1,21,-1
 7 7 l 1,22,-1
 7 6 l 1,23,-1
 0 6 l 1,20,-1
2 2 m 1,24,-1
 3 2 l 1,25,-1
 3 1 l 1,26,-1
 4 1 l 1,27,-1
 4 2 l 1,28,-1
 5 2 l 1,29,-1
 5 3 l 1,30,-1
 4 3 l 1,31,-1
 4 4 l 1,32,-1
 3 4 l 1,33,-1
 3 3 l 1,34,-1
 2 3 l 1,35,-1
 2 2 l 1,24,-1
EndSplineSet
Validated: 1
EndChar

StartChar: omacron
Encoding: 333 333 302
Width: 8
GlyphClass: 2
Flags: W
LayerCount: 2
Fore
SplineSet
0 1 m 1,0,-1
 0 3 l 1,1,-1
 1 3 l 1,2,-1
 1 4 l 1,3,-1
 5 4 l 1,4,-1
 5 3 l 1,5,-1
 6 3 l 1,6,-1
 6 1 l 1,7,-1
 5 1 l 1,8,-1
 5 0 l 1,9,-1
 1 0 l 1,10,-1
 1 1 l 1,11,-1
 0 1 l 1,0,-1
0 5 m 1,12,-1
 0 6 l 1,13,-1
 6 6 l 1,14,-1
 6 5 l 1,15,-1
 0 5 l 1,12,-1
2 1 m 1,16,-1
 4 1 l 1,17,-1
 4 3 l 1,18,-1
 2 3 l 1,19,-1
 2 1 l 1,16,-1
EndSplineSet
Validated: 1
EndChar

StartChar: Obreve
Encoding: 334 334 303
Width: 8
GlyphClass: 2
Flags: W
LayerCount: 2
Fore
SplineSet
0 2 m 1,0,-1
 0 3 l 1,1,-1
 1 3 l 1,2,-1
 1 4 l 1,3,-1
 2 4 l 1,4,-1
 2 5 l 1,5,-1
 1 5 l 1,6,-1
 1 6 l 1,7,-1
 0 6 l 1,8,-1
 0 7 l 1,9,-1
 2 7 l 1,10,-1
 2 6 l 1,11,-1
 5 6 l 1,12,-1
 5 7 l 1,13,-1
 7 7 l 1,14,-1
 7 6 l 1,15,-1
 6 6 l 1,16,-1
 6 5 l 1,17,-1
 5 5 l 1,18,-1
 5 4 l 1,19,-1
 6 4 l 1,20,-1
 6 3 l 1,21,-1
 7 3 l 1,22,-1
 7 2 l 1,23,-1
 6 2 l 1,24,-1
 6 1 l 1,25,-1
 5 1 l 1,26,-1
 5 0 l 1,27,-1
 2 0 l 1,28,-1
 2 1 l 1,29,-1
 1 1 l 1,30,-1
 1 2 l 1,31,-1
 0 2 l 1,0,-1
2 2 m 1,32,-1
 3 2 l 1,33,-1
 3 1 l 1,34,-1
 4 1 l 1,35,-1
 4 2 l 1,36,-1
 5 2 l 1,37,-1
 5 3 l 1,38,-1
 4 3 l 1,39,-1
 4 4 l 1,40,-1
 3 4 l 1,41,-1
 3 3 l 1,42,-1
 2 3 l 1,43,-1
 2 2 l 1,32,-1
EndSplineSet
Validated: 1
EndChar

StartChar: obreve
Encoding: 335 335 304
Width: 8
GlyphClass: 2
Flags: W
LayerCount: 2
Fore
SplineSet
0 1 m 1,0,-1
 0 3 l 1,1,-1
 1 3 l 1,2,-1
 1 4 l 1,3,-1
 5 4 l 1,4,-1
 5 3 l 1,5,-1
 6 3 l 1,6,-1
 6 1 l 1,7,-1
 5 1 l 1,8,-1
 5 0 l 1,9,-1
 1 0 l 1,10,-1
 1 1 l 1,11,-1
 0 1 l 1,0,-1
0 6 m 1,12,-1
 0 7 l 1,13,-1
 2 7 l 1,14,-1
 2 6 l 1,15,-1
 4 6 l 1,16,-1
 4 7 l 1,17,-1
 6 7 l 1,18,-1
 6 6 l 1,19,-1
 5 6 l 1,20,-1
 5 5 l 1,21,-1
 1 5 l 1,22,-1
 1 6 l 1,23,-1
 0 6 l 1,12,-1
2 1 m 1,24,-1
 4 1 l 1,25,-1
 4 3 l 1,26,-1
 2 3 l 1,27,-1
 2 1 l 1,24,-1
EndSplineSet
Validated: 1
EndChar

StartChar: Ohungarumlaut
Encoding: 336 336 305
Width: 8
GlyphClass: 2
Flags: W
LayerCount: 2
Fore
SplineSet
0 2 m 1,0,-1
 0 3 l 1,1,-1
 1 3 l 1,2,-1
 1 4 l 1,3,-1
 2 4 l 1,4,-1
 2 5 l 1,5,-1
 5 5 l 1,6,-1
 5 4 l 1,7,-1
 6 4 l 1,8,-1
 6 3 l 1,9,-1
 7 3 l 1,10,-1
 7 2 l 1,11,-1
 6 2 l 1,12,-1
 6 1 l 1,13,-1
 5 1 l 1,14,-1
 5 0 l 1,15,-1
 2 0 l 1,16,-1
 2 1 l 1,17,-1
 1 1 l 1,18,-1
 1 2 l 1,19,-1
 0 2 l 1,0,-1
2 2 m 1,20,-1
 3 2 l 1,21,-1
 3 1 l 1,22,-1
 4 1 l 1,23,-1
 4 2 l 1,24,-1
 5 2 l 1,25,-1
 5 3 l 1,26,-1
 4 3 l 1,27,-1
 4 4 l 1,28,-1
 3 4 l 1,29,-1
 3 3 l 1,30,-1
 2 3 l 1,31,-1
 2 2 l 1,20,-1
2 6 m 1,32,-1
 2 7 l 1,33,-1
 4 7 l 1,34,-1
 4 6 l 1,35,-1
 2 6 l 1,32,-1
5 6 m 1,36,-1
 5 7 l 1,37,-1
 7 7 l 1,38,-1
 7 6 l 1,39,-1
 5 6 l 1,36,-1
EndSplineSet
Validated: 1
EndChar

StartChar: ohungarumlaut
Encoding: 337 337 306
Width: 8
GlyphClass: 2
Flags: W
LayerCount: 2
Fore
SplineSet
0 1 m 1,0,-1
 0 3 l 1,1,-1
 1 3 l 1,2,-1
 1 4 l 1,3,-1
 5 4 l 1,4,-1
 5 3 l 1,5,-1
 6 3 l 1,6,-1
 6 1 l 1,7,-1
 5 1 l 1,8,-1
 5 0 l 1,9,-1
 1 0 l 1,10,-1
 1 1 l 1,11,-1
 0 1 l 1,0,-1
2 1 m 1,12,-1
 4 1 l 1,13,-1
 4 3 l 1,14,-1
 2 3 l 1,15,-1
 2 1 l 1,12,-1
2 5 m 1,16,-1
 2 6 l 1,17,-1
 4 6 l 1,18,-1
 4 5 l 1,19,-1
 2 5 l 1,16,-1
5 5 m 1,20,-1
 5 6 l 1,21,-1
 7 6 l 1,22,-1
 7 5 l 1,23,-1
 5 5 l 1,20,-1
EndSplineSet
Validated: 1
EndChar

StartChar: OE
Encoding: 338 338 307
Width: 8
GlyphClass: 2
Flags: W
LayerCount: 2
Fore
SplineSet
0 2 m 1,0,-1
 0 5 l 1,1,-1
 1 5 l 1,2,-1
 1 6 l 1,3,-1
 2 6 l 1,4,-1
 2 7 l 1,5,-1
 7 7 l 1,6,-1
 7 6 l 1,7,-1
 6 6 l 1,8,-1
 6 4 l 1,9,-1
 7 4 l 1,10,-1
 7 3 l 1,11,-1
 6 3 l 1,12,-1
 6 1 l 1,13,-1
 7 1 l 1,14,-1
 7 0 l 1,15,-1
 2 0 l 1,16,-1
 2 1 l 1,17,-1
 1 1 l 1,18,-1
 1 2 l 1,19,-1
 0 2 l 1,0,-1
2 2 m 1,20,-1
 3 2 l 1,21,-1
 3 1 l 1,22,-1
 4 1 l 1,23,-1
 4 6 l 1,24,-1
 3 6 l 1,25,-1
 3 5 l 1,26,-1
 2 5 l 1,27,-1
 2 2 l 1,20,-1
EndSplineSet
Validated: 1
EndChar

StartChar: oe
Encoding: 339 339 308
Width: 8
GlyphClass: 2
Flags: W
LayerCount: 2
Fore
SplineSet
0 1 m 1,0,-1
 0 4 l 1,1,-1
 1 4 l 1,2,-1
 1 5 l 1,3,-1
 7 5 l 1,4,-1
 7 4 l 1,5,-1
 5 4 l 1,6,-1
 5 3 l 1,7,-1
 7 3 l 1,8,-1
 7 2 l 1,9,-1
 5 2 l 1,10,-1
 5 1 l 1,11,-1
 7 1 l 1,12,-1
 7 0 l 1,13,-1
 1 0 l 1,14,-1
 1 1 l 1,15,-1
 0 1 l 1,0,-1
2 1 m 1,16,-1
 3 1 l 1,17,-1
 3 4 l 1,18,-1
 2 4 l 1,19,-1
 2 1 l 1,16,-1
EndSplineSet
Validated: 1
EndChar

StartChar: Racute
Encoding: 340 340 309
Width: 8
GlyphClass: 2
Flags: W
LayerCount: 2
Fore
SplineSet
0 0 m 1,0,-1
 0 1 l 1,1,-1
 1 1 l 1,2,-1
 1 4 l 1,3,-1
 0 4 l 1,4,-1
 0 5 l 1,5,-1
 6 5 l 1,6,-1
 6 4 l 1,7,-1
 7 4 l 1,8,-1
 7 3 l 1,9,-1
 6 3 l 1,10,-1
 6 1 l 1,11,-1
 7 1 l 1,12,-1
 7 0 l 1,13,-1
 5 0 l 1,14,-1
 5 1 l 1,15,-1
 4 1 l 1,16,-1
 4 2 l 1,17,-1
 3 2 l 1,18,-1
 3 0 l 1,19,-1
 0 0 l 1,0,-1
4 6 m 1,20,-1
 4 7 l 1,21,-1
 7 7 l 1,22,-1
 7 6 l 1,23,-1
 4 6 l 1,20,-1
3 4 m 1,24,-1
 3 3 l 1,25,-1
 5 3 l 1,26,-1
 5 4 l 1,27,-1
 3 4 l 1,24,-1
EndSplineSet
Validated: 1
EndChar

StartChar: racute
Encoding: 341 341 310
Width: 8
GlyphClass: 2
Flags: W
LayerCount: 2
Fore
SplineSet
0 0 m 1,0,-1
 0 1 l 1,1,-1
 1 1 l 1,2,-1
 1 4 l 1,3,-1
 0 4 l 1,4,-1
 0 5 l 1,5,-1
 2 5 l 1,6,-1
 2 4 l 1,7,-1
 3 4 l 1,8,-1
 3 5 l 1,9,-1
 6 5 l 1,10,-1
 6 4 l 1,11,-1
 7 4 l 1,12,-1
 7 2 l 1,13,-1
 5 2 l 1,14,-1
 5 4 l 1,15,-1
 4 4 l 1,16,-1
 4 3 l 1,17,-1
 3 3 l 1,18,-1
 3 1 l 1,19,-1
 4 1 l 1,20,-1
 4 0 l 1,21,-1
 0 0 l 1,0,-1
4 6 m 1,22,-1
 4 7 l 1,23,-1
 7 7 l 1,24,-1
 7 6 l 1,25,-1
 4 6 l 1,22,-1
EndSplineSet
Validated: 1
EndChar

StartChar: Rcommaaccent
Encoding: 342 342 311
Width: 8
GlyphClass: 2
Flags: W
LayerCount: 2
Fore
SplineSet
0 1 m 1,0,-1
 0 2 l 1,1,-1
 1 2 l 1,2,-1
 1 6 l 1,3,-1
 0 6 l 1,4,-1
 0 7 l 1,5,-1
 6 7 l 1,6,-1
 6 6 l 1,7,-1
 7 6 l 1,8,-1
 7 4 l 1,9,-1
 6 4 l 1,10,-1
 6 2 l 1,11,-1
 7 2 l 1,12,-1
 7 1 l 1,13,-1
 5 1 l 1,14,-1
 5 2 l 1,15,-1
 4 2 l 1,16,-1
 4 3 l 1,17,-1
 3 3 l 1,18,-1
 3 1 l 1,19,-1
 0 1 l 1,0,-1
4 0 m 1,20,-1
 4 -1 l 1,21,-1
 1 -1 l 1,22,-1
 1 0 l 1,23,-1
 3 0 l 1,24,-1
 3 1 l 1,25,-1
 5 1 l 1,26,-1
 5 0 l 1,27,-1
 4 0 l 1,20,-1
3 4 m 1,28,-1
 5 4 l 1,29,-1
 5 6 l 1,30,-1
 3 6 l 1,31,-1
 3 4 l 1,28,-1
EndSplineSet
Validated: 5
EndChar

StartChar: rcommaaccent
Encoding: 343 343 312
Width: 8
GlyphClass: 2
Flags: W
LayerCount: 2
Fore
SplineSet
0 1 m 1,0,-1
 0 2 l 1,1,-1
 1 2 l 1,2,-1
 1 4 l 1,3,-1
 0 4 l 1,4,-1
 0 5 l 1,5,-1
 2 5 l 1,6,-1
 2 4 l 1,7,-1
 3 4 l 1,8,-1
 3 5 l 1,9,-1
 6 5 l 1,10,-1
 6 4 l 1,11,-1
 7 4 l 1,12,-1
 7 3 l 1,13,-1
 5 3 l 1,14,-1
 5 4 l 1,15,-1
 4 4 l 1,16,-1
 4 3 l 1,17,-1
 3 3 l 1,18,-1
 3 2 l 1,19,-1
 4 2 l 1,20,-1
 4 1 l 1,21,-1
 5 1 l 1,22,-1
 5 0 l 1,23,-1
 4 0 l 1,24,-1
 4 -1 l 1,25,-1
 1 -1 l 1,26,-1
 1 0 l 1,27,-1
 3 0 l 1,28,-1
 3 1 l 1,29,-1
 0 1 l 1,0,-1
EndSplineSet
Validated: 1
EndChar

StartChar: Rcaron
Encoding: 344 344 313
Width: 8
GlyphClass: 2
Flags: W
LayerCount: 2
Fore
SplineSet
0 0 m 1,0,-1
 0 1 l 1,1,-1
 1 1 l 1,2,-1
 1 4 l 1,3,-1
 0 4 l 1,4,-1
 0 5 l 1,5,-1
 2 5 l 1,6,-1
 2 6 l 1,7,-1
 1 6 l 1,8,-1
 1 7 l 1,9,-1
 3 7 l 1,10,-1
 3 6 l 1,11,-1
 4 6 l 1,12,-1
 4 7 l 1,13,-1
 6 7 l 1,14,-1
 6 6 l 1,15,-1
 5 6 l 1,16,-1
 5 5 l 1,17,-1
 6 5 l 1,18,-1
 6 4 l 1,19,-1
 7 4 l 1,20,-1
 7 3 l 1,21,-1
 6 3 l 1,22,-1
 6 1 l 1,23,-1
 7 1 l 1,24,-1
 7 0 l 1,25,-1
 5 0 l 1,26,-1
 5 1 l 1,27,-1
 4 1 l 1,28,-1
 4 2 l 1,29,-1
 3 2 l 1,30,-1
 3 0 l 1,31,-1
 0 0 l 1,0,-1
3 4 m 1,32,-1
 3 3 l 1,33,-1
 5 3 l 1,34,-1
 5 4 l 1,35,-1
 3 4 l 1,32,-1
EndSplineSet
Validated: 1
EndChar

StartChar: rcaron
Encoding: 345 345 314
Width: 8
GlyphClass: 2
Flags: W
LayerCount: 2
Fore
SplineSet
0 0 m 1,0,-1
 0 1 l 1,1,-1
 1 1 l 1,2,-1
 1 4 l 1,3,-1
 0 4 l 1,4,-1
 0 5 l 1,5,-1
 2 5 l 1,6,-1
 2 4 l 1,7,-1
 3 4 l 1,8,-1
 3 5 l 1,9,-1
 2 5 l 1,10,-1
 2 6 l 1,11,-1
 1 6 l 1,12,-1
 1 7 l 1,13,-1
 3 7 l 1,14,-1
 3 6 l 1,15,-1
 4 6 l 1,16,-1
 4 7 l 1,17,-1
 6 7 l 1,18,-1
 6 6 l 1,19,-1
 5 6 l 1,20,-1
 5 5 l 1,21,-1
 6 5 l 1,22,-1
 6 4 l 1,23,-1
 7 4 l 1,24,-1
 7 2 l 1,25,-1
 5 2 l 1,26,-1
 5 4 l 1,27,-1
 4 4 l 1,28,-1
 4 3 l 1,29,-1
 3 3 l 1,30,-1
 3 1 l 1,31,-1
 4 1 l 1,32,-1
 4 0 l 1,33,-1
 0 0 l 1,0,-1
EndSplineSet
Validated: 5
EndChar

StartChar: Sacute
Encoding: 346 346 315
Width: 8
GlyphClass: 2
Flags: W
LayerCount: 2
Fore
SplineSet
0 1 m 1,0,-1
 0 2 l 1,1,-1
 2 2 l 1,2,-1
 2 1 l 1,3,-1
 4 1 l 1,4,-1
 4 2 l 1,5,-1
 3 2 l 1,6,-1
 3 3 l 1,7,-1
 1 3 l 1,8,-1
 1 4 l 1,9,-1
 0 4 l 1,10,-1
 0 6 l 1,11,-1
 1 6 l 1,12,-1
 1 7 l 1,13,-1
 5 7 l 1,14,-1
 5 6 l 1,15,-1
 6 6 l 1,16,-1
 6 5 l 1,17,-1
 4 5 l 1,18,-1
 4 6 l 1,19,-1
 2 6 l 1,20,-1
 2 5 l 1,21,-1
 3 5 l 1,22,-1
 3 4 l 1,23,-1
 4 4 l 1,24,-1
 4 3 l 1,25,-1
 6 3 l 1,26,-1
 6 1 l 1,27,-1
 5 1 l 1,28,-1
 5 0 l 1,29,-1
 1 0 l 1,30,-1
 1 1 l 1,31,-1
 0 1 l 1,0,-1
6 6 m 1,32,-1
 6 7 l 1,33,-1
 8 7 l 1,34,-1
 8 6 l 1,35,-1
 6 6 l 1,32,-1
EndSplineSet
Validated: 5
EndChar

StartChar: sacute
Encoding: 347 347 316
Width: 8
GlyphClass: 2
Flags: W
LayerCount: 2
Fore
SplineSet
0 0 m 1,0,-1
 0 1 l 1,1,-1
 4 1 l 1,2,-1
 4 2 l 1,3,-1
 1 2 l 1,4,-1
 1 3 l 1,5,-1
 0 3 l 1,6,-1
 0 4 l 1,7,-1
 1 4 l 1,8,-1
 1 5 l 1,9,-1
 6 5 l 1,10,-1
 6 4 l 1,11,-1
 2 4 l 1,12,-1
 2 3 l 1,13,-1
 5 3 l 1,14,-1
 5 2 l 1,15,-1
 6 2 l 1,16,-1
 6 1 l 1,17,-1
 5 1 l 1,18,-1
 5 0 l 1,19,-1
 0 0 l 1,0,-1
3 6 m 1,20,-1
 3 7 l 1,21,-1
 6 7 l 1,22,-1
 6 6 l 1,23,-1
 3 6 l 1,20,-1
EndSplineSet
Validated: 1
EndChar

StartChar: Scircumflex
Encoding: 348 348 317
Width: 8
GlyphClass: 2
Flags: W
LayerCount: 2
Fore
SplineSet
0 0 m 1,0,-1
 0 1 l 1,1,-1
 3 1 l 1,2,-1
 3 2 l 1,3,-1
 1 2 l 1,4,-1
 1 3 l 1,5,-1
 0 3 l 1,6,-1
 0 4 l 1,7,-1
 1 4 l 1,8,-1
 1 6 l 1,9,-1
 2 6 l 1,10,-1
 2 7 l 1,11,-1
 5 7 l 1,12,-1
 5 6 l 1,13,-1
 6 6 l 1,14,-1
 6 4 l 1,15,-1
 3 4 l 1,16,-1
 3 3 l 1,17,-1
 5 3 l 1,18,-1
 5 2 l 1,19,-1
 6 2 l 1,20,-1
 6 1 l 1,21,-1
 5 1 l 1,22,-1
 5 0 l 1,23,-1
 0 0 l 1,0,-1
4 5 m 1,24,-1
 4 6 l 1,25,-1
 3 6 l 1,26,-1
 3 5 l 1,27,-1
 4 5 l 1,24,-1
EndSplineSet
Validated: 1
EndChar

StartChar: scircumflex
Encoding: 349 349 318
Width: 8
GlyphClass: 2
Flags: W
LayerCount: 2
Fore
SplineSet
0 2 m 1,0,-1
 0 3 l 1,1,-1
 1 3 l 1,2,-1
 1 4 l 1,3,-1
 5 4 l 1,4,-1
 5 3 l 1,5,-1
 3 3 l 1,6,-1
 3 2 l 1,7,-1
 0 2 l 1,0,-1
2 6 m 1,8,-1
 2 7 l 1,9,-1
 5 7 l 1,10,-1
 5 6 l 1,11,-1
 6 6 l 1,12,-1
 6 5 l 1,13,-1
 4 5 l 1,14,-1
 4 6 l 1,15,-1
 3 6 l 1,16,-1
 3 5 l 1,17,-1
 1 5 l 1,18,-1
 1 6 l 1,19,-1
 2 6 l 1,8,-1
6 2 m 1,20,-1
 6 1 l 1,21,-1
 5 1 l 1,22,-1
 5 0 l 1,23,-1
 1 0 l 1,24,-1
 1 1 l 1,25,-1
 3 1 l 1,26,-1
 3 2 l 1,27,-1
 6 2 l 1,20,-1
EndSplineSet
Validated: 5
EndChar

StartChar: Scedilla
Encoding: 350 350 319
Width: 8
GlyphClass: 2
Flags: W
LayerCount: 2
Fore
SplineSet
0 1 m 1,0,-1
 0 2 l 1,1,-1
 2 2 l 1,2,-1
 2 1 l 1,3,-1
 4 1 l 1,4,-1
 4 2 l 1,5,-1
 3 2 l 1,6,-1
 3 3 l 1,7,-1
 1 3 l 1,8,-1
 1 4 l 1,9,-1
 0 4 l 1,10,-1
 0 6 l 1,11,-1
 1 6 l 1,12,-1
 1 7 l 1,13,-1
 5 7 l 1,14,-1
 5 6 l 1,15,-1
 6 6 l 1,16,-1
 6 5 l 1,17,-1
 4 5 l 1,18,-1
 4 6 l 1,19,-1
 2 6 l 1,20,-1
 2 5 l 1,21,-1
 3 5 l 1,22,-1
 3 4 l 1,23,-1
 4 4 l 1,24,-1
 4 3 l 1,25,-1
 6 3 l 1,26,-1
 6 1 l 1,27,-1
 5 1 l 1,28,-1
 5 0 l 1,29,-1
 3 0 l 1,30,-1
 3 -1 l 1,31,-1
 0 -1 l 1,32,-1
 0 0 l 1,33,-1
 1 0 l 1,34,-1
 1 1 l 1,35,-1
 0 1 l 1,0,-1
EndSplineSet
Validated: 1
EndChar

StartChar: scedilla
Encoding: 351 351 320
Width: 8
GlyphClass: 2
Flags: W
LayerCount: 2
Fore
SplineSet
0 1 m 1,0,-1
 4 1 l 1,1,-1
 4 2 l 1,2,-1
 1 2 l 1,3,-1
 1 3 l 1,4,-1
 0 3 l 1,5,-1
 0 4 l 1,6,-1
 1 4 l 1,7,-1
 1 5 l 1,8,-1
 6 5 l 1,9,-1
 6 4 l 1,10,-1
 2 4 l 1,11,-1
 2 3 l 1,12,-1
 5 3 l 1,13,-1
 5 2 l 1,14,-1
 6 2 l 1,15,-1
 6 1 l 1,16,-1
 5 1 l 1,17,-1
 5 0 l 1,18,-1
 3 0 l 1,19,-1
 3 -1 l 1,20,-1
 0 -1 l 1,21,-1
 0 1 l 1,0,-1
EndSplineSet
Validated: 1
EndChar

StartChar: Scaron
Encoding: 352 352 321
Width: 8
GlyphClass: 2
Flags: W
LayerCount: 2
Fore
SplineSet
0 1 m 1,0,-1
 0 2 l 1,1,-1
 2 2 l 1,2,-1
 2 1 l 1,3,-1
 4 1 l 1,4,-1
 4 2 l 1,5,-1
 3 2 l 1,6,-1
 3 3 l 1,7,-1
 5 3 l 1,8,-1
 5 2 l 1,9,-1
 6 2 l 1,10,-1
 6 1 l 1,11,-1
 5 1 l 1,12,-1
 5 0 l 1,13,-1
 1 0 l 1,14,-1
 1 1 l 1,15,-1
 0 1 l 1,0,-1
0 4 m 1,16,-1
 0 5 l 1,17,-1
 1 5 l 1,18,-1
 1 6 l 1,19,-1
 0 6 l 1,20,-1
 0 7 l 1,21,-1
 2 7 l 1,22,-1
 2 6 l 1,23,-1
 4 6 l 1,24,-1
 4 7 l 1,25,-1
 6 7 l 1,26,-1
 6 6 l 1,27,-1
 5 6 l 1,28,-1
 5 5 l 1,29,-1
 6 5 l 1,30,-1
 6 4 l 1,31,-1
 4 4 l 1,32,-1
 4 5 l 1,33,-1
 2 5 l 1,34,-1
 2 4 l 1,35,-1
 3 4 l 1,36,-1
 3 3 l 1,37,-1
 1 3 l 1,38,-1
 1 4 l 1,39,-1
 0 4 l 1,16,-1
EndSplineSet
Validated: 5
EndChar

StartChar: scaron
Encoding: 353 353 322
Width: 8
GlyphClass: 2
Flags: W
LayerCount: 2
Fore
SplineSet
0 0 m 1,0,-1
 0 1 l 1,1,-1
 4 1 l 1,2,-1
 4 2 l 1,3,-1
 1 2 l 1,4,-1
 1 3 l 1,5,-1
 0 3 l 1,6,-1
 0 4 l 1,7,-1
 1 4 l 1,8,-1
 1 5 l 1,9,-1
 2 5 l 1,10,-1
 2 6 l 1,11,-1
 1 6 l 1,12,-1
 1 7 l 1,13,-1
 3 7 l 1,14,-1
 3 6 l 1,15,-1
 4 6 l 1,16,-1
 4 7 l 1,17,-1
 6 7 l 1,18,-1
 6 6 l 1,19,-1
 5 6 l 1,20,-1
 5 5 l 1,21,-1
 6 5 l 1,22,-1
 6 4 l 1,23,-1
 2 4 l 1,24,-1
 2 3 l 1,25,-1
 5 3 l 1,26,-1
 5 2 l 1,27,-1
 6 2 l 1,28,-1
 6 1 l 1,29,-1
 5 1 l 1,30,-1
 5 0 l 1,31,-1
 0 0 l 1,0,-1
EndSplineSet
Validated: 1
EndChar

StartChar: Tcommaaccent
Encoding: 354 354 323
Width: 8
GlyphClass: 2
Flags: W
LayerCount: 2
Fore
SplineSet
0 -1 m 1,0,-1
 0 0 l 1,1,-1
 3 0 l 1,2,-1
 3 1 l 1,3,-1
 1 1 l 1,4,-1
 1 2 l 1,5,-1
 2 2 l 1,6,-1
 2 6 l 1,7,-1
 1 6 l 1,8,-1
 1 5 l 1,9,-1
 0 5 l 1,10,-1
 0 7 l 1,11,-1
 6 7 l 1,12,-1
 6 5 l 1,13,-1
 5 5 l 1,14,-1
 5 6 l 1,15,-1
 4 6 l 1,16,-1
 4 2 l 1,17,-1
 5 2 l 1,18,-1
 5 0 l 1,19,-1
 4 0 l 1,20,-1
 4 -1 l 1,21,-1
 0 -1 l 1,0,-1
EndSplineSet
Validated: 1
EndChar

StartChar: tcommaaccent
Encoding: 355 355 324
Width: 8
GlyphClass: 2
Flags: W
LayerCount: 2
Fore
SplineSet
2 1 m 1,0,-1
 2 4 l 1,1,-1
 1 4 l 1,2,-1
 1 5 l 1,3,-1
 2 5 l 1,4,-1
 2 6 l 1,5,-1
 3 6 l 1,6,-1
 3 7 l 1,7,-1
 4 7 l 1,8,-1
 4 5 l 1,9,-1
 6 5 l 1,10,-1
 6 4 l 1,11,-1
 4 4 l 1,12,-1
 4 1 l 1,13,-1
 5 1 l 1,14,-1
 5 0 l 1,15,-1
 4 0 l 1,16,-1
 4 -1 l 1,17,-1
 1 -1 l 1,18,-1
 1 0 l 1,19,-1
 3 0 l 1,20,-1
 3 1 l 1,21,-1
 2 1 l 1,0,-1
6 2 m 1,22,-1
 6 1 l 1,23,-1
 5 1 l 1,24,-1
 5 2 l 1,25,-1
 6 2 l 1,22,-1
EndSplineSet
Validated: 5
EndChar

StartChar: Tcaron
Encoding: 356 356 325
Width: 8
GlyphClass: 2
Flags: W
LayerCount: 2
Fore
SplineSet
0 5 m 1,0,-1
 1 5 l 1,1,-1
 1 6 l 1,2,-1
 0 6 l 1,3,-1
 0 7 l 1,4,-1
 2 7 l 1,5,-1
 2 6 l 1,6,-1
 4 6 l 1,7,-1
 4 7 l 1,8,-1
 6 7 l 1,9,-1
 6 6 l 1,10,-1
 5 6 l 1,11,-1
 5 5 l 1,12,-1
 6 5 l 1,13,-1
 6 3 l 1,14,-1
 5 3 l 1,15,-1
 5 4 l 1,16,-1
 4 4 l 1,17,-1
 4 1 l 1,18,-1
 5 1 l 1,19,-1
 5 0 l 1,20,-1
 1 0 l 1,21,-1
 1 1 l 1,22,-1
 2 1 l 1,23,-1
 2 4 l 1,24,-1
 1 4 l 1,25,-1
 1 3 l 1,26,-1
 0 3 l 1,27,-1
 0 5 l 1,0,-1
EndSplineSet
Validated: 1
EndChar

StartChar: tcaron
Encoding: 357 357 326
Width: 8
GlyphClass: 2
Flags: W
LayerCount: 2
Fore
SplineSet
0 6 m 1,0,-1
 0 7 l 1,1,-1
 2 7 l 1,2,-1
 2 6 l 1,3,-1
 4 6 l 1,4,-1
 4 7 l 1,5,-1
 6 7 l 1,6,-1
 6 6 l 1,7,-1
 5 6 l 1,8,-1
 5 5 l 1,9,-1
 4 5 l 1,10,-1
 4 4 l 1,11,-1
 6 4 l 1,12,-1
 6 3 l 1,13,-1
 4 3 l 1,14,-1
 4 1 l 1,15,-1
 5 1 l 1,16,-1
 5 0 l 1,17,-1
 3 0 l 1,18,-1
 3 1 l 1,19,-1
 2 1 l 1,20,-1
 2 3 l 1,21,-1
 1 3 l 1,22,-1
 1 4 l 1,23,-1
 2 4 l 1,24,-1
 2 5 l 1,25,-1
 1 5 l 1,26,-1
 1 6 l 1,27,-1
 0 6 l 1,0,-1
6 2 m 1,28,-1
 6 1 l 1,29,-1
 5 1 l 1,30,-1
 5 2 l 1,31,-1
 6 2 l 1,28,-1
EndSplineSet
Validated: 5
EndChar

StartChar: Tbar
Encoding: 358 358 327
Width: 8
GlyphClass: 2
Flags: W
LayerCount: 2
Fore
SplineSet
0 3 m 1,0,-1
 0 4 l 1,1,-1
 2 4 l 1,2,-1
 2 6 l 1,3,-1
 1 6 l 1,4,-1
 1 5 l 1,5,-1
 0 5 l 1,6,-1
 0 7 l 1,7,-1
 6 7 l 1,8,-1
 6 5 l 1,9,-1
 5 5 l 1,10,-1
 5 6 l 1,11,-1
 4 6 l 1,12,-1
 4 4 l 1,13,-1
 6 4 l 1,14,-1
 6 3 l 1,15,-1
 4 3 l 1,16,-1
 4 1 l 1,17,-1
 5 1 l 1,18,-1
 5 0 l 1,19,-1
 1 0 l 1,20,-1
 1 1 l 1,21,-1
 2 1 l 1,22,-1
 2 3 l 1,23,-1
 0 3 l 1,0,-1
EndSplineSet
Validated: 1
EndChar

StartChar: tbar
Encoding: 359 359 328
Width: 8
GlyphClass: 2
Flags: W
LayerCount: 2
Fore
SplineSet
2 2 m 1,0,-1
 1 2 l 1,1,-1
 1 3 l 1,2,-1
 2 3 l 1,3,-1
 2 4 l 1,4,-1
 1 4 l 1,5,-1
 1 5 l 1,6,-1
 2 5 l 1,7,-1
 2 6 l 1,8,-1
 3 6 l 1,9,-1
 3 7 l 1,10,-1
 4 7 l 1,11,-1
 4 5 l 1,12,-1
 6 5 l 1,13,-1
 6 4 l 1,14,-1
 4 4 l 1,15,-1
 4 3 l 1,16,-1
 5 3 l 1,17,-1
 5 2 l 1,18,-1
 4 2 l 1,19,-1
 4 1 l 1,20,-1
 6 1 l 1,21,-1
 6 0 l 1,22,-1
 3 0 l 1,23,-1
 3 1 l 1,24,-1
 2 1 l 1,25,-1
 2 2 l 1,0,-1
6 1 m 1,26,-1
 6 2 l 1,27,-1
 7 2 l 1,28,-1
 7 1 l 1,29,-1
 6 1 l 1,26,-1
EndSplineSet
Validated: 5
EndChar

StartChar: Utilde
Encoding: 360 360 329
Width: 8
GlyphClass: 2
Flags: W
LayerCount: 2
Fore
SplineSet
0 5 m 1,0,-1
 0 6 l 1,1,-1
 1 6 l 1,2,-1
 1 7 l 1,3,-1
 4 7 l 1,4,-1
 4 6 l 1,5,-1
 5 6 l 1,6,-1
 5 7 l 1,7,-1
 7 7 l 1,8,-1
 7 6 l 1,9,-1
 6 6 l 1,10,-1
 6 5 l 1,11,-1
 7 5 l 1,12,-1
 7 1 l 1,13,-1
 6 1 l 1,14,-1
 6 0 l 1,15,-1
 2 0 l 1,16,-1
 2 1 l 1,17,-1
 1 1 l 1,18,-1
 1 5 l 1,19,-1
 0 5 l 1,0,-1
2 5 m 1,20,-1
 3 5 l 1,21,-1
 3 1 l 1,22,-1
 5 1 l 1,23,-1
 5 5 l 1,24,-1
 3 5 l 1,25,-1
 3 6 l 1,26,-1
 2 6 l 1,27,-1
 2 5 l 1,20,-1
EndSplineSet
Validated: 5
EndChar

StartChar: utilde
Encoding: 361 361 330
Width: 8
GlyphClass: 2
Flags: W
LayerCount: 2
Fore
SplineSet
0 1 m 1,0,-1
 0 4 l 1,1,-1
 2 4 l 1,2,-1
 2 1 l 1,3,-1
 4 1 l 1,4,-1
 4 4 l 1,5,-1
 6 4 l 1,6,-1
 6 1 l 1,7,-1
 7 1 l 1,8,-1
 7 0 l 1,9,-1
 1 0 l 1,10,-1
 1 1 l 1,11,-1
 0 1 l 1,0,-1
0 5 m 1,12,-1
 0 6 l 1,13,-1
 1 6 l 1,14,-1
 1 7 l 1,15,-1
 4 7 l 1,16,-1
 4 6 l 1,17,-1
 5 6 l 1,18,-1
 5 7 l 1,19,-1
 7 7 l 1,20,-1
 7 6 l 1,21,-1
 6 6 l 1,22,-1
 6 5 l 1,23,-1
 3 5 l 1,24,-1
 3 6 l 1,25,-1
 2 6 l 1,26,-1
 2 5 l 1,27,-1
 0 5 l 1,12,-1
EndSplineSet
Validated: 1
EndChar

StartChar: Umacron
Encoding: 362 362 331
Width: 8
GlyphClass: 2
Flags: W
LayerCount: 2
Fore
SplineSet
0 1 m 1,0,-1
 0 5 l 1,1,-1
 2 5 l 1,2,-1
 2 1 l 1,3,-1
 4 1 l 1,4,-1
 4 5 l 1,5,-1
 6 5 l 1,6,-1
 6 1 l 1,7,-1
 5 1 l 1,8,-1
 5 0 l 1,9,-1
 1 0 l 1,10,-1
 1 1 l 1,11,-1
 0 1 l 1,0,-1
0 6 m 1,12,-1
 0 7 l 1,13,-1
 6 7 l 1,14,-1
 6 6 l 1,15,-1
 0 6 l 1,12,-1
EndSplineSet
Validated: 1
EndChar

StartChar: umacron
Encoding: 363 363 332
Width: 8
GlyphClass: 2
Flags: W
LayerCount: 2
Fore
SplineSet
0 1 m 1,0,-1
 0 4 l 1,1,-1
 2 4 l 1,2,-1
 2 1 l 1,3,-1
 4 1 l 1,4,-1
 4 4 l 1,5,-1
 6 4 l 1,6,-1
 6 1 l 1,7,-1
 7 1 l 1,8,-1
 7 0 l 1,9,-1
 1 0 l 1,10,-1
 1 1 l 1,11,-1
 0 1 l 1,0,-1
0 5 m 1,12,-1
 0 6 l 1,13,-1
 6 6 l 1,14,-1
 6 5 l 1,15,-1
 0 5 l 1,12,-1
EndSplineSet
Validated: 1
EndChar

StartChar: Ubreve
Encoding: 364 364 333
Width: 8
GlyphClass: 2
Flags: W
LayerCount: 2
Fore
SplineSet
0 1 m 1,0,-1
 0 4 l 1,1,-1
 2 4 l 1,2,-1
 2 1 l 1,3,-1
 4 1 l 1,4,-1
 4 4 l 1,5,-1
 6 4 l 1,6,-1
 6 1 l 1,7,-1
 5 1 l 1,8,-1
 5 0 l 1,9,-1
 1 0 l 1,10,-1
 1 1 l 1,11,-1
 0 1 l 1,0,-1
0 6 m 1,12,-1
 0 7 l 1,13,-1
 2 7 l 1,14,-1
 2 6 l 1,15,-1
 4 6 l 1,16,-1
 4 7 l 1,17,-1
 6 7 l 1,18,-1
 6 6 l 1,19,-1
 5 6 l 1,20,-1
 5 5 l 1,21,-1
 1 5 l 1,22,-1
 1 6 l 1,23,-1
 0 6 l 1,12,-1
EndSplineSet
Validated: 1
EndChar

StartChar: ubreve
Encoding: 365 365 334
Width: 8
GlyphClass: 2
Flags: W
LayerCount: 2
Fore
SplineSet
0 1 m 1,0,-1
 0 4 l 1,1,-1
 2 4 l 1,2,-1
 2 1 l 1,3,-1
 4 1 l 1,4,-1
 4 4 l 1,5,-1
 6 4 l 1,6,-1
 6 1 l 1,7,-1
 7 1 l 1,8,-1
 7 0 l 1,9,-1
 1 0 l 1,10,-1
 1 1 l 1,11,-1
 0 1 l 1,0,-1
0 6 m 1,12,-1
 0 7 l 1,13,-1
 2 7 l 1,14,-1
 2 6 l 1,15,-1
 4 6 l 1,16,-1
 4 7 l 1,17,-1
 6 7 l 1,18,-1
 6 6 l 1,19,-1
 5 6 l 1,20,-1
 5 5 l 1,21,-1
 1 5 l 1,22,-1
 1 6 l 1,23,-1
 0 6 l 1,12,-1
EndSplineSet
Validated: 1
EndChar

StartChar: Uring
Encoding: 366 366 335
Width: 8
GlyphClass: 2
Flags: W
LayerCount: 2
Fore
SplineSet
0 1 m 1,0,-1
 0 5 l 1,1,-1
 2 5 l 1,2,-1
 2 1 l 1,3,-1
 4 1 l 1,4,-1
 4 5 l 1,5,-1
 6 5 l 1,6,-1
 6 1 l 1,7,-1
 5 1 l 1,8,-1
 5 0 l 1,9,-1
 1 0 l 1,10,-1
 1 1 l 1,11,-1
 0 1 l 1,0,-1
2 6 m 1,12,-1
 2 7 l 1,13,-1
 4 7 l 1,14,-1
 4 6 l 1,15,-1
 2 6 l 1,12,-1
EndSplineSet
Validated: 1
EndChar

StartChar: uring
Encoding: 367 367 336
Width: 8
GlyphClass: 2
Flags: W
LayerCount: 2
Fore
SplineSet
0 1 m 1,0,-1
 0 4 l 1,1,-1
 2 4 l 1,2,-1
 2 1 l 1,3,-1
 4 1 l 1,4,-1
 4 4 l 1,5,-1
 6 4 l 1,6,-1
 6 1 l 1,7,-1
 7 1 l 1,8,-1
 7 0 l 1,9,-1
 1 0 l 1,10,-1
 1 1 l 1,11,-1
 0 1 l 1,0,-1
2 5 m 1,12,-1
 2 7 l 1,13,-1
 4 7 l 1,14,-1
 4 5 l 1,15,-1
 2 5 l 1,12,-1
EndSplineSet
Validated: 1
EndChar

StartChar: Uhungarumlaut
Encoding: 368 368 337
Width: 8
GlyphClass: 2
Flags: W
LayerCount: 2
Fore
SplineSet
0 1 m 1,0,-1
 0 5 l 1,1,-1
 2 5 l 1,2,-1
 2 1 l 1,3,-1
 4 1 l 1,4,-1
 4 5 l 1,5,-1
 6 5 l 1,6,-1
 6 1 l 1,7,-1
 5 1 l 1,8,-1
 5 0 l 1,9,-1
 1 0 l 1,10,-1
 1 1 l 1,11,-1
 0 1 l 1,0,-1
2 6 m 1,12,-1
 2 7 l 1,13,-1
 4 7 l 1,14,-1
 4 6 l 1,15,-1
 2 6 l 1,12,-1
5 6 m 1,16,-1
 5 7 l 1,17,-1
 7 7 l 1,18,-1
 7 6 l 1,19,-1
 5 6 l 1,16,-1
EndSplineSet
Validated: 1
EndChar

StartChar: uhungarumlaut
Encoding: 369 369 338
Width: 8
GlyphClass: 2
Flags: W
LayerCount: 2
Fore
SplineSet
0 1 m 1,0,-1
 0 4 l 1,1,-1
 2 4 l 1,2,-1
 2 1 l 1,3,-1
 4 1 l 1,4,-1
 4 4 l 1,5,-1
 6 4 l 1,6,-1
 6 1 l 1,7,-1
 7 1 l 1,8,-1
 7 0 l 1,9,-1
 1 0 l 1,10,-1
 1 1 l 1,11,-1
 0 1 l 1,0,-1
2 5 m 1,12,-1
 2 6 l 1,13,-1
 4 6 l 1,14,-1
 4 5 l 1,15,-1
 2 5 l 1,12,-1
5 5 m 1,16,-1
 5 6 l 1,17,-1
 7 6 l 1,18,-1
 7 5 l 1,19,-1
 5 5 l 1,16,-1
EndSplineSet
Validated: 1
EndChar

StartChar: Uogonek
Encoding: 370 370 339
Width: 8
GlyphClass: 2
Flags: W
LayerCount: 2
Fore
SplineSet
0 1 m 1,0,-1
 0 7 l 1,1,-1
 2 7 l 1,2,-1
 2 1 l 1,3,-1
 4 1 l 1,4,-1
 4 7 l 1,5,-1
 6 7 l 1,6,-1
 6 1 l 1,7,-1
 5 1 l 1,8,-1
 5 0 l 1,9,-1
 7 0 l 1,10,-1
 7 -1 l 1,11,-1
 4 -1 l 1,12,-1
 4 0 l 1,13,-1
 1 0 l 1,14,-1
 1 1 l 1,15,-1
 0 1 l 1,0,-1
EndSplineSet
Validated: 1
EndChar

StartChar: uogonek
Encoding: 371 371 340
Width: 8
GlyphClass: 2
Flags: W
LayerCount: 2
Fore
SplineSet
0 1 m 1,0,-1
 0 5 l 1,1,-1
 2 5 l 1,2,-1
 2 1 l 1,3,-1
 4 1 l 1,4,-1
 4 5 l 1,5,-1
 6 5 l 1,6,-1
 6 0 l 1,7,-1
 7 0 l 1,8,-1
 7 -1 l 1,9,-1
 4 -1 l 1,10,-1
 4 0 l 1,11,-1
 1 0 l 1,12,-1
 1 1 l 1,13,-1
 0 1 l 1,0,-1
EndSplineSet
Validated: 1
EndChar

StartChar: Wcircumflex
Encoding: 372 372 341
Width: 8
GlyphClass: 2
Flags: W
LayerCount: 2
Fore
SplineSet
0 0 m 1,0,-1
 0 4 l 1,1,-1
 2 4 l 1,2,-1
 2 3 l 1,3,-1
 3 3 l 1,4,-1
 3 4 l 1,5,-1
 4 4 l 1,6,-1
 4 3 l 1,7,-1
 5 3 l 1,8,-1
 5 4 l 1,9,-1
 7 4 l 1,10,-1
 7 0 l 1,11,-1
 5 0 l 1,12,-1
 5 1 l 1,13,-1
 4 1 l 1,14,-1
 4 2 l 1,15,-1
 3 2 l 1,16,-1
 3 1 l 1,17,-1
 2 1 l 1,18,-1
 2 0 l 1,19,-1
 0 0 l 1,0,-1
2 6 m 1,20,-1
 2 7 l 1,21,-1
 5 7 l 1,22,-1
 5 6 l 1,23,-1
 6 6 l 1,24,-1
 6 5 l 1,25,-1
 4 5 l 1,26,-1
 4 6 l 1,27,-1
 3 6 l 1,28,-1
 3 5 l 1,29,-1
 1 5 l 1,30,-1
 1 6 l 1,31,-1
 2 6 l 1,20,-1
EndSplineSet
Validated: 1
EndChar

StartChar: wcircumflex
Encoding: 373 373 342
Width: 8
GlyphClass: 2
Flags: W
LayerCount: 2
Fore
SplineSet
0 1 m 1,0,-1
 0 4 l 1,1,-1
 2 4 l 1,2,-1
 2 2 l 1,3,-1
 3 2 l 1,4,-1
 3 3 l 1,5,-1
 4 3 l 1,6,-1
 4 2 l 1,7,-1
 5 2 l 1,8,-1
 5 4 l 1,9,-1
 7 4 l 1,10,-1
 7 1 l 1,11,-1
 6 1 l 1,12,-1
 6 0 l 1,13,-1
 4 0 l 1,14,-1
 4 1 l 1,15,-1
 3 1 l 1,16,-1
 3 0 l 1,17,-1
 1 0 l 1,18,-1
 1 1 l 1,19,-1
 0 1 l 1,0,-1
2 6 m 1,20,-1
 2 7 l 1,21,-1
 5 7 l 1,22,-1
 5 6 l 1,23,-1
 6 6 l 1,24,-1
 6 5 l 1,25,-1
 4 5 l 1,26,-1
 4 6 l 1,27,-1
 3 6 l 1,28,-1
 3 5 l 1,29,-1
 1 5 l 1,30,-1
 1 6 l 1,31,-1
 2 6 l 1,20,-1
EndSplineSet
Validated: 1
EndChar

StartChar: Ycircumflex
Encoding: 374 374 343
Width: 8
GlyphClass: 2
Flags: W
LayerCount: 2
Fore
SplineSet
0 5 m 1,0,-1
 0 6 l 1,1,-1
 1 6 l 1,2,-1
 1 7 l 1,3,-1
 5 7 l 1,4,-1
 5 6 l 1,5,-1
 6 6 l 1,6,-1
 6 5 l 1,7,-1
 4 5 l 1,8,-1
 4 6 l 1,9,-1
 2 6 l 1,10,-1
 2 5 l 1,11,-1
 0 5 l 1,0,-1
0 3 m 1,12,-1
 0 4 l 1,13,-1
 2 4 l 1,14,-1
 2 3 l 1,15,-1
 4 3 l 1,16,-1
 4 4 l 1,17,-1
 6 4 l 1,18,-1
 6 3 l 1,19,-1
 5 3 l 1,20,-1
 5 2 l 1,21,-1
 4 2 l 1,22,-1
 4 1 l 1,23,-1
 5 1 l 1,24,-1
 5 0 l 1,25,-1
 1 0 l 1,26,-1
 1 1 l 1,27,-1
 2 1 l 1,28,-1
 2 2 l 1,29,-1
 1 2 l 1,30,-1
 1 3 l 1,31,-1
 0 3 l 1,12,-1
EndSplineSet
Validated: 1
EndChar

StartChar: ycircumflex
Encoding: 375 375 344
Width: 8
GlyphClass: 2
Flags: W
LayerCount: 2
Fore
SplineSet
0 2 m 1,0,-1
 0 4 l 1,1,-1
 2 4 l 1,2,-1
 2 2 l 1,3,-1
 4 2 l 1,4,-1
 4 4 l 1,5,-1
 6 4 l 1,6,-1
 6 0 l 1,7,-1
 5 0 l 1,8,-1
 5 -1 l 1,9,-1
 1 -1 l 1,10,-1
 1 0 l 1,11,-1
 4 0 l 1,12,-1
 4 1 l 1,13,-1
 1 1 l 1,14,-1
 1 2 l 1,15,-1
 0 2 l 1,0,-1
0 5 m 1,16,-1
 0 6 l 1,17,-1
 1 6 l 1,18,-1
 1 7 l 1,19,-1
 5 7 l 1,20,-1
 5 6 l 1,21,-1
 6 6 l 1,22,-1
 6 5 l 1,23,-1
 4 5 l 1,24,-1
 4 6 l 1,25,-1
 2 6 l 1,26,-1
 2 5 l 1,27,-1
 0 5 l 1,16,-1
EndSplineSet
Validated: 1
EndChar

StartChar: Ydieresis
Encoding: 376 376 345
Width: 8
GlyphClass: 2
Flags: W
LayerCount: 2
Fore
SplineSet
0 5 m 1,0,-1
 2 5 l 1,1,-1
 2 3 l 1,2,-1
 4 3 l 1,3,-1
 4 5 l 1,4,-1
 6 5 l 1,5,-1
 6 3 l 1,6,-1
 5 3 l 1,7,-1
 5 2 l 1,8,-1
 4 2 l 1,9,-1
 4 1 l 1,10,-1
 5 1 l 1,11,-1
 5 0 l 1,12,-1
 1 0 l 1,13,-1
 1 1 l 1,14,-1
 2 1 l 1,15,-1
 2 2 l 1,16,-1
 1 2 l 1,17,-1
 1 3 l 1,18,-1
 0 3 l 1,19,-1
 0 5 l 1,0,-1
0 6 m 1,20,-1
 0 7 l 1,21,-1
 2 7 l 1,22,-1
 2 6 l 1,23,-1
 0 6 l 1,20,-1
4 6 m 1,24,-1
 4 7 l 1,25,-1
 6 7 l 1,26,-1
 6 6 l 1,27,-1
 4 6 l 1,24,-1
EndSplineSet
Validated: 1
EndChar

StartChar: Zacute
Encoding: 377 377 346
Width: 8
GlyphClass: 2
Flags: W
LayerCount: 2
Fore
SplineSet
0 0 m 1,0,-1
 0 1 l 1,1,-1
 1 1 l 1,2,-1
 1 2 l 1,3,-1
 2 2 l 1,4,-1
 2 3 l 1,5,-1
 3 3 l 1,6,-1
 3 4 l 1,7,-1
 4 4 l 1,8,-1
 4 5 l 1,9,-1
 2 5 l 1,10,-1
 2 4 l 1,11,-1
 1 4 l 1,12,-1
 1 3 l 1,13,-1
 0 3 l 1,14,-1
 0 6 l 1,15,-1
 6 6 l 1,16,-1
 6 7 l 1,17,-1
 8 7 l 1,18,-1
 8 6 l 1,19,-1
 7 6 l 1,20,-1
 7 5 l 1,21,-1
 6 5 l 1,22,-1
 6 4 l 1,23,-1
 5 4 l 1,24,-1
 5 3 l 1,25,-1
 4 3 l 1,26,-1
 4 2 l 1,27,-1
 3 2 l 1,28,-1
 3 1 l 1,29,-1
 5 1 l 1,30,-1
 5 2 l 1,31,-1
 6 2 l 1,32,-1
 6 3 l 1,33,-1
 7 3 l 1,34,-1
 7 0 l 1,35,-1
 0 0 l 1,0,-1
EndSplineSet
Validated: 1
EndChar

StartChar: zacute
Encoding: 378 378 347
Width: 8
GlyphClass: 2
Flags: W
LayerCount: 2
Fore
SplineSet
0 0 m 1,0,-1
 0 1 l 1,1,-1
 1 1 l 1,2,-1
 1 2 l 1,3,-1
 2 2 l 1,4,-1
 2 3 l 1,5,-1
 3 3 l 1,6,-1
 3 4 l 1,7,-1
 1 4 l 1,8,-1
 1 3 l 1,9,-1
 0 3 l 1,10,-1
 0 5 l 1,11,-1
 6 5 l 1,12,-1
 6 4 l 1,13,-1
 5 4 l 1,14,-1
 5 3 l 1,15,-1
 4 3 l 1,16,-1
 4 2 l 1,17,-1
 3 2 l 1,18,-1
 3 1 l 1,19,-1
 5 1 l 1,20,-1
 5 2 l 1,21,-1
 6 2 l 1,22,-1
 6 0 l 1,23,-1
 0 0 l 1,0,-1
6 7 m 1,24,-1
 6 6 l 1,25,-1
 3 6 l 1,26,-1
 3 7 l 1,27,-1
 6 7 l 1,24,-1
EndSplineSet
Validated: 1
EndChar

StartChar: Zdotaccent
Encoding: 379 379 348
Width: 8
GlyphClass: 2
Flags: W
LayerCount: 2
Fore
SplineSet
0 0 m 1,0,-1
 0 1 l 1,1,-1
 1 1 l 1,2,-1
 1 2 l 1,3,-1
 2 2 l 1,4,-1
 2 3 l 1,5,-1
 3 3 l 1,6,-1
 3 4 l 1,7,-1
 4 4 l 1,8,-1
 4 5 l 1,9,-1
 2 5 l 1,10,-1
 2 4 l 1,11,-1
 1 4 l 1,12,-1
 1 3 l 1,13,-1
 0 3 l 1,14,-1
 0 6 l 1,15,-1
 2 6 l 1,16,-1
 2 7 l 1,17,-1
 4 7 l 1,18,-1
 4 6 l 1,19,-1
 7 6 l 1,20,-1
 7 5 l 1,21,-1
 6 5 l 1,22,-1
 6 4 l 1,23,-1
 5 4 l 1,24,-1
 5 3 l 1,25,-1
 4 3 l 1,26,-1
 4 2 l 1,27,-1
 3 2 l 1,28,-1
 3 1 l 1,29,-1
 5 1 l 1,30,-1
 5 2 l 1,31,-1
 6 2 l 1,32,-1
 6 3 l 1,33,-1
 7 3 l 1,34,-1
 7 0 l 1,35,-1
 0 0 l 1,0,-1
EndSplineSet
Validated: 1
EndChar

StartChar: zdotaccent
Encoding: 380 380 349
Width: 8
GlyphClass: 2
Flags: W
LayerCount: 2
Fore
SplineSet
0 0 m 1,0,-1
 0 1 l 1,1,-1
 1 1 l 1,2,-1
 1 2 l 1,3,-1
 2 2 l 1,4,-1
 2 3 l 1,5,-1
 3 3 l 1,6,-1
 3 4 l 1,7,-1
 1 4 l 1,8,-1
 1 3 l 1,9,-1
 0 3 l 1,10,-1
 0 5 l 1,11,-1
 6 5 l 1,12,-1
 6 4 l 1,13,-1
 5 4 l 1,14,-1
 5 3 l 1,15,-1
 4 3 l 1,16,-1
 4 2 l 1,17,-1
 3 2 l 1,18,-1
 3 1 l 1,19,-1
 5 1 l 1,20,-1
 5 2 l 1,21,-1
 6 2 l 1,22,-1
 6 0 l 1,23,-1
 0 0 l 1,0,-1
2 6 m 1,24,-1
 2 7 l 1,25,-1
 4 7 l 1,26,-1
 4 6 l 1,27,-1
 2 6 l 1,24,-1
EndSplineSet
Validated: 1
EndChar

StartChar: Zcaron
Encoding: 381 381 350
Width: 8
GlyphClass: 2
Flags: W
LayerCount: 2
Fore
SplineSet
0 6 m 1,0,-1
 0 7 l 1,1,-1
 2 7 l 1,2,-1
 2 6 l 1,3,-1
 6 6 l 1,4,-1
 6 7 l 1,5,-1
 8 7 l 1,6,-1
 8 6 l 1,7,-1
 7 6 l 1,8,-1
 7 4 l 1,9,-1
 6 4 l 1,10,-1
 6 3 l 1,11,-1
 5 3 l 1,12,-1
 5 2 l 1,13,-1
 4 2 l 1,14,-1
 4 1 l 1,15,-1
 6 1 l 1,16,-1
 6 2 l 1,17,-1
 7 2 l 1,18,-1
 7 0 l 1,19,-1
 1 0 l 1,20,-1
 1 1 l 1,21,-1
 2 1 l 1,22,-1
 2 2 l 1,23,-1
 3 2 l 1,24,-1
 3 3 l 1,25,-1
 4 3 l 1,26,-1
 4 4 l 1,27,-1
 5 4 l 1,28,-1
 5 5 l 1,29,-1
 3 5 l 1,30,-1
 3 4 l 1,31,-1
 2 4 l 1,32,-1
 2 3 l 1,33,-1
 1 3 l 1,34,-1
 1 6 l 1,35,-1
 0 6 l 1,0,-1
EndSplineSet
Validated: 1
EndChar

StartChar: zcaron
Encoding: 382 382 351
Width: 8
GlyphClass: 2
Flags: W
LayerCount: 2
Fore
SplineSet
0 0 m 1,0,-1
 0 1 l 1,1,-1
 1 1 l 1,2,-1
 1 2 l 1,3,-1
 2 2 l 1,4,-1
 2 3 l 1,5,-1
 3 3 l 1,6,-1
 3 4 l 1,7,-1
 1 4 l 1,8,-1
 1 3 l 1,9,-1
 0 3 l 1,10,-1
 0 5 l 1,11,-1
 1 5 l 1,12,-1
 1 6 l 1,13,-1
 0 6 l 1,14,-1
 0 7 l 1,15,-1
 2 7 l 1,16,-1
 2 6 l 1,17,-1
 4 6 l 1,18,-1
 4 7 l 1,19,-1
 6 7 l 1,20,-1
 6 6 l 1,21,-1
 5 6 l 1,22,-1
 5 5 l 1,23,-1
 6 5 l 1,24,-1
 6 4 l 1,25,-1
 5 4 l 1,26,-1
 5 3 l 1,27,-1
 4 3 l 1,28,-1
 4 2 l 1,29,-1
 3 2 l 1,30,-1
 3 1 l 1,31,-1
 5 1 l 1,32,-1
 5 2 l 1,33,-1
 6 2 l 1,34,-1
 6 0 l 1,35,-1
 0 0 l 1,0,-1
EndSplineSet
Validated: 1
EndChar

StartChar: longs
Encoding: 383 383 352
Width: 8
GlyphClass: 2
Flags: W
LayerCount: 2
Fore
SplineSet
0 0 m 1,0,-1
 0 1 l 1,1,-1
 1 1 l 1,2,-1
 1 6 l 1,3,-1
 2 6 l 1,4,-1
 2 7 l 1,5,-1
 5 7 l 1,6,-1
 5 6 l 1,7,-1
 6 6 l 1,8,-1
 6 5 l 1,9,-1
 4 5 l 1,10,-1
 4 6 l 1,11,-1
 3 6 l 1,12,-1
 3 1 l 1,13,-1
 4 1 l 1,14,-1
 4 0 l 1,15,-1
 0 0 l 1,0,-1
EndSplineSet
Validated: 1
EndChar

StartChar: florin
Encoding: 402 402 353
Width: 8
GlyphClass: 2
Flags: W
LayerCount: 2
Fore
SplineSet
0 0 m 1,0,-1
 0 1 l 1,1,-1
 2 1 l 1,2,-1
 2 0 l 1,3,-1
 3 0 l 1,4,-1
 3 3 l 1,5,-1
 2 3 l 1,6,-1
 2 4 l 1,7,-1
 3 4 l 1,8,-1
 3 6 l 1,9,-1
 4 6 l 1,10,-1
 4 7 l 1,11,-1
 7 7 l 1,12,-1
 7 6 l 1,13,-1
 8 6 l 1,14,-1
 8 5 l 1,15,-1
 6 5 l 1,16,-1
 6 6 l 1,17,-1
 5 6 l 1,18,-1
 5 4 l 1,19,-1
 6 4 l 1,20,-1
 6 3 l 1,21,-1
 5 3 l 1,22,-1
 5 0 l 1,23,-1
 4 0 l 1,24,-1
 4 -1 l 1,25,-1
 1 -1 l 1,26,-1
 1 0 l 1,27,-1
 0 0 l 1,0,-1
EndSplineSet
Validated: 1
EndChar

StartChar: ohorn
Encoding: 417 417 354
Width: 8
GlyphClass: 2
Flags: W
LayerCount: 2
Fore
SplineSet
0 1 m 1,0,-1
 0 4 l 1,1,-1
 1 4 l 1,2,-1
 1 5 l 1,3,-1
 7 5 l 1,4,-1
 7 4 l 1,5,-1
 5 4 l 1,6,-1
 5 1 l 1,7,-1
 4 1 l 1,8,-1
 4 0 l 1,9,-1
 1 0 l 1,10,-1
 1 1 l 1,11,-1
 0 1 l 1,0,-1
2 1 m 1,12,-1
 3 1 l 1,13,-1
 3 4 l 1,14,-1
 2 4 l 1,15,-1
 2 1 l 1,12,-1
EndSplineSet
Validated: 1
EndChar

StartChar: uni01B7
Encoding: 439 439 355
Width: 8
GlyphClass: 2
Flags: W
LayerCount: 2
Fore
SplineSet
0 1 m 1,0,-1
 0 2 l 1,1,-1
 2 2 l 1,2,-1
 2 1 l 1,3,-1
 4 1 l 1,4,-1
 4 3 l 1,5,-1
 2 3 l 1,6,-1
 2 4 l 1,7,-1
 3 4 l 1,8,-1
 3 5 l 1,9,-1
 4 5 l 1,10,-1
 4 6 l 1,11,-1
 2 6 l 1,12,-1
 2 5 l 1,13,-1
 0 5 l 1,14,-1
 0 7 l 1,15,-1
 6 7 l 1,16,-1
 6 5 l 1,17,-1
 5 5 l 1,18,-1
 5 3 l 1,19,-1
 6 3 l 1,20,-1
 6 1 l 1,21,-1
 5 1 l 1,22,-1
 5 0 l 1,23,-1
 1 0 l 1,24,-1
 1 1 l 1,25,-1
 0 1 l 1,0,-1
EndSplineSet
Validated: 1
EndChar

StartChar: Aringacute
Encoding: 506 506 356
Width: 8
GlyphClass: 2
Flags: W
LayerCount: 2
Fore
SplineSet
0 0 m 1,0,-1
 0 3 l 1,1,-1
 1 3 l 1,2,-1
 1 4 l 1,3,-1
 5 4 l 1,4,-1
 5 3 l 1,5,-1
 6 3 l 1,6,-1
 6 0 l 1,7,-1
 4 0 l 1,8,-1
 4 1 l 1,9,-1
 2 1 l 1,10,-1
 2 0 l 1,11,-1
 0 0 l 1,0,-1
2 2 m 1,12,-1
 4 2 l 1,13,-1
 4 3 l 1,14,-1
 2 3 l 1,15,-1
 2 2 l 1,12,-1
2 5 m 1,16,-1
 2 7 l 1,17,-1
 6 7 l 1,18,-1
 6 6 l 1,19,-1
 4 6 l 1,20,-1
 4 5 l 1,21,-1
 2 5 l 1,16,-1
EndSplineSet
Validated: 1
EndChar

StartChar: aringacute
Encoding: 507 507 357
Width: 8
GlyphClass: 2
Flags: W
LayerCount: 2
Fore
SplineSet
0 1 m 1,0,-1
 0 2 l 1,1,-1
 1 2 l 1,2,-1
 1 3 l 1,3,-1
 4 3 l 1,4,-1
 4 4 l 1,5,-1
 1 4 l 1,6,-1
 1 5 l 1,7,-1
 2 5 l 1,8,-1
 2 7 l 1,9,-1
 6 7 l 1,10,-1
 6 6 l 1,11,-1
 4 6 l 1,12,-1
 4 5 l 1,13,-1
 5 5 l 1,14,-1
 5 4 l 1,15,-1
 6 4 l 1,16,-1
 6 1 l 1,17,-1
 7 1 l 1,18,-1
 7 0 l 1,19,-1
 1 0 l 1,20,-1
 1 1 l 1,21,-1
 0 1 l 1,0,-1
2 2 m 1,22,-1
 2 1 l 1,23,-1
 4 1 l 1,24,-1
 4 2 l 1,25,-1
 2 2 l 1,22,-1
EndSplineSet
Validated: 1
EndChar

StartChar: AEacute
Encoding: 508 508 358
Width: 8
GlyphClass: 2
Flags: W
LayerCount: 2
Fore
SplineSet
0 0 m 1,0,-1
 0 3 l 1,1,-1
 1 3 l 1,2,-1
 1 4 l 1,3,-1
 2 4 l 1,4,-1
 2 5 l 1,5,-1
 7 5 l 1,6,-1
 7 4 l 1,7,-1
 6 4 l 1,8,-1
 6 3 l 1,9,-1
 7 3 l 1,10,-1
 7 2 l 1,11,-1
 6 2 l 1,12,-1
 6 1 l 1,13,-1
 7 1 l 1,14,-1
 7 0 l 1,15,-1
 4 0 l 1,16,-1
 4 2 l 1,17,-1
 2 2 l 1,18,-1
 2 0 l 1,19,-1
 0 0 l 1,0,-1
4 4 m 1,20,-1
 3 4 l 1,21,-1
 3 3 l 1,22,-1
 4 3 l 1,23,-1
 4 4 l 1,20,-1
4 6 m 1,24,-1
 4 7 l 1,25,-1
 7 7 l 1,26,-1
 7 6 l 1,27,-1
 4 6 l 1,24,-1
EndSplineSet
Validated: 1
EndChar

StartChar: aeacute
Encoding: 509 509 359
Width: 8
GlyphClass: 2
Flags: W
LayerCount: 2
Fore
SplineSet
0 1 m 1,0,-1
 0 2 l 1,1,-1
 1 2 l 1,2,-1
 1 3 l 1,3,-1
 4 3 l 1,4,-1
 4 4 l 1,5,-1
 1 4 l 1,6,-1
 1 5 l 1,7,-1
 8 5 l 1,8,-1
 8 4 l 1,9,-1
 6 4 l 1,10,-1
 6 3 l 1,11,-1
 8 3 l 1,12,-1
 8 2 l 1,13,-1
 6 2 l 1,14,-1
 6 1 l 1,15,-1
 8 1 l 1,16,-1
 8 0 l 1,17,-1
 1 0 l 1,18,-1
 1 1 l 1,19,-1
 0 1 l 1,0,-1
2 2 m 1,20,-1
 2 1 l 1,21,-1
 4 1 l 1,22,-1
 4 2 l 1,23,-1
 2 2 l 1,20,-1
4 6 m 1,24,-1
 4 7 l 1,25,-1
 7 7 l 1,26,-1
 7 6 l 1,27,-1
 4 6 l 1,24,-1
EndSplineSet
Validated: 1
EndChar

StartChar: Oslashacute
Encoding: 510 510 360
Width: 8
GlyphClass: 2
Flags: W
LayerCount: 2
Fore
SplineSet
0 0 m 1,0,-1
 0 1 l 1,1,-1
 1 1 l 1,2,-1
 1 0 l 1,3,-1
 0 0 l 1,0,-1
0 2 m 1,4,-1
 0 4 l 1,5,-1
 1 4 l 1,6,-1
 1 5 l 1,7,-1
 2 5 l 1,8,-1
 2 6 l 1,9,-1
 5 6 l 1,10,-1
 5 5 l 1,11,-1
 6 5 l 1,12,-1
 6 4 l 1,13,-1
 7 4 l 1,14,-1
 7 2 l 1,15,-1
 6 2 l 1,16,-1
 6 1 l 1,17,-1
 5 1 l 1,18,-1
 5 0 l 1,19,-1
 2 0 l 1,20,-1
 2 1 l 1,21,-1
 1 1 l 1,22,-1
 1 2 l 1,23,-1
 0 2 l 1,4,-1
2 2 m 1,24,-1
 3 2 l 1,25,-1
 3 1 l 1,26,-1
 4 1 l 1,27,-1
 4 2 l 1,28,-1
 5 2 l 1,29,-1
 5 4 l 1,30,-1
 4 4 l 1,31,-1
 4 5 l 1,32,-1
 3 5 l 1,33,-1
 3 4 l 1,34,-1
 2 4 l 1,35,-1
 2 2 l 1,24,-1
4 2 m 1,36,-1
 3 2 l 1,37,-1
 3 4 l 1,38,-1
 4 4 l 1,39,-1
 4 2 l 1,36,-1
6 5 m 1,40,-1
 6 6 l 1,41,-1
 5 6 l 1,42,-1
 5 7 l 1,43,-1
 8 7 l 1,44,-1
 8 6 l 1,45,-1
 7 6 l 1,46,-1
 7 5 l 1,47,-1
 6 5 l 1,40,-1
EndSplineSet
Validated: 5
EndChar

StartChar: oslashacute
Encoding: 511 511 361
Width: 8
GlyphClass: 2
Flags: W
LayerCount: 2
Fore
SplineSet
0 -1 m 1,0,-1
 0 0 l 1,1,-1
 1 0 l 1,2,-1
 1 -1 l 1,3,-1
 0 -1 l 1,0,-1
0 1 m 1,4,-1
 0 4 l 1,5,-1
 1 4 l 1,6,-1
 1 5 l 1,7,-1
 6 5 l 1,8,-1
 6 4 l 1,9,-1
 7 4 l 1,10,-1
 7 1 l 1,11,-1
 6 1 l 1,12,-1
 6 0 l 1,13,-1
 1 0 l 1,14,-1
 1 1 l 1,15,-1
 0 1 l 1,4,-1
2 2 m 1,16,-1
 3 2 l 1,17,-1
 3 1 l 1,18,-1
 5 1 l 1,19,-1
 5 3 l 1,20,-1
 4 3 l 1,21,-1
 4 4 l 1,22,-1
 2 4 l 1,23,-1
 2 2 l 1,16,-1
4 2 m 1,24,-1
 3 2 l 1,25,-1
 3 3 l 1,26,-1
 4 3 l 1,27,-1
 4 2 l 1,24,-1
6 5 m 1,28,-1
 6 6 l 1,29,-1
 7 6 l 1,30,-1
 7 5 l 1,31,-1
 6 5 l 1,28,-1
6 7 m 1,32,-1
 6 6 l 1,33,-1
 3 6 l 1,34,-1
 3 7 l 1,35,-1
 6 7 l 1,32,-1
EndSplineSet
Validated: 5
EndChar

StartChar: Scommaaccent
Encoding: 536 536 362
Width: 8
GlyphClass: 2
Flags: W
LayerCount: 2
Fore
SplineSet
0 1 m 1,0,-1
 0 2 l 1,1,-1
 2 2 l 1,2,-1
 2 1 l 1,3,-1
 4 1 l 1,4,-1
 4 2 l 1,5,-1
 3 2 l 1,6,-1
 3 3 l 1,7,-1
 1 3 l 1,8,-1
 1 4 l 1,9,-1
 0 4 l 1,10,-1
 0 6 l 1,11,-1
 1 6 l 1,12,-1
 1 7 l 1,13,-1
 5 7 l 1,14,-1
 5 6 l 1,15,-1
 6 6 l 1,16,-1
 6 5 l 1,17,-1
 4 5 l 1,18,-1
 4 6 l 1,19,-1
 2 6 l 1,20,-1
 2 5 l 1,21,-1
 3 5 l 1,22,-1
 3 4 l 1,23,-1
 4 4 l 1,24,-1
 4 3 l 1,25,-1
 6 3 l 1,26,-1
 6 1 l 1,27,-1
 5 1 l 1,28,-1
 5 0 l 1,29,-1
 4 0 l 1,30,-1
 4 -1 l 1,31,-1
 2 -1 l 1,32,-1
 2 0 l 1,33,-1
 1 0 l 1,34,-1
 1 1 l 1,35,-1
 0 1 l 1,0,-1
EndSplineSet
Validated: 1
EndChar

StartChar: scommaaccent
Encoding: 537 537 363
Width: 8
GlyphClass: 2
Flags: W
LayerCount: 2
Fore
SplineSet
0 0 m 1,0,-1
 0 1 l 1,1,-1
 4 1 l 1,2,-1
 4 2 l 1,3,-1
 1 2 l 1,4,-1
 1 3 l 1,5,-1
 0 3 l 1,6,-1
 0 4 l 1,7,-1
 1 4 l 1,8,-1
 1 5 l 1,9,-1
 6 5 l 1,10,-1
 6 4 l 1,11,-1
 2 4 l 1,12,-1
 2 3 l 1,13,-1
 5 3 l 1,14,-1
 5 2 l 1,15,-1
 6 2 l 1,16,-1
 6 1 l 1,17,-1
 5 1 l 1,18,-1
 5 0 l 1,19,-1
 4 0 l 1,20,-1
 4 -1 l 1,21,-1
 2 -1 l 1,22,-1
 2 0 l 1,23,-1
 0 0 l 1,0,-1
EndSplineSet
Validated: 1
EndChar

StartChar: uni021A
Encoding: 538 538 364
Width: 8
GlyphClass: 2
Flags: W
LayerCount: 2
Fore
SplineSet
0 5 m 1,0,-1
 0 7 l 1,1,-1
 6 7 l 1,2,-1
 6 5 l 1,3,-1
 5 5 l 1,4,-1
 5 6 l 1,5,-1
 4 6 l 1,6,-1
 4 1 l 1,7,-1
 5 1 l 1,8,-1
 5 0 l 1,9,-1
 4 0 l 1,10,-1
 4 -1 l 1,11,-1
 2 -1 l 1,12,-1
 2 0 l 1,13,-1
 1 0 l 1,14,-1
 1 1 l 1,15,-1
 2 1 l 1,16,-1
 2 6 l 1,17,-1
 1 6 l 1,18,-1
 1 5 l 1,19,-1
 0 5 l 1,0,-1
EndSplineSet
Validated: 1
EndChar

StartChar: uni021B
Encoding: 539 539 365
Width: 8
GlyphClass: 2
Flags: W
LayerCount: 2
Fore
SplineSet
2 -1 m 1,0,-1
 2 0 l 1,1,-1
 3 0 l 1,2,-1
 3 1 l 1,3,-1
 2 1 l 1,4,-1
 2 4 l 1,5,-1
 1 4 l 1,6,-1
 1 5 l 1,7,-1
 2 5 l 1,8,-1
 2 6 l 1,9,-1
 3 6 l 1,10,-1
 3 7 l 1,11,-1
 4 7 l 1,12,-1
 4 5 l 1,13,-1
 6 5 l 1,14,-1
 6 4 l 1,15,-1
 4 4 l 1,16,-1
 4 1 l 1,17,-1
 5 1 l 1,18,-1
 5 0 l 1,19,-1
 4 0 l 1,20,-1
 4 -1 l 1,21,-1
 2 -1 l 1,0,-1
6 2 m 1,22,-1
 6 1 l 1,23,-1
 5 1 l 1,24,-1
 5 2 l 1,25,-1
 6 2 l 1,22,-1
EndSplineSet
Validated: 5
EndChar

StartChar: uni0251
Encoding: 593 593 366
Width: 8
GlyphClass: 2
Flags: W
LayerCount: 2
Fore
SplineSet
0 1 m 1,0,-1
 0 4 l 1,1,-1
 1 4 l 1,2,-1
 1 5 l 1,3,-1
 4 5 l 1,4,-1
 4 4 l 1,5,-1
 5 4 l 1,6,-1
 5 5 l 1,7,-1
 7 5 l 1,8,-1
 7 4 l 1,9,-1
 6 4 l 1,10,-1
 6 3 l 1,11,-1
 5 3 l 1,12,-1
 5 2 l 1,13,-1
 6 2 l 1,14,-1
 6 1 l 1,15,-1
 7 1 l 1,16,-1
 7 0 l 1,17,-1
 5 0 l 1,18,-1
 5 1 l 1,19,-1
 4 1 l 1,20,-1
 4 0 l 1,21,-1
 1 0 l 1,22,-1
 1 1 l 1,23,-1
 0 1 l 1,0,-1
2 1 m 1,24,-1
 3 1 l 1,25,-1
 3 2 l 1,26,-1
 4 2 l 1,27,-1
 4 3 l 1,28,-1
 3 3 l 1,29,-1
 3 4 l 1,30,-1
 2 4 l 1,31,-1
 2 1 l 1,24,-1
EndSplineSet
Validated: 1
EndChar

StartChar: uni0278
Encoding: 632 632 367
Width: 8
GlyphClass: 2
Flags: W
LayerCount: 2
Fore
SplineSet
0 -1 m 1,0,-1
 0 0 l 1,1,-1
 2 0 l 1,2,-1
 2 1 l 1,3,-1
 1 1 l 1,4,-1
 1 2 l 1,5,-1
 0 2 l 1,6,-1
 0 4 l 1,7,-1
 1 4 l 1,8,-1
 1 5 l 1,9,-1
 2 5 l 1,10,-1
 2 6 l 1,11,-1
 0 6 l 1,12,-1
 0 7 l 1,13,-1
 6 7 l 1,14,-1
 6 6 l 1,15,-1
 4 6 l 1,16,-1
 4 5 l 1,17,-1
 5 5 l 1,18,-1
 5 4 l 1,19,-1
 6 4 l 1,20,-1
 6 2 l 1,21,-1
 5 2 l 1,22,-1
 5 1 l 1,23,-1
 4 1 l 1,24,-1
 4 0 l 1,25,-1
 6 0 l 1,26,-1
 6 -1 l 1,27,-1
 0 -1 l 1,0,-1
2 2 m 1,28,-1
 4 2 l 1,29,-1
 4 4 l 1,30,-1
 2 4 l 1,31,-1
 2 2 l 1,28,-1
EndSplineSet
Validated: 1
EndChar

StartChar: circumflex
Encoding: 710 710 368
Width: 8
GlyphClass: 2
Flags: W
LayerCount: 2
Fore
SplineSet
1 4 m 1,0,-1
 1 5 l 1,1,-1
 2 5 l 1,2,-1
 2 6 l 1,3,-1
 3 6 l 1,4,-1
 3 7 l 1,5,-1
 4 7 l 1,6,-1
 4 6 l 1,7,-1
 5 6 l 1,8,-1
 5 5 l 1,9,-1
 6 5 l 1,10,-1
 6 4 l 1,11,-1
 4 4 l 1,12,-1
 4 5 l 1,13,-1
 3 5 l 1,14,-1
 3 4 l 1,15,-1
 1 4 l 1,0,-1
EndSplineSet
Validated: 1
EndChar

StartChar: caron
Encoding: 711 711 369
Width: 8
GlyphClass: 2
Flags: W
LayerCount: 2
Fore
SplineSet
4 5 m 1,0,-1
 1 5 l 1,1,-1
 1 6 l 1,2,-1
 0 6 l 1,3,-1
 0 7 l 1,4,-1
 2 7 l 1,5,-1
 2 6 l 1,6,-1
 3 6 l 1,7,-1
 3 7 l 1,8,-1
 5 7 l 1,9,-1
 5 6 l 1,10,-1
 4 6 l 1,11,-1
 4 5 l 1,0,-1
EndSplineSet
Validated: 1
EndChar

StartChar: uni02C9
Encoding: 713 713 370
Width: 8
GlyphClass: 2
Flags: W
LayerCount: 2
Fore
SplineSet
1 6 m 1,0,-1
 1 7 l 1,1,-1
 6 7 l 1,2,-1
 6 6 l 1,3,-1
 1 6 l 1,0,-1
EndSplineSet
Validated: 1
EndChar

StartChar: breve
Encoding: 728 728 371
Width: 8
GlyphClass: 2
Flags: W
LayerCount: 2
Fore
SplineSet
0 6 m 1,0,-1
 0 7 l 1,1,-1
 2 7 l 1,2,-1
 2 6 l 1,3,-1
 5 6 l 1,4,-1
 5 7 l 1,5,-1
 7 7 l 1,6,-1
 7 6 l 1,7,-1
 6 6 l 1,8,-1
 6 5 l 1,9,-1
 1 5 l 1,10,-1
 1 6 l 1,11,-1
 0 6 l 1,0,-1
EndSplineSet
Validated: 1
EndChar

StartChar: dotaccent
Encoding: 729 729 372
Width: 8
GlyphClass: 2
Flags: W
LayerCount: 2
Fore
SplineSet
4 7 m 1,0,-1
 4 6 l 1,1,-1
 2 6 l 1,2,-1
 2 7 l 1,3,-1
 4 7 l 1,0,-1
EndSplineSet
Validated: 1
EndChar

StartChar: ring
Encoding: 730 730 373
Width: 8
GlyphClass: 2
Flags: W
LayerCount: 2
Fore
SplineSet
1 4 m 1,0,-1
 1 6 l 1,1,-1
 2 6 l 1,2,-1
 2 7 l 1,3,-1
 5 7 l 1,4,-1
 5 6 l 1,5,-1
 6 6 l 1,6,-1
 6 4 l 1,7,-1
 5 4 l 1,8,-1
 5 3 l 1,9,-1
 2 3 l 1,10,-1
 2 4 l 1,11,-1
 1 4 l 1,0,-1
3 4 m 1,12,-1
 4 4 l 1,13,-1
 4 6 l 1,14,-1
 3 6 l 1,15,-1
 3 4 l 1,12,-1
EndSplineSet
Validated: 1
EndChar

StartChar: ogonek
Encoding: 731 731 374
Width: 8
GlyphClass: 2
Flags: W
LayerCount: 2
Fore
SplineSet
5 1 m 1,0,-1
 5 0 l 1,1,-1
 6 0 l 1,2,-1
 6 -1 l 1,3,-1
 3 -1 l 1,4,-1
 3 1 l 1,5,-1
 5 1 l 1,0,-1
EndSplineSet
Validated: 1
EndChar

StartChar: tilde
Encoding: 732 732 375
Width: 8
GlyphClass: 2
Flags: W
LayerCount: 2
Fore
SplineSet
0 5 m 1,0,-1
 0 6 l 1,1,-1
 1 6 l 1,2,-1
 1 7 l 1,3,-1
 4 7 l 1,4,-1
 4 6 l 1,5,-1
 5 6 l 1,6,-1
 5 7 l 1,7,-1
 7 7 l 1,8,-1
 7 6 l 1,9,-1
 6 6 l 1,10,-1
 6 5 l 1,11,-1
 3 5 l 1,12,-1
 3 6 l 1,13,-1
 2 6 l 1,14,-1
 2 5 l 1,15,-1
 0 5 l 1,0,-1
EndSplineSet
Validated: 1
EndChar

StartChar: hungarumlaut
Encoding: 733 733 376
Width: 8
GlyphClass: 2
Flags: W
LayerCount: 2
Fore
SplineSet
4 7 m 1,0,-1
 4 6 l 1,1,-1
 2 6 l 1,2,-1
 2 7 l 1,3,-1
 4 7 l 1,0,-1
5 6 m 1,4,-1
 5 7 l 1,5,-1
 7 7 l 1,6,-1
 7 6 l 1,7,-1
 5 6 l 1,4,-1
EndSplineSet
Validated: 1
EndChar

StartChar: uni037E
Encoding: 894 894 377
Width: 8
GlyphClass: 2
Flags: W
LayerCount: 2
Fore
SplineSet
4 1 m 1,0,-1
 3 1 l 1,1,-1
 3 0 l 1,2,-1
 1 0 l 1,3,-1
 1 1 l 1,4,-1
 2 1 l 1,5,-1
 2 3 l 1,6,-1
 4 3 l 1,7,-1
 4 1 l 1,0,-1
4 4 m 1,8,-1
 2 4 l 1,9,-1
 2 6 l 1,10,-1
 4 6 l 1,11,-1
 4 4 l 1,8,-1
EndSplineSet
Validated: 1
EndChar

StartChar: tonos
Encoding: 900 900 378
Width: 8
GlyphClass: 2
Flags: W
LayerCount: 2
Fore
SplineSet
4 5 m 1,0,-1
 3 5 l 1,1,-1
 3 4 l 1,2,-1
 2 4 l 1,3,-1
 2 6 l 1,4,-1
 3 6 l 1,5,-1
 3 7 l 1,6,-1
 5 7 l 1,7,-1
 5 6 l 1,8,-1
 4 6 l 1,9,-1
 4 5 l 1,0,-1
EndSplineSet
Validated: 1
EndChar

StartChar: dieresistonos
Encoding: 901 901 379
Width: 8
GlyphClass: 2
Flags: W
LayerCount: 2
Fore
SplineSet
0 5 m 1,0,-1
 0 6 l 1,1,-1
 2 6 l 1,2,-1
 2 5 l 1,3,-1
 0 5 l 1,0,-1
8 5 m 1,4,-1
 6 5 l 1,5,-1
 6 6 l 1,6,-1
 8 6 l 1,7,-1
 8 5 l 1,4,-1
4 6 m 1,8,-1
 4 7 l 1,9,-1
 5 7 l 1,10,-1
 5 6 l 1,11,-1
 4 6 l 1,8,-1
EndSplineSet
Validated: 1
EndChar

StartChar: Alphatonos
Encoding: 902 902 380
Width: 8
GlyphClass: 2
Flags: W
LayerCount: 2
Fore
SplineSet
0 5 m 1,0,-1
 0 7 l 1,1,-1
 1 7 l 1,2,-1
 1 5 l 1,3,-1
 0 5 l 1,0,-1
1 0 m 1,4,-1
 1 5 l 1,5,-1
 2 5 l 1,6,-1
 2 6 l 1,7,-1
 3 6 l 1,8,-1
 3 7 l 1,9,-1
 5 7 l 1,10,-1
 5 6 l 1,11,-1
 6 6 l 1,12,-1
 6 5 l 1,13,-1
 7 5 l 1,14,-1
 7 0 l 1,15,-1
 5 0 l 1,16,-1
 5 2 l 1,17,-1
 3 2 l 1,18,-1
 3 0 l 1,19,-1
 1 0 l 1,4,-1
3 5 m 1,20,-1
 3 3 l 1,21,-1
 5 3 l 1,22,-1
 5 5 l 1,23,-1
 3 5 l 1,20,-1
EndSplineSet
Validated: 5
EndChar

StartChar: anoteleia
Encoding: 903 903 381
Width: 8
GlyphClass: 2
Flags: W
LayerCount: 2
Fore
SplineSet
5 5 m 1,0,-1
 5 3 l 1,1,-1
 3 3 l 1,2,-1
 3 5 l 1,3,-1
 5 5 l 1,0,-1
EndSplineSet
Validated: 1
EndChar

StartChar: Epsilontonos
Encoding: 904 904 382
Width: 8
GlyphClass: 2
Flags: W
LayerCount: 2
Fore
SplineSet
0 5 m 1,0,-1
 0 7 l 1,1,-1
 1 7 l 1,2,-1
 1 5 l 1,3,-1
 0 5 l 1,0,-1
2 0 m 1,4,-1
 2 7 l 1,5,-1
 7 7 l 1,6,-1
 7 5 l 1,7,-1
 6 5 l 1,8,-1
 6 6 l 1,9,-1
 4 6 l 1,10,-1
 4 4 l 1,11,-1
 6 4 l 1,12,-1
 6 3 l 1,13,-1
 4 3 l 1,14,-1
 4 1 l 1,15,-1
 6 1 l 1,16,-1
 6 2 l 1,17,-1
 7 2 l 1,18,-1
 7 0 l 1,19,-1
 2 0 l 1,4,-1
EndSplineSet
Validated: 1
EndChar

StartChar: Etatonos
Encoding: 905 905 383
Width: 8
GlyphClass: 2
Flags: W
LayerCount: 2
Fore
SplineSet
0 5 m 1,0,-1
 0 7 l 1,1,-1
 1 7 l 1,2,-1
 1 5 l 1,3,-1
 0 5 l 1,0,-1
2 0 m 1,4,-1
 2 7 l 1,5,-1
 4 7 l 1,6,-1
 4 4 l 1,7,-1
 5 4 l 1,8,-1
 5 7 l 1,9,-1
 7 7 l 1,10,-1
 7 0 l 1,11,-1
 5 0 l 1,12,-1
 5 3 l 1,13,-1
 4 3 l 1,14,-1
 4 0 l 1,15,-1
 2 0 l 1,4,-1
EndSplineSet
Validated: 1
EndChar

StartChar: Iotatonos
Encoding: 906 906 384
Width: 8
GlyphClass: 2
Flags: W
LayerCount: 2
Fore
SplineSet
0 5 m 1,0,-1
 0 7 l 1,1,-1
 1 7 l 1,2,-1
 1 5 l 1,3,-1
 0 5 l 1,0,-1
2 0 m 1,4,-1
 2 1 l 1,5,-1
 3 1 l 1,6,-1
 3 6 l 1,7,-1
 2 6 l 1,8,-1
 2 7 l 1,9,-1
 6 7 l 1,10,-1
 6 6 l 1,11,-1
 5 6 l 1,12,-1
 5 1 l 1,13,-1
 6 1 l 1,14,-1
 6 0 l 1,15,-1
 2 0 l 1,4,-1
EndSplineSet
Validated: 1
EndChar

StartChar: Omicrontonos
Encoding: 908 908 385
Width: 8
GlyphClass: 2
Flags: W
LayerCount: 2
Fore
SplineSet
0 2 m 1,0,-1
 0 5 l 1,1,-1
 1 5 l 1,2,-1
 1 6 l 1,3,-1
 2 6 l 1,4,-1
 2 7 l 1,5,-1
 5 7 l 1,6,-1
 5 6 l 1,7,-1
 6 6 l 1,8,-1
 6 5 l 1,9,-1
 7 5 l 1,10,-1
 7 2 l 1,11,-1
 6 2 l 1,12,-1
 6 1 l 1,13,-1
 5 1 l 1,14,-1
 5 0 l 1,15,-1
 2 0 l 1,16,-1
 2 1 l 1,17,-1
 1 1 l 1,18,-1
 1 2 l 1,19,-1
 0 2 l 1,0,-1
0 6 m 1,20,-1
 0 7 l 1,21,-1
 1 7 l 1,22,-1
 1 6 l 1,23,-1
 0 6 l 1,20,-1
2 2 m 1,24,-1
 3 2 l 1,25,-1
 3 1 l 1,26,-1
 4 1 l 1,27,-1
 4 2 l 1,28,-1
 5 2 l 1,29,-1
 5 5 l 1,30,-1
 4 5 l 1,31,-1
 4 6 l 1,32,-1
 3 6 l 1,33,-1
 3 5 l 1,34,-1
 2 5 l 1,35,-1
 2 2 l 1,24,-1
EndSplineSet
Validated: 5
EndChar

StartChar: Upsilontonos
Encoding: 910 910 386
Width: 8
GlyphClass: 2
Flags: W
LayerCount: 2
Fore
SplineSet
0 5 m 1,0,-1
 0 7 l 1,1,-1
 1 7 l 1,2,-1
 1 5 l 1,3,-1
 0 5 l 1,0,-1
2 4 m 1,4,-1
 2 7 l 1,5,-1
 4 7 l 1,6,-1
 4 4 l 1,7,-1
 5 4 l 1,8,-1
 5 7 l 1,9,-1
 7 7 l 1,10,-1
 7 4 l 1,11,-1
 6 4 l 1,12,-1
 6 3 l 1,13,-1
 5 3 l 1,14,-1
 5 1 l 1,15,-1
 6 1 l 1,16,-1
 6 0 l 1,17,-1
 3 0 l 1,18,-1
 3 1 l 1,19,-1
 4 1 l 1,20,-1
 4 3 l 1,21,-1
 3 3 l 1,22,-1
 3 4 l 1,23,-1
 2 4 l 1,4,-1
EndSplineSet
Validated: 1
EndChar

StartChar: Omegatonos
Encoding: 911 911 387
Width: 8
GlyphClass: 2
Flags: W
LayerCount: 2
Fore
SplineSet
0 0 m 1,0,-1
 0 1 l 1,1,-1
 1 1 l 1,2,-1
 1 2 l 1,3,-1
 0 2 l 1,4,-1
 0 5 l 1,5,-1
 1 5 l 1,6,-1
 1 6 l 1,7,-1
 2 6 l 1,8,-1
 2 7 l 1,9,-1
 5 7 l 1,10,-1
 5 6 l 1,11,-1
 6 6 l 1,12,-1
 6 5 l 1,13,-1
 7 5 l 1,14,-1
 7 2 l 1,15,-1
 6 2 l 1,16,-1
 6 1 l 1,17,-1
 7 1 l 1,18,-1
 7 0 l 1,19,-1
 4 0 l 1,20,-1
 4 2 l 1,21,-1
 5 2 l 1,22,-1
 5 5 l 1,23,-1
 4 5 l 1,24,-1
 4 6 l 1,25,-1
 3 6 l 1,26,-1
 3 5 l 1,27,-1
 2 5 l 1,28,-1
 2 2 l 1,29,-1
 3 2 l 1,30,-1
 3 0 l 1,31,-1
 0 0 l 1,0,-1
0 6 m 1,32,-1
 0 7 l 1,33,-1
 1 7 l 1,34,-1
 1 6 l 1,35,-1
 0 6 l 1,32,-1
EndSplineSet
Validated: 5
EndChar

StartChar: iotadieresistonos
Encoding: 912 912 388
Width: 8
GlyphClass: 2
Flags: W
LayerCount: 2
Fore
SplineSet
0 5 m 1,0,-1
 0 6 l 1,1,-1
 2 6 l 1,2,-1
 2 5 l 1,3,-1
 0 5 l 1,0,-1
8 5 m 1,4,-1
 6 5 l 1,5,-1
 6 6 l 1,6,-1
 8 6 l 1,7,-1
 8 5 l 1,4,-1
3 1 m 1,8,-1
 3 5 l 1,9,-1
 5 5 l 1,10,-1
 5 1 l 1,11,-1
 6 1 l 1,12,-1
 6 0 l 1,13,-1
 4 0 l 1,14,-1
 4 1 l 1,15,-1
 3 1 l 1,8,-1
4 6 m 1,16,-1
 4 7 l 1,17,-1
 5 7 l 1,18,-1
 5 6 l 1,19,-1
 4 6 l 1,16,-1
EndSplineSet
Validated: 1
EndChar

StartChar: Alpha
Encoding: 913 913 389
Width: 8
GlyphClass: 2
Flags: W
LayerCount: 2
Fore
SplineSet
0 0 m 1,0,-1
 0 5 l 1,1,-1
 1 5 l 1,2,-1
 1 6 l 1,3,-1
 2 6 l 1,4,-1
 2 7 l 1,5,-1
 4 7 l 1,6,-1
 4 6 l 1,7,-1
 5 6 l 1,8,-1
 5 5 l 1,9,-1
 6 5 l 1,10,-1
 6 0 l 1,11,-1
 4 0 l 1,12,-1
 4 2 l 1,13,-1
 2 2 l 1,14,-1
 2 0 l 1,15,-1
 0 0 l 1,0,-1
2 5 m 1,16,-1
 2 3 l 1,17,-1
 4 3 l 1,18,-1
 4 5 l 1,19,-1
 2 5 l 1,16,-1
EndSplineSet
Validated: 1
EndChar

StartChar: Beta
Encoding: 914 914 390
Width: 8
GlyphClass: 2
Flags: W
LayerCount: 2
Fore
SplineSet
0 0 m 1,0,-1
 0 1 l 1,1,-1
 1 1 l 1,2,-1
 1 6 l 1,3,-1
 0 6 l 1,4,-1
 0 7 l 1,5,-1
 6 7 l 1,6,-1
 6 6 l 1,7,-1
 7 6 l 1,8,-1
 7 4 l 1,9,-1
 6 4 l 1,10,-1
 6 3 l 1,11,-1
 7 3 l 1,12,-1
 7 1 l 1,13,-1
 6 1 l 1,14,-1
 6 0 l 1,15,-1
 0 0 l 1,0,-1
3 1 m 1,16,-1
 5 1 l 1,17,-1
 5 3 l 1,18,-1
 3 3 l 1,19,-1
 3 1 l 1,16,-1
3 4 m 1,20,-1
 5 4 l 1,21,-1
 5 6 l 1,22,-1
 3 6 l 1,23,-1
 3 4 l 1,20,-1
EndSplineSet
Validated: 1
EndChar

StartChar: Gamma
Encoding: 915 915 391
Width: 8
GlyphClass: 2
Flags: W
LayerCount: 2
Fore
SplineSet
0 0 m 1,0,-1
 0 7 l 1,1,-1
 6 7 l 1,2,-1
 6 5 l 1,3,-1
 4 5 l 1,4,-1
 4 6 l 1,5,-1
 2 6 l 1,6,-1
 2 0 l 1,7,-1
 0 0 l 1,0,-1
EndSplineSet
Validated: 1
EndChar

StartChar: uni0394
Encoding: 916 916 392
Width: 8
GlyphClass: 2
Flags: W
LayerCount: 2
Fore
SplineSet
0 0 m 1,0,-1
 0 4 l 1,1,-1
 1 4 l 1,2,-1
 1 5 l 1,3,-1
 2 5 l 1,4,-1
 2 6 l 1,5,-1
 3 6 l 1,6,-1
 3 7 l 1,7,-1
 4 7 l 1,8,-1
 4 6 l 1,9,-1
 5 6 l 1,10,-1
 5 5 l 1,11,-1
 6 5 l 1,12,-1
 6 4 l 1,13,-1
 7 4 l 1,14,-1
 7 0 l 1,15,-1
 0 0 l 1,0,-1
2 1 m 1,16,-1
 5 1 l 1,17,-1
 5 4 l 1,18,-1
 4 4 l 1,19,-1
 4 5 l 1,20,-1
 3 5 l 1,21,-1
 3 4 l 1,22,-1
 2 4 l 1,23,-1
 2 1 l 1,16,-1
EndSplineSet
Validated: 1
EndChar

StartChar: Epsilon
Encoding: 917 917 393
Width: 8
GlyphClass: 2
Flags: W
LayerCount: 2
Fore
SplineSet
0 0 m 1,0,-1
 0 1 l 1,1,-1
 1 1 l 1,2,-1
 1 6 l 1,3,-1
 0 6 l 1,4,-1
 0 7 l 1,5,-1
 7 7 l 1,6,-1
 7 5 l 1,7,-1
 6 5 l 1,8,-1
 6 6 l 1,9,-1
 3 6 l 1,10,-1
 3 4 l 1,11,-1
 4 4 l 1,12,-1
 4 5 l 1,13,-1
 5 5 l 1,14,-1
 5 2 l 1,15,-1
 4 2 l 1,16,-1
 4 3 l 1,17,-1
 3 3 l 1,18,-1
 3 1 l 1,19,-1
 6 1 l 1,20,-1
 6 2 l 1,21,-1
 7 2 l 1,22,-1
 7 0 l 1,23,-1
 0 0 l 1,0,-1
EndSplineSet
Validated: 1
EndChar

StartChar: Zeta
Encoding: 918 918 394
Width: 8
GlyphClass: 2
Flags: W
LayerCount: 2
Fore
SplineSet
0 0 m 1,0,-1
 0 1 l 1,1,-1
 1 1 l 1,2,-1
 1 2 l 1,3,-1
 2 2 l 1,4,-1
 2 3 l 1,5,-1
 3 3 l 1,6,-1
 3 4 l 1,7,-1
 4 4 l 1,8,-1
 4 5 l 1,9,-1
 5 5 l 1,10,-1
 5 6 l 1,11,-1
 2 6 l 1,12,-1
 2 5 l 1,13,-1
 1 5 l 1,14,-1
 1 4 l 1,15,-1
 0 4 l 1,16,-1
 0 7 l 1,17,-1
 7 7 l 1,18,-1
 7 5 l 1,19,-1
 6 5 l 1,20,-1
 6 4 l 1,21,-1
 5 4 l 1,22,-1
 5 3 l 1,23,-1
 4 3 l 1,24,-1
 4 2 l 1,25,-1
 3 2 l 1,26,-1
 3 1 l 1,27,-1
 5 1 l 1,28,-1
 5 2 l 1,29,-1
 6 2 l 1,30,-1
 6 3 l 1,31,-1
 7 3 l 1,32,-1
 7 0 l 1,33,-1
 0 0 l 1,0,-1
EndSplineSet
Validated: 1
EndChar

StartChar: Eta
Encoding: 919 919 395
Width: 8
GlyphClass: 2
Flags: W
LayerCount: 2
Fore
SplineSet
0 0 m 1,0,-1
 0 7 l 1,1,-1
 2 7 l 1,2,-1
 2 4 l 1,3,-1
 4 4 l 1,4,-1
 4 7 l 1,5,-1
 6 7 l 1,6,-1
 6 0 l 1,7,-1
 4 0 l 1,8,-1
 4 3 l 1,9,-1
 2 3 l 1,10,-1
 2 0 l 1,11,-1
 0 0 l 1,0,-1
EndSplineSet
Validated: 1
EndChar

StartChar: Theta
Encoding: 920 920 396
Width: 8
GlyphClass: 2
Flags: W
LayerCount: 2
Fore
SplineSet
0 2 m 1,0,-1
 0 5 l 1,1,-1
 1 5 l 1,2,-1
 1 6 l 1,3,-1
 2 6 l 1,4,-1
 2 7 l 1,5,-1
 5 7 l 1,6,-1
 5 6 l 1,7,-1
 6 6 l 1,8,-1
 6 5 l 1,9,-1
 7 5 l 1,10,-1
 7 2 l 1,11,-1
 6 2 l 1,12,-1
 6 1 l 1,13,-1
 5 1 l 1,14,-1
 5 0 l 1,15,-1
 2 0 l 1,16,-1
 2 1 l 1,17,-1
 1 1 l 1,18,-1
 1 2 l 1,19,-1
 0 2 l 1,0,-1
2 2 m 1,20,-1
 3 2 l 1,21,-1
 3 1 l 1,22,-1
 4 1 l 1,23,-1
 4 2 l 1,24,-1
 5 2 l 1,25,-1
 5 3 l 1,26,-1
 2 3 l 1,27,-1
 2 2 l 1,20,-1
2 5 m 1,28,-1
 2 4 l 1,29,-1
 5 4 l 1,30,-1
 5 5 l 1,31,-1
 4 5 l 1,32,-1
 4 6 l 1,33,-1
 3 6 l 1,34,-1
 3 5 l 1,35,-1
 2 5 l 1,28,-1
EndSplineSet
Validated: 1
EndChar

